<?xml version="1.0" encoding="utf-8" standalone="no"?>
<!DOCTYPE svg PUBLIC "-//W3C//DTD SVG 1.1//EN"
  "http://www.w3.org/Graphics/SVG/1.1/DTD/svg11.dtd">
<svg xmlns:xlink="http://www.w3.org/1999/xlink" width="414.597656pt" height="388.992031pt" viewBox="0 0 414.597656 388.992031" xmlns="http://www.w3.org/2000/svg" version="1.1">
 <metadata>
  <rdf:RDF xmlns:dc="http://purl.org/dc/elements/1.1/" xmlns:cc="http://creativecommons.org/ns#" xmlns:rdf="http://www.w3.org/1999/02/22-rdf-syntax-ns#">
   <cc:Work>
    <dc:type rdf:resource="http://purl.org/dc/dcmitype/StillImage"/>
    <dc:date>2024-08-12T19:56:37.430146</dc:date>
    <dc:format>image/svg+xml</dc:format>
    <dc:creator>
     <cc:Agent>
      <dc:title>Matplotlib v3.7.1, https://matplotlib.org/</dc:title>
     </cc:Agent>
    </dc:creator>
   </cc:Work>
  </rdf:RDF>
 </metadata>
 <defs>
  <style type="text/css">*{stroke-linejoin: round; stroke-linecap: butt}</style>
 </defs>
 <g id="figure_1">
  <g id="patch_1">
   <path d="M 0 388.992031 
L 414.597656 388.992031 
L 414.597656 0 
L 0 0 
z
" style="fill: #ffffff"/>
  </g>
  <g id="axes_1">
   <g id="patch_2">
    <path d="M 58.975 170.610469 
L 393.775 170.610469 
L 393.775 12.210469 
L 58.975 12.210469 
z
" style="fill: #ffffff"/>
   </g>
   <g id="matplotlib.axis_1">
    <g id="xtick_1">
     <g id="line2d_1">
      <defs>
       <path id="mb4f7ce1a10" d="M 0 0 
L 0 3.5 
" style="stroke: #000000; stroke-width: 0.8"/>
      </defs>
      <g>
       <use xlink:href="#mb4f7ce1a10" x="58.975" y="170.610469" style="stroke: #000000; stroke-width: 0.8"/>
      </g>
     </g>
    </g>
    <g id="xtick_2">
     <g id="line2d_2">
      <g>
       <use xlink:href="#mb4f7ce1a10" x="226.375" y="170.610469" style="stroke: #000000; stroke-width: 0.8"/>
      </g>
     </g>
    </g>
    <g id="xtick_3">
     <g id="line2d_3">
      <g>
       <use xlink:href="#mb4f7ce1a10" x="393.775" y="170.610469" style="stroke: #000000; stroke-width: 0.8"/>
      </g>
     </g>
    </g>
   </g>
   <g id="matplotlib.axis_2">
    <g id="ytick_1">
     <g id="line2d_4">
      <defs>
       <path id="m6ccf50e582" d="M 0 0 
L -3.5 0 
" style="stroke: #000000; stroke-width: 0.8"/>
      </defs>
      <g>
       <use xlink:href="#m6ccf50e582" x="58.975" y="170.610469" style="stroke: #000000; stroke-width: 0.8"/>
      </g>
     </g>
     <g id="text_1">
      <!-- −0.2 -->
      <g transform="translate(24.338125 175.620937) scale(0.14 -0.14)">
       <defs>
        <path id="ArialMT-2212" d="M 3381 1997 
L 356 1997 
L 356 2522 
L 3381 2522 
L 3381 1997 
z
" transform="scale(0.015625)"/>
        <path id="ArialMT-30" d="M 266 2259 
Q 266 3072 433 3567 
Q 600 4063 929 4331 
Q 1259 4600 1759 4600 
Q 2128 4600 2406 4451 
Q 2684 4303 2865 4023 
Q 3047 3744 3150 3342 
Q 3253 2941 3253 2259 
Q 3253 1453 3087 958 
Q 2922 463 2592 192 
Q 2263 -78 1759 -78 
Q 1097 -78 719 397 
Q 266 969 266 2259 
z
M 844 2259 
Q 844 1131 1108 757 
Q 1372 384 1759 384 
Q 2147 384 2411 759 
Q 2675 1134 2675 2259 
Q 2675 3391 2411 3762 
Q 2147 4134 1753 4134 
Q 1366 4134 1134 3806 
Q 844 3388 844 2259 
z
" transform="scale(0.015625)"/>
        <path id="ArialMT-2e" d="M 581 0 
L 581 641 
L 1222 641 
L 1222 0 
L 581 0 
z
" transform="scale(0.015625)"/>
        <path id="ArialMT-32" d="M 3222 541 
L 3222 0 
L 194 0 
Q 188 203 259 391 
Q 375 700 629 1000 
Q 884 1300 1366 1694 
Q 2113 2306 2375 2664 
Q 2638 3022 2638 3341 
Q 2638 3675 2398 3904 
Q 2159 4134 1775 4134 
Q 1369 4134 1125 3890 
Q 881 3647 878 3216 
L 300 3275 
Q 359 3922 746 4261 
Q 1134 4600 1788 4600 
Q 2447 4600 2831 4234 
Q 3216 3869 3216 3328 
Q 3216 3053 3103 2787 
Q 2991 2522 2730 2228 
Q 2469 1934 1863 1422 
Q 1356 997 1212 845 
Q 1069 694 975 541 
L 3222 541 
z
" transform="scale(0.015625)"/>
       </defs>
       <use xlink:href="#ArialMT-2212"/>
       <use xlink:href="#ArialMT-30" x="58.398438"/>
       <use xlink:href="#ArialMT-2e" x="114.013672"/>
       <use xlink:href="#ArialMT-32" x="141.796875"/>
      </g>
     </g>
    </g>
    <g id="ytick_2">
     <g id="line2d_5">
      <g>
       <use xlink:href="#m6ccf50e582" x="58.975" y="91.410469" style="stroke: #000000; stroke-width: 0.8"/>
      </g>
     </g>
     <g id="text_2">
      <!-- 0.0 -->
      <g transform="translate(32.515 96.420937) scale(0.14 -0.14)">
       <use xlink:href="#ArialMT-30"/>
       <use xlink:href="#ArialMT-2e" x="55.615234"/>
       <use xlink:href="#ArialMT-30" x="83.398438"/>
      </g>
     </g>
    </g>
    <g id="ytick_3">
     <g id="line2d_6">
      <g>
       <use xlink:href="#m6ccf50e582" x="58.975" y="12.210469" style="stroke: #000000; stroke-width: 0.8"/>
      </g>
     </g>
     <g id="text_3">
      <!-- 0.2 -->
      <g transform="translate(32.515 17.220937) scale(0.14 -0.14)">
       <use xlink:href="#ArialMT-30"/>
       <use xlink:href="#ArialMT-2e" x="55.615234"/>
       <use xlink:href="#ArialMT-32" x="83.398438"/>
      </g>
     </g>
    </g>
    <g id="text_4">
     <!-- Photovoltage (V) -->
     <g transform="translate(17.391562 143.548437) rotate(-90) scale(0.14 -0.14)">
      <defs>
       <path id="ArialMT-50" d="M 494 0 
L 494 4581 
L 2222 4581 
Q 2678 4581 2919 4538 
Q 3256 4481 3484 4323 
Q 3713 4166 3852 3881 
Q 3991 3597 3991 3256 
Q 3991 2672 3619 2267 
Q 3247 1863 2275 1863 
L 1100 1863 
L 1100 0 
L 494 0 
z
M 1100 2403 
L 2284 2403 
Q 2872 2403 3119 2622 
Q 3366 2841 3366 3238 
Q 3366 3525 3220 3729 
Q 3075 3934 2838 4000 
Q 2684 4041 2272 4041 
L 1100 4041 
L 1100 2403 
z
" transform="scale(0.015625)"/>
       <path id="ArialMT-68" d="M 422 0 
L 422 4581 
L 984 4581 
L 984 2938 
Q 1378 3394 1978 3394 
Q 2347 3394 2619 3248 
Q 2891 3103 3008 2847 
Q 3125 2591 3125 2103 
L 3125 0 
L 2563 0 
L 2563 2103 
Q 2563 2525 2380 2717 
Q 2197 2909 1863 2909 
Q 1613 2909 1392 2779 
Q 1172 2650 1078 2428 
Q 984 2206 984 1816 
L 984 0 
L 422 0 
z
" transform="scale(0.015625)"/>
       <path id="ArialMT-6f" d="M 213 1659 
Q 213 2581 725 3025 
Q 1153 3394 1769 3394 
Q 2453 3394 2887 2945 
Q 3322 2497 3322 1706 
Q 3322 1066 3130 698 
Q 2938 331 2570 128 
Q 2203 -75 1769 -75 
Q 1072 -75 642 372 
Q 213 819 213 1659 
z
M 791 1659 
Q 791 1022 1069 705 
Q 1347 388 1769 388 
Q 2188 388 2466 706 
Q 2744 1025 2744 1678 
Q 2744 2294 2464 2611 
Q 2184 2928 1769 2928 
Q 1347 2928 1069 2612 
Q 791 2297 791 1659 
z
" transform="scale(0.015625)"/>
       <path id="ArialMT-74" d="M 1650 503 
L 1731 6 
Q 1494 -44 1306 -44 
Q 1000 -44 831 53 
Q 663 150 594 308 
Q 525 466 525 972 
L 525 2881 
L 113 2881 
L 113 3319 
L 525 3319 
L 525 4141 
L 1084 4478 
L 1084 3319 
L 1650 3319 
L 1650 2881 
L 1084 2881 
L 1084 941 
Q 1084 700 1114 631 
Q 1144 563 1211 522 
Q 1278 481 1403 481 
Q 1497 481 1650 503 
z
" transform="scale(0.015625)"/>
       <path id="ArialMT-76" d="M 1344 0 
L 81 3319 
L 675 3319 
L 1388 1331 
Q 1503 1009 1600 663 
Q 1675 925 1809 1294 
L 2547 3319 
L 3125 3319 
L 1869 0 
L 1344 0 
z
" transform="scale(0.015625)"/>
       <path id="ArialMT-6c" d="M 409 0 
L 409 4581 
L 972 4581 
L 972 0 
L 409 0 
z
" transform="scale(0.015625)"/>
       <path id="ArialMT-61" d="M 2588 409 
Q 2275 144 1986 34 
Q 1697 -75 1366 -75 
Q 819 -75 525 192 
Q 231 459 231 875 
Q 231 1119 342 1320 
Q 453 1522 633 1644 
Q 813 1766 1038 1828 
Q 1203 1872 1538 1913 
Q 2219 1994 2541 2106 
Q 2544 2222 2544 2253 
Q 2544 2597 2384 2738 
Q 2169 2928 1744 2928 
Q 1347 2928 1158 2789 
Q 969 2650 878 2297 
L 328 2372 
Q 403 2725 575 2942 
Q 747 3159 1072 3276 
Q 1397 3394 1825 3394 
Q 2250 3394 2515 3294 
Q 2781 3194 2906 3042 
Q 3031 2891 3081 2659 
Q 3109 2516 3109 2141 
L 3109 1391 
Q 3109 606 3145 398 
Q 3181 191 3288 0 
L 2700 0 
Q 2613 175 2588 409 
z
M 2541 1666 
Q 2234 1541 1622 1453 
Q 1275 1403 1131 1340 
Q 988 1278 909 1158 
Q 831 1038 831 891 
Q 831 666 1001 516 
Q 1172 366 1500 366 
Q 1825 366 2078 508 
Q 2331 650 2450 897 
Q 2541 1088 2541 1459 
L 2541 1666 
z
" transform="scale(0.015625)"/>
       <path id="ArialMT-67" d="M 319 -275 
L 866 -356 
Q 900 -609 1056 -725 
Q 1266 -881 1628 -881 
Q 2019 -881 2231 -725 
Q 2444 -569 2519 -288 
Q 2563 -116 2559 434 
Q 2191 0 1641 0 
Q 956 0 581 494 
Q 206 988 206 1678 
Q 206 2153 378 2554 
Q 550 2956 876 3175 
Q 1203 3394 1644 3394 
Q 2231 3394 2613 2919 
L 2613 3319 
L 3131 3319 
L 3131 450 
Q 3131 -325 2973 -648 
Q 2816 -972 2473 -1159 
Q 2131 -1347 1631 -1347 
Q 1038 -1347 672 -1080 
Q 306 -813 319 -275 
z
M 784 1719 
Q 784 1066 1043 766 
Q 1303 466 1694 466 
Q 2081 466 2343 764 
Q 2606 1063 2606 1700 
Q 2606 2309 2336 2618 
Q 2066 2928 1684 2928 
Q 1309 2928 1046 2623 
Q 784 2319 784 1719 
z
" transform="scale(0.015625)"/>
       <path id="ArialMT-65" d="M 2694 1069 
L 3275 997 
Q 3138 488 2766 206 
Q 2394 -75 1816 -75 
Q 1088 -75 661 373 
Q 234 822 234 1631 
Q 234 2469 665 2931 
Q 1097 3394 1784 3394 
Q 2450 3394 2872 2941 
Q 3294 2488 3294 1666 
Q 3294 1616 3291 1516 
L 816 1516 
Q 847 969 1125 678 
Q 1403 388 1819 388 
Q 2128 388 2347 550 
Q 2566 713 2694 1069 
z
M 847 1978 
L 2700 1978 
Q 2663 2397 2488 2606 
Q 2219 2931 1791 2931 
Q 1403 2931 1139 2672 
Q 875 2413 847 1978 
z
" transform="scale(0.015625)"/>
       <path id="ArialMT-20" transform="scale(0.015625)"/>
       <path id="ArialMT-28" d="M 1497 -1347 
Q 1031 -759 709 28 
Q 388 816 388 1659 
Q 388 2403 628 3084 
Q 909 3875 1497 4659 
L 1900 4659 
Q 1522 4009 1400 3731 
Q 1209 3300 1100 2831 
Q 966 2247 966 1656 
Q 966 153 1900 -1347 
L 1497 -1347 
z
" transform="scale(0.015625)"/>
       <path id="ArialMT-56" d="M 1803 0 
L 28 4581 
L 684 4581 
L 1875 1253 
Q 2019 853 2116 503 
Q 2222 878 2363 1253 
L 3600 4581 
L 4219 4581 
L 2425 0 
L 1803 0 
z
" transform="scale(0.015625)"/>
       <path id="ArialMT-29" d="M 791 -1347 
L 388 -1347 
Q 1322 153 1322 1656 
Q 1322 2244 1188 2822 
Q 1081 3291 891 3722 
Q 769 4003 388 4659 
L 791 4659 
Q 1378 3875 1659 3084 
Q 1900 2403 1900 1659 
Q 1900 816 1576 28 
Q 1253 -759 791 -1347 
z
" transform="scale(0.015625)"/>
      </defs>
      <use xlink:href="#ArialMT-50"/>
      <use xlink:href="#ArialMT-68" x="66.699219"/>
      <use xlink:href="#ArialMT-6f" x="122.314453"/>
      <use xlink:href="#ArialMT-74" x="177.929688"/>
      <use xlink:href="#ArialMT-6f" x="205.712891"/>
      <use xlink:href="#ArialMT-76" x="261.328125"/>
      <use xlink:href="#ArialMT-6f" x="311.328125"/>
      <use xlink:href="#ArialMT-6c" x="366.943359"/>
      <use xlink:href="#ArialMT-74" x="389.160156"/>
      <use xlink:href="#ArialMT-61" x="416.943359"/>
      <use xlink:href="#ArialMT-67" x="472.558594"/>
      <use xlink:href="#ArialMT-65" x="528.173828"/>
      <use xlink:href="#ArialMT-20" x="583.789062"/>
      <use xlink:href="#ArialMT-28" x="611.572266"/>
      <use xlink:href="#ArialMT-56" x="644.873047"/>
      <use xlink:href="#ArialMT-29" x="711.572266"/>
     </g>
    </g>
   </g>
   <g id="line2d_7">
    <path d="M 58.9471 115.830241 
L 59.9515 116.752161 
L 60.6769 117.177467 
L 61.0954 117.191645 
L 61.4302 116.989045 
L 61.7929 116.471936 
L 62.1835 115.478103 
L 62.6299 113.697635 
L 63.2158 110.320606 
L 65.2246 97.633182 
L 65.5873 96.85524 
L 65.8384 96.737544 
L 66.0616 96.908798 
L 66.3406 97.451076 
L 66.7591 98.809745 
L 67.7356 103.042595 
L 68.4331 105.481669 
L 68.9074 106.409648 
L 69.2701 106.692081 
L 69.577 106.676337 
L 69.9397 106.419429 
L 70.4977 105.698339 
L 72.3112 103.141501 
L 72.8692 102.783505 
L 73.3714 102.716841 
L 73.9294 102.882275 
L 75.5755 103.540358 
L 76.0498 103.39208 
L 76.5241 103.000056 
L 77.1658 102.140142 
L 78.3655 100.471369 
L 78.7561 100.283762 
L 79.063 100.365215 
L 79.3978 100.722206 
L 79.7884 101.512792 
L 80.3185 103.177654 
L 81.7693 108.144882 
L 82.0204 108.320239 
L 82.1878 108.209523 
L 82.411 107.74216 
L 82.7179 106.457719 
L 83.1085 103.736644 
L 83.6665 98.0361 
L 85.8148 74.001176 
L 86.3728 70.845791 
L 86.8471 69.268369 
L 87.2935 68.470947 
L 87.712 68.130429 
L 88.1863 68.029425 
L 88.8838 68.137201 
L 91.4227 68.903777 
L 95.7751 70.307445 
L 97.0585 70.306023 
L 101.1877 70.120385 
L 105.5401 70.258215 
L 106.3213 70.664894 
L 107.3536 71.491054 
L 108.5533 72.387356 
L 109.2229 72.614287 
L 109.8646 72.593839 
L 110.7016 72.312485 
L 112.0687 71.84235 
L 112.7941 71.847115 
L 113.5474 72.082549 
L 114.8029 72.764814 
L 116.5606 73.859079 
L 117.007 74.549112 
L 117.4255 75.626894 
L 117.8998 77.519166 
L 118.4578 80.797194 
L 119.1274 86.211116 
L 120.1039 96.189049 
L 121.3873 108.980265 
L 121.9453 112.494258 
L 122.308 113.644599 
L 122.5312 113.851728 
L 122.6986 113.749598 
L 122.9218 113.27322 
L 123.2287 112.01213 
L 123.6751 109.083143 
L 124.3726 102.758432 
L 125.8513 89.142986 
L 126.5488 84.828854 
L 127.1626 82.307088 
L 127.7206 80.884099 
L 128.167 80.272349 
L 128.5297 80.108045 
L 128.8366 80.202781 
L 129.1714 80.552219 
L 129.5899 81.351292 
L 130.0921 82.844088 
L 130.678 85.331778 
L 131.4034 89.480158 
L 133.6354 103.177862 
L 134.1655 104.781271 
L 134.6119 105.511409 
L 135.0304 105.794796 
L 135.4489 105.808973 
L 136.0069 105.581203 
L 136.8997 104.945004 
L 137.9599 103.916731 
L 139.1596 102.407999 
L 141.2242 99.790808 
L 142.0333 99.140385 
L 142.7587 98.836645 
L 143.7631 98.693056 
L 145.2139 98.68686 
L 145.9951 98.926973 
L 147.2506 99.347209 
L 147.7249 99.228606 
L 148.1713 98.879275 
L 148.7293 98.136277 
L 150.1801 96.053536 
L 150.5428 95.961683 
L 150.8497 96.122486 
L 151.2124 96.603737 
L 151.6867 97.651975 
L 152.5516 100.239121 
L 153.5839 103.094736 
L 154.2256 104.248218 
L 154.6999 104.707642 
L 155.1184 104.822843 
L 155.509 104.697716 
L 155.9833 104.291718 
L 156.6808 103.357145 
L 159.3592 99.470423 
L 159.694 99.456983 
L 159.973 99.670975 
L 160.3078 100.246705 
L 160.7263 101.495475 
L 161.2564 103.861132 
L 162.9304 111.970909 
L 163.2652 112.471067 
L 163.4605 112.472946 
L 163.6837 112.214387 
L 163.9906 111.440139 
L 164.4649 109.502417 
L 166.2226 101.596221 
L 166.8364 100.133142 
L 167.7292 98.676758 
L 168.4825 97.269258 
L 169.2358 95.326331 
L 170.9377 90.741478 
L 171.6073 89.669705 
L 172.3606 88.891527 
L 173.2813 88.264478 
L 174.0346 87.993716 
L 174.6205 87.997323 
L 175.0948 88.21098 
L 175.5412 88.671582 
L 175.9876 89.474869 
L 176.4898 90.870717 
L 177.1036 93.284113 
L 179.2798 102.59334 
L 179.6425 103.080573 
L 179.8936 103.116962 
L 180.1447 102.916095 
L 180.4795 102.326623 
L 181.0375 100.803675 
L 182.0977 97.899736 
L 182.7115 96.881223 
L 184.0228 94.969517 
L 184.6645 93.402916 
L 185.7247 90.075652 
L 186.7012 87.289354 
L 187.2592 86.275428 
L 187.7056 85.880321 
L 188.0683 85.83395 
L 188.4589 86.021004 
L 189.0448 86.600406 
L 190.105 87.657467 
L 190.6909 87.914329 
L 192.0022 88.341704 
L 192.4486 88.839022 
L 192.9229 89.71554 
L 193.5088 91.303373 
L 195.5455 97.345559 
L 195.9082 97.636968 
L 196.2151 97.620523 
L 196.5778 97.342601 
L 197.08 96.634233 
L 197.8333 95.153141 
L 198.5866 93.191786 
L 199.4236 90.328323 
L 202.3252 79.782944 
L 202.8553 78.799719 
L 203.2459 78.499566 
L 203.5528 78.522326 
L 203.9155 78.808194 
L 204.4456 79.576891 
L 205.5895 81.303447 
L 206.0359 81.592783 
L 206.4265 81.607071 
L 206.8729 81.384928 
L 207.4867 80.794623 
L 208.8817 79.368515 
L 209.3002 79.265281 
L 209.635 79.40261 
L 209.9977 79.819711 
L 210.4162 80.677916 
L 210.9742 82.405219 
L 212.8156 88.66674 
L 213.1783 89.09481 
L 213.4573 89.143191 
L 213.7363 88.959685 
L 214.099 88.421839 
L 214.657 87.133812 
L 216.1915 83.410208 
L 216.7495 82.683785 
L 217.2238 82.412287 
L 217.6702 82.411997 
L 218.2282 82.657381 
L 219.7906 83.469634 
L 220.8508 83.610298 
L 222.8317 83.715901 
L 224.7847 83.497225 
L 225.6775 83.806441 
L 226.4029 83.969941 
L 226.8772 83.842403 
L 227.3515 83.462737 
L 228.1048 82.503741 
L 228.7744 81.801243 
L 229.165 81.696763 
L 229.4998 81.847463 
L 229.8904 82.300848 
L 230.4205 83.309387 
L 231.2296 85.404308 
L 233.2384 90.849599 
L 233.7127 91.42918 
L 234.1591 91.640681 
L 235.582 92.022136 
L 236.0284 92.59912 
L 236.5585 93.690652 
L 237.3118 95.830558 
L 238.6231 99.578915 
L 239.0974 100.285539 
L 239.4322 100.425172 
L 239.7112 100.290224 
L 240.046 99.82184 
L 240.4645 98.790221 
L 241.0504 96.65694 
L 242.9755 89.031635 
L 243.394 88.353693 
L 243.7288 88.173157 
L 244.0357 88.2493 
L 244.4542 88.622026 
L 245.347 89.827522 
L 246.6025 91.74246 
L 247.1326 93.074208 
L 247.6906 95.157155 
L 248.416 98.855362 
L 249.6436 105.132547 
L 250.09 106.375959 
L 250.3969 106.716299 
L 250.6201 106.689158 
L 250.8712 106.392332 
L 251.206 105.601804 
L 251.7082 103.764966 
L 253.3822 97.111311 
L 253.7728 96.477418 
L 254.0797 96.322462 
L 254.3866 96.408519 
L 255.5026 96.95493 
L 255.7816 96.71613 
L 256.1443 96.060205 
L 256.7023 94.473952 
L 257.7346 91.531602 
L 258.2368 90.766854 
L 258.7111 90.44012 
L 259.8829 89.8526 
L 260.3014 89.24438 
L 260.7757 88.127271 
L 261.4174 85.951924 
L 262.7845 81.105951 
L 263.203 80.411246 
L 263.482 80.293984 
L 263.7331 80.437034 
L 264.04 80.922429 
L 264.4585 82.075223 
L 265.0723 84.522821 
L 267.3322 94.209508 
L 267.8344 95.260919 
L 268.1692 95.550809 
L 268.4482 95.522097 
L 268.7272 95.24962 
L 269.0899 94.559158 
L 269.62 93.010673 
L 271.2661 87.819273 
L 271.6567 87.336245 
L 271.9636 87.278012 
L 272.2426 87.459407 
L 272.6332 88.019602 
L 274.1398 90.527878 
L 274.4467 90.564728 
L 274.7536 90.368601 
L 275.1442 89.819233 
L 275.7301 88.548098 
L 277.5436 84.358712 
L 278.1016 83.697035 
L 278.548 83.489011 
L 278.9386 83.545376 
L 279.3571 83.849884 
L 279.8314 84.499782 
L 280.3894 85.68114 
L 281.0869 87.738646 
L 283.1515 94.269493 
L 283.7095 95.15362 
L 284.2117 95.556493 
L 284.7697 95.714003 
L 287.1412 96.091795 
L 288.1456 96.259267 
L 288.8152 96.140694 
L 289.4848 95.787495 
L 291.661 94.426199 
L 292.0795 94.522869 
L 292.498 94.857582 
L 292.9444 95.522727 
L 293.4466 96.689795 
L 294.0604 98.722283 
L 294.8695 102.250711 
L 297.5758 114.727888 
L 298.1338 116.141853 
L 298.4965 116.572397 
L 298.7476 116.588744 
L 298.9987 116.343566 
L 299.3056 115.659831 
L 299.6962 114.159276 
L 300.2263 111.0883 
L 302.1514 98.766842 
L 302.4862 98.142588 
L 302.7094 98.115475 
L 302.9326 98.383489 
L 303.2395 99.174551 
L 303.7417 101.219606 
L 304.9972 106.600156 
L 305.4715 107.665195 
L 305.8621 108.059504 
L 306.2248 108.120923 
L 306.6712 107.944288 
L 308.401 107.047621 
L 309.4054 106.942427 
L 314.0926 106.876729 
L 314.5669 107.228239 
L 315.0412 107.881748 
L 315.5713 109.031328 
L 316.3804 111.438374 
L 317.1058 113.352801 
L 317.4406 113.72265 
L 317.6359 113.691119 
L 317.8591 113.385154 
L 318.1381 112.548052 
L 318.5008 110.648532 
L 318.9751 106.812599 
L 319.6726 99.065756 
L 321.1792 81.947688 
L 321.793 77.478155 
L 322.3231 75.051298 
L 322.7974 73.784573 
L 323.2438 73.142779 
L 323.7181 72.829587 
L 324.304 72.722612 
L 325.4479 72.800316 
L 327.3451 72.876628 
L 328.9075 72.963883 
L 329.7724 73.248027 
L 330.6652 73.792303 
L 332.2834 75.130631 
L 333.3157 75.805995 
L 334.2364 76.135792 
L 335.7709 76.386754 
L 338.8957 76.957435 
L 340.7929 77.535779 
L 345.7591 79.077139 
L 347.9074 79.447316 
L 350.1673 79.887071 
L 352.3714 80.630699 
L 357.5329 82.290348 
L 359.0674 82.492958 
L 361.3552 82.583465 
L 362.9455 82.412517 
L 364.1731 82.066214 
L 365.7076 81.357843 
L 367.0747 80.824378 
L 368.3302 80.589228 
L 370.7296 80.192676 
L 372.4594 79.825724 
L 372.9616 79.968761 
L 373.3801 80.330334 
L 373.7707 80.970152 
L 374.1892 82.097704 
L 374.6635 84.069428 
L 375.2215 87.440359 
L 376.0027 93.728586 
L 377.2024 103.289679 
L 377.7604 106.030634 
L 378.1789 107.151758 
L 378.5416 107.584493 
L 378.9043 107.684021 
L 379.9924 107.75488 
L 380.383 108.156834 
L 380.8852 109.049645 
L 382.7266 112.732601 
L 383.1172 112.955074 
L 383.452 112.911611 
L 383.8147 112.628892 
L 384.289 111.932136 
L 384.9586 110.478036 
L 386.3536 106.741344 
L 388.8367 100.260788 
L 389.3668 99.485881 
L 389.7295 99.298741 
L 390.0364 99.386018 
L 390.3712 99.732431 
L 390.8455 100.602532 
L 391.7383 102.857821 
L 392.6032 104.799617 
L 393.1891 105.618915 
L 393.7192 105.996556 
L 393.775 106.018977 
L 393.775 106.018977 
" clip-path="url(#pf33fd33520)" style="fill: none; stroke: #e84a4e; stroke-width: 1.5; stroke-linecap: square"/>
   </g>
   <g id="line2d_8">
    <path d="M 58.9471 89.444149 
L 62.0161 88.63882 
L 64.1365 87.894927 
L 64.5829 88.076538 
L 65.0293 88.520321 
L 65.5594 89.404098 
L 66.3685 91.274064 
L 67.2892 93.248425 
L 67.7635 93.794101 
L 68.1262 93.905598 
L 68.461 93.771659 
L 68.8795 93.326063 
L 69.5212 92.245243 
L 70.9441 89.776923 
L 71.6695 88.99182 
L 72.3391 88.573127 
L 72.925 88.454507 
L 73.4272 88.581696 
L 73.9015 88.946979 
L 74.4037 89.639897 
L 74.9896 90.871261 
L 75.7708 93.111004 
L 77.3332 97.696084 
L 77.8912 98.638489 
L 78.3376 99.007731 
L 78.7561 99.069423 
L 79.2025 98.893299 
L 79.8163 98.381805 
L 80.8765 97.156636 
L 82.1878 95.307196 
L 84.0292 92.679011 
L 84.7546 92.05696 
L 85.4242 91.76196 
L 86.1775 91.677053 
L 87.1819 91.802947 
L 90.2788 92.346936 
L 91.0879 92.136065 
L 92.1481 91.60265 
L 94.1848 90.549511 
L 95.2171 90.293843 
L 96.2494 90.270346 
L 97.7281 90.485214 
L 104.3683 91.657158 
L 106.2097 91.609212 
L 108.1627 91.334507 
L 109.5577 91.196126 
L 110.3947 91.345513 
L 111.2317 91.733775 
L 112.264 92.486136 
L 114.775 94.42551 
L 115.8073 94.87816 
L 116.9791 95.133775 
L 118.681 95.255653 
L 119.9923 95.13943 
L 121.471 94.761489 
L 125.4328 93.623529 
L 128.3623 93.013833 
L 129.1435 92.505523 
L 130.1758 91.536569 
L 133.4122 88.332858 
L 134.2213 87.924804 
L 135.0583 87.753015 
L 136.0348 87.792054 
L 137.0671 88.05852 
L 138.1273 88.574218 
L 140.8057 90.025067 
L 142.7866 90.794987 
L 143.6236 91.453303 
L 144.9628 92.858 
L 145.9114 93.698646 
L 146.4694 93.928468 
L 146.9437 93.897195 
L 147.418 93.641069 
L 148.0039 93.05221 
L 150.3754 90.341311 
L 151.2682 89.966738 
L 151.9657 89.577758 
L 152.5237 88.99278 
L 153.2491 87.861904 
L 154.4209 86.051472 
L 154.951 85.641287 
L 155.3974 85.566151 
L 155.8717 85.729046 
L 156.4855 86.203643 
L 158.3269 87.785283 
L 158.9407 87.953726 
L 159.5545 87.886941 
L 160.4473 87.526385 
L 161.3959 87.208628 
L 161.926 87.253979 
L 162.4003 87.51197 
L 162.9025 88.050088 
L 163.4884 89.032962 
L 164.2696 90.827717 
L 166.0552 95.078298 
L 166.6969 95.989858 
L 167.1991 96.355564 
L 167.6176 96.415596 
L 168.0361 96.249523 
L 168.4825 95.823629 
L 169.0405 94.948898 
L 169.7938 93.293115 
L 171.5794 89.220802 
L 172.2211 88.364725 
L 172.7512 88.000014 
L 173.2534 87.921663 
L 173.7835 88.071752 
L 174.5089 88.53457 
L 177.7453 91.158253 
L 179.0287 92.406593 
L 180.1447 93.818183 
L 181.6513 95.7267 
L 182.293 96.165847 
L 182.851 96.290238 
L 183.4369 96.194615 
L 184.1344 95.838661 
L 184.9156 95.17842 
L 185.8363 94.091306 
L 186.9802 92.371962 
L 188.8774 89.478664 
L 189.5191 88.933219 
L 190.0771 88.74172 
L 190.663 88.782035 
L 191.6953 89.137401 
L 192.6997 89.379683 
L 193.6762 89.363754 
L 195.0433 89.352088 
L 195.8524 89.603432 
L 197.1637 90.31065 
L 199.9258 91.720328 
L 200.9023 92.038798 
L 201.7393 92.069003 
L 203.1064 91.836412 
L 204.3898 91.723144 
L 205.3384 91.85731 
L 206.2312 92.208625 
L 207.2356 92.858716 
L 208.6585 94.090224 
L 209.635 94.80833 
L 210.193 94.964774 
L 210.6673 94.874365 
L 211.1695 94.533745 
L 211.7833 93.815327 
L 212.8714 92.113019 
L 214.099 90.340952 
L 214.936 89.511613 
L 215.6893 89.065964 
L 216.4705 88.858232 
L 217.3633 88.854899 
L 218.1724 89.061902 
L 218.8978 89.476703 
L 219.7348 90.23951 
L 221.2693 91.685543 
L 221.8831 91.930536 
L 222.469 91.927169 
L 223.2502 91.675133 
L 224.6731 91.196821 
L 225.4264 91.197079 
L 226.2076 91.421902 
L 227.0446 91.903484 
L 227.9932 92.730205 
L 229.8346 94.407166 
L 230.4763 94.656718 
L 231.0064 94.63459 
L 231.5365 94.375684 
L 232.1224 93.815006 
L 232.9594 92.655824 
L 234.2707 90.875916 
L 234.9682 90.313266 
L 235.6378 90.061579 
L 236.4748 90.008685 
L 239.6275 90.204095 
L 240.4087 90.603496 
L 243.3103 92.355388 
L 245.7934 93.51829 
L 248.1649 94.928974 
L 248.7229 94.893259 
L 249.253 94.633821 
L 249.8389 94.091657 
L 250.6201 93.034736 
L 252.6568 90.129396 
L 253.4659 89.428087 
L 254.1634 89.102036 
L 254.8051 89.03711 
L 255.5026 89.199041 
L 256.4512 89.677893 
L 258.1252 90.534104 
L 259.2691 90.818727 
L 260.7757 91.209499 
L 261.8638 91.75019 
L 263.1193 92.63139 
L 265.0444 94.023891 
L 265.6582 94.165651 
L 266.2162 94.067828 
L 266.8579 93.706887 
L 267.8065 92.867726 
L 270.8755 90.019175 
L 271.9915 89.222126 
L 272.7169 88.96015 
L 273.3865 88.950479 
L 274.1677 89.176464 
L 275.479 89.833353 
L 277.1251 90.864711 
L 278.3248 91.904972 
L 280.1662 93.527733 
L 280.9195 93.872913 
L 281.5891 93.93835 
L 282.3145 93.772893 
L 283.2631 93.305392 
L 285.4951 91.868666 
L 286.6669 91.276035 
L 287.6155 91.049058 
L 288.6199 91.040816 
L 289.9591 91.281946 
L 291.2704 91.445627 
L 292.4701 91.341571 
L 295.4833 90.76861 
L 300.8122 89.694839 
L 301.5097 89.837531 
L 302.1793 90.20917 
L 303.2116 91.09305 
L 304.1044 91.740441 
L 304.6624 91.889971 
L 305.1925 91.798518 
L 305.8063 91.441132 
L 307.006 90.393969 
L 308.0662 89.628352 
L 309.3217 89.030983 
L 310.8562 88.512151 
L 311.7769 88.433611 
L 312.6976 88.591759 
L 316.3804 89.51517 
L 320.0074 89.832751 
L 321.3466 90.179164 
L 324.3319 91.065275 
L 328.9075 91.811261 
L 330.6652 91.813114 
L 332.0323 91.588566 
L 334.1248 91.224466 
L 335.3245 91.28553 
L 336.859 91.612021 
L 338.7004 91.956209 
L 341.4904 92.136796 
L 343.0807 92.05552 
L 346.0381 91.797991 
L 348.2701 92.041389 
L 351.5902 92.533146 
L 353.7385 93.17385 
L 357.3934 94.324213 
L 358.5373 94.336197 
L 360.0439 94.104667 
L 365.317 93.140276 
L 368.3302 92.769499 
L 370.3111 92.717944 
L 374.3566 92.650023 
L 376.7281 92.412241 
L 377.9557 92.062946 
L 379.4065 91.388423 
L 382.5313 89.672125 
L 385.126 88.099981 
L 386.0746 87.805192 
L 386.8558 87.78254 
L 387.5812 87.983087 
L 388.3345 88.429425 
L 389.2831 89.274441 
L 391.0408 90.880614 
L 391.7662 91.210523 
L 392.4916 91.288482 
L 393.5518 91.137196 
L 393.775 91.095766 
L 393.775 91.095766 
" clip-path="url(#pf33fd33520)" style="fill: none; stroke: #51546b; stroke-width: 1.5; stroke-linecap: square"/>
   </g>
   <g id="line2d_9">
    <path d="M 58.9471 85.090692 
L 60.7606 87.125397 
L 61.4023 88.346579 
L 62.0719 90.147324 
L 62.7694 92.70365 
L 63.5506 96.470804 
L 64.5829 102.685261 
L 66.0058 111.148545 
L 66.5638 113.22354 
L 66.9265 113.89836 
L 67.1776 114.01608 
L 67.4008 113.877772 
L 67.6798 113.397233 
L 68.0704 112.218192 
L 68.6842 109.523347 
L 70.5256 100.990464 
L 71.3626 98.356203 
L 72.1159 96.647825 
L 72.6739 95.865528 
L 73.0366 95.666905 
L 73.3435 95.743493 
L 73.6504 96.083199 
L 74.0131 96.864542 
L 74.4595 98.429802 
L 75.0175 101.306858 
L 75.7708 106.500294 
L 77.5564 119.266085 
L 78.0307 121.110135 
L 78.3655 121.711844 
L 78.5887 121.771055 
L 78.8119 121.560252 
L 79.0909 120.939203 
L 79.5094 119.364558 
L 80.1511 115.921351 
L 83.248 98.078605 
L 84.2803 93.272334 
L 84.9499 91.112008 
L 85.5637 89.844109 
L 86.2054 89.03286 
L 87.1819 88.216019 
L 89.3581 86.674041 
L 89.9998 86.531695 
L 90.6136 86.624849 
L 91.3669 86.981027 
L 93.571 88.421452 
L 94.8265 89.383171 
L 95.7751 90.412578 
L 98.8162 94.005172 
L 99.4021 94.248643 
L 99.8485 94.208287 
L 100.267 93.951684 
L 100.7413 93.39067 
L 101.4109 92.201653 
L 102.8617 89.532629 
L 103.5034 88.866651 
L 104.1451 88.516807 
L 105.2053 88.243727 
L 106.5166 87.843239 
L 107.4652 87.309933 
L 108.4138 86.505176 
L 110.8132 84.307793 
L 111.4549 84.099569 
L 112.0408 84.144769 
L 112.6267 84.42397 
L 113.2963 85.005884 
L 114.4681 86.396013 
L 115.4725 87.433758 
L 116.2816 87.94862 
L 117.3139 88.309673 
L 118.9321 88.881646 
L 119.797 89.441993 
L 120.6061 90.244411 
L 121.8337 91.856806 
L 122.6149 92.694112 
L 123.1171 92.930902 
L 123.5356 92.893664 
L 123.982 92.625444 
L 124.5958 91.963965 
L 126.6046 89.582198 
L 127.33 89.157069 
L 128.1112 88.964834 
L 129.1435 88.962082 
L 131.7382 89.029182 
L 133.0495 88.814821 
L 136.7602 88.004095 
L 138.49 87.654336 
L 140.5546 86.970724 
L 142.1449 86.250169 
L 144.1258 85.286913 
L 144.7954 85.264722 
L 145.5487 85.483807 
L 147.0832 85.993291 
L 147.7249 85.921759 
L 148.3945 85.613978 
L 149.4547 84.837564 
L 150.7939 83.928927 
L 151.7146 83.571464 
L 152.5237 83.484602 
L 153.1654 83.637371 
L 153.6955 83.989546 
L 154.2256 84.616126 
L 154.8115 85.68384 
L 155.509 87.46846 
L 156.7645 91.474228 
L 157.5736 93.675574 
L 158.0758 94.499709 
L 158.4385 94.749783 
L 158.7454 94.719602 
L 159.0802 94.43963 
L 159.4987 93.766134 
L 160.1404 92.248281 
L 161.1448 89.913425 
L 161.5354 89.478761 
L 161.8423 89.437373 
L 162.1213 89.639837 
L 162.484 90.20945 
L 163.1257 91.738673 
L 163.9627 93.603776 
L 164.4649 94.233125 
L 165.0229 94.566915 
L 165.8041 95.013515 
L 166.2505 95.579111 
L 166.7248 96.574523 
L 167.3107 98.386049 
L 168.2314 102.105667 
L 169.18 105.667905 
L 169.6822 106.796459 
L 170.017 107.110774 
L 170.2681 107.092222 
L 170.5471 106.811777 
L 170.9098 106.054303 
L 171.3841 104.478307 
L 172.1374 101.073688 
L 173.5045 94.915402 
L 174.1741 92.930624 
L 174.7879 91.776226 
L 175.4575 90.9887 
L 177.6337 89.053648 
L 178.3591 88.608918 
L 178.9171 88.523397 
L 179.4751 88.678081 
L 180.2842 89.174712 
L 182.9347 91.166881 
L 183.6043 92.104546 
L 184.3576 93.578595 
L 186.7291 98.613939 
L 187.1755 98.944805 
L 187.5382 98.956047 
L 187.9009 98.723545 
L 188.3194 98.158326 
L 188.8774 96.978171 
L 190.0213 93.846672 
L 190.9141 91.7455 
L 191.6674 90.515005 
L 192.5323 89.537778 
L 193.3972 88.868833 
L 194.011 88.640611 
L 194.5132 88.672137 
L 195.0154 88.924441 
L 195.6292 89.502897 
L 196.6894 90.88063 
L 198.0286 92.496275 
L 199.1167 93.837947 
L 199.7863 95.071849 
L 201.7114 98.979571 
L 202.0462 99.091427 
L 202.3252 98.957015 
L 202.66 98.526598 
L 203.1343 97.486236 
L 203.9992 94.887426 
L 205.0036 92.098143 
L 205.7011 90.772853 
L 206.3428 89.988118 
L 206.9566 89.567854 
L 207.5425 89.435081 
L 208.1842 89.536821 
L 210.0535 90.011213 
L 212.146 89.997198 
L 212.7319 90.392585 
L 213.3457 91.08928 
L 214.0432 92.237685 
L 214.8523 94.028831 
L 216.6937 98.307283 
L 217.0843 98.651784 
L 217.3912 98.65194 
L 217.6981 98.397567 
L 218.0887 97.722818 
L 218.6467 96.230487 
L 220.237 91.693281 
L 220.8229 90.75931 
L 221.4088 90.221673 
L 222.1342 89.872966 
L 225.3985 88.637903 
L 227.1283 87.631021 
L 227.6584 87.631078 
L 228.1606 87.861518 
L 228.7744 88.408847 
L 231.0622 90.710839 
L 232.6804 91.644795 
L 233.6569 92.064489 
L 234.1591 92.053742 
L 234.6055 91.82687 
L 235.1077 91.310033 
L 235.9447 90.056963 
L 236.6701 89.125745 
L 237.0886 88.901335 
L 237.4234 88.949411 
L 237.7861 89.234932 
L 238.2883 89.959609 
L 239.6275 92.071103 
L 239.9902 92.223673 
L 240.2971 92.125192 
L 240.6598 91.742042 
L 241.1341 90.872143 
L 241.999 88.703372 
L 243.1987 85.853594 
L 243.952 84.611753 
L 244.51 84.066519 
L 244.9564 83.910784 
L 245.347 83.998328 
L 245.7934 84.342625 
L 246.4351 85.171543 
L 249.0019 89.14511 
L 249.532 90.770654 
L 250.1458 93.435503 
L 252.0151 102.162598 
L 252.4057 102.840395 
L 252.6568 102.92837 
L 252.88 102.776016 
L 253.1869 102.228505 
L 253.6054 100.926505 
L 254.2471 98.048031 
L 255.949 90.051582 
L 256.6186 88.082682 
L 257.2324 86.909038 
L 257.8741 86.14476 
L 258.4879 85.743831 
L 259.018 85.646951 
L 259.5202 85.784774 
L 260.0782 86.187024 
L 260.971 87.162552 
L 262.366 88.621868 
L 263.7331 89.706118 
L 264.5143 90.076714 
L 265.1839 90.154266 
L 266.9137 90.182556 
L 267.3601 90.548616 
L 267.8344 91.266185 
L 268.3924 92.570925 
L 270.2617 97.420452 
L 270.5407 97.492527 
L 270.7918 97.29148 
L 271.0987 96.702982 
L 271.5451 95.26074 
L 272.4379 91.339343 
L 273.247 88.254498 
L 273.8329 86.813241 
L 274.3909 85.98139 
L 275.0047 85.458635 
L 275.7301 85.139895 
L 276.4555 85.048486 
L 277.0972 85.185376 
L 277.6831 85.543099 
L 278.3248 86.20881 
L 279.4966 87.841338 
L 280.3615 88.851349 
L 280.9753 89.242607 
L 281.5054 89.323108 
L 282.0634 89.168929 
L 282.8167 88.692498 
L 283.849 88.063751 
L 284.3233 88.021971 
L 284.7697 88.207364 
L 285.2998 88.697334 
L 286.9459 90.445319 
L 287.3644 90.484063 
L 287.755 90.290539 
L 288.2293 89.779873 
L 288.8989 88.673533 
L 290.8519 85.221262 
L 291.3541 84.836743 
L 291.7726 84.781856 
L 292.1911 84.958453 
L 292.7491 85.466206 
L 294.6184 87.366755 
L 295.6507 87.91905 
L 297.0736 88.703635 
L 297.9943 89.486477 
L 298.7755 90.449037 
L 299.473 91.67878 
L 300.1426 93.330247 
L 300.868 95.750906 
L 301.705 99.385146 
L 302.821 105.352431 
L 304.0207 111.506775 
L 304.5787 113.317632 
L 304.9693 113.972847 
L 305.2762 114.117849 
L 305.5273 114.003223 
L 305.8342 113.59721 
L 306.2527 112.617757 
L 306.8107 110.658623 
L 307.6198 106.875194 
L 308.959 100.621173 
L 309.5449 98.89306 
L 310.0471 98.051359 
L 310.4935 97.717975 
L 310.9399 97.663951 
L 311.5258 97.847523 
L 312.5302 98.445602 
L 314.2879 99.491309 
L 315.0691 99.664857 
L 315.9061 99.609306 
L 319.3099 98.89666 
L 319.9516 98.566909 
L 320.5096 98.007096 
L 321.0955 97.080535 
L 321.9046 95.332501 
L 323.3554 92.181402 
L 324.1087 91.100038 
L 324.862 90.404618 
L 325.8106 89.850261 
L 328.3216 88.760408 
L 329.4376 88.472323 
L 330.5257 88.436801 
L 332.4229 88.409821 
L 333.8737 88.06735 
L 335.3524 87.801749 
L 338.4772 87.61822 
L 342.7459 87.378649 
L 347.8516 87.411887 
L 352.5946 87.083185 
L 356.8912 87.275285 
L 359.5696 87.032574 
L 362.7502 86.821114 
L 367.6048 86.500359 
L 370.339 86.377421 
L 373.408 86.338038 
L 377.5093 85.753182 
L 379.1275 85.341353 
L 380.7736 84.672904 
L 382.0291 84.231021 
L 382.6708 84.234193 
L 383.2009 84.453692 
L 383.731 84.924987 
L 384.289 85.735512 
L 384.9307 87.094979 
L 385.7119 89.325897 
L 388.4461 97.709519 
L 389.1436 98.85705 
L 389.869 99.623345 
L 390.8455 100.305217 
L 392.101 100.921109 
L 393.0496 101.151419 
L 393.775 101.175715 
L 393.775 101.175715 
" clip-path="url(#pf33fd33520)" style="fill: none; stroke: #616eeb; stroke-width: 1.5; stroke-linecap: square"/>
   </g>
   <g id="line2d_10">
    <path d="M 58.9471 94.565764 
L 61.2628 93.336388 
L 61.8487 93.397501 
L 62.4067 93.683964 
L 63.0205 94.271845 
L 63.7738 95.334487 
L 65.7826 98.354495 
L 66.3685 98.780126 
L 66.8707 98.884951 
L 67.345 98.750987 
L 67.8472 98.35526 
L 68.4331 97.572493 
L 69.2701 96.008401 
L 70.5256 93.694925 
L 71.2231 92.880546 
L 71.9485 92.381238 
L 73.0366 91.938819 
L 74.1526 91.679278 
L 74.7943 91.744599 
L 75.3244 92.026059 
L 75.8266 92.548883 
L 76.3846 93.466317 
L 77.0821 95.094951 
L 79.3699 100.922751 
L 79.8163 101.358093 
L 80.2069 101.444581 
L 80.5975 101.284363 
L 81.0997 100.803693 
L 82.2436 99.271397 
L 83.0806 98.363442 
L 83.8339 97.873476 
L 85.2568 97.065555 
L 85.9264 96.307897 
L 87.8236 93.929923 
L 88.3816 93.676706 
L 88.9396 93.664958 
L 89.6371 93.888984 
L 91.7017 94.693173 
L 92.4829 94.658516 
L 93.6547 94.339006 
L 95.0218 94.033186 
L 96.0541 94.041113 
L 98.035 94.154539 
L 98.6209 93.883259 
L 99.2347 93.340946 
L 100.0159 92.322505 
L 102.778 88.422902 
L 103.615 87.748707 
L 104.452 87.354551 
L 105.9865 86.954476 
L 107.1583 86.502253 
L 110.6458 84.946962 
L 111.9013 84.691046 
L 112.9615 84.69656 
L 114.0775 84.92573 
L 115.6399 85.505719 
L 118.8484 86.673694 
L 120.2155 87.00472 
L 121.3315 87.047525 
L 122.4475 86.864457 
L 123.8983 86.371664 
L 126.2419 85.591863 
L 127.8601 85.291954 
L 129.0598 85.285954 
L 130.2595 85.511538 
L 132.4636 86.209553 
L 133.6354 86.767826 
L 134.5561 87.454926 
L 135.5326 88.471664 
L 137.9878 91.200453 
L 138.6295 91.491114 
L 139.2154 91.518442 
L 139.8571 91.322768 
L 140.6941 90.819322 
L 141.8659 89.833513 
L 144.349 87.620964 
L 145.0186 87.416286 
L 145.8835 87.411274 
L 147.1111 87.389008 
L 147.9202 87.125655 
L 149.371 86.591381 
L 149.8174 86.712827 
L 150.208 87.055546 
L 150.6544 87.765177 
L 151.2403 89.171143 
L 152.6353 92.699429 
L 153.0259 93.085156 
L 153.3328 93.09628 
L 153.6397 92.864738 
L 154.0861 92.197753 
L 155.2021 90.400783 
L 155.5369 90.281922 
L 155.8159 90.426639 
L 156.1507 90.902464 
L 156.5971 91.99779 
L 157.3225 94.4891 
L 158.3269 97.778594 
L 158.8012 98.66646 
L 159.136 98.91149 
L 159.415 98.855789 
L 159.7219 98.523774 
L 160.1125 97.722608 
L 160.6705 95.998799 
L 162.3166 90.552378 
L 162.7072 90.024543 
L 162.9862 89.951011 
L 163.2373 90.109317 
L 163.5721 90.64015 
L 164.0185 91.845564 
L 164.7439 94.588541 
L 165.9157 98.940466 
L 166.4737 100.228449 
L 166.948 100.814986 
L 167.3665 100.997923 
L 167.8129 100.942537 
L 168.5104 100.589461 
L 169.6822 100.013638 
L 170.4913 99.891581 
L 171.5515 99.746531 
L 171.9979 99.421403 
L 172.4164 98.8256 
L 172.8907 97.73725 
L 173.5324 95.632053 
L 174.8995 90.992581 
L 175.4017 90.081145 
L 175.8202 89.725994 
L 176.2666 89.636917 
L 177.2431 89.779056 
L 178.8613 90.039602 
L 179.2798 90.476795 
L 179.7262 91.29491 
L 180.2842 92.826944 
L 181.9861 97.882658 
L 182.4046 98.37398 
L 182.7673 98.48545 
L 183.1579 98.354352 
L 183.8275 97.830371 
L 184.6366 97.286101 
L 185.1667 97.196964 
L 185.6689 97.344795 
L 186.2269 97.755964 
L 186.9244 98.57499 
L 188.6821 100.831283 
L 188.989 100.84646 
L 189.268 100.629605 
L 189.6028 100.025518 
L 190.0213 98.705503 
L 190.5793 96.081086 
L 192.4486 86.577461 
L 193.0066 85.087727 
L 193.5088 84.323014 
L 193.9273 84.049584 
L 194.2621 84.069511 
L 194.5969 84.323099 
L 194.9875 84.948909 
L 195.4339 86.12573 
L 196.0477 88.453769 
L 197.6938 95.076581 
L 198.2239 96.192746 
L 198.6703 96.675647 
L 199.1446 96.869312 
L 200.9581 97.286241 
L 201.6556 97.912749 
L 202.5484 98.678371 
L 202.9111 98.703965 
L 203.218 98.473401 
L 203.5528 97.889472 
L 203.9713 96.622346 
L 204.5293 94.095159 
L 206.3986 84.899844 
L 206.9566 83.495006 
L 207.4309 82.856766 
L 207.7936 82.682712 
L 208.1284 82.764059 
L 208.4632 83.092622 
L 208.8538 83.810386 
L 209.356 85.262571 
L 210.1093 88.258523 
L 211.1137 92.090515 
L 211.6159 93.228358 
L 212.0344 93.680203 
L 212.3971 93.766798 
L 212.8435 93.617337 
L 214.2943 92.957501 
L 214.8244 93.05087 
L 215.4103 93.399131 
L 216.1915 94.153939 
L 217.8097 95.804265 
L 218.2003 95.876145 
L 218.5072 95.717567 
L 218.842 95.273838 
L 219.2326 94.36059 
L 219.7627 92.482545 
L 221.8831 84.145643 
L 222.4411 83.15338 
L 222.9991 82.601523 
L 223.7524 82.202016 
L 225.1753 81.486136 
L 226.3471 80.562382 
L 227.2399 79.970353 
L 227.7421 79.891764 
L 228.1606 80.057154 
L 228.5791 80.470956 
L 229.1092 81.345996 
L 229.9462 83.252413 
L 231.1738 85.943219 
L 232.4572 88.083709 
L 233.8801 90.156488 
L 234.4939 90.674939 
L 234.9961 90.830908 
L 235.4983 90.753992 
L 236.1121 90.418275 
L 237.9535 89.259741 
L 238.5673 89.234778 
L 239.8507 89.276292 
L 240.2971 88.990327 
L 240.8272 88.362382 
L 242.6965 85.86256 
L 243.3382 85.521596 
L 243.952 85.443901 
L 244.4542 85.601562 
L 244.9006 85.985833 
L 245.3749 86.713867 
L 245.9608 88.065133 
L 247.6069 92.160507 
L 248.0533 92.619377 
L 248.4439 92.712523 
L 248.8624 92.563953 
L 250.3969 91.768177 
L 250.7596 91.940714 
L 251.1502 92.384765 
L 251.6524 93.329325 
L 252.4894 95.482819 
L 253.4938 97.896964 
L 254.0518 98.704971 
L 254.4424 98.921692 
L 254.7493 98.842583 
L 255.0562 98.511478 
L 255.4189 97.768129 
L 255.8932 96.226364 
L 256.5907 93.071123 
L 257.8462 87.395678 
L 258.3484 86.093071 
L 258.7111 85.6886 
L 258.9622 85.692488 
L 259.2133 85.928778 
L 259.5481 86.584716 
L 260.0224 88.065255 
L 261.7522 94.012395 
L 262.1428 94.510367 
L 262.4776 94.616905 
L 262.8124 94.477625 
L 263.2588 94.017617 
L 264.1237 92.721685 
L 265.2397 91.173571 
L 265.993 90.494843 
L 266.7463 90.116339 
L 267.5275 89.971685 
L 268.1971 90.055782 
L 268.7551 90.340639 
L 269.3131 90.894864 
L 269.9269 91.858424 
L 270.7081 93.553328 
L 273.247 99.445301 
L 273.7492 99.980027 
L 274.1677 100.127626 
L 274.5583 100.024053 
L 275.0047 99.659313 
L 275.6464 98.812237 
L 278.4364 94.771756 
L 280.1662 92.988364 
L 281.1706 92.226392 
L 282.2308 91.727119 
L 284.6023 90.898772 
L 285.3556 90.913904 
L 286.081 91.160977 
L 286.918 91.702385 
L 288.0898 92.461025 
L 288.5083 92.451267 
L 288.871 92.207842 
L 289.2895 91.620229 
L 289.8475 90.392833 
L 291.2146 87.221766 
L 291.6052 86.859348 
L 291.9121 86.855909 
L 292.219 87.115616 
L 292.5817 87.756987 
L 293.0839 89.17678 
L 293.893 92.28515 
L 294.9253 96.046858 
L 295.4833 97.312815 
L 295.9297 97.845833 
L 296.3203 98.00909 
L 296.7667 97.941706 
L 297.4363 97.569153 
L 298.8313 96.777565 
L 299.6683 96.577162 
L 300.4216 96.616564 
L 301.1191 96.879972 
L 301.9003 97.433132 
L 303.6301 98.746818 
L 304.2997 98.926759 
L 304.9135 98.870105 
L 305.5552 98.583476 
L 306.3364 97.965299 
L 307.7872 96.771625 
L 308.401 96.584927 
L 309.0706 96.625248 
L 310.4656 96.777482 
L 311.1631 96.570806 
L 312.2791 95.951473 
L 313.4509 95.400441 
L 314.3995 95.209947 
L 315.4597 95.231654 
L 317.1895 95.528875 
L 319.3936 95.859638 
L 319.9516 95.713698 
L 320.4259 95.357022 
L 320.9002 94.711495 
L 321.4861 93.492028 
L 322.4626 90.810178 
L 323.4391 88.366662 
L 324.1087 87.262011 
L 324.7225 86.666633 
L 325.3642 86.352541 
L 326.257 86.190013 
L 330.1072 85.925202 
L 331.279 86.162312 
L 333.1204 86.545461 
L 334.6828 86.552374 
L 336.022 86.662364 
L 337.8913 87.106903 
L 339.7327 87.433715 
L 347.2657 88.212308 
L 348.8839 88.12437 
L 353.9896 87.639481 
L 356.8912 87.591378 
L 359.6533 87.174537 
L 369.4741 85.711425 
L 371.734 85.535015 
L 373.7986 85.626266 
L 378.3463 85.894757 
L 379.5739 85.642666 
L 382.5592 84.882424 
L 383.1451 85.072355 
L 383.6752 85.490919 
L 384.2332 86.237731 
L 384.8749 87.507853 
L 385.6561 89.600886 
L 386.8 93.40256 
L 388.1113 97.583753 
L 388.8088 99.110445 
L 389.3947 99.907012 
L 389.9248 100.286146 
L 390.4549 100.397873 
L 391.0129 100.276604 
L 391.6267 99.905138 
L 392.4079 99.151895 
L 393.775 97.518661 
L 393.775 97.518661 
" clip-path="url(#pf33fd33520)" style="fill: none; stroke: #e8c54a; stroke-width: 1.5; stroke-linecap: square"/>
   </g>
   <g id="patch_3">
    <path d="M 58.975 170.610469 
L 58.975 12.210469 
" style="fill: none; stroke: #000000; stroke-width: 0.8; stroke-linejoin: miter; stroke-linecap: square"/>
   </g>
   <g id="patch_4">
    <path d="M 393.775 170.610469 
L 393.775 12.210469 
" style="fill: none; stroke: #000000; stroke-width: 0.8; stroke-linejoin: miter; stroke-linecap: square"/>
   </g>
   <g id="patch_5">
    <path d="M 58.975 170.610469 
L 393.775 170.610469 
" style="fill: none; stroke: #000000; stroke-width: 0.8; stroke-linejoin: miter; stroke-linecap: square"/>
   </g>
   <g id="patch_6">
    <path d="M 58.975 12.210469 
L 393.775 12.210469 
" style="fill: none; stroke: #000000; stroke-width: 0.8; stroke-linejoin: miter; stroke-linecap: square"/>
   </g>
   <g id="legend_1">
    <g id="line2d_11">
     <path d="M 69.5125 24.990156 
L 79.5125 24.990156 
L 89.5125 24.990156 
" style="fill: none; stroke: #e84a4e; stroke-width: 1.5; stroke-linecap: square"/>
    </g>
    <g id="text_5">
     <!-- Central -->
     <g transform="translate(97.5125 28.490156) scale(0.1 -0.1)">
      <defs>
       <path id="ArialMT-43" d="M 3763 1606 
L 4369 1453 
Q 4178 706 3683 314 
Q 3188 -78 2472 -78 
Q 1731 -78 1267 223 
Q 803 525 561 1097 
Q 319 1669 319 2325 
Q 319 3041 592 3573 
Q 866 4106 1370 4382 
Q 1875 4659 2481 4659 
Q 3169 4659 3637 4309 
Q 4106 3959 4291 3325 
L 3694 3184 
Q 3534 3684 3231 3912 
Q 2928 4141 2469 4141 
Q 1941 4141 1586 3887 
Q 1231 3634 1087 3207 
Q 944 2781 944 2328 
Q 944 1744 1114 1308 
Q 1284 872 1643 656 
Q 2003 441 2422 441 
Q 2931 441 3284 734 
Q 3638 1028 3763 1606 
z
" transform="scale(0.015625)"/>
       <path id="ArialMT-6e" d="M 422 0 
L 422 3319 
L 928 3319 
L 928 2847 
Q 1294 3394 1984 3394 
Q 2284 3394 2536 3286 
Q 2788 3178 2913 3003 
Q 3038 2828 3088 2588 
Q 3119 2431 3119 2041 
L 3119 0 
L 2556 0 
L 2556 2019 
Q 2556 2363 2490 2533 
Q 2425 2703 2258 2804 
Q 2091 2906 1866 2906 
Q 1506 2906 1245 2678 
Q 984 2450 984 1813 
L 984 0 
L 422 0 
z
" transform="scale(0.015625)"/>
       <path id="ArialMT-72" d="M 416 0 
L 416 3319 
L 922 3319 
L 922 2816 
Q 1116 3169 1280 3281 
Q 1444 3394 1641 3394 
Q 1925 3394 2219 3213 
L 2025 2691 
Q 1819 2813 1613 2813 
Q 1428 2813 1281 2702 
Q 1134 2591 1072 2394 
Q 978 2094 978 1738 
L 978 0 
L 416 0 
z
" transform="scale(0.015625)"/>
      </defs>
      <use xlink:href="#ArialMT-43"/>
      <use xlink:href="#ArialMT-65" x="72.216797"/>
      <use xlink:href="#ArialMT-6e" x="127.832031"/>
      <use xlink:href="#ArialMT-74" x="183.447266"/>
      <use xlink:href="#ArialMT-72" x="211.230469"/>
      <use xlink:href="#ArialMT-61" x="244.53125"/>
      <use xlink:href="#ArialMT-6c" x="300.146484"/>
     </g>
    </g>
    <g id="line2d_12">
     <path d="M 149.746875 24.990156 
L 159.746875 24.990156 
L 169.746875 24.990156 
" style="fill: none; stroke: #51546b; stroke-width: 1.5; stroke-linecap: square"/>
    </g>
    <g id="text_6">
     <!-- Bottom -->
     <g transform="translate(177.746875 28.490156) scale(0.1 -0.1)">
      <defs>
       <path id="ArialMT-42" d="M 469 0 
L 469 4581 
L 2188 4581 
Q 2713 4581 3030 4442 
Q 3347 4303 3526 4014 
Q 3706 3725 3706 3409 
Q 3706 3116 3547 2856 
Q 3388 2597 3066 2438 
Q 3481 2316 3704 2022 
Q 3928 1728 3928 1328 
Q 3928 1006 3792 729 
Q 3656 453 3456 303 
Q 3256 153 2954 76 
Q 2653 0 2216 0 
L 469 0 
z
M 1075 2656 
L 2066 2656 
Q 2469 2656 2644 2709 
Q 2875 2778 2992 2937 
Q 3109 3097 3109 3338 
Q 3109 3566 3000 3739 
Q 2891 3913 2687 3977 
Q 2484 4041 1991 4041 
L 1075 4041 
L 1075 2656 
z
M 1075 541 
L 2216 541 
Q 2509 541 2628 563 
Q 2838 600 2978 687 
Q 3119 775 3209 942 
Q 3300 1109 3300 1328 
Q 3300 1584 3169 1773 
Q 3038 1963 2805 2039 
Q 2572 2116 2134 2116 
L 1075 2116 
L 1075 541 
z
" transform="scale(0.015625)"/>
       <path id="ArialMT-6d" d="M 422 0 
L 422 3319 
L 925 3319 
L 925 2853 
Q 1081 3097 1340 3245 
Q 1600 3394 1931 3394 
Q 2300 3394 2536 3241 
Q 2772 3088 2869 2813 
Q 3263 3394 3894 3394 
Q 4388 3394 4653 3120 
Q 4919 2847 4919 2278 
L 4919 0 
L 4359 0 
L 4359 2091 
Q 4359 2428 4304 2576 
Q 4250 2725 4106 2815 
Q 3963 2906 3769 2906 
Q 3419 2906 3187 2673 
Q 2956 2441 2956 1928 
L 2956 0 
L 2394 0 
L 2394 2156 
Q 2394 2531 2256 2718 
Q 2119 2906 1806 2906 
Q 1569 2906 1367 2781 
Q 1166 2656 1075 2415 
Q 984 2175 984 1722 
L 984 0 
L 422 0 
z
" transform="scale(0.015625)"/>
      </defs>
      <use xlink:href="#ArialMT-42"/>
      <use xlink:href="#ArialMT-6f" x="66.699219"/>
      <use xlink:href="#ArialMT-74" x="122.314453"/>
      <use xlink:href="#ArialMT-74" x="150.097656"/>
      <use xlink:href="#ArialMT-6f" x="177.880859"/>
      <use xlink:href="#ArialMT-6d" x="233.496094"/>
     </g>
    </g>
    <g id="line2d_13">
     <path d="M 229.425 24.990156 
L 239.425 24.990156 
L 249.425 24.990156 
" style="fill: none; stroke: #616eeb; stroke-width: 1.5; stroke-linecap: square"/>
    </g>
    <g id="text_7">
     <!-- Top Left -->
     <g transform="translate(257.425 28.490156) scale(0.1 -0.1)">
      <defs>
       <path id="ArialMT-54" d="M 1659 0 
L 1659 4041 
L 150 4041 
L 150 4581 
L 3781 4581 
L 3781 4041 
L 2266 4041 
L 2266 0 
L 1659 0 
z
" transform="scale(0.015625)"/>
       <path id="ArialMT-70" d="M 422 -1272 
L 422 3319 
L 934 3319 
L 934 2888 
Q 1116 3141 1344 3267 
Q 1572 3394 1897 3394 
Q 2322 3394 2647 3175 
Q 2972 2956 3137 2557 
Q 3303 2159 3303 1684 
Q 3303 1175 3120 767 
Q 2938 359 2589 142 
Q 2241 -75 1856 -75 
Q 1575 -75 1351 44 
Q 1128 163 984 344 
L 984 -1272 
L 422 -1272 
z
M 931 1641 
Q 931 1000 1190 694 
Q 1450 388 1819 388 
Q 2194 388 2461 705 
Q 2728 1022 2728 1688 
Q 2728 2322 2467 2637 
Q 2206 2953 1844 2953 
Q 1484 2953 1207 2617 
Q 931 2281 931 1641 
z
" transform="scale(0.015625)"/>
       <path id="ArialMT-4c" d="M 469 0 
L 469 4581 
L 1075 4581 
L 1075 541 
L 3331 541 
L 3331 0 
L 469 0 
z
" transform="scale(0.015625)"/>
       <path id="ArialMT-66" d="M 556 0 
L 556 2881 
L 59 2881 
L 59 3319 
L 556 3319 
L 556 3672 
Q 556 4006 616 4169 
Q 697 4388 901 4523 
Q 1106 4659 1475 4659 
Q 1713 4659 2000 4603 
L 1916 4113 
Q 1741 4144 1584 4144 
Q 1328 4144 1222 4034 
Q 1116 3925 1116 3625 
L 1116 3319 
L 1763 3319 
L 1763 2881 
L 1116 2881 
L 1116 0 
L 556 0 
z
" transform="scale(0.015625)"/>
      </defs>
      <use xlink:href="#ArialMT-54"/>
      <use xlink:href="#ArialMT-6f" x="49.958984"/>
      <use xlink:href="#ArialMT-70" x="105.574219"/>
      <use xlink:href="#ArialMT-20" x="161.189453"/>
      <use xlink:href="#ArialMT-4c" x="188.972656"/>
      <use xlink:href="#ArialMT-65" x="244.587891"/>
      <use xlink:href="#ArialMT-66" x="300.203125"/>
      <use xlink:href="#ArialMT-74" x="327.986328"/>
     </g>
    </g>
    <g id="line2d_14">
     <path d="M 312.998438 24.990156 
L 322.998438 24.990156 
L 332.998438 24.990156 
" style="fill: none; stroke: #e8c54a; stroke-width: 1.5; stroke-linecap: square"/>
    </g>
    <g id="text_8">
     <!-- Top Right -->
     <g transform="translate(340.998438 28.490156) scale(0.1 -0.1)">
      <defs>
       <path id="ArialMT-52" d="M 503 0 
L 503 4581 
L 2534 4581 
Q 3147 4581 3465 4457 
Q 3784 4334 3975 4021 
Q 4166 3709 4166 3331 
Q 4166 2844 3850 2509 
Q 3534 2175 2875 2084 
Q 3116 1969 3241 1856 
Q 3506 1613 3744 1247 
L 4541 0 
L 3778 0 
L 3172 953 
Q 2906 1366 2734 1584 
Q 2563 1803 2427 1890 
Q 2291 1978 2150 2013 
Q 2047 2034 1813 2034 
L 1109 2034 
L 1109 0 
L 503 0 
z
M 1109 2559 
L 2413 2559 
Q 2828 2559 3062 2645 
Q 3297 2731 3419 2920 
Q 3541 3109 3541 3331 
Q 3541 3656 3305 3865 
Q 3069 4075 2559 4075 
L 1109 4075 
L 1109 2559 
z
" transform="scale(0.015625)"/>
       <path id="ArialMT-69" d="M 425 3934 
L 425 4581 
L 988 4581 
L 988 3934 
L 425 3934 
z
M 425 0 
L 425 3319 
L 988 3319 
L 988 0 
L 425 0 
z
" transform="scale(0.015625)"/>
      </defs>
      <use xlink:href="#ArialMT-54"/>
      <use xlink:href="#ArialMT-6f" x="49.958984"/>
      <use xlink:href="#ArialMT-70" x="105.574219"/>
      <use xlink:href="#ArialMT-20" x="161.189453"/>
      <use xlink:href="#ArialMT-52" x="188.972656"/>
      <use xlink:href="#ArialMT-69" x="261.189453"/>
      <use xlink:href="#ArialMT-67" x="283.40625"/>
      <use xlink:href="#ArialMT-68" x="339.021484"/>
      <use xlink:href="#ArialMT-74" x="394.636719"/>
     </g>
    </g>
   </g>
  </g>
  <g id="axes_2">
   <g id="patch_7">
    <path d="M 58.975 344.850469 
L 393.775 344.850469 
L 393.775 186.450469 
L 58.975 186.450469 
z
" style="fill: #ffffff"/>
   </g>
   <g id="matplotlib.axis_3">
    <g id="xtick_4">
     <g id="line2d_15">
      <g>
       <use xlink:href="#mb4f7ce1a10" x="58.975" y="344.850469" style="stroke: #000000; stroke-width: 0.8"/>
      </g>
     </g>
     <g id="text_9">
      <!-- 0.0 -->
      <g transform="translate(49.245 361.871406) scale(0.14 -0.14)">
       <use xlink:href="#ArialMT-30"/>
       <use xlink:href="#ArialMT-2e" x="55.615234"/>
       <use xlink:href="#ArialMT-30" x="83.398438"/>
      </g>
     </g>
    </g>
    <g id="xtick_5">
     <g id="line2d_16">
      <g>
       <use xlink:href="#mb4f7ce1a10" x="226.375" y="344.850469" style="stroke: #000000; stroke-width: 0.8"/>
      </g>
     </g>
     <g id="text_10">
      <!-- 6.0 -->
      <g transform="translate(216.645 361.871406) scale(0.14 -0.14)">
       <defs>
        <path id="ArialMT-36" d="M 3184 3459 
L 2625 3416 
Q 2550 3747 2413 3897 
Q 2184 4138 1850 4138 
Q 1581 4138 1378 3988 
Q 1113 3794 959 3422 
Q 806 3050 800 2363 
Q 1003 2672 1297 2822 
Q 1591 2972 1913 2972 
Q 2475 2972 2870 2558 
Q 3266 2144 3266 1488 
Q 3266 1056 3080 686 
Q 2894 316 2569 119 
Q 2244 -78 1831 -78 
Q 1128 -78 684 439 
Q 241 956 241 2144 
Q 241 3472 731 4075 
Q 1159 4600 1884 4600 
Q 2425 4600 2770 4297 
Q 3116 3994 3184 3459 
z
M 888 1484 
Q 888 1194 1011 928 
Q 1134 663 1356 523 
Q 1578 384 1822 384 
Q 2178 384 2434 671 
Q 2691 959 2691 1453 
Q 2691 1928 2437 2201 
Q 2184 2475 1800 2475 
Q 1419 2475 1153 2201 
Q 888 1928 888 1484 
z
" transform="scale(0.015625)"/>
       </defs>
       <use xlink:href="#ArialMT-36"/>
       <use xlink:href="#ArialMT-2e" x="55.615234"/>
       <use xlink:href="#ArialMT-30" x="83.398438"/>
      </g>
     </g>
    </g>
    <g id="xtick_6">
     <g id="line2d_17">
      <g>
       <use xlink:href="#mb4f7ce1a10" x="393.775" y="344.850469" style="stroke: #000000; stroke-width: 0.8"/>
      </g>
     </g>
     <g id="text_11">
      <!-- 12.0 -->
      <g transform="translate(380.152344 361.871406) scale(0.14 -0.14)">
       <defs>
        <path id="ArialMT-31" d="M 2384 0 
L 1822 0 
L 1822 3584 
Q 1619 3391 1289 3197 
Q 959 3003 697 2906 
L 697 3450 
Q 1169 3672 1522 3987 
Q 1875 4303 2022 4600 
L 2384 4600 
L 2384 0 
z
" transform="scale(0.015625)"/>
       </defs>
       <use xlink:href="#ArialMT-31"/>
       <use xlink:href="#ArialMT-32" x="55.615234"/>
       <use xlink:href="#ArialMT-2e" x="111.230469"/>
       <use xlink:href="#ArialMT-30" x="139.013672"/>
      </g>
     </g>
    </g>
    <g id="text_12">
     <!-- Time (s) -->
     <g transform="translate(200.977031 378.845469) scale(0.14 -0.14)">
      <defs>
       <path id="ArialMT-73" d="M 197 991 
L 753 1078 
Q 800 744 1014 566 
Q 1228 388 1613 388 
Q 2000 388 2187 545 
Q 2375 703 2375 916 
Q 2375 1106 2209 1216 
Q 2094 1291 1634 1406 
Q 1016 1563 777 1677 
Q 538 1791 414 1992 
Q 291 2194 291 2438 
Q 291 2659 392 2848 
Q 494 3038 669 3163 
Q 800 3259 1026 3326 
Q 1253 3394 1513 3394 
Q 1903 3394 2198 3281 
Q 2494 3169 2634 2976 
Q 2775 2784 2828 2463 
L 2278 2388 
Q 2241 2644 2061 2787 
Q 1881 2931 1553 2931 
Q 1166 2931 1000 2803 
Q 834 2675 834 2503 
Q 834 2394 903 2306 
Q 972 2216 1119 2156 
Q 1203 2125 1616 2013 
Q 2213 1853 2448 1751 
Q 2684 1650 2818 1456 
Q 2953 1263 2953 975 
Q 2953 694 2789 445 
Q 2625 197 2315 61 
Q 2006 -75 1616 -75 
Q 969 -75 630 194 
Q 291 463 197 991 
z
" transform="scale(0.015625)"/>
      </defs>
      <use xlink:href="#ArialMT-54"/>
      <use xlink:href="#ArialMT-69" x="57.333984"/>
      <use xlink:href="#ArialMT-6d" x="79.550781"/>
      <use xlink:href="#ArialMT-65" x="162.851562"/>
      <use xlink:href="#ArialMT-20" x="218.466797"/>
      <use xlink:href="#ArialMT-28" x="246.25"/>
      <use xlink:href="#ArialMT-73" x="279.550781"/>
      <use xlink:href="#ArialMT-29" x="329.550781"/>
     </g>
    </g>
   </g>
   <g id="matplotlib.axis_4">
    <g id="ytick_4">
     <g id="line2d_18">
      <g>
       <use xlink:href="#m6ccf50e582" x="58.975" y="329.010469" style="stroke: #000000; stroke-width: 0.8"/>
      </g>
     </g>
     <g id="text_13">
      <!-- −20 -->
      <g transform="translate(28.2275 334.020937) scale(0.14 -0.14)">
       <use xlink:href="#ArialMT-2212"/>
       <use xlink:href="#ArialMT-32" x="58.398438"/>
       <use xlink:href="#ArialMT-30" x="114.013672"/>
      </g>
     </g>
    </g>
    <g id="ytick_5">
     <g id="line2d_19">
      <g>
       <use xlink:href="#m6ccf50e582" x="58.975" y="297.330469" style="stroke: #000000; stroke-width: 0.8"/>
      </g>
     </g>
     <g id="text_14">
      <!-- −10 -->
      <g transform="translate(28.2275 302.340937) scale(0.14 -0.14)">
       <use xlink:href="#ArialMT-2212"/>
       <use xlink:href="#ArialMT-31" x="58.398438"/>
       <use xlink:href="#ArialMT-30" x="114.013672"/>
      </g>
     </g>
    </g>
    <g id="ytick_6">
     <g id="line2d_20">
      <g>
       <use xlink:href="#m6ccf50e582" x="58.975" y="265.650469" style="stroke: #000000; stroke-width: 0.8"/>
      </g>
     </g>
     <g id="text_15">
      <!-- 0 -->
      <g transform="translate(44.189688 270.660937) scale(0.14 -0.14)">
       <use xlink:href="#ArialMT-30"/>
      </g>
     </g>
    </g>
    <g id="ytick_7">
     <g id="line2d_21">
      <g>
       <use xlink:href="#m6ccf50e582" x="58.975" y="233.970469" style="stroke: #000000; stroke-width: 0.8"/>
      </g>
     </g>
     <g id="text_16">
      <!-- 10 -->
      <g transform="translate(36.404375 238.980937) scale(0.14 -0.14)">
       <use xlink:href="#ArialMT-31"/>
       <use xlink:href="#ArialMT-30" x="55.615234"/>
      </g>
     </g>
    </g>
    <g id="ytick_8">
     <g id="line2d_22">
      <g>
       <use xlink:href="#m6ccf50e582" x="58.975" y="202.290469" style="stroke: #000000; stroke-width: 0.8"/>
      </g>
     </g>
     <g id="text_17">
      <!-- 20 -->
      <g transform="translate(36.404375 207.300937) scale(0.14 -0.14)">
       <use xlink:href="#ArialMT-32"/>
       <use xlink:href="#ArialMT-30" x="55.615234"/>
      </g>
     </g>
    </g>
    <g id="text_18">
     <!-- Angles ($\circ$) -->
     <g transform="translate(21.1475 298.060469) rotate(-90) scale(0.14 -0.14)">
      <defs>
       <path id="ArialMT-41" d="M -9 0 
L 1750 4581 
L 2403 4581 
L 4278 0 
L 3588 0 
L 3053 1388 
L 1138 1388 
L 634 0 
L -9 0 
z
M 1313 1881 
L 2866 1881 
L 2388 3150 
Q 2169 3728 2063 4100 
Q 1975 3659 1816 3225 
L 1313 1881 
z
" transform="scale(0.015625)"/>
       <path id="DejaVuSans-2218" d="M 2003 2603 
Q 1753 2603 1581 2429 
Q 1409 2256 1409 2006 
Q 1409 1759 1581 1589 
Q 1753 1419 2003 1419 
Q 2253 1419 2425 1589 
Q 2597 1759 2597 2006 
Q 2597 2253 2423 2428 
Q 2250 2603 2003 2603 
z
M 2003 3006 
Q 2203 3006 2387 2929 
Q 2572 2853 2706 2709 
Q 2850 2569 2922 2390 
Q 2994 2212 2994 2006 
Q 2994 1594 2705 1308 
Q 2416 1022 1997 1022 
Q 1575 1022 1294 1303 
Q 1013 1584 1013 2006 
Q 1013 2425 1300 2715 
Q 1588 3006 2003 3006 
z
" transform="scale(0.015625)"/>
      </defs>
      <use xlink:href="#ArialMT-41" transform="translate(0 0.203125)"/>
      <use xlink:href="#ArialMT-6e" transform="translate(66.699219 0.203125)"/>
      <use xlink:href="#ArialMT-67" transform="translate(122.314453 0.203125)"/>
      <use xlink:href="#ArialMT-6c" transform="translate(177.929688 0.203125)"/>
      <use xlink:href="#ArialMT-65" transform="translate(200.146484 0.203125)"/>
      <use xlink:href="#ArialMT-73" transform="translate(255.761719 0.203125)"/>
      <use xlink:href="#ArialMT-20" transform="translate(305.761719 0.203125)"/>
      <use xlink:href="#ArialMT-28" transform="translate(333.544922 0.203125)"/>
      <use xlink:href="#DejaVuSans-2218" transform="translate(366.845703 0.203125)"/>
      <use xlink:href="#ArialMT-29" transform="translate(429.443359 0.203125)"/>
     </g>
    </g>
   </g>
   <g id="line2d_23">
    <path d="M 58.9471 268.005966 
L 59.7841 267.377899 
L 60.5374 266.521123 
L 61.4023 265.167603 
L 63.7738 261.186169 
L 64.276 260.847001 
L 64.6945 260.809417 
L 65.113 261.007796 
L 65.5873 261.513556 
L 66.1732 262.506663 
L 67.0381 264.480696 
L 68.461 267.705039 
L 69.1585 268.733646 
L 69.8002 269.300351 
L 70.5814 269.677174 
L 73.0645 270.469059 
L 74.7106 270.709947 
L 76.0219 270.771087 
L 76.6357 270.566338 
L 77.2495 270.109838 
L 78.0586 269.187936 
L 81.5182 264.579637 
L 82.5505 263.368217 
L 83.1085 263.00812 
L 83.5549 262.965008 
L 84.0013 263.157431 
L 84.643 263.727609 
L 85.48 264.414394 
L 85.9264 264.496181 
L 86.3449 264.340581 
L 86.875 263.882821 
L 89.1349 261.623775 
L 89.7766 261.406858 
L 90.3625 261.439243 
L 90.9763 261.709486 
L 91.6459 262.266326 
L 92.4829 263.288183 
L 94.4638 265.850414 
L 95.1334 266.298661 
L 95.7193 266.439682 
L 96.2773 266.352505 
L 96.919 266.008664 
L 97.9234 265.159129 
L 99.2626 264.097053 
L 100.546 263.391801 
L 101.7736 262.943841 
L 102.7501 262.813491 
L 103.6987 262.906997 
L 104.6473 263.218278 
L 105.6796 263.806097 
L 107.1025 264.629854 
L 107.6605 264.68383 
L 108.1906 264.511486 
L 108.916 264.004869 
L 110.1436 263.144704 
L 110.7853 262.989432 
L 111.4549 263.071 
L 112.5709 263.489259 
L 113.7148 263.827954 
L 114.6634 263.870199 
L 116.9512 263.848518 
L 117.6766 264.175188 
L 118.681 264.913687 
L 120.0202 265.845104 
L 120.9967 266.243458 
L 122.0848 266.443192 
L 123.5914 266.469314 
L 126.8836 266.237797 
L 128.0275 265.964736 
L 129.1993 265.454216 
L 130.0363 264.848728 
L 130.9849 263.851494 
L 132.1009 262.736842 
L 132.6589 262.477487 
L 133.1053 262.49889 
L 133.5517 262.751941 
L 134.0539 263.312119 
L 134.7793 264.512606 
L 135.979 266.502746 
L 136.5091 266.97204 
L 136.9834 267.106657 
L 137.4856 267.010488 
L 138.3226 266.57547 
L 141.3916 264.896729 
L 142.0891 264.795221 
L 142.8145 264.92754 
L 143.9584 265.404183 
L 145.186 265.84585 
L 145.8835 265.861656 
L 146.6089 265.642152 
L 148.0876 265.125663 
L 148.7293 265.202014 
L 149.5105 265.537859 
L 150.2917 266.105463 
L 150.8776 266.819318 
L 151.4635 267.915217 
L 152.2726 269.985147 
L 153.4444 272.92289 
L 154.0024 273.77004 
L 154.4767 274.118084 
L 154.9231 274.166702 
L 155.4253 273.977202 
L 156.2344 273.381018 
L 157.2388 272.695152 
L 157.7968 272.578545 
L 158.3269 272.70631 
L 159.2476 273.237404 
L 159.8056 273.411978 
L 160.1962 273.318367 
L 160.6147 272.973766 
L 161.1727 272.17836 
L 162.3445 270.441758 
L 162.763 270.22581 
L 163.1257 270.287338 
L 163.5442 270.607113 
L 164.3533 271.599687 
L 165.0508 272.290303 
L 165.5251 272.465124 
L 165.9715 272.3966 
L 166.6411 272.023832 
L 167.4781 271.602516 
L 167.9803 271.593431 
L 168.5383 271.819745 
L 169.6822 272.346529 
L 170.1007 272.247992 
L 170.5192 271.887351 
L 171.0214 271.114655 
L 171.8026 269.415603 
L 173.3371 266.060723 
L 174.3973 264.334978 
L 175.3738 263.135701 
L 176.0434 262.631745 
L 176.5456 262.505897 
L 177.0478 262.608613 
L 178.3312 263.0246 
L 178.666 262.811968 
L 179.0287 262.29343 
L 179.4751 261.234149 
L 180.2005 258.83657 
L 181.1212 255.968276 
L 181.6234 255.075717 
L 181.9861 254.811231 
L 182.3209 254.829162 
L 182.7115 255.108889 
L 183.2695 255.830848 
L 184.6645 258.150174 
L 186.4501 260.924677 
L 187.2871 261.854094 
L 187.9567 262.27981 
L 188.5984 262.426969 
L 191.4163 262.734507 
L 192.7555 262.893867 
L 193.6204 263.105244 
L 194.3458 263.525693 
L 195.3223 264.38921 
L 196.4104 265.28266 
L 196.9963 265.486796 
L 197.5822 265.451122 
L 198.6424 265.091076 
L 199.8421 264.79828 
L 201.5998 264.625697 
L 203.3575 264.663037 
L 203.9155 264.91689 
L 204.5014 265.44535 
L 206.3707 267.380874 
L 206.845 267.438749 
L 207.3193 267.260786 
L 207.9052 266.781441 
L 208.9933 265.524275 
L 210.0256 264.477458 
L 210.751 264.05023 
L 211.5601 263.846301 
L 212.7319 263.798307 
L 213.4852 263.961593 
L 214.1548 264.350652 
L 215.3824 265.424424 
L 216.1078 265.867401 
L 216.6379 265.944304 
L 217.1122 265.796731 
L 217.6423 265.382861 
L 218.3398 264.515997 
L 219.6232 262.881934 
L 220.1533 262.563002 
L 220.6276 262.518743 
L 221.1577 262.696583 
L 221.911 263.214458 
L 223.2502 264.453243 
L 224.3941 265.782122 
L 226.1797 267.950465 
L 226.7377 268.224531 
L 227.2957 268.237126 
L 229.2766 268.019141 
L 230.1136 268.363063 
L 231.3133 268.831629 
L 231.9829 268.851152 
L 232.6525 268.643634 
L 233.4616 268.135704 
L 235.303 266.883645 
L 236.2516 266.607876 
L 237.2281 266.273893 
L 237.9256 265.773071 
L 239.5717 264.439944 
L 239.9902 264.437353 
L 240.4087 264.672075 
L 240.883 265.218961 
L 241.4968 266.295989 
L 242.3338 268.252809 
L 244.1473 272.692178 
L 244.5379 273.04501 
L 244.8448 273.038602 
L 245.1517 272.78119 
L 245.5702 272.077253 
L 246.2398 270.409924 
L 247.6069 266.981691 
L 248.3602 265.716044 
L 249.0019 265.031584 
L 249.532 264.761422 
L 249.9784 264.770833 
L 250.4248 265.009704 
L 250.9828 265.597898 
L 252.7405 267.708104 
L 253.1032 267.733837 
L 253.438 267.532668 
L 253.8286 267.018423 
L 254.3587 265.906683 
L 256.0606 262.001177 
L 256.4791 261.665637 
L 256.8139 261.657739 
L 257.1766 261.886653 
L 257.6509 262.478131 
L 258.6832 264.252314 
L 259.4365 265.315827 
L 259.9666 265.721684 
L 260.4409 265.811181 
L 260.9152 265.663818 
L 261.4732 265.24178 
L 262.1707 264.419537 
L 263.0356 263.02761 
L 265.6582 258.451315 
L 266.1325 258.188929 
L 266.551 258.210976 
L 266.9695 258.471154 
L 267.4717 259.075539 
L 268.1134 260.232883 
L 269.4247 263.217389 
L 270.2059 264.671467 
L 270.736 265.236586 
L 271.1824 265.408179 
L 271.6567 265.340803 
L 273.0238 264.974208 
L 273.4423 265.177492 
L 273.9445 265.697668 
L 274.7536 266.929644 
L 275.7859 268.391983 
L 276.4834 269.004588 
L 277.0972 269.265588 
L 277.6273 269.259995 
L 278.1574 269.022782 
L 278.827 268.450428 
L 281.7286 265.686759 
L 282.9004 264.700306 
L 283.4026 264.548259 
L 283.849 264.648 
L 284.3233 265.011538 
L 284.9371 265.803272 
L 286.4716 267.91836 
L 286.9459 268.177133 
L 287.3644 268.165964 
L 287.8108 267.921568 
L 288.4246 267.300113 
L 289.6801 265.97441 
L 290.1823 265.786603 
L 290.6287 265.855029 
L 291.1867 266.184527 
L 292.4422 266.999124 
L 292.9444 267.037443 
L 293.4745 266.846615 
L 294.1999 266.310891 
L 295.9297 264.950188 
L 296.6551 264.697651 
L 297.4363 264.667346 
L 298.6918 264.891479 
L 299.7799 264.999906 
L 300.4495 264.853139 
L 301.0912 264.477175 
L 301.984 263.646888 
L 302.7652 263.020671 
L 303.2116 262.919214 
L 303.6022 263.057587 
L 304.0207 263.457232 
L 304.5787 264.34584 
L 305.5831 266.481934 
L 306.5596 268.353273 
L 307.2013 269.143946 
L 307.7314 269.473753 
L 308.2057 269.523893 
L 308.7079 269.351904 
L 309.3496 268.876571 
L 311.3026 267.25383 
L 311.8606 267.154575 
L 312.3907 267.285381 
L 313.0603 267.701499 
L 314.6227 268.753605 
L 315.2923 268.87964 
L 316.0456 268.778123 
L 316.9384 268.418591 
L 317.887 267.7848 
L 320.0911 266.177009 
L 320.7049 266.086391 
L 321.4582 266.227233 
L 322.5184 266.412433 
L 323.1322 266.262256 
L 323.9413 265.795665 
L 325.0294 265.213904 
L 325.7269 265.098962 
L 326.5918 265.196918 
L 328.4332 265.686173 
L 330.8326 266.345976 
L 331.5022 266.241505 
L 332.1997 265.899058 
L 333.2878 265.063164 
L 334.4317 264.279699 
L 335.3524 263.92018 
L 336.2452 263.797457 
L 337.0822 263.907558 
L 338.1982 264.322675 
L 339.2584 264.635591 
L 340.1791 264.653915 
L 341.9089 264.654225 
L 344.5873 264.82163 
L 346.1497 264.682338 
L 347.4889 264.325328 
L 351.4228 263.123305 
L 352.5946 263.113886 
L 355.5799 263.225525 
L 357.1981 262.866659 
L 358.5373 262.673707 
L 360.1276 262.715676 
L 366.0703 263.126125 
L 366.8236 263.512798 
L 367.9117 264.363749 
L 369.2509 265.337878 
L 370.5343 265.955501 
L 373.3243 267.231347 
L 374.7751 268.286739 
L 376.0306 269.08991 
L 376.9234 269.401072 
L 377.7883 269.469566 
L 378.7648 269.310326 
L 380.2714 268.800784 
L 383.0614 267.819177 
L 384.9028 267.465109 
L 385.6561 267.007613 
L 386.7163 266.052785 
L 387.637 265.32677 
L 388.195 265.1516 
L 388.7251 265.223683 
L 389.3668 265.565527 
L 390.5386 266.514063 
L 391.6546 267.31833 
L 392.2405 267.490245 
L 392.7985 267.418095 
L 393.6076 267.036906 
L 393.775 266.952099 
L 393.775 266.952099 
" clip-path="url(#pcf29814cc3)" style="fill: none; stroke: #4ae875; stroke-width: 1.5; stroke-linecap: square"/>
   </g>
   <g id="line2d_24">
    <path d="M 58.9471 265.375531 
L 59.8678 264.672977 
L 61.4581 263.819701 
L 63.6622 262.758322 
L 64.0807 262.862365 
L 64.4713 263.21145 
L 64.8898 263.918825 
L 65.392 265.256072 
L 66.0616 267.770828 
L 68.6563 278.376891 
L 69.6049 280.695525 
L 70.5814 283.195425 
L 71.3905 285.966815 
L 72.5344 290.816521 
L 74.8501 300.734219 
L 75.6592 303.237012 
L 76.273 304.495819 
L 76.7473 305.031449 
L 77.1658 305.188562 
L 77.5564 305.09457 
L 78.0307 304.72482 
L 78.6724 303.898855 
L 79.4536 302.510453 
L 80.2069 300.712879 
L 80.9602 298.305393 
L 81.8251 294.741419 
L 84.2245 284.333497 
L 85.1731 281.666798 
L 86.9308 276.842696 
L 88.4095 272.08154 
L 91.4227 261.754743 
L 92.1481 260.436576 
L 93.0409 259.30361 
L 95.4403 256.482247 
L 96.3052 254.957496 
L 97.3933 252.534118 
L 100.7971 244.594596 
L 102.5269 241.452236 
L 104.3962 238.397757 
L 104.8984 237.959623 
L 105.2332 237.918891 
L 105.5401 238.123489 
L 105.8749 238.665924 
L 106.2655 239.774022 
L 106.7677 241.972562 
L 107.4652 246.210038 
L 108.9439 255.447339 
L 109.4461 257.223755 
L 109.8367 257.907417 
L 110.1436 258.045656 
L 110.4226 257.913776 
L 110.7853 257.462574 
L 111.427 256.234436 
L 112.7383 253.730453 
L 114.3007 251.438894 
L 115.8073 249.430887 
L 116.5606 248.802707 
L 117.2302 248.519866 
L 117.9277 248.468317 
L 118.5973 248.641716 
L 119.2669 249.047711 
L 120.076 249.822595 
L 122.5312 252.376512 
L 123.2008 252.668478 
L 123.8425 252.701499 
L 124.819 252.473323 
L 125.4886 252.426497 
L 125.9908 252.614373 
L 126.5209 253.067693 
L 127.2463 254.02297 
L 129.3946 257.02398 
L 131.4313 259.497973 
L 132.2962 261.086645 
L 133.7749 264.376657 
L 135.421 267.916752 
L 136.1185 268.9228 
L 136.7602 269.469992 
L 137.5135 269.799292 
L 140.9173 270.776976 
L 141.559 271.014085 
L 142.0333 271.439682 
L 142.5076 272.188255 
L 143.0935 273.566878 
L 144.8791 278.08853 
L 145.4371 278.76378 
L 146.2183 279.304443 
L 146.8879 279.876097 
L 147.6133 280.841884 
L 148.4224 281.83714 
L 148.7851 281.970544 
L 149.092 281.834606 
L 149.4268 281.393783 
L 149.8453 280.429261 
L 150.5149 278.213463 
L 151.7146 274.256423 
L 152.3284 273.003592 
L 152.8585 272.399627 
L 153.3607 272.15262 
L 154.0303 272.104742 
L 154.7278 272.001168 
L 155.1742 271.693244 
L 155.6485 271.073751 
L 156.3181 269.773536 
L 157.741 266.932705 
L 158.3827 266.171323 
L 158.8849 265.88939 
L 159.3034 265.903878 
L 159.694 266.163706 
L 160.1125 266.747016 
L 160.6147 267.882931 
L 161.3401 270.181946 
L 162.4282 273.569841 
L 162.9025 274.388895 
L 163.2652 274.635512 
L 163.6 274.59553 
L 164.0185 274.278003 
L 165.8878 272.536276 
L 166.6132 271.948076 
L 167.1433 271.187316 
L 167.7571 269.872231 
L 169.8496 264.979557 
L 170.2681 264.628158 
L 170.6029 264.596718 
L 170.9377 264.788721 
L 171.3562 265.320737 
L 171.9142 266.441733 
L 173.0023 269.282233 
L 173.8672 271.257146 
L 174.3973 271.991614 
L 174.8158 272.230515 
L 175.1785 272.187717 
L 175.597 271.881944 
L 176.1829 271.133104 
L 177.4105 269.523814 
L 177.9406 269.213693 
L 178.4707 269.164005 
L 179.7541 269.172827 
L 180.2563 268.867839 
L 180.9538 268.135785 
L 183.5485 264.897367 
L 184.246 263.271942 
L 185.4736 259.700218 
L 186.6175 256.638398 
L 187.2034 255.6492 
L 187.594 255.355635 
L 187.9009 255.361985 
L 188.2357 255.610175 
L 188.6542 256.245032 
L 189.268 257.66202 
L 190.9699 261.833601 
L 191.6116 262.7391 
L 192.3649 263.404972 
L 193.3693 264.304996 
L 194.1784 265.399477 
L 195.2107 266.743072 
L 195.685 267.001426 
L 196.0756 266.965371 
L 196.4941 266.690417 
L 197.0521 266.028676 
L 197.8612 264.691168 
L 198.9493 262.433188 
L 200.4001 259.446742 
L 201.1255 258.469244 
L 201.7114 258.016908 
L 202.1857 257.899722 
L 202.6042 258.021948 
L 203.0227 258.400633 
L 203.4691 259.126865 
L 204.0271 260.511179 
L 204.8083 263.132164 
L 206.287 268.142001 
L 206.9287 269.530332 
L 207.403 270.095047 
L 207.7936 270.241615 
L 208.1284 270.137575 
L 208.519 269.766212 
L 209.0491 268.914804 
L 210.9184 265.602734 
L 211.588 265.073141 
L 212.5366 264.342988 
L 213.1504 263.523127 
L 215.1034 260.637921 
L 215.5777 260.415458 
L 215.9962 260.452778 
L 216.4147 260.720674 
L 216.889 261.316693 
L 217.447 262.422545 
L 218.1724 264.428316 
L 220.1254 270.137781 
L 220.9066 271.555978 
L 222.8596 274.735813 
L 223.9477 277.342551 
L 224.7289 278.946594 
L 225.1474 279.386817 
L 225.4543 279.442067 
L 225.7333 279.274756 
L 226.0681 278.7982 
L 226.5145 277.736381 
L 227.212 275.40644 
L 228.3001 271.844416 
L 228.7744 270.978412 
L 229.1371 270.724042 
L 229.444 270.771145 
L 229.8346 271.102683 
L 231.2017 272.50976 
L 231.5365 272.449688 
L 231.8992 272.118379 
L 232.3735 271.331827 
L 233.8801 268.556026 
L 234.2149 268.404577 
L 234.5218 268.5089 
L 234.8566 268.884193 
L 235.303 269.749506 
L 236.0563 271.78727 
L 237.5071 275.69876 
L 238.2325 277.036975 
L 238.7626 277.591113 
L 239.1811 277.723005 
L 239.5438 277.607092 
L 239.9623 277.212555 
L 240.4645 276.390519 
L 241.0783 274.91231 
L 241.9711 272.085276 
L 242.9197 269.263766 
L 243.394 268.447829 
L 243.7567 268.209197 
L 244.0636 268.268958 
L 244.4263 268.611552 
L 244.9285 269.444143 
L 246.742 272.764903 
L 247.1605 273.027624 
L 247.4953 272.997697 
L 247.8301 272.728648 
L 248.2207 272.09271 
L 248.695 270.848443 
L 249.3088 268.532183 
L 250.1737 264.288418 
L 252.6568 251.614381 
L 253.2427 249.795109 
L 253.6333 249.186732 
L 253.9123 249.103068 
L 254.1634 249.283664 
L 254.4982 249.873265 
L 255.0004 251.324151 
L 256.4512 255.828176 
L 257.0371 256.824533 
L 257.8183 257.670431 
L 258.6832 258.683742 
L 259.3807 259.896504 
L 260.4688 262.3613 
L 261.3058 264.003666 
L 261.8917 264.708796 
L 262.5055 265.103581 
L 263.5099 265.43699 
L 264.2353 265.506296 
L 264.7096 265.329758 
L 265.1281 264.932953 
L 265.6024 264.152887 
L 266.1883 262.702498 
L 266.9974 260.017763 
L 269.1457 251.746094 
L 271.0987 244.634684 
L 271.6567 243.371131 
L 272.0194 242.994346 
L 272.2984 242.981397 
L 272.5774 243.208519 
L 272.9401 243.821838 
L 273.526 245.322795 
L 274.7536 248.516852 
L 275.4232 249.625332 
L 276.3439 250.668669 
L 277.4041 251.938248 
L 278.2411 253.322915 
L 279.4966 255.906648 
L 281.3938 259.757575 
L 282.0355 260.587678 
L 282.5377 260.913052 
L 283.0399 260.979325 
L 284.9371 260.943019 
L 285.8299 261.452589 
L 286.4995 261.720957 
L 286.9459 261.6676 
L 287.3644 261.387106 
L 287.8666 260.758664 
L 288.7036 259.271245 
L 289.6243 257.782772 
L 290.1823 257.280329 
L 290.6566 257.137533 
L 291.1309 257.230933 
L 291.661 257.574893 
L 292.2469 258.231159 
L 292.8607 259.268414 
L 293.5303 260.877372 
L 294.3673 263.532469 
L 296.0692 269.048258 
L 296.6551 270.183984 
L 297.1015 270.620792 
L 297.4642 270.686282 
L 297.799 270.519938 
L 298.2175 270.026731 
L 298.7476 269.015756 
L 299.6404 266.727578 
L 300.6169 264.398983 
L 301.1191 263.726839 
L 301.4539 263.586094 
L 301.7608 263.699607 
L 302.0956 264.09249 
L 302.542 265.023653 
L 303.1558 266.900297 
L 305.5831 274.953425 
L 306.7828 277.592277 
L 309.2659 282.625624 
L 309.9913 283.466941 
L 310.7725 284.024413 
L 311.8606 284.49682 
L 313.1998 284.868197 
L 313.7578 284.813992 
L 314.2042 284.556833 
L 314.6785 284.003067 
L 315.2086 283.013236 
L 315.934 281.134388 
L 318.445 274.231283 
L 320.2585 270.217749 
L 321.0118 269.034912 
L 321.5698 268.531586 
L 322.072 268.362801 
L 322.63 268.418817 
L 324.1087 268.695134 
L 324.6946 268.490012 
L 325.3642 267.998819 
L 326.2291 267.067048 
L 328.6006 264.287091 
L 329.0191 264.213926 
L 329.4097 264.370218 
L 329.8282 264.804975 
L 330.3025 265.650827 
L 330.8884 267.188542 
L 333.0925 273.545309 
L 333.511 273.942898 
L 333.9016 274.016783 
L 334.348 273.841452 
L 336.4126 272.678433 
L 337.1659 272.722194 
L 338.533 273.076112 
L 340.0954 273.67229 
L 341.6299 274.546098 
L 342.5227 274.927908 
L 343.1086 274.943535 
L 343.6387 274.722679 
L 344.1967 274.228173 
L 344.8942 273.275375 
L 345.9544 271.381262 
L 348.4654 266.308 
L 350.5858 262.179623 
L 351.8134 260.240225 
L 352.7899 259.092541 
L 353.8222 258.229933 
L 354.8824 257.612298 
L 355.6636 257.394667 
L 356.4448 257.416648 
L 358.1746 257.538616 
L 359.0674 257.623275 
L 359.6533 257.908714 
L 360.3508 258.524803 
L 362.3596 260.492223 
L 362.8897 260.64115 
L 363.3919 260.552296 
L 363.9778 260.200594 
L 365.6239 259.045753 
L 366.0982 259.064254 
L 366.5725 259.314184 
L 367.2421 259.954527 
L 368.4418 261.113454 
L 369.0277 261.357026 
L 369.6415 261.362832 
L 371.4829 261.208774 
L 373.1848 261.606191 
L 374.0218 261.922029 
L 374.6077 262.389036 
L 375.2494 263.203666 
L 376.1701 264.778311 
L 378.7927 269.444961 
L 379.4902 270.176649 
L 380.0761 270.480321 
L 380.6062 270.513323 
L 381.1642 270.315902 
L 381.7222 269.873736 
L 382.3081 269.10566 
L 382.9498 267.866469 
L 383.7868 265.711111 
L 385.8514 260.193293 
L 386.5489 259.017277 
L 387.1348 258.428796 
L 387.6928 258.177334 
L 388.2508 258.178306 
L 388.8088 258.405336 
L 389.3947 258.888202 
L 390.1201 259.805456 
L 392.4637 263.034792 
L 393.775 264.357545 
L 393.775 264.357545 
" clip-path="url(#pcf29814cc3)" style="fill: none; stroke: #94885f; stroke-width: 1.5; stroke-linecap: square"/>
   </g>
   <g id="line2d_25">
    <path d="M 58.9471 268.803031 
L 59.6446 268.404877 
L 60.7048 267.506008 
L 62.1835 266.287733 
L 62.7973 266.065544 
L 63.2995 266.110586 
L 63.8017 266.381293 
L 64.4155 266.991289 
L 65.2525 268.177716 
L 67.3729 271.326673 
L 68.0983 271.918528 
L 68.8237 272.222337 
L 69.6328 272.317334 
L 70.4419 272.185992 
L 71.251 271.824788 
L 72.1438 271.18019 
L 73.0645 270.240882 
L 74.4316 268.457083 
L 75.4081 267.358205 
L 76.0777 266.925843 
L 76.6915 266.788764 
L 77.4448 266.869514 
L 80.5417 267.448991 
L 82.1599 267.505223 
L 82.8853 267.300887 
L 83.5549 266.87357 
L 84.2803 266.129442 
L 85.2847 264.731459 
L 86.4844 263.132725 
L 87.0703 262.698325 
L 87.5725 262.586837 
L 88.0747 262.704294 
L 88.6885 263.097352 
L 89.5255 263.925458 
L 91.5064 265.981973 
L 92.176 266.313243 
L 92.8177 266.389777 
L 93.5431 266.240315 
L 94.4917 265.796563 
L 95.8867 264.883987 
L 96.9748 263.925624 
L 98.0629 262.646857 
L 99.7927 260.59967 
L 100.546 260.06947 
L 101.1877 259.872577 
L 101.8015 259.915694 
L 102.4153 260.19269 
L 103.0849 260.753943 
L 104.0614 261.910641 
L 105.1774 263.142044 
L 105.7633 263.471139 
L 106.2376 263.489765 
L 106.684 263.275208 
L 107.1862 262.760292 
L 107.8837 261.666391 
L 108.9997 259.926943 
L 109.474 259.593643 
L 109.8646 259.584467 
L 110.2831 259.825557 
L 110.8132 260.430176 
L 111.5665 261.678161 
L 112.7383 264.116105 
L 113.9938 266.596764 
L 114.6913 267.507388 
L 115.3051 267.969088 
L 116.0026 268.212144 
L 117.6766 268.680777 
L 118.4578 269.213087 
L 119.5459 270.262806 
L 121.4152 272.07603 
L 122.2801 272.582932 
L 123.1729 272.840435 
L 124.3168 272.922692 
L 125.377 272.791243 
L 126.2419 272.462118 
L 127.1905 271.845496 
L 129.1156 270.227883 
L 131.1523 268.684542 
L 135.8116 265.626429 
L 139.4665 263.999754 
L 140.4151 263.221746 
L 142.3681 261.526429 
L 143.5957 260.563594 
L 144.3211 259.654394 
L 146.2462 257.033194 
L 146.7763 256.743636 
L 147.2227 256.737206 
L 147.6412 256.956033 
L 148.0876 257.454764 
L 148.6177 258.414991 
L 149.2873 260.135788 
L 150.4033 263.738237 
L 151.9657 268.639009 
L 152.6632 270.145558 
L 153.1654 270.774533 
L 153.5839 270.983165 
L 154.0024 270.939046 
L 154.5604 270.619324 
L 155.8159 269.847652 
L 156.5413 269.716245 
L 158.2153 269.508665 
L 158.7454 269.174659 
L 159.1918 268.612457 
L 159.6382 267.642946 
L 160.1125 266.025066 
L 160.6984 263.151873 
L 162.2887 254.83148 
L 162.6235 254.177372 
L 162.8467 254.09174 
L 163.042 254.247175 
L 163.321 254.819336 
L 163.7116 256.206153 
L 164.4091 259.695002 
L 165.4693 264.808465 
L 166.0552 266.614312 
L 166.5574 267.532215 
L 167.0596 268.022892 
L 167.6455 268.280515 
L 168.343 268.342828 
L 168.901 268.184001 
L 169.4032 267.800793 
L 169.9333 267.098751 
L 170.6029 265.811631 
L 172.0537 262.358986 
L 172.8907 260.713749 
L 173.4487 260.058025 
L 173.8672 259.866878 
L 174.2578 259.932097 
L 174.6763 260.249825 
L 175.2064 260.975187 
L 175.876 262.317508 
L 176.6851 264.477723 
L 178.8334 270.614426 
L 179.224 270.95849 
L 179.5309 270.942269 
L 179.8657 270.65707 
L 180.3121 269.929389 
L 181.177 267.969522 
L 182.0977 266.096948 
L 182.6836 265.355378 
L 183.1858 265.04728 
L 183.6601 265.016182 
L 184.1623 265.219141 
L 184.7761 265.731477 
L 185.5852 266.728621 
L 187.2871 268.914685 
L 187.8451 269.245611 
L 188.3752 269.314895 
L 189.0448 269.161712 
L 192.2254 267.93114 
L 193.7041 267.297115 
L 194.3458 267.279012 
L 195.0154 267.492819 
L 196.6615 268.15062 
L 197.1637 268.040902 
L 197.7217 267.674156 
L 198.5308 266.835313 
L 200.5117 264.711686 
L 201.265 264.240719 
L 201.8788 264.107624 
L 202.4647 264.200043 
L 203.0785 264.529021 
L 203.6923 265.125284 
L 204.3898 266.149313 
L 206.8729 270.196222 
L 207.4588 270.598135 
L 207.9889 270.705684 
L 208.4911 270.57074 
L 208.9933 270.193633 
L 209.5792 269.449327 
L 210.3325 268.088796 
L 212.2297 264.467447 
L 212.7598 263.963971 
L 213.2062 263.828863 
L 213.6247 263.94144 
L 214.1269 264.337209 
L 214.9639 265.35016 
L 215.8009 266.247203 
L 216.3031 266.485649 
L 216.7216 266.446229 
L 217.168 266.159241 
L 217.726 265.496524 
L 218.8141 263.741572 
L 219.6511 262.603098 
L 220.237 262.150963 
L 220.7392 262.025292 
L 221.2414 262.125103 
L 221.8273 262.482414 
L 222.5248 263.180528 
L 223.306 264.278889 
L 224.1151 265.813488 
L 226.4308 270.582285 
L 226.8214 270.782067 
L 227.1841 270.730598 
L 227.6026 270.435137 
L 228.2443 269.665622 
L 230.2531 267.077062 
L 230.9785 266.56768 
L 232.0666 266.137792 
L 232.7641 265.721206 
L 233.4058 265.047077 
L 234.4102 263.581049 
L 235.303 262.437255 
L 235.9168 261.986896 
L 236.5306 261.808624 
L 238.6231 261.452147 
L 240.1855 260.712352 
L 240.5482 260.854793 
L 240.9109 261.246025 
L 241.3294 262.068432 
L 241.8037 263.53637 
L 242.4175 266.265836 
L 244.0915 274.26244 
L 244.3984 274.711014 
L 244.5937 274.708705 
L 244.8169 274.429265 
L 245.1238 273.595121 
L 245.5702 271.638353 
L 247.7185 261.126727 
L 248.3044 259.696564 
L 248.8345 258.937644 
L 249.2809 258.643328 
L 249.6715 258.62585 
L 250.0621 258.826511 
L 250.5085 259.320932 
L 251.0665 260.319122 
L 251.9035 262.379601 
L 252.7963 264.404528 
L 253.2148 264.871398 
L 253.4938 264.916007 
L 253.7728 264.723948 
L 254.1076 264.182222 
L 254.5819 262.909935 
L 255.5305 259.499817 
L 256.2838 257.222792 
L 256.7581 256.393379 
L 257.1208 256.131541 
L 257.4277 256.160336 
L 257.7625 256.438325 
L 258.181 257.110406 
L 258.7669 258.536671 
L 260.971 264.436831 
L 261.4174 264.857715 
L 261.7801 264.913291 
L 262.1428 264.736436 
L 262.6171 264.227009 
L 263.4541 262.920352 
L 264.4306 261.510585 
L 265.0165 261.026394 
L 265.5187 260.89216 
L 266.0209 261.001769 
L 266.6068 261.373839 
L 267.388 262.150711 
L 268.2529 263.324817 
L 269.1178 264.894024 
L 270.8476 268.183733 
L 271.3777 268.668194 
L 271.852 268.81437 
L 272.4658 268.741763 
L 273.526 268.603147 
L 274.1956 268.779878 
L 276.8182 269.753388 
L 278.7433 270.060566 
L 279.2176 269.852476 
L 279.6919 269.38734 
L 280.2499 268.500789 
L 281.1985 266.473097 
L 282.1471 264.634018 
L 282.733 263.954315 
L 283.2073 263.73015 
L 283.6258 263.774973 
L 284.0722 264.056797 
L 284.6302 264.702177 
L 285.4951 266.112656 
L 286.639 267.890354 
L 287.3086 268.535841 
L 288.034 268.921085 
L 290.6845 270.037135 
L 291.4657 270.347141 
L 291.94 270.308392 
L 292.4143 270.02949 
L 292.9723 269.409629 
L 293.9209 267.945424 
L 295.0927 266.252524 
L 295.8181 265.568344 
L 296.4319 265.26858 
L 297.0457 265.217677 
L 297.7432 265.401629 
L 298.8034 265.948416 
L 300.7006 266.920142 
L 301.5097 267.071865 
L 302.4304 266.994767 
L 303.4906 266.951686 
L 304.2439 267.172305 
L 306.727 268.131738 
L 307.6756 268.098286 
L 308.7916 267.831937 
L 309.9634 267.319513 
L 313.4509 265.598317 
L 314.3716 265.515824 
L 315.376 265.660283 
L 316.9663 265.92305 
L 317.7196 265.777017 
L 318.6403 265.349073 
L 321.0118 264.141972 
L 321.7372 264.098315 
L 322.7416 264.29657 
L 325.9222 265.208328 
L 327.1219 265.925015 
L 328.5169 267.030575 
L 331.0837 269.154767 
L 331.7812 269.386645 
L 332.4787 269.380473 
L 333.5668 269.095845 
L 334.5712 268.927299 
L 335.3245 269.0308 
L 336.1615 269.385685 
L 337.4728 270.234895 
L 338.7562 270.972833 
L 339.5653 271.188077 
L 340.4302 271.178542 
L 341.7415 270.908962 
L 342.4669 270.574024 
L 342.997 270.074407 
L 343.5271 269.238482 
L 344.1688 267.75099 
L 346.5682 261.651186 
L 347.1541 260.931675 
L 347.6842 260.608524 
L 348.1864 260.558482 
L 348.7444 260.744222 
L 349.4698 261.253247 
L 352.7062 263.850053 
L 353.9338 264.394766 
L 354.9382 264.615868 
L 355.9705 264.604564 
L 357.8677 264.524845 
L 358.8442 264.77189 
L 361.4389 265.554923 
L 365.317 266.294703 
L 367.2979 266.952359 
L 367.9117 266.892389 
L 368.4976 266.606027 
L 369.1672 266.00618 
L 370.1716 264.759345 
L 371.9572 262.160086 
L 373.408 260.136999 
L 374.3845 259.173304 
L 375.8074 258.122304 
L 378.0394 256.758842 
L 381.2479 254.969671 
L 381.8338 254.970541 
L 382.3918 255.201218 
L 383.0056 255.714152 
L 384.0379 256.934137 
L 385.126 258.090935 
L 385.9351 258.624418 
L 386.9953 259.020538 
L 388.2229 259.533947 
L 389.3668 260.301796 
L 390.985 261.658559 
L 392.6311 263.039315 
L 393.775 263.665755 
L 393.775 263.665755 
" clip-path="url(#pcf29814cc3)" style="fill: none; stroke: #6b4545; stroke-width: 1.5; stroke-linecap: square"/>
   </g>
   <g id="patch_8">
    <path d="M 58.975 344.850469 
L 58.975 186.450469 
" style="fill: none; stroke: #000000; stroke-width: 0.8; stroke-linejoin: miter; stroke-linecap: square"/>
   </g>
   <g id="patch_9">
    <path d="M 393.775 344.850469 
L 393.775 186.450469 
" style="fill: none; stroke: #000000; stroke-width: 0.8; stroke-linejoin: miter; stroke-linecap: square"/>
   </g>
   <g id="patch_10">
    <path d="M 58.975 344.850469 
L 393.775 344.850469 
" style="fill: none; stroke: #000000; stroke-width: 0.8; stroke-linejoin: miter; stroke-linecap: square"/>
   </g>
   <g id="patch_11">
    <path d="M 58.975 186.450469 
L 393.775 186.450469 
" style="fill: none; stroke: #000000; stroke-width: 0.8; stroke-linejoin: miter; stroke-linecap: square"/>
   </g>
   <g id="legend_2">
    <g id="line2d_26">
     <path d="M 135.288281 199.108281 
L 145.288281 199.108281 
L 155.288281 199.108281 
" style="fill: none; stroke: #4ae875; stroke-width: 1.5; stroke-linecap: square"/>
    </g>
    <g id="text_19">
     <!-- Roll -->
     <g transform="translate(163.288281 202.608281) scale(0.1 -0.1)">
      <use xlink:href="#ArialMT-52"/>
      <use xlink:href="#ArialMT-6f" x="72.216797"/>
      <use xlink:href="#ArialMT-6c" x="127.832031"/>
      <use xlink:href="#ArialMT-6c" x="150.048828"/>
     </g>
    </g>
    <g id="line2d_27">
     <path d="M 200.514844 199.108281 
L 210.514844 199.108281 
L 220.514844 199.108281 
" style="fill: none; stroke: #94885f; stroke-width: 1.5; stroke-linecap: square"/>
    </g>
    <g id="text_20">
     <!-- Pitch -->
     <g transform="translate(228.514844 202.608281) scale(0.1 -0.1)">
      <defs>
       <path id="ArialMT-63" d="M 2588 1216 
L 3141 1144 
Q 3050 572 2676 248 
Q 2303 -75 1759 -75 
Q 1078 -75 664 370 
Q 250 816 250 1647 
Q 250 2184 428 2587 
Q 606 2991 970 3192 
Q 1334 3394 1763 3394 
Q 2303 3394 2647 3120 
Q 2991 2847 3088 2344 
L 2541 2259 
Q 2463 2594 2264 2762 
Q 2066 2931 1784 2931 
Q 1359 2931 1093 2626 
Q 828 2322 828 1663 
Q 828 994 1084 691 
Q 1341 388 1753 388 
Q 2084 388 2306 591 
Q 2528 794 2588 1216 
z
" transform="scale(0.015625)"/>
      </defs>
      <use xlink:href="#ArialMT-50"/>
      <use xlink:href="#ArialMT-69" x="66.699219"/>
      <use xlink:href="#ArialMT-74" x="88.916016"/>
      <use xlink:href="#ArialMT-63" x="116.699219"/>
      <use xlink:href="#ArialMT-68" x="166.699219"/>
     </g>
    </g>
    <g id="line2d_28">
     <path d="M 270.746094 199.108281 
L 280.746094 199.108281 
L 290.746094 199.108281 
" style="fill: none; stroke: #6b4545; stroke-width: 1.5; stroke-linecap: square"/>
    </g>
    <g id="text_21">
     <!-- Yaw -->
     <g transform="translate(298.746094 202.608281) scale(0.1 -0.1)">
      <defs>
       <path id="ArialMT-59" d="M 1784 0 
L 1784 1941 
L 19 4581 
L 756 4581 
L 1659 3200 
Q 1909 2813 2125 2425 
Q 2331 2784 2625 3234 
L 3513 4581 
L 4219 4581 
L 2391 1941 
L 2391 0 
L 1784 0 
z
" transform="scale(0.015625)"/>
       <path id="ArialMT-77" d="M 1034 0 
L 19 3319 
L 600 3319 
L 1128 1403 
L 1325 691 
Q 1338 744 1497 1375 
L 2025 3319 
L 2603 3319 
L 3100 1394 
L 3266 759 
L 3456 1400 
L 4025 3319 
L 4572 3319 
L 3534 0 
L 2950 0 
L 2422 1988 
L 2294 2553 
L 1622 0 
L 1034 0 
z
" transform="scale(0.015625)"/>
      </defs>
      <use xlink:href="#ArialMT-59"/>
      <use xlink:href="#ArialMT-61" x="59.324219"/>
      <use xlink:href="#ArialMT-77" x="114.939453"/>
     </g>
    </g>
   </g>
  </g>
 </g>
 <defs>
  <clipPath id="pf33fd33520">
   <rect x="58.975" y="12.210469" width="334.8" height="158.4"/>
  </clipPath>
  <clipPath id="pcf29814cc3">
   <rect x="58.975" y="186.450469" width="334.8" height="158.4"/>
  </clipPath>
 </defs>
</svg>
