<?xml version="1.0" encoding="utf-8" standalone="no"?>
<!DOCTYPE svg PUBLIC "-//W3C//DTD SVG 1.1//EN"
  "http://www.w3.org/Graphics/SVG/1.1/DTD/svg11.dtd">
<svg xmlns:xlink="http://www.w3.org/1999/xlink" width="336.125pt" height="222.672031pt" viewBox="0 0 336.125 222.672031" xmlns="http://www.w3.org/2000/svg" version="1.1">
 <metadata>
  <rdf:RDF xmlns:dc="http://purl.org/dc/elements/1.1/" xmlns:cc="http://creativecommons.org/ns#" xmlns:rdf="http://www.w3.org/1999/02/22-rdf-syntax-ns#">
   <cc:Work>
    <dc:type rdf:resource="http://purl.org/dc/dcmitype/StillImage"/>
    <dc:date>2024-08-27T12:29:37.664407</dc:date>
    <dc:format>image/svg+xml</dc:format>
    <dc:creator>
     <cc:Agent>
      <dc:title>Matplotlib v3.7.1, https://matplotlib.org/</dc:title>
     </cc:Agent>
    </dc:creator>
   </cc:Work>
  </rdf:RDF>
 </metadata>
 <defs>
  <style type="text/css">*{stroke-linejoin: round; stroke-linecap: butt}</style>
 </defs>
 <g id="figure_1">
  <g id="patch_1">
   <path d="M 0 222.672031 
L 336.125 222.672031 
L 336.125 0 
L 0 0 
z
" style="fill: #ffffff"/>
  </g>
  <g id="axes_1">
   <g id="patch_2">
    <path d="M 84.3625 89.568608 
L 251.7625 89.568608 
L 251.7625 12.210469 
L 84.3625 12.210469 
z
" style="fill: #ffffff"/>
   </g>
   <g id="matplotlib.axis_1">
    <g id="xtick_1">
     <g id="line2d_1">
      <defs>
       <path id="mc36a02e45c" d="M 0 0 
L 0 3.5 
" style="stroke: #000000; stroke-width: 0.8"/>
      </defs>
      <g>
       <use xlink:href="#mc36a02e45c" x="84.3625" y="89.568608" style="stroke: #000000; stroke-width: 0.8"/>
      </g>
     </g>
    </g>
    <g id="xtick_2">
     <g id="line2d_2">
      <g>
       <use xlink:href="#mc36a02e45c" x="168.0625" y="89.568608" style="stroke: #000000; stroke-width: 0.8"/>
      </g>
     </g>
    </g>
    <g id="xtick_3">
     <g id="line2d_3">
      <g>
       <use xlink:href="#mc36a02e45c" x="251.7625" y="89.568608" style="stroke: #000000; stroke-width: 0.8"/>
      </g>
     </g>
    </g>
   </g>
   <g id="matplotlib.axis_2">
    <g id="ytick_1">
     <g id="line2d_4">
      <defs>
       <path id="m26ecdbcf2b" d="M 0 0 
L -3.5 0 
" style="stroke: #000000; stroke-width: 0.8"/>
      </defs>
      <g>
       <use xlink:href="#m26ecdbcf2b" x="84.3625" y="89.568608" style="stroke: #000000; stroke-width: 0.8"/>
      </g>
     </g>
     <g id="text_1">
      <!-- −0.02 -->
      <g transform="translate(41.940313 94.579077) scale(0.14 -0.14)">
       <defs>
        <path id="ArialMT-2212" d="M 3381 1997 
L 356 1997 
L 356 2522 
L 3381 2522 
L 3381 1997 
z
" transform="scale(0.015625)"/>
        <path id="ArialMT-30" d="M 266 2259 
Q 266 3072 433 3567 
Q 600 4063 929 4331 
Q 1259 4600 1759 4600 
Q 2128 4600 2406 4451 
Q 2684 4303 2865 4023 
Q 3047 3744 3150 3342 
Q 3253 2941 3253 2259 
Q 3253 1453 3087 958 
Q 2922 463 2592 192 
Q 2263 -78 1759 -78 
Q 1097 -78 719 397 
Q 266 969 266 2259 
z
M 844 2259 
Q 844 1131 1108 757 
Q 1372 384 1759 384 
Q 2147 384 2411 759 
Q 2675 1134 2675 2259 
Q 2675 3391 2411 3762 
Q 2147 4134 1753 4134 
Q 1366 4134 1134 3806 
Q 844 3388 844 2259 
z
" transform="scale(0.015625)"/>
        <path id="ArialMT-2e" d="M 581 0 
L 581 641 
L 1222 641 
L 1222 0 
L 581 0 
z
" transform="scale(0.015625)"/>
        <path id="ArialMT-32" d="M 3222 541 
L 3222 0 
L 194 0 
Q 188 203 259 391 
Q 375 700 629 1000 
Q 884 1300 1366 1694 
Q 2113 2306 2375 2664 
Q 2638 3022 2638 3341 
Q 2638 3675 2398 3904 
Q 2159 4134 1775 4134 
Q 1369 4134 1125 3890 
Q 881 3647 878 3216 
L 300 3275 
Q 359 3922 746 4261 
Q 1134 4600 1788 4600 
Q 2447 4600 2831 4234 
Q 3216 3869 3216 3328 
Q 3216 3053 3103 2787 
Q 2991 2522 2730 2228 
Q 2469 1934 1863 1422 
Q 1356 997 1212 845 
Q 1069 694 975 541 
L 3222 541 
z
" transform="scale(0.015625)"/>
       </defs>
       <use xlink:href="#ArialMT-2212"/>
       <use xlink:href="#ArialMT-30" x="58.398438"/>
       <use xlink:href="#ArialMT-2e" x="114.013672"/>
       <use xlink:href="#ArialMT-30" x="141.796875"/>
       <use xlink:href="#ArialMT-32" x="197.412109"/>
      </g>
     </g>
    </g>
    <g id="ytick_2">
     <g id="line2d_5">
      <g>
       <use xlink:href="#m26ecdbcf2b" x="84.3625" y="50.889539" style="stroke: #000000; stroke-width: 0.8"/>
      </g>
     </g>
     <g id="text_2">
      <!-- 0.00 -->
      <g transform="translate(50.117188 55.900007) scale(0.14 -0.14)">
       <use xlink:href="#ArialMT-30"/>
       <use xlink:href="#ArialMT-2e" x="55.615234"/>
       <use xlink:href="#ArialMT-30" x="83.398438"/>
       <use xlink:href="#ArialMT-30" x="139.013672"/>
      </g>
     </g>
    </g>
    <g id="ytick_3">
     <g id="line2d_6">
      <g>
       <use xlink:href="#m26ecdbcf2b" x="84.3625" y="12.210469" style="stroke: #000000; stroke-width: 0.8"/>
      </g>
     </g>
     <g id="text_3">
      <!-- 0.02 -->
      <g transform="translate(50.117188 17.220938) scale(0.14 -0.14)">
       <use xlink:href="#ArialMT-30"/>
       <use xlink:href="#ArialMT-2e" x="55.615234"/>
       <use xlink:href="#ArialMT-30" x="83.398438"/>
       <use xlink:href="#ArialMT-32" x="139.013672"/>
      </g>
     </g>
    </g>
    <g id="text_4">
     <!-- Photovoltage -->
     <g transform="translate(19.817312 91.752039) rotate(-90) scale(0.14 -0.14)">
      <defs>
       <path id="ArialMT-50" d="M 494 0 
L 494 4581 
L 2222 4581 
Q 2678 4581 2919 4538 
Q 3256 4481 3484 4323 
Q 3713 4166 3852 3881 
Q 3991 3597 3991 3256 
Q 3991 2672 3619 2267 
Q 3247 1863 2275 1863 
L 1100 1863 
L 1100 0 
L 494 0 
z
M 1100 2403 
L 2284 2403 
Q 2872 2403 3119 2622 
Q 3366 2841 3366 3238 
Q 3366 3525 3220 3729 
Q 3075 3934 2838 4000 
Q 2684 4041 2272 4041 
L 1100 4041 
L 1100 2403 
z
" transform="scale(0.015625)"/>
       <path id="ArialMT-68" d="M 422 0 
L 422 4581 
L 984 4581 
L 984 2938 
Q 1378 3394 1978 3394 
Q 2347 3394 2619 3248 
Q 2891 3103 3008 2847 
Q 3125 2591 3125 2103 
L 3125 0 
L 2563 0 
L 2563 2103 
Q 2563 2525 2380 2717 
Q 2197 2909 1863 2909 
Q 1613 2909 1392 2779 
Q 1172 2650 1078 2428 
Q 984 2206 984 1816 
L 984 0 
L 422 0 
z
" transform="scale(0.015625)"/>
       <path id="ArialMT-6f" d="M 213 1659 
Q 213 2581 725 3025 
Q 1153 3394 1769 3394 
Q 2453 3394 2887 2945 
Q 3322 2497 3322 1706 
Q 3322 1066 3130 698 
Q 2938 331 2570 128 
Q 2203 -75 1769 -75 
Q 1072 -75 642 372 
Q 213 819 213 1659 
z
M 791 1659 
Q 791 1022 1069 705 
Q 1347 388 1769 388 
Q 2188 388 2466 706 
Q 2744 1025 2744 1678 
Q 2744 2294 2464 2611 
Q 2184 2928 1769 2928 
Q 1347 2928 1069 2612 
Q 791 2297 791 1659 
z
" transform="scale(0.015625)"/>
       <path id="ArialMT-74" d="M 1650 503 
L 1731 6 
Q 1494 -44 1306 -44 
Q 1000 -44 831 53 
Q 663 150 594 308 
Q 525 466 525 972 
L 525 2881 
L 113 2881 
L 113 3319 
L 525 3319 
L 525 4141 
L 1084 4478 
L 1084 3319 
L 1650 3319 
L 1650 2881 
L 1084 2881 
L 1084 941 
Q 1084 700 1114 631 
Q 1144 563 1211 522 
Q 1278 481 1403 481 
Q 1497 481 1650 503 
z
" transform="scale(0.015625)"/>
       <path id="ArialMT-76" d="M 1344 0 
L 81 3319 
L 675 3319 
L 1388 1331 
Q 1503 1009 1600 663 
Q 1675 925 1809 1294 
L 2547 3319 
L 3125 3319 
L 1869 0 
L 1344 0 
z
" transform="scale(0.015625)"/>
       <path id="ArialMT-6c" d="M 409 0 
L 409 4581 
L 972 4581 
L 972 0 
L 409 0 
z
" transform="scale(0.015625)"/>
       <path id="ArialMT-61" d="M 2588 409 
Q 2275 144 1986 34 
Q 1697 -75 1366 -75 
Q 819 -75 525 192 
Q 231 459 231 875 
Q 231 1119 342 1320 
Q 453 1522 633 1644 
Q 813 1766 1038 1828 
Q 1203 1872 1538 1913 
Q 2219 1994 2541 2106 
Q 2544 2222 2544 2253 
Q 2544 2597 2384 2738 
Q 2169 2928 1744 2928 
Q 1347 2928 1158 2789 
Q 969 2650 878 2297 
L 328 2372 
Q 403 2725 575 2942 
Q 747 3159 1072 3276 
Q 1397 3394 1825 3394 
Q 2250 3394 2515 3294 
Q 2781 3194 2906 3042 
Q 3031 2891 3081 2659 
Q 3109 2516 3109 2141 
L 3109 1391 
Q 3109 606 3145 398 
Q 3181 191 3288 0 
L 2700 0 
Q 2613 175 2588 409 
z
M 2541 1666 
Q 2234 1541 1622 1453 
Q 1275 1403 1131 1340 
Q 988 1278 909 1158 
Q 831 1038 831 891 
Q 831 666 1001 516 
Q 1172 366 1500 366 
Q 1825 366 2078 508 
Q 2331 650 2450 897 
Q 2541 1088 2541 1459 
L 2541 1666 
z
" transform="scale(0.015625)"/>
       <path id="ArialMT-67" d="M 319 -275 
L 866 -356 
Q 900 -609 1056 -725 
Q 1266 -881 1628 -881 
Q 2019 -881 2231 -725 
Q 2444 -569 2519 -288 
Q 2563 -116 2559 434 
Q 2191 0 1641 0 
Q 956 0 581 494 
Q 206 988 206 1678 
Q 206 2153 378 2554 
Q 550 2956 876 3175 
Q 1203 3394 1644 3394 
Q 2231 3394 2613 2919 
L 2613 3319 
L 3131 3319 
L 3131 450 
Q 3131 -325 2973 -648 
Q 2816 -972 2473 -1159 
Q 2131 -1347 1631 -1347 
Q 1038 -1347 672 -1080 
Q 306 -813 319 -275 
z
M 784 1719 
Q 784 1066 1043 766 
Q 1303 466 1694 466 
Q 2081 466 2343 764 
Q 2606 1063 2606 1700 
Q 2606 2309 2336 2618 
Q 2066 2928 1684 2928 
Q 1309 2928 1046 2623 
Q 784 2319 784 1719 
z
" transform="scale(0.015625)"/>
       <path id="ArialMT-65" d="M 2694 1069 
L 3275 997 
Q 3138 488 2766 206 
Q 2394 -75 1816 -75 
Q 1088 -75 661 373 
Q 234 822 234 1631 
Q 234 2469 665 2931 
Q 1097 3394 1784 3394 
Q 2450 3394 2872 2941 
Q 3294 2488 3294 1666 
Q 3294 1616 3291 1516 
L 816 1516 
Q 847 969 1125 678 
Q 1403 388 1819 388 
Q 2128 388 2347 550 
Q 2566 713 2694 1069 
z
M 847 1978 
L 2700 1978 
Q 2663 2397 2488 2606 
Q 2219 2931 1791 2931 
Q 1403 2931 1139 2672 
Q 875 2413 847 1978 
z
" transform="scale(0.015625)"/>
      </defs>
      <use xlink:href="#ArialMT-50"/>
      <use xlink:href="#ArialMT-68" x="66.699219"/>
      <use xlink:href="#ArialMT-6f" x="122.314453"/>
      <use xlink:href="#ArialMT-74" x="177.929688"/>
      <use xlink:href="#ArialMT-6f" x="205.712891"/>
      <use xlink:href="#ArialMT-76" x="261.328125"/>
      <use xlink:href="#ArialMT-6f" x="311.328125"/>
      <use xlink:href="#ArialMT-6c" x="366.943359"/>
      <use xlink:href="#ArialMT-74" x="389.160156"/>
      <use xlink:href="#ArialMT-61" x="416.943359"/>
      <use xlink:href="#ArialMT-67" x="472.558594"/>
      <use xlink:href="#ArialMT-65" x="528.173828"/>
     </g>
     <!-- (V) -->
     <g transform="translate(34.99375 60.22032) rotate(-90) scale(0.14 -0.14)">
      <defs>
       <path id="ArialMT-28" d="M 1497 -1347 
Q 1031 -759 709 28 
Q 388 816 388 1659 
Q 388 2403 628 3084 
Q 909 3875 1497 4659 
L 1900 4659 
Q 1522 4009 1400 3731 
Q 1209 3300 1100 2831 
Q 966 2247 966 1656 
Q 966 153 1900 -1347 
L 1497 -1347 
z
" transform="scale(0.015625)"/>
       <path id="ArialMT-56" d="M 1803 0 
L 28 4581 
L 684 4581 
L 1875 1253 
Q 2019 853 2116 503 
Q 2222 878 2363 1253 
L 3600 4581 
L 4219 4581 
L 2425 0 
L 1803 0 
z
" transform="scale(0.015625)"/>
       <path id="ArialMT-29" d="M 791 -1347 
L 388 -1347 
Q 1322 153 1322 1656 
Q 1322 2244 1188 2822 
Q 1081 3291 891 3722 
Q 769 4003 388 4659 
L 791 4659 
Q 1378 3875 1659 3084 
Q 1900 2403 1900 1659 
Q 1900 816 1576 28 
Q 1253 -759 791 -1347 
z
" transform="scale(0.015625)"/>
      </defs>
      <use xlink:href="#ArialMT-28"/>
      <use xlink:href="#ArialMT-56" x="33.300781"/>
      <use xlink:href="#ArialMT-29" x="100"/>
     </g>
    </g>
   </g>
   <g id="line2d_7">
    <path d="M 84.2788 54.637913 
L 88.966 54.560477 
L 93.6532 54.28116 
L 97.0849 54.144451 
L 100.4329 54.276857 
L 103.7809 54.340956 
L 106.6267 54.155512 
L 115.1641 53.388218 
L 120.4372 53.416511 
L 122.1112 53.122887 
L 123.7852 52.604645 
L 125.794 51.73717 
L 128.6398 50.23772 
L 133.327 47.743053 
L 135.1684 47.038323 
L 137.0098 46.56788 
L 139.4371 46.200438 
L 143.4547 45.848562 
L 149.3137 45.349066 
L 156.3445 44.517749 
L 159.4414 44.545714 
L 165.8863 44.616904 
L 172.4149 44.51304 
L 176.851 44.412977 
L 181.4545 44.660027 
L 185.1373 44.684808 
L 188.4853 44.772098 
L 190.5778 45.050267 
L 192.5029 45.531183 
L 194.3443 46.219549 
L 196.2694 47.183417 
L 198.4456 48.538497 
L 204.9742 52.828922 
L 206.7319 53.576178 
L 208.5733 54.103732 
L 211.0006 54.540117 
L 216.4411 55.221516 
L 219.538 55.418037 
L 222.8023 55.385289 
L 229.8331 55.030342 
L 237.5335 54.558237 
L 245.0665 54.599639 
L 249.3352 54.586053 
L 251.7625 54.373735 
L 251.7625 54.373735 
" clip-path="url(#p67271750f4)" style="fill: none; stroke: #e84a4e; stroke-width: 1.5; stroke-linecap: square"/>
   </g>
   <g id="line2d_8">
    <path d="M 84.2788 56.832742 
L 93.9043 56.535246 
L 99.1774 56.143894 
L 103.9483 55.517421 
L 107.0452 55.236834 
L 111.0628 55.14146 
L 117.0055 54.948187 
L 119.2654 54.678175 
L 120.8557 54.268979 
L 122.3623 53.643784 
L 124.0363 52.686514 
L 126.7147 50.838316 
L 130.8997 47.999268 
L 134.164 46.034289 
L 136.3402 44.969213 
L 138.1816 44.30481 
L 140.1904 43.827129 
L 146.9701 42.462247 
L 149.3974 41.53993 
L 155.3401 39.187203 
L 159.8599 37.718866 
L 162.622 37.025754 
L 164.9656 36.665434 
L 167.4766 36.516647 
L 170.4061 36.573558 
L 173.8378 36.87279 
L 180.2827 37.478217 
L 186.6439 37.995441 
L 188.4853 38.4048 
L 189.9919 38.969682 
L 191.4148 39.747387 
L 192.8377 40.788218 
L 194.3443 42.179422 
L 196.0183 44.047415 
L 197.9434 46.544549 
L 200.6218 50.429751 
L 204.472 56.005866 
L 206.3134 58.262476 
L 208.0711 60.063669 
L 209.9125 61.625644 
L 211.7539 62.899414 
L 213.3442 63.74262 
L 214.7671 64.249329 
L 216.1063 64.486605 
L 217.4455 64.492494 
L 218.8684 64.273014 
L 220.5424 63.78327 
L 222.9697 62.816228 
L 226.9036 61.2494 
L 228.9961 60.672838 
L 230.9212 60.369085 
L 233.0974 60.261535 
L 236.6128 60.35922 
L 240.463 60.385816 
L 244.8154 60.153394 
L 250.8418 59.626799 
L 251.7625 59.520692 
L 251.7625 59.520692 
" clip-path="url(#p67271750f4)" style="fill: none; stroke: #51546b; stroke-width: 1.5; stroke-linecap: square"/>
   </g>
   <g id="line2d_9">
    <path d="M 84.2788 50.3264 
L 88.3801 50.292034 
L 101.1862 49.903387 
L 106.2919 49.326184 
L 117.0892 48.098317 
L 121.0231 47.957887 
L 130.9834 47.93742 
L 135.0847 48.104176 
L 137.0935 48.405144 
L 138.6838 48.866873 
L 140.2741 49.566749 
L 142.1992 50.682299 
L 147.1375 53.684771 
L 148.9789 54.46306 
L 150.904 55.026746 
L 153.1639 55.447576 
L 156.0934 55.756144 
L 159.1903 55.864942 
L 163.0405 55.751162 
L 176.9347 55.024537 
L 187.9831 53.88911 
L 197.8597 52.722808 
L 204.2209 52.204519 
L 209.9962 51.673481 
L 212.1724 51.737394 
L 214.3486 52.032486 
L 221.6305 53.264232 
L 223.8067 53.242908 
L 226.7362 52.965973 
L 242.8903 51.111146 
L 247.2427 50.574917 
L 251.1766 49.839761 
L 251.7625 49.718654 
L 251.7625 49.718654 
" clip-path="url(#p67271750f4)" style="fill: none; stroke: #616eeb; stroke-width: 1.5; stroke-linecap: square"/>
   </g>
   <g id="line2d_10">
    <path d="M 84.2788 52.706283 
L 88.3801 52.370843 
L 98.7589 51.731018 
L 102.9439 51.263351 
L 108.3007 50.649672 
L 118.1773 49.764736 
L 125.9614 48.911133 
L 129.7279 48.553525 
L 132.3226 48.526519 
L 134.3314 48.716478 
L 136.0891 49.097537 
L 137.8468 49.70535 
L 140.2741 50.812294 
L 142.7851 51.887812 
L 144.3754 52.320996 
L 145.9657 52.516054 
L 147.8908 52.509353 
L 154.0009 52.095068 
L 157.6837 51.721129 
L 162.5383 51.198167 
L 166.1374 51.113991 
L 169.2343 50.957078 
L 171.829 50.591966 
L 183.2122 48.674234 
L 190.1593 47.932384 
L 192.8377 47.887983 
L 195.3487 48.071993 
L 198.1108 48.505123 
L 201.5425 49.277521 
L 205.4764 50.385136 
L 208.3222 51.402991 
L 211.4191 52.779537 
L 214.1812 53.935438 
L 215.9389 54.434716 
L 217.6966 54.706116 
L 219.7891 54.788875 
L 222.5512 54.656468 
L 226.1503 54.256479 
L 232.0093 53.562719 
L 236.0269 53.434377 
L 239.9608 53.216462 
L 244.8154 52.688702 
L 249.7537 51.957523 
L 251.7625 51.59712 
L 251.7625 51.59712 
" clip-path="url(#p67271750f4)" style="fill: none; stroke: #e8c54a; stroke-width: 1.5; stroke-linecap: square"/>
   </g>
   <g id="patch_3">
    <path d="M 84.3625 89.568608 
L 84.3625 12.210469 
" style="fill: none; stroke: #000000; stroke-width: 0.8; stroke-linejoin: miter; stroke-linecap: square"/>
   </g>
   <g id="patch_4">
    <path d="M 251.7625 89.568608 
L 251.7625 12.210469 
" style="fill: none; stroke: #000000; stroke-width: 0.8; stroke-linejoin: miter; stroke-linecap: square"/>
   </g>
   <g id="patch_5">
    <path d="M 84.3625 89.568608 
L 251.7625 89.568608 
" style="fill: none; stroke: #000000; stroke-width: 0.8; stroke-linejoin: miter; stroke-linecap: square"/>
   </g>
   <g id="patch_6">
    <path d="M 84.3625 12.210469 
L 251.7625 12.210469 
" style="fill: none; stroke: #000000; stroke-width: 0.8; stroke-linejoin: miter; stroke-linecap: square"/>
   </g>
   <g id="legend_1">
    <g id="line2d_11">
     <path d="M 11.2 74.963921 
L 21.2 74.963921 
L 31.2 74.963921 
" style="fill: none; stroke: #e84a4e; stroke-width: 1.5; stroke-linecap: square"/>
    </g>
    <g id="text_5">
     <!-- Central -->
     <g transform="translate(39.2 78.463921) scale(0.1 -0.1)">
      <defs>
       <path id="ArialMT-43" d="M 3763 1606 
L 4369 1453 
Q 4178 706 3683 314 
Q 3188 -78 2472 -78 
Q 1731 -78 1267 223 
Q 803 525 561 1097 
Q 319 1669 319 2325 
Q 319 3041 592 3573 
Q 866 4106 1370 4382 
Q 1875 4659 2481 4659 
Q 3169 4659 3637 4309 
Q 4106 3959 4291 3325 
L 3694 3184 
Q 3534 3684 3231 3912 
Q 2928 4141 2469 4141 
Q 1941 4141 1586 3887 
Q 1231 3634 1087 3207 
Q 944 2781 944 2328 
Q 944 1744 1114 1308 
Q 1284 872 1643 656 
Q 2003 441 2422 441 
Q 2931 441 3284 734 
Q 3638 1028 3763 1606 
z
" transform="scale(0.015625)"/>
       <path id="ArialMT-6e" d="M 422 0 
L 422 3319 
L 928 3319 
L 928 2847 
Q 1294 3394 1984 3394 
Q 2284 3394 2536 3286 
Q 2788 3178 2913 3003 
Q 3038 2828 3088 2588 
Q 3119 2431 3119 2041 
L 3119 0 
L 2556 0 
L 2556 2019 
Q 2556 2363 2490 2533 
Q 2425 2703 2258 2804 
Q 2091 2906 1866 2906 
Q 1506 2906 1245 2678 
Q 984 2450 984 1813 
L 984 0 
L 422 0 
z
" transform="scale(0.015625)"/>
       <path id="ArialMT-72" d="M 416 0 
L 416 3319 
L 922 3319 
L 922 2816 
Q 1116 3169 1280 3281 
Q 1444 3394 1641 3394 
Q 1925 3394 2219 3213 
L 2025 2691 
Q 1819 2813 1613 2813 
Q 1428 2813 1281 2702 
Q 1134 2591 1072 2394 
Q 978 2094 978 1738 
L 978 0 
L 416 0 
z
" transform="scale(0.015625)"/>
      </defs>
      <use xlink:href="#ArialMT-43"/>
      <use xlink:href="#ArialMT-65" x="72.216797"/>
      <use xlink:href="#ArialMT-6e" x="127.832031"/>
      <use xlink:href="#ArialMT-74" x="183.447266"/>
      <use xlink:href="#ArialMT-72" x="211.230469"/>
      <use xlink:href="#ArialMT-61" x="244.53125"/>
      <use xlink:href="#ArialMT-6c" x="300.146484"/>
     </g>
    </g>
    <g id="line2d_12">
     <path d="M 91.434375 74.963921 
L 101.434375 74.963921 
L 111.434375 74.963921 
" style="fill: none; stroke: #51546b; stroke-width: 1.5; stroke-linecap: square"/>
    </g>
    <g id="text_6">
     <!-- Bottom -->
     <g transform="translate(119.434375 78.463921) scale(0.1 -0.1)">
      <defs>
       <path id="ArialMT-42" d="M 469 0 
L 469 4581 
L 2188 4581 
Q 2713 4581 3030 4442 
Q 3347 4303 3526 4014 
Q 3706 3725 3706 3409 
Q 3706 3116 3547 2856 
Q 3388 2597 3066 2438 
Q 3481 2316 3704 2022 
Q 3928 1728 3928 1328 
Q 3928 1006 3792 729 
Q 3656 453 3456 303 
Q 3256 153 2954 76 
Q 2653 0 2216 0 
L 469 0 
z
M 1075 2656 
L 2066 2656 
Q 2469 2656 2644 2709 
Q 2875 2778 2992 2937 
Q 3109 3097 3109 3338 
Q 3109 3566 3000 3739 
Q 2891 3913 2687 3977 
Q 2484 4041 1991 4041 
L 1075 4041 
L 1075 2656 
z
M 1075 541 
L 2216 541 
Q 2509 541 2628 563 
Q 2838 600 2978 687 
Q 3119 775 3209 942 
Q 3300 1109 3300 1328 
Q 3300 1584 3169 1773 
Q 3038 1963 2805 2039 
Q 2572 2116 2134 2116 
L 1075 2116 
L 1075 541 
z
" transform="scale(0.015625)"/>
       <path id="ArialMT-6d" d="M 422 0 
L 422 3319 
L 925 3319 
L 925 2853 
Q 1081 3097 1340 3245 
Q 1600 3394 1931 3394 
Q 2300 3394 2536 3241 
Q 2772 3088 2869 2813 
Q 3263 3394 3894 3394 
Q 4388 3394 4653 3120 
Q 4919 2847 4919 2278 
L 4919 0 
L 4359 0 
L 4359 2091 
Q 4359 2428 4304 2576 
Q 4250 2725 4106 2815 
Q 3963 2906 3769 2906 
Q 3419 2906 3187 2673 
Q 2956 2441 2956 1928 
L 2956 0 
L 2394 0 
L 2394 2156 
Q 2394 2531 2256 2718 
Q 2119 2906 1806 2906 
Q 1569 2906 1367 2781 
Q 1166 2656 1075 2415 
Q 984 2175 984 1722 
L 984 0 
L 422 0 
z
" transform="scale(0.015625)"/>
      </defs>
      <use xlink:href="#ArialMT-42"/>
      <use xlink:href="#ArialMT-6f" x="66.699219"/>
      <use xlink:href="#ArialMT-74" x="122.314453"/>
      <use xlink:href="#ArialMT-74" x="150.097656"/>
      <use xlink:href="#ArialMT-6f" x="177.880859"/>
      <use xlink:href="#ArialMT-6d" x="233.496094"/>
     </g>
    </g>
    <g id="line2d_13">
     <path d="M 171.1125 74.963921 
L 181.1125 74.963921 
L 191.1125 74.963921 
" style="fill: none; stroke: #616eeb; stroke-width: 1.5; stroke-linecap: square"/>
    </g>
    <g id="text_7">
     <!-- Top Left -->
     <g transform="translate(199.1125 78.463921) scale(0.1 -0.1)">
      <defs>
       <path id="ArialMT-54" d="M 1659 0 
L 1659 4041 
L 150 4041 
L 150 4581 
L 3781 4581 
L 3781 4041 
L 2266 4041 
L 2266 0 
L 1659 0 
z
" transform="scale(0.015625)"/>
       <path id="ArialMT-70" d="M 422 -1272 
L 422 3319 
L 934 3319 
L 934 2888 
Q 1116 3141 1344 3267 
Q 1572 3394 1897 3394 
Q 2322 3394 2647 3175 
Q 2972 2956 3137 2557 
Q 3303 2159 3303 1684 
Q 3303 1175 3120 767 
Q 2938 359 2589 142 
Q 2241 -75 1856 -75 
Q 1575 -75 1351 44 
Q 1128 163 984 344 
L 984 -1272 
L 422 -1272 
z
M 931 1641 
Q 931 1000 1190 694 
Q 1450 388 1819 388 
Q 2194 388 2461 705 
Q 2728 1022 2728 1688 
Q 2728 2322 2467 2637 
Q 2206 2953 1844 2953 
Q 1484 2953 1207 2617 
Q 931 2281 931 1641 
z
" transform="scale(0.015625)"/>
       <path id="ArialMT-20" transform="scale(0.015625)"/>
       <path id="ArialMT-4c" d="M 469 0 
L 469 4581 
L 1075 4581 
L 1075 541 
L 3331 541 
L 3331 0 
L 469 0 
z
" transform="scale(0.015625)"/>
       <path id="ArialMT-66" d="M 556 0 
L 556 2881 
L 59 2881 
L 59 3319 
L 556 3319 
L 556 3672 
Q 556 4006 616 4169 
Q 697 4388 901 4523 
Q 1106 4659 1475 4659 
Q 1713 4659 2000 4603 
L 1916 4113 
Q 1741 4144 1584 4144 
Q 1328 4144 1222 4034 
Q 1116 3925 1116 3625 
L 1116 3319 
L 1763 3319 
L 1763 2881 
L 1116 2881 
L 1116 0 
L 556 0 
z
" transform="scale(0.015625)"/>
      </defs>
      <use xlink:href="#ArialMT-54"/>
      <use xlink:href="#ArialMT-6f" x="49.958984"/>
      <use xlink:href="#ArialMT-70" x="105.574219"/>
      <use xlink:href="#ArialMT-20" x="161.189453"/>
      <use xlink:href="#ArialMT-4c" x="188.972656"/>
      <use xlink:href="#ArialMT-65" x="244.587891"/>
      <use xlink:href="#ArialMT-66" x="300.203125"/>
      <use xlink:href="#ArialMT-74" x="327.986328"/>
     </g>
    </g>
    <g id="line2d_14">
     <path d="M 254.685938 74.963921 
L 264.685938 74.963921 
L 274.685938 74.963921 
" style="fill: none; stroke: #e8c54a; stroke-width: 1.5; stroke-linecap: square"/>
    </g>
    <g id="text_8">
     <!-- Top Right -->
     <g transform="translate(282.685938 78.463921) scale(0.1 -0.1)">
      <defs>
       <path id="ArialMT-52" d="M 503 0 
L 503 4581 
L 2534 4581 
Q 3147 4581 3465 4457 
Q 3784 4334 3975 4021 
Q 4166 3709 4166 3331 
Q 4166 2844 3850 2509 
Q 3534 2175 2875 2084 
Q 3116 1969 3241 1856 
Q 3506 1613 3744 1247 
L 4541 0 
L 3778 0 
L 3172 953 
Q 2906 1366 2734 1584 
Q 2563 1803 2427 1890 
Q 2291 1978 2150 2013 
Q 2047 2034 1813 2034 
L 1109 2034 
L 1109 0 
L 503 0 
z
M 1109 2559 
L 2413 2559 
Q 2828 2559 3062 2645 
Q 3297 2731 3419 2920 
Q 3541 3109 3541 3331 
Q 3541 3656 3305 3865 
Q 3069 4075 2559 4075 
L 1109 4075 
L 1109 2559 
z
" transform="scale(0.015625)"/>
       <path id="ArialMT-69" d="M 425 3934 
L 425 4581 
L 988 4581 
L 988 3934 
L 425 3934 
z
M 425 0 
L 425 3319 
L 988 3319 
L 988 0 
L 425 0 
z
" transform="scale(0.015625)"/>
      </defs>
      <use xlink:href="#ArialMT-54"/>
      <use xlink:href="#ArialMT-6f" x="49.958984"/>
      <use xlink:href="#ArialMT-70" x="105.574219"/>
      <use xlink:href="#ArialMT-20" x="161.189453"/>
      <use xlink:href="#ArialMT-52" x="188.972656"/>
      <use xlink:href="#ArialMT-69" x="261.189453"/>
      <use xlink:href="#ArialMT-67" x="283.40625"/>
      <use xlink:href="#ArialMT-68" x="339.021484"/>
      <use xlink:href="#ArialMT-74" x="394.636719"/>
     </g>
    </g>
   </g>
  </g>
  <g id="axes_2">
   <g id="patch_7">
    <path d="M 84.3625 178.530469 
L 251.7625 178.530469 
L 251.7625 101.172329 
L 84.3625 101.172329 
z
" style="fill: #ffffff"/>
   </g>
   <g id="matplotlib.axis_3">
    <g id="xtick_4">
     <g id="line2d_15">
      <g>
       <use xlink:href="#mc36a02e45c" x="84.3625" y="178.530469" style="stroke: #000000; stroke-width: 0.8"/>
      </g>
     </g>
     <g id="text_9">
      <!-- 0.0 -->
      <g transform="translate(74.6325 195.551406) scale(0.14 -0.14)">
       <use xlink:href="#ArialMT-30"/>
       <use xlink:href="#ArialMT-2e" x="55.615234"/>
       <use xlink:href="#ArialMT-30" x="83.398438"/>
      </g>
     </g>
    </g>
    <g id="xtick_5">
     <g id="line2d_16">
      <g>
       <use xlink:href="#mc36a02e45c" x="168.0625" y="178.530469" style="stroke: #000000; stroke-width: 0.8"/>
      </g>
     </g>
     <g id="text_10">
      <!-- 1.0 -->
      <g transform="translate(158.3325 195.551406) scale(0.14 -0.14)">
       <defs>
        <path id="ArialMT-31" d="M 2384 0 
L 1822 0 
L 1822 3584 
Q 1619 3391 1289 3197 
Q 959 3003 697 2906 
L 697 3450 
Q 1169 3672 1522 3987 
Q 1875 4303 2022 4600 
L 2384 4600 
L 2384 0 
z
" transform="scale(0.015625)"/>
       </defs>
       <use xlink:href="#ArialMT-31"/>
       <use xlink:href="#ArialMT-2e" x="55.615234"/>
       <use xlink:href="#ArialMT-30" x="83.398438"/>
      </g>
     </g>
    </g>
    <g id="xtick_6">
     <g id="line2d_17">
      <g>
       <use xlink:href="#mc36a02e45c" x="251.7625" y="178.530469" style="stroke: #000000; stroke-width: 0.8"/>
      </g>
     </g>
     <g id="text_11">
      <!-- 2.0 -->
      <g transform="translate(242.0325 195.551406) scale(0.14 -0.14)">
       <use xlink:href="#ArialMT-32"/>
       <use xlink:href="#ArialMT-2e" x="55.615234"/>
       <use xlink:href="#ArialMT-30" x="83.398438"/>
      </g>
     </g>
    </g>
    <g id="text_12">
     <!-- Time (s) -->
     <g transform="translate(142.664531 212.525469) scale(0.14 -0.14)">
      <defs>
       <path id="ArialMT-73" d="M 197 991 
L 753 1078 
Q 800 744 1014 566 
Q 1228 388 1613 388 
Q 2000 388 2187 545 
Q 2375 703 2375 916 
Q 2375 1106 2209 1216 
Q 2094 1291 1634 1406 
Q 1016 1563 777 1677 
Q 538 1791 414 1992 
Q 291 2194 291 2438 
Q 291 2659 392 2848 
Q 494 3038 669 3163 
Q 800 3259 1026 3326 
Q 1253 3394 1513 3394 
Q 1903 3394 2198 3281 
Q 2494 3169 2634 2976 
Q 2775 2784 2828 2463 
L 2278 2388 
Q 2241 2644 2061 2787 
Q 1881 2931 1553 2931 
Q 1166 2931 1000 2803 
Q 834 2675 834 2503 
Q 834 2394 903 2306 
Q 972 2216 1119 2156 
Q 1203 2125 1616 2013 
Q 2213 1853 2448 1751 
Q 2684 1650 2818 1456 
Q 2953 1263 2953 975 
Q 2953 694 2789 445 
Q 2625 197 2315 61 
Q 2006 -75 1616 -75 
Q 969 -75 630 194 
Q 291 463 197 991 
z
" transform="scale(0.015625)"/>
      </defs>
      <use xlink:href="#ArialMT-54"/>
      <use xlink:href="#ArialMT-69" x="57.333984"/>
      <use xlink:href="#ArialMT-6d" x="79.550781"/>
      <use xlink:href="#ArialMT-65" x="162.851562"/>
      <use xlink:href="#ArialMT-20" x="218.466797"/>
      <use xlink:href="#ArialMT-28" x="246.25"/>
      <use xlink:href="#ArialMT-73" x="279.550781"/>
      <use xlink:href="#ArialMT-29" x="329.550781"/>
     </g>
    </g>
   </g>
   <g id="matplotlib.axis_4">
    <g id="ytick_4">
     <g id="line2d_18">
      <g>
       <use xlink:href="#m26ecdbcf2b" x="84.3625" y="178.530469" style="stroke: #000000; stroke-width: 0.8"/>
      </g>
     </g>
     <g id="text_13">
      <!-- −10 -->
      <g transform="translate(53.615 183.540938) scale(0.14 -0.14)">
       <use xlink:href="#ArialMT-2212"/>
       <use xlink:href="#ArialMT-31" x="58.398438"/>
       <use xlink:href="#ArialMT-30" x="114.013672"/>
      </g>
     </g>
    </g>
    <g id="ytick_5">
     <g id="line2d_19">
      <g>
       <use xlink:href="#m26ecdbcf2b" x="84.3625" y="139.851399" style="stroke: #000000; stroke-width: 0.8"/>
      </g>
     </g>
     <g id="text_14">
      <!-- 0 -->
      <g transform="translate(69.577188 144.861868) scale(0.14 -0.14)">
       <use xlink:href="#ArialMT-30"/>
      </g>
     </g>
    </g>
    <g id="ytick_6">
     <g id="line2d_20">
      <g>
       <use xlink:href="#m26ecdbcf2b" x="84.3625" y="101.172329" style="stroke: #000000; stroke-width: 0.8"/>
      </g>
     </g>
     <g id="text_15">
      <!-- 10 -->
      <g transform="translate(61.791875 106.182798) scale(0.14 -0.14)">
       <use xlink:href="#ArialMT-31"/>
       <use xlink:href="#ArialMT-30" x="55.615234"/>
      </g>
     </g>
    </g>
    <g id="text_16">
     <!-- Angles -->
     <g transform="translate(31.324438 161.253899) rotate(-90) scale(0.14 -0.14)">
      <defs>
       <path id="ArialMT-41" d="M -9 0 
L 1750 4581 
L 2403 4581 
L 4278 0 
L 3588 0 
L 3053 1388 
L 1138 1388 
L 634 0 
L -9 0 
z
M 1313 1881 
L 2866 1881 
L 2388 3150 
Q 2169 3728 2063 4100 
Q 1975 3659 1816 3225 
L 1313 1881 
z
" transform="scale(0.015625)"/>
      </defs>
      <use xlink:href="#ArialMT-41"/>
      <use xlink:href="#ArialMT-6e" x="66.699219"/>
      <use xlink:href="#ArialMT-67" x="122.314453"/>
      <use xlink:href="#ArialMT-6c" x="177.929688"/>
      <use xlink:href="#ArialMT-65" x="200.146484"/>
      <use xlink:href="#ArialMT-73" x="255.761719"/>
     </g>
     <!-- ($\circ$) -->
     <g transform="translate(46.535 148.951399) rotate(-90) scale(0.14 -0.14)">
      <defs>
       <path id="DejaVuSans-2218" d="M 2003 2603 
Q 1753 2603 1581 2429 
Q 1409 2256 1409 2006 
Q 1409 1759 1581 1589 
Q 1753 1419 2003 1419 
Q 2253 1419 2425 1589 
Q 2597 1759 2597 2006 
Q 2597 2253 2423 2428 
Q 2250 2603 2003 2603 
z
M 2003 3006 
Q 2203 3006 2387 2929 
Q 2572 2853 2706 2709 
Q 2850 2569 2922 2390 
Q 2994 2212 2994 2006 
Q 2994 1594 2705 1308 
Q 2416 1022 1997 1022 
Q 1575 1022 1294 1303 
Q 1013 1584 1013 2006 
Q 1013 2425 1300 2715 
Q 1588 3006 2003 3006 
z
" transform="scale(0.015625)"/>
      </defs>
      <use xlink:href="#ArialMT-28" transform="translate(0 0.203125)"/>
      <use xlink:href="#DejaVuSans-2218" transform="translate(33.300781 0.203125)"/>
      <use xlink:href="#ArialMT-29" transform="translate(95.898438 0.203125)"/>
     </g>
    </g>
   </g>
   <g id="line2d_21">
    <path d="M 84.2788 126.187288 
L 84.781 126.316994 
L 85.2832 126.684029 
L 85.8691 127.42415 
L 86.5387 128.671443 
L 87.3757 130.762469 
L 88.5475 134.385774 
L 90.8911 141.798263 
L 91.8118 143.947221 
L 92.5651 145.16372 
L 93.151 145.741683 
L 93.6532 145.981112 
L 94.1554 145.996232 
L 94.7413 145.757215 
L 95.4109 145.198456 
L 96.2479 144.18375 
L 97.9219 141.693411 
L 99.3448 139.74495 
L 100.3492 138.713793 
L 101.1862 138.133874 
L 102.0232 137.821174 
L 102.7765 137.761435 
L 103.6135 137.917968 
L 104.6179 138.357445 
L 106.1245 139.314409 
L 107.9659 140.440153 
L 109.1377 140.902766 
L 110.8117 141.2793 
L 112.0672 141.659355 
L 112.9042 142.136936 
L 113.7412 142.873562 
L 114.6619 143.998593 
L 115.9174 145.93954 
L 118.0099 149.225704 
L 118.9306 150.243988 
L 119.6839 150.744782 
L 120.3535 150.907867 
L 120.9394 150.829152 
L 121.609 150.49802 
L 122.3623 149.851825 
L 123.283 148.749572 
L 124.7059 146.642131 
L 128.0539 141.593516 
L 130.3138 138.658577 
L 131.7367 137.124695 
L 132.7411 136.356609 
L 133.5781 135.999666 
L 134.3314 135.919044 
L 135.1684 136.068452 
L 136.4239 136.568064 
L 137.6794 137.006722 
L 138.5164 137.070606 
L 139.3534 136.893435 
L 140.3578 136.418508 
L 142.534 135.302778 
L 143.371 135.152419 
L 144.2917 135.213628 
L 147.2212 135.625758 
L 148.3093 135.390416 
L 150.3181 134.889313 
L 151.0714 134.964201 
L 151.8247 135.271438 
L 152.6617 135.864043 
L 155.8423 138.434072 
L 156.6793 138.679362 
L 157.6837 138.729609 
L 159.6088 138.780047 
L 160.5295 139.072524 
L 161.6176 139.682345 
L 163.8775 141.050052 
L 164.7145 141.276725 
L 165.5515 141.276253 
L 166.4722 141.048302 
L 168.0625 140.368335 
L 169.6528 139.778727 
L 170.7409 139.598685 
L 171.7453 139.639026 
L 172.7497 139.908789 
L 173.6704 140.39831 
L 174.5911 141.162401 
L 175.5118 142.220088 
L 176.6836 143.927729 
L 179.0272 147.435099 
L 179.7805 148.161891 
L 180.4501 148.516323 
L 181.036 148.582466 
L 181.6219 148.428669 
L 182.2915 148.020078 
L 183.2122 147.173646 
L 185.7232 144.715346 
L 186.7276 144.111583 
L 187.8994 143.691949 
L 191.5822 142.59063 
L 194.1769 141.656956 
L 195.4324 141.480257 
L 196.6042 141.538984 
L 197.9434 141.832554 
L 199.7848 142.485806 
L 203.3839 143.804478 
L 204.8905 144.079441 
L 206.3134 144.111339 
L 207.9037 143.921957 
L 209.494 143.514425 
L 210.6658 142.986224 
L 211.5865 142.33484 
L 212.5072 141.397163 
L 213.4279 140.138834 
L 214.5997 138.13738 
L 217.1107 133.723772 
L 217.9477 132.729692 
L 218.701 132.163847 
L 219.4543 131.895699 
L 220.2913 131.866676 
L 223.8067 132.096497 
L 225.7318 131.907857 
L 226.4851 132.071177 
L 227.2384 132.474308 
L 227.9917 133.136316 
L 228.9124 134.254831 
L 230.5864 136.736595 
L 232.0093 138.674325 
L 233.0137 139.681937 
L 233.9344 140.291956 
L 234.8551 140.634521 
L 236.0269 140.809081 
L 238.789 141.110582 
L 240.463 141.61959 
L 242.137 142.082772 
L 243.1414 142.132645 
L 244.0621 141.960115 
L 245.0665 141.544366 
L 246.4894 140.679769 
L 249.2515 138.689089 
L 250.7581 137.368324 
L 251.7625 136.310046 
L 251.7625 136.310046 
" clip-path="url(#p8dc8b8af54)" style="fill: none; stroke: #4ae875; stroke-width: 1.5; stroke-linecap: square"/>
   </g>
   <g id="line2d_22">
    <path d="M 84.2788 140.28723 
L 87.0409 140.145313 
L 94.0717 139.663421 
L 96.9175 139.713601 
L 103.1113 139.963263 
L 107.8822 139.978191 
L 112.1509 139.96594 
L 114.8293 140.06072 
L 120.4372 140.43348 
L 122.5297 140.205539 
L 126.5473 139.702072 
L 129.142 139.688252 
L 132.7411 139.63427 
L 136.5913 139.560254 
L 140.3578 139.796784 
L 143.7058 139.897634 
L 157.7674 139.747722 
L 168.9832 139.332085 
L 172.5823 138.994286 
L 174.5074 139.084958 
L 184.3003 139.967894 
L 187.4809 140.056843 
L 189.2386 139.881344 
L 191.2474 139.445661 
L 194.5954 138.70376 
L 196.2694 138.589297 
L 197.9434 138.704104 
L 199.7848 139.06705 
L 202.3795 139.840909 
L 204.8905 140.517815 
L 206.4808 140.719373 
L 208.1548 140.698312 
L 210.4147 140.413545 
L 215.0182 139.795023 
L 218.1151 139.644361 
L 221.3794 139.712341 
L 226.4851 139.865013 
L 232.93 139.752141 
L 236.5291 139.814531 
L 240.7978 139.835586 
L 244.4806 139.900755 
L 247.8286 139.641857 
L 251.7625 139.408849 
L 251.7625 139.408849 
" clip-path="url(#p8dc8b8af54)" style="fill: none; stroke: #94885f; stroke-width: 1.5; stroke-linecap: square"/>
   </g>
   <g id="line2d_23">
    <path d="M 84.2788 126.706694 
L 84.781 126.769912 
L 85.2832 127.070245 
L 85.8691 127.732814 
L 86.5387 128.892892 
L 87.3757 130.879376 
L 88.4638 134.104417 
L 91.0585 142.039173 
L 91.9792 144.039926 
L 92.6488 145.041173 
L 93.2347 145.580267 
L 93.7369 145.794378 
L 94.2391 145.792382 
L 94.825 145.544265 
L 95.4946 144.989318 
L 96.4153 143.88697 
L 100.0981 139.063649 
L 101.0188 138.372293 
L 101.8558 138.012004 
L 102.6928 137.904256 
L 103.5298 138.028713 
L 104.4505 138.38966 
L 105.7897 139.188333 
L 108.1333 140.618355 
L 109.3888 141.094731 
L 112.402 142.051947 
L 113.239 142.662514 
L 114.076 143.543519 
L 115.0804 144.939863 
L 117.0055 148.13199 
L 118.1773 149.85167 
L 119.0143 150.731455 
L 119.6839 151.155736 
L 120.2698 151.301583 
L 120.8557 151.232749 
L 121.5253 150.900671 
L 122.2786 150.235808 
L 123.1993 149.085038 
L 124.5385 146.996265 
L 127.9702 141.492984 
L 130.0627 138.655538 
L 131.5693 136.948495 
L 132.5737 136.115356 
L 133.4107 135.692702 
L 134.164 135.54959 
L 135.001 135.6359 
L 136.0891 136.008956 
L 137.6794 136.557623 
L 138.5164 136.610274 
L 139.3534 136.43005 
L 140.3578 135.962463 
L 142.4503 134.912933 
L 143.371 134.754023 
L 144.2917 134.828307 
L 147.0538 135.243446 
L 148.0582 135.039474 
L 150.6529 134.334246 
L 151.4062 134.451673 
L 152.1595 134.794591 
L 153.1639 135.52742 
L 155.2564 137.133186 
L 156.0934 137.470279 
L 156.9304 137.577841 
L 158.1859 137.476585 
L 159.5251 137.430672 
L 160.4458 137.635769 
L 161.4502 138.105323 
L 164.2123 139.56125 
L 165.0493 139.679547 
L 165.97 139.569298 
L 167.1418 139.167597 
L 169.6528 138.236013 
L 170.8246 138.089336 
L 171.9127 138.191794 
L 172.9171 138.522844 
L 173.8378 139.067622 
L 174.7585 139.883356 
L 175.7629 141.094304 
L 177.1021 143.102181 
L 178.8598 145.682607 
L 179.6968 146.519757 
L 180.3664 146.890185 
L 180.9523 146.972293 
L 181.5382 146.833097 
L 182.2078 146.435786 
L 183.1285 145.589692 
L 185.8906 142.847852 
L 186.895 142.258016 
L 188.0668 141.840172 
L 191.4985 140.778654 
L 194.428 139.680942 
L 195.6835 139.475422 
L 196.939 139.486376 
L 198.4456 139.732793 
L 200.6218 140.349812 
L 203.7187 141.221259 
L 205.3927 141.440856 
L 207.1504 141.435019 
L 209.1592 141.207959 
L 210.4984 140.846232 
L 211.5028 140.330394 
L 212.3398 139.657332 
L 213.2605 138.614595 
L 214.3486 136.999252 
L 217.4455 132.100683 
L 218.2825 131.334463 
L 219.0358 130.961605 
L 219.7891 130.851157 
L 220.7935 130.968528 
L 222.7186 131.254797 
L 223.8904 131.156435 
L 225.8155 130.95577 
L 226.5688 131.1224 
L 227.3221 131.530429 
L 228.0754 132.195702 
L 228.9961 133.312344 
L 230.8375 136.017605 
L 232.1767 137.780425 
L 233.1811 138.750851 
L 234.1018 139.340211 
L 235.1062 139.703859 
L 236.4454 139.918745 
L 238.5379 140.252772 
L 240.1282 140.779135 
L 242.0533 141.408351 
L 243.0577 141.49788 
L 243.9784 141.355729 
L 244.9828 140.963643 
L 246.322 140.173032 
L 249.4189 137.994039 
L 251.0092 136.634313 
L 251.7625 135.877404 
L 251.7625 135.877404 
" clip-path="url(#p8dc8b8af54)" style="fill: none; stroke: #6b4545; stroke-width: 1.5; stroke-linecap: square"/>
   </g>
   <g id="patch_8">
    <path d="M 84.3625 178.530469 
L 84.3625 101.172329 
" style="fill: none; stroke: #000000; stroke-width: 0.8; stroke-linejoin: miter; stroke-linecap: square"/>
   </g>
   <g id="patch_9">
    <path d="M 251.7625 178.530469 
L 251.7625 101.172329 
" style="fill: none; stroke: #000000; stroke-width: 0.8; stroke-linejoin: miter; stroke-linecap: square"/>
   </g>
   <g id="patch_10">
    <path d="M 84.3625 178.530469 
L 251.7625 178.530469 
" style="fill: none; stroke: #000000; stroke-width: 0.8; stroke-linejoin: miter; stroke-linecap: square"/>
   </g>
   <g id="patch_11">
    <path d="M 84.3625 101.172329 
L 251.7625 101.172329 
" style="fill: none; stroke: #000000; stroke-width: 0.8; stroke-linejoin: miter; stroke-linecap: square"/>
   </g>
   <g id="legend_2">
    <g id="line2d_24">
     <path d="M 76.975781 113.830142 
L 86.975781 113.830142 
L 96.975781 113.830142 
" style="fill: none; stroke: #4ae875; stroke-width: 1.5; stroke-linecap: square"/>
    </g>
    <g id="text_17">
     <!-- Roll -->
     <g transform="translate(104.975781 117.330142) scale(0.1 -0.1)">
      <use xlink:href="#ArialMT-52"/>
      <use xlink:href="#ArialMT-6f" x="72.216797"/>
      <use xlink:href="#ArialMT-6c" x="127.832031"/>
      <use xlink:href="#ArialMT-6c" x="150.048828"/>
     </g>
    </g>
    <g id="line2d_25">
     <path d="M 142.202344 113.830142 
L 152.202344 113.830142 
L 162.202344 113.830142 
" style="fill: none; stroke: #94885f; stroke-width: 1.5; stroke-linecap: square"/>
    </g>
    <g id="text_18">
     <!-- Pitch -->
     <g transform="translate(170.202344 117.330142) scale(0.1 -0.1)">
      <defs>
       <path id="ArialMT-63" d="M 2588 1216 
L 3141 1144 
Q 3050 572 2676 248 
Q 2303 -75 1759 -75 
Q 1078 -75 664 370 
Q 250 816 250 1647 
Q 250 2184 428 2587 
Q 606 2991 970 3192 
Q 1334 3394 1763 3394 
Q 2303 3394 2647 3120 
Q 2991 2847 3088 2344 
L 2541 2259 
Q 2463 2594 2264 2762 
Q 2066 2931 1784 2931 
Q 1359 2931 1093 2626 
Q 828 2322 828 1663 
Q 828 994 1084 691 
Q 1341 388 1753 388 
Q 2084 388 2306 591 
Q 2528 794 2588 1216 
z
" transform="scale(0.015625)"/>
      </defs>
      <use xlink:href="#ArialMT-50"/>
      <use xlink:href="#ArialMT-69" x="66.699219"/>
      <use xlink:href="#ArialMT-74" x="88.916016"/>
      <use xlink:href="#ArialMT-63" x="116.699219"/>
      <use xlink:href="#ArialMT-68" x="166.699219"/>
     </g>
    </g>
    <g id="line2d_26">
     <path d="M 212.433594 113.830142 
L 222.433594 113.830142 
L 232.433594 113.830142 
" style="fill: none; stroke: #6b4545; stroke-width: 1.5; stroke-linecap: square"/>
    </g>
    <g id="text_19">
     <!-- Yaw -->
     <g transform="translate(240.433594 117.330142) scale(0.1 -0.1)">
      <defs>
       <path id="ArialMT-59" d="M 1784 0 
L 1784 1941 
L 19 4581 
L 756 4581 
L 1659 3200 
Q 1909 2813 2125 2425 
Q 2331 2784 2625 3234 
L 3513 4581 
L 4219 4581 
L 2391 1941 
L 2391 0 
L 1784 0 
z
" transform="scale(0.015625)"/>
       <path id="ArialMT-77" d="M 1034 0 
L 19 3319 
L 600 3319 
L 1128 1403 
L 1325 691 
Q 1338 744 1497 1375 
L 2025 3319 
L 2603 3319 
L 3100 1394 
L 3266 759 
L 3456 1400 
L 4025 3319 
L 4572 3319 
L 3534 0 
L 2950 0 
L 2422 1988 
L 2294 2553 
L 1622 0 
L 1034 0 
z
" transform="scale(0.015625)"/>
      </defs>
      <use xlink:href="#ArialMT-59"/>
      <use xlink:href="#ArialMT-61" x="59.324219"/>
      <use xlink:href="#ArialMT-77" x="114.939453"/>
     </g>
    </g>
   </g>
  </g>
 </g>
 <defs>
  <clipPath id="p67271750f4">
   <rect x="84.3625" y="12.210469" width="167.4" height="77.35814"/>
  </clipPath>
  <clipPath id="p8dc8b8af54">
   <rect x="84.3625" y="101.172329" width="167.4" height="77.35814"/>
  </clipPath>
 </defs>
</svg>
