<?xml version="1.0" encoding="utf-8" standalone="no"?>
<!DOCTYPE svg PUBLIC "-//W3C//DTD SVG 1.1//EN"
  "http://www.w3.org/Graphics/SVG/1.1/DTD/svg11.dtd">
<svg xmlns:xlink="http://www.w3.org/1999/xlink" width="336.125pt" height="222.672031pt" viewBox="0 0 336.125 222.672031" xmlns="http://www.w3.org/2000/svg" version="1.1">
 <metadata>
  <rdf:RDF xmlns:dc="http://purl.org/dc/elements/1.1/" xmlns:cc="http://creativecommons.org/ns#" xmlns:rdf="http://www.w3.org/1999/02/22-rdf-syntax-ns#">
   <cc:Work>
    <dc:type rdf:resource="http://purl.org/dc/dcmitype/StillImage"/>
    <dc:date>2024-08-27T12:56:03.746682</dc:date>
    <dc:format>image/svg+xml</dc:format>
    <dc:creator>
     <cc:Agent>
      <dc:title>Matplotlib v3.7.1, https://matplotlib.org/</dc:title>
     </cc:Agent>
    </dc:creator>
   </cc:Work>
  </rdf:RDF>
 </metadata>
 <defs>
  <style type="text/css">*{stroke-linejoin: round; stroke-linecap: butt}</style>
 </defs>
 <g id="figure_1">
  <g id="patch_1">
   <path d="M 0 222.672031 
L 336.125 222.672031 
L 336.125 0 
L 0 0 
z
" style="fill: #ffffff"/>
  </g>
  <g id="axes_1">
   <g id="patch_2">
    <path d="M 84.3625 89.568608 
L 251.7625 89.568608 
L 251.7625 12.210469 
L 84.3625 12.210469 
z
" style="fill: #ffffff"/>
   </g>
   <g id="matplotlib.axis_1">
    <g id="xtick_1">
     <g id="line2d_1">
      <defs>
       <path id="m226879c8af" d="M 0 0 
L 0 3.5 
" style="stroke: #000000; stroke-width: 0.8"/>
      </defs>
      <g>
       <use xlink:href="#m226879c8af" x="84.3625" y="89.568608" style="stroke: #000000; stroke-width: 0.8"/>
      </g>
     </g>
    </g>
    <g id="xtick_2">
     <g id="line2d_2">
      <g>
       <use xlink:href="#m226879c8af" x="168.0625" y="89.568608" style="stroke: #000000; stroke-width: 0.8"/>
      </g>
     </g>
    </g>
    <g id="xtick_3">
     <g id="line2d_3">
      <g>
       <use xlink:href="#m226879c8af" x="251.7625" y="89.568608" style="stroke: #000000; stroke-width: 0.8"/>
      </g>
     </g>
    </g>
   </g>
   <g id="matplotlib.axis_2">
    <g id="ytick_1">
     <g id="line2d_4">
      <defs>
       <path id="m159f1aae8c" d="M 0 0 
L -3.5 0 
" style="stroke: #000000; stroke-width: 0.8"/>
      </defs>
      <g>
       <use xlink:href="#m159f1aae8c" x="84.3625" y="89.568608" style="stroke: #000000; stroke-width: 0.8"/>
      </g>
     </g>
     <g id="text_1">
      <!-- −0.2 -->
      <g transform="translate(49.725625 94.579077) scale(0.14 -0.14)">
       <defs>
        <path id="ArialMT-2212" d="M 3381 1997 
L 356 1997 
L 356 2522 
L 3381 2522 
L 3381 1997 
z
" transform="scale(0.015625)"/>
        <path id="ArialMT-30" d="M 266 2259 
Q 266 3072 433 3567 
Q 600 4063 929 4331 
Q 1259 4600 1759 4600 
Q 2128 4600 2406 4451 
Q 2684 4303 2865 4023 
Q 3047 3744 3150 3342 
Q 3253 2941 3253 2259 
Q 3253 1453 3087 958 
Q 2922 463 2592 192 
Q 2263 -78 1759 -78 
Q 1097 -78 719 397 
Q 266 969 266 2259 
z
M 844 2259 
Q 844 1131 1108 757 
Q 1372 384 1759 384 
Q 2147 384 2411 759 
Q 2675 1134 2675 2259 
Q 2675 3391 2411 3762 
Q 2147 4134 1753 4134 
Q 1366 4134 1134 3806 
Q 844 3388 844 2259 
z
" transform="scale(0.015625)"/>
        <path id="ArialMT-2e" d="M 581 0 
L 581 641 
L 1222 641 
L 1222 0 
L 581 0 
z
" transform="scale(0.015625)"/>
        <path id="ArialMT-32" d="M 3222 541 
L 3222 0 
L 194 0 
Q 188 203 259 391 
Q 375 700 629 1000 
Q 884 1300 1366 1694 
Q 2113 2306 2375 2664 
Q 2638 3022 2638 3341 
Q 2638 3675 2398 3904 
Q 2159 4134 1775 4134 
Q 1369 4134 1125 3890 
Q 881 3647 878 3216 
L 300 3275 
Q 359 3922 746 4261 
Q 1134 4600 1788 4600 
Q 2447 4600 2831 4234 
Q 3216 3869 3216 3328 
Q 3216 3053 3103 2787 
Q 2991 2522 2730 2228 
Q 2469 1934 1863 1422 
Q 1356 997 1212 845 
Q 1069 694 975 541 
L 3222 541 
z
" transform="scale(0.015625)"/>
       </defs>
       <use xlink:href="#ArialMT-2212"/>
       <use xlink:href="#ArialMT-30" x="58.398438"/>
       <use xlink:href="#ArialMT-2e" x="114.013672"/>
       <use xlink:href="#ArialMT-32" x="141.796875"/>
      </g>
     </g>
    </g>
    <g id="ytick_2">
     <g id="line2d_5">
      <g>
       <use xlink:href="#m159f1aae8c" x="84.3625" y="50.889539" style="stroke: #000000; stroke-width: 0.8"/>
      </g>
     </g>
     <g id="text_2">
      <!-- 0.0 -->
      <g transform="translate(57.9025 55.900007) scale(0.14 -0.14)">
       <use xlink:href="#ArialMT-30"/>
       <use xlink:href="#ArialMT-2e" x="55.615234"/>
       <use xlink:href="#ArialMT-30" x="83.398438"/>
      </g>
     </g>
    </g>
    <g id="ytick_3">
     <g id="line2d_6">
      <g>
       <use xlink:href="#m159f1aae8c" x="84.3625" y="12.210469" style="stroke: #000000; stroke-width: 0.8"/>
      </g>
     </g>
     <g id="text_3">
      <!-- 0.2 -->
      <g transform="translate(57.9025 17.220938) scale(0.14 -0.14)">
       <use xlink:href="#ArialMT-30"/>
       <use xlink:href="#ArialMT-2e" x="55.615234"/>
       <use xlink:href="#ArialMT-32" x="83.398438"/>
      </g>
     </g>
    </g>
    <g id="text_4">
     <!-- Photovoltage -->
     <g transform="translate(27.602625 91.752039) rotate(-90) scale(0.14 -0.14)">
      <defs>
       <path id="ArialMT-50" d="M 494 0 
L 494 4581 
L 2222 4581 
Q 2678 4581 2919 4538 
Q 3256 4481 3484 4323 
Q 3713 4166 3852 3881 
Q 3991 3597 3991 3256 
Q 3991 2672 3619 2267 
Q 3247 1863 2275 1863 
L 1100 1863 
L 1100 0 
L 494 0 
z
M 1100 2403 
L 2284 2403 
Q 2872 2403 3119 2622 
Q 3366 2841 3366 3238 
Q 3366 3525 3220 3729 
Q 3075 3934 2838 4000 
Q 2684 4041 2272 4041 
L 1100 4041 
L 1100 2403 
z
" transform="scale(0.015625)"/>
       <path id="ArialMT-68" d="M 422 0 
L 422 4581 
L 984 4581 
L 984 2938 
Q 1378 3394 1978 3394 
Q 2347 3394 2619 3248 
Q 2891 3103 3008 2847 
Q 3125 2591 3125 2103 
L 3125 0 
L 2563 0 
L 2563 2103 
Q 2563 2525 2380 2717 
Q 2197 2909 1863 2909 
Q 1613 2909 1392 2779 
Q 1172 2650 1078 2428 
Q 984 2206 984 1816 
L 984 0 
L 422 0 
z
" transform="scale(0.015625)"/>
       <path id="ArialMT-6f" d="M 213 1659 
Q 213 2581 725 3025 
Q 1153 3394 1769 3394 
Q 2453 3394 2887 2945 
Q 3322 2497 3322 1706 
Q 3322 1066 3130 698 
Q 2938 331 2570 128 
Q 2203 -75 1769 -75 
Q 1072 -75 642 372 
Q 213 819 213 1659 
z
M 791 1659 
Q 791 1022 1069 705 
Q 1347 388 1769 388 
Q 2188 388 2466 706 
Q 2744 1025 2744 1678 
Q 2744 2294 2464 2611 
Q 2184 2928 1769 2928 
Q 1347 2928 1069 2612 
Q 791 2297 791 1659 
z
" transform="scale(0.015625)"/>
       <path id="ArialMT-74" d="M 1650 503 
L 1731 6 
Q 1494 -44 1306 -44 
Q 1000 -44 831 53 
Q 663 150 594 308 
Q 525 466 525 972 
L 525 2881 
L 113 2881 
L 113 3319 
L 525 3319 
L 525 4141 
L 1084 4478 
L 1084 3319 
L 1650 3319 
L 1650 2881 
L 1084 2881 
L 1084 941 
Q 1084 700 1114 631 
Q 1144 563 1211 522 
Q 1278 481 1403 481 
Q 1497 481 1650 503 
z
" transform="scale(0.015625)"/>
       <path id="ArialMT-76" d="M 1344 0 
L 81 3319 
L 675 3319 
L 1388 1331 
Q 1503 1009 1600 663 
Q 1675 925 1809 1294 
L 2547 3319 
L 3125 3319 
L 1869 0 
L 1344 0 
z
" transform="scale(0.015625)"/>
       <path id="ArialMT-6c" d="M 409 0 
L 409 4581 
L 972 4581 
L 972 0 
L 409 0 
z
" transform="scale(0.015625)"/>
       <path id="ArialMT-61" d="M 2588 409 
Q 2275 144 1986 34 
Q 1697 -75 1366 -75 
Q 819 -75 525 192 
Q 231 459 231 875 
Q 231 1119 342 1320 
Q 453 1522 633 1644 
Q 813 1766 1038 1828 
Q 1203 1872 1538 1913 
Q 2219 1994 2541 2106 
Q 2544 2222 2544 2253 
Q 2544 2597 2384 2738 
Q 2169 2928 1744 2928 
Q 1347 2928 1158 2789 
Q 969 2650 878 2297 
L 328 2372 
Q 403 2725 575 2942 
Q 747 3159 1072 3276 
Q 1397 3394 1825 3394 
Q 2250 3394 2515 3294 
Q 2781 3194 2906 3042 
Q 3031 2891 3081 2659 
Q 3109 2516 3109 2141 
L 3109 1391 
Q 3109 606 3145 398 
Q 3181 191 3288 0 
L 2700 0 
Q 2613 175 2588 409 
z
M 2541 1666 
Q 2234 1541 1622 1453 
Q 1275 1403 1131 1340 
Q 988 1278 909 1158 
Q 831 1038 831 891 
Q 831 666 1001 516 
Q 1172 366 1500 366 
Q 1825 366 2078 508 
Q 2331 650 2450 897 
Q 2541 1088 2541 1459 
L 2541 1666 
z
" transform="scale(0.015625)"/>
       <path id="ArialMT-67" d="M 319 -275 
L 866 -356 
Q 900 -609 1056 -725 
Q 1266 -881 1628 -881 
Q 2019 -881 2231 -725 
Q 2444 -569 2519 -288 
Q 2563 -116 2559 434 
Q 2191 0 1641 0 
Q 956 0 581 494 
Q 206 988 206 1678 
Q 206 2153 378 2554 
Q 550 2956 876 3175 
Q 1203 3394 1644 3394 
Q 2231 3394 2613 2919 
L 2613 3319 
L 3131 3319 
L 3131 450 
Q 3131 -325 2973 -648 
Q 2816 -972 2473 -1159 
Q 2131 -1347 1631 -1347 
Q 1038 -1347 672 -1080 
Q 306 -813 319 -275 
z
M 784 1719 
Q 784 1066 1043 766 
Q 1303 466 1694 466 
Q 2081 466 2343 764 
Q 2606 1063 2606 1700 
Q 2606 2309 2336 2618 
Q 2066 2928 1684 2928 
Q 1309 2928 1046 2623 
Q 784 2319 784 1719 
z
" transform="scale(0.015625)"/>
       <path id="ArialMT-65" d="M 2694 1069 
L 3275 997 
Q 3138 488 2766 206 
Q 2394 -75 1816 -75 
Q 1088 -75 661 373 
Q 234 822 234 1631 
Q 234 2469 665 2931 
Q 1097 3394 1784 3394 
Q 2450 3394 2872 2941 
Q 3294 2488 3294 1666 
Q 3294 1616 3291 1516 
L 816 1516 
Q 847 969 1125 678 
Q 1403 388 1819 388 
Q 2128 388 2347 550 
Q 2566 713 2694 1069 
z
M 847 1978 
L 2700 1978 
Q 2663 2397 2488 2606 
Q 2219 2931 1791 2931 
Q 1403 2931 1139 2672 
Q 875 2413 847 1978 
z
" transform="scale(0.015625)"/>
      </defs>
      <use xlink:href="#ArialMT-50"/>
      <use xlink:href="#ArialMT-68" x="66.699219"/>
      <use xlink:href="#ArialMT-6f" x="122.314453"/>
      <use xlink:href="#ArialMT-74" x="177.929688"/>
      <use xlink:href="#ArialMT-6f" x="205.712891"/>
      <use xlink:href="#ArialMT-76" x="261.328125"/>
      <use xlink:href="#ArialMT-6f" x="311.328125"/>
      <use xlink:href="#ArialMT-6c" x="366.943359"/>
      <use xlink:href="#ArialMT-74" x="389.160156"/>
      <use xlink:href="#ArialMT-61" x="416.943359"/>
      <use xlink:href="#ArialMT-67" x="472.558594"/>
      <use xlink:href="#ArialMT-65" x="528.173828"/>
     </g>
     <!-- (V) -->
     <g transform="translate(42.779063 60.22032) rotate(-90) scale(0.14 -0.14)">
      <defs>
       <path id="ArialMT-28" d="M 1497 -1347 
Q 1031 -759 709 28 
Q 388 816 388 1659 
Q 388 2403 628 3084 
Q 909 3875 1497 4659 
L 1900 4659 
Q 1522 4009 1400 3731 
Q 1209 3300 1100 2831 
Q 966 2247 966 1656 
Q 966 153 1900 -1347 
L 1497 -1347 
z
" transform="scale(0.015625)"/>
       <path id="ArialMT-56" d="M 1803 0 
L 28 4581 
L 684 4581 
L 1875 1253 
Q 2019 853 2116 503 
Q 2222 878 2363 1253 
L 3600 4581 
L 4219 4581 
L 2425 0 
L 1803 0 
z
" transform="scale(0.015625)"/>
       <path id="ArialMT-29" d="M 791 -1347 
L 388 -1347 
Q 1322 153 1322 1656 
Q 1322 2244 1188 2822 
Q 1081 3291 891 3722 
Q 769 4003 388 4659 
L 791 4659 
Q 1378 3875 1659 3084 
Q 1900 2403 1900 1659 
Q 1900 816 1576 28 
Q 1253 -759 791 -1347 
z
" transform="scale(0.015625)"/>
      </defs>
      <use xlink:href="#ArialMT-28"/>
      <use xlink:href="#ArialMT-56" x="33.300781"/>
      <use xlink:href="#ArialMT-29" x="100"/>
     </g>
    </g>
   </g>
   <g id="line2d_7">
    <path d="M 84.3067 51.178837 
L 86.9293 51.293094 
L 88.2685 51.076132 
L 90.5005 50.690664 
L 92.4535 50.69297 
L 105.6781 50.864649 
L 107.3521 50.82152 
L 110.1421 50.66239 
L 116.2801 50.933975 
L 123.7015 50.871405 
L 127.3843 50.90877 
L 139.0465 51.178292 
L 140.8321 50.98029 
L 143.2315 50.697261 
L 145.2403 50.799886 
L 146.9143 50.763417 
L 149.3695 50.69091 
L 153.3313 50.804071 
L 158.5207 50.700281 
L 160.3621 50.869355 
L 163.3753 51.210284 
L 168.6763 51.397205 
L 173.1961 51.769356 
L 178.2739 51.725257 
L 179.9479 51.603639 
L 184.2445 51.101109 
L 187.5367 51.090783 
L 193.7863 51.333255 
L 201.8773 51.037083 
L 206.2855 51.158715 
L 210.4705 51.060717 
L 215.4925 51.073951 
L 219.8449 51.320218 
L 221.9653 51.348933 
L 229.4983 51.119928 
L 235.1899 51.084783 
L 247.2427 50.832305 
L 249.6979 50.970172 
L 251.7625 50.837257 
L 251.7625 50.837257 
" clip-path="url(#p181a3e2c21)" style="fill: none; stroke: #e84a4e; stroke-width: 1.5; stroke-linecap: square"/>
   </g>
   <g id="line2d_8">
    <path d="M 84.3067 42.060968 
L 85.9249 42.534481 
L 87.0409 42.745555 
L 87.9895 42.681079 
L 90.8911 42.27047 
L 93.3463 42.301364 
L 96.9175 41.901351 
L 98.3683 42.129995 
L 101.1583 42.63674 
L 104.4505 42.817226 
L 106.6825 43.484388 
L 107.4637 43.39093 
L 108.4123 43.019899 
L 111.5929 41.55821 
L 112.5415 41.460631 
L 113.4901 41.600859 
L 114.6061 42.001768 
L 117.5635 43.204279 
L 118.4005 43.202502 
L 119.4607 42.944686 
L 121.3579 42.462765 
L 122.9203 42.370894 
L 125.2639 42.210924 
L 126.8821 41.855843 
L 128.2771 41.601468 
L 129.1141 41.687873 
L 130.1185 42.056521 
L 131.2903 42.453498 
L 131.9599 42.444379 
L 132.6853 42.192711 
L 134.7499 41.305824 
L 135.4195 41.34815 
L 136.2565 41.635168 
L 138.7675 42.646726 
L 139.7719 42.743956 
L 140.7763 42.600639 
L 143.9011 41.930112 
L 147.3607 41.81815 
L 149.9275 41.529155 
L 150.9877 41.646666 
L 152.2153 42.042055 
L 153.2197 42.283167 
L 153.8335 42.202683 
L 154.6147 41.827717 
L 155.2843 41.58914 
L 155.6191 41.676197 
L 155.9539 42.00562 
L 156.2887 42.653807 
L 156.6793 43.897364 
L 157.1815 46.34518 
L 157.8511 50.96341 
L 160.6969 72.540038 
L 161.4223 75.574657 
L 162.0361 77.296478 
L 162.5941 78.284831 
L 163.0963 78.782774 
L 163.5985 78.995128 
L 164.2123 79.004744 
L 165.9421 78.894869 
L 167.1139 79.20548 
L 168.1741 79.399361 
L 168.8995 79.313023 
L 169.6249 78.990843 
L 170.3503 78.40679 
L 171.1315 77.470334 
L 172.1359 75.868348 
L 175.1491 70.780261 
L 175.8745 70.058162 
L 176.4883 69.74131 
L 177.1021 69.685839 
L 178.0507 69.88303 
L 178.8877 69.965852 
L 179.4457 69.78876 
L 179.9479 69.395938 
L 180.5059 68.657278 
L 181.1197 67.437347 
L 181.7893 65.577829 
L 182.6263 62.505473 
L 185.4163 51.500136 
L 186.1417 49.779982 
L 186.8113 48.689822 
L 187.4809 48.005406 
L 188.0947 47.67435 
L 188.7643 47.564211 
L 189.6013 47.665889 
L 191.6659 48.232071 
L 192.7261 48.70879 
L 193.6189 49.363635 
L 195.7393 51.058369 
L 196.4089 51.227361 
L 197.0785 51.157332 
L 198.0829 50.786849 
L 199.6453 50.222797 
L 201.1519 49.964853 
L 203.7745 49.761587 
L 205.2253 49.872984 
L 206.4529 50.182543 
L 207.7921 50.766462 
L 209.2429 51.371112 
L 210.0241 51.452963 
L 210.8053 51.306422 
L 213.2605 50.655948 
L 214.2649 50.780132 
L 217.1665 51.297133 
L 218.3941 51.214988 
L 221.9653 50.748943 
L 223.4719 50.739238 
L 224.3089 50.483648 
L 225.5923 49.792545 
L 226.6525 49.329311 
L 227.4895 49.215582 
L 228.6055 49.320175 
L 230.2237 49.449184 
L 232.2883 49.297672 
L 234.1855 49.275386 
L 236.1943 49.490515 
L 238.1473 49.650136 
L 240.3235 49.529921 
L 242.3323 49.533491 
L 246.1267 49.816296 
L 248.6377 50.279028 
L 250.8139 50.592904 
L 251.7625 50.607416 
L 251.7625 50.607416 
" clip-path="url(#p181a3e2c21)" style="fill: none; stroke: #51546b; stroke-width: 1.5; stroke-linecap: square"/>
   </g>
   <g id="line2d_9">
    <path d="M 84.3067 50.992077 
L 88.9381 50.877702 
L 106.4035 50.888102 
L 109.6957 51.234204 
L 112.8205 51.48952 
L 116.4475 51.481905 
L 124.2037 51.507699 
L 131.6251 51.698438 
L 134.9731 51.408388 
L 138.3211 51.225963 
L 145.6309 51.163156 
L 148.6999 51.124203 
L 156.5677 50.713239 
L 157.3489 50.321315 
L 159.5809 49.006757 
L 160.1947 49.006518 
L 160.8643 49.241978 
L 161.9803 49.929638 
L 163.3753 50.719361 
L 164.5471 51.109399 
L 165.8863 51.317321 
L 167.6161 51.343283 
L 176.9905 50.878187 
L 179.8921 50.728968 
L 183.4633 50.891191 
L 187.0903 50.926504 
L 194.1211 50.584571 
L 197.2459 50.568361 
L 208.5733 50.928059 
L 219.2869 50.817089 
L 228.5497 50.866083 
L 247.9123 50.514019 
L 251.7625 50.816884 
L 251.7625 50.816884 
" clip-path="url(#p181a3e2c21)" style="fill: none; stroke: #616eeb; stroke-width: 1.5; stroke-linecap: square"/>
   </g>
   <g id="line2d_10">
    <path d="M 84.3067 51.8175 
L 85.1437 51.8049 
L 86.1481 51.542637 
L 88.1569 50.702427 
L 89.8867 50.102375 
L 91.2259 49.877352 
L 92.9557 49.836287 
L 96.8617 50.050473 
L 98.2567 50.30249 
L 99.7075 50.830356 
L 101.2699 51.349033 
L 102.3859 51.465422 
L 103.6693 51.355384 
L 105.3433 50.970352 
L 107.9101 50.112547 
L 109.5283 49.684545 
L 110.8675 49.57255 
L 112.7089 49.671633 
L 114.8293 49.992714 
L 116.8939 50.558332 
L 119.1259 51.123559 
L 120.1861 51.164876 
L 121.1347 50.973391 
L 122.3623 50.460226 
L 124.5385 49.527527 
L 125.9335 49.200722 
L 127.3285 49.104758 
L 128.7793 49.228302 
L 130.5649 49.622686 
L 134.1919 50.711594 
L 137.2609 51.783637 
L 138.0421 51.72097 
L 138.9907 51.407085 
L 143.2873 49.658909 
L 144.5707 49.546236 
L 146.1889 49.642463 
L 148.0303 49.965275 
L 150.0949 50.575203 
L 152.1595 51.118314 
L 156.8467 51.919401 
L 158.3533 51.850541 
L 159.7483 51.861895 
L 160.9759 52.134264 
L 162.7057 52.515303 
L 163.9333 52.514898 
L 166.1653 52.477483 
L 168.1183 52.755219 
L 170.4619 53.044 
L 172.0243 52.993766 
L 174.4795 52.894756 
L 176.9347 52.872103 
L 178.3855 52.584379 
L 180.8965 51.808194 
L 183.0169 51.251329 
L 184.4677 51.099056 
L 185.8627 51.189327 
L 191.4985 52.06452 
L 193.2841 52.26271 
L 194.7349 52.181377 
L 199.6453 51.727555 
L 201.6541 51.791339 
L 204.6115 51.960567 
L 206.1739 51.703739 
L 207.9595 51.466437 
L 209.7451 51.488068 
L 213.3721 51.801332 
L 220.2355 52.443525 
L 221.7979 52.228001 
L 224.6995 51.747741 
L 230.2795 51.524231 
L 233.5717 51.630171 
L 246.5173 51.091653 
L 251.7625 51.169747 
L 251.7625 51.169747 
" clip-path="url(#p181a3e2c21)" style="fill: none; stroke: #e8c54a; stroke-width: 1.5; stroke-linecap: square"/>
   </g>
   <g id="patch_3">
    <path d="M 84.3625 89.568608 
L 84.3625 12.210469 
" style="fill: none; stroke: #000000; stroke-width: 0.8; stroke-linejoin: miter; stroke-linecap: square"/>
   </g>
   <g id="patch_4">
    <path d="M 251.7625 89.568608 
L 251.7625 12.210469 
" style="fill: none; stroke: #000000; stroke-width: 0.8; stroke-linejoin: miter; stroke-linecap: square"/>
   </g>
   <g id="patch_5">
    <path d="M 84.3625 89.568608 
L 251.7625 89.568608 
" style="fill: none; stroke: #000000; stroke-width: 0.8; stroke-linejoin: miter; stroke-linecap: square"/>
   </g>
   <g id="patch_6">
    <path d="M 84.3625 12.210469 
L 251.7625 12.210469 
" style="fill: none; stroke: #000000; stroke-width: 0.8; stroke-linejoin: miter; stroke-linecap: square"/>
   </g>
   <g id="legend_1">
    <g id="line2d_11">
     <path d="M 11.2 24.990156 
L 21.2 24.990156 
L 31.2 24.990156 
" style="fill: none; stroke: #e84a4e; stroke-width: 1.5; stroke-linecap: square"/>
    </g>
    <g id="text_5">
     <!-- Central -->
     <g transform="translate(39.2 28.490156) scale(0.1 -0.1)">
      <defs>
       <path id="ArialMT-43" d="M 3763 1606 
L 4369 1453 
Q 4178 706 3683 314 
Q 3188 -78 2472 -78 
Q 1731 -78 1267 223 
Q 803 525 561 1097 
Q 319 1669 319 2325 
Q 319 3041 592 3573 
Q 866 4106 1370 4382 
Q 1875 4659 2481 4659 
Q 3169 4659 3637 4309 
Q 4106 3959 4291 3325 
L 3694 3184 
Q 3534 3684 3231 3912 
Q 2928 4141 2469 4141 
Q 1941 4141 1586 3887 
Q 1231 3634 1087 3207 
Q 944 2781 944 2328 
Q 944 1744 1114 1308 
Q 1284 872 1643 656 
Q 2003 441 2422 441 
Q 2931 441 3284 734 
Q 3638 1028 3763 1606 
z
" transform="scale(0.015625)"/>
       <path id="ArialMT-6e" d="M 422 0 
L 422 3319 
L 928 3319 
L 928 2847 
Q 1294 3394 1984 3394 
Q 2284 3394 2536 3286 
Q 2788 3178 2913 3003 
Q 3038 2828 3088 2588 
Q 3119 2431 3119 2041 
L 3119 0 
L 2556 0 
L 2556 2019 
Q 2556 2363 2490 2533 
Q 2425 2703 2258 2804 
Q 2091 2906 1866 2906 
Q 1506 2906 1245 2678 
Q 984 2450 984 1813 
L 984 0 
L 422 0 
z
" transform="scale(0.015625)"/>
       <path id="ArialMT-72" d="M 416 0 
L 416 3319 
L 922 3319 
L 922 2816 
Q 1116 3169 1280 3281 
Q 1444 3394 1641 3394 
Q 1925 3394 2219 3213 
L 2025 2691 
Q 1819 2813 1613 2813 
Q 1428 2813 1281 2702 
Q 1134 2591 1072 2394 
Q 978 2094 978 1738 
L 978 0 
L 416 0 
z
" transform="scale(0.015625)"/>
      </defs>
      <use xlink:href="#ArialMT-43"/>
      <use xlink:href="#ArialMT-65" x="72.216797"/>
      <use xlink:href="#ArialMT-6e" x="127.832031"/>
      <use xlink:href="#ArialMT-74" x="183.447266"/>
      <use xlink:href="#ArialMT-72" x="211.230469"/>
      <use xlink:href="#ArialMT-61" x="244.53125"/>
      <use xlink:href="#ArialMT-6c" x="300.146484"/>
     </g>
    </g>
    <g id="line2d_12">
     <path d="M 91.434375 24.990156 
L 101.434375 24.990156 
L 111.434375 24.990156 
" style="fill: none; stroke: #51546b; stroke-width: 1.5; stroke-linecap: square"/>
    </g>
    <g id="text_6">
     <!-- Bottom -->
     <g transform="translate(119.434375 28.490156) scale(0.1 -0.1)">
      <defs>
       <path id="ArialMT-42" d="M 469 0 
L 469 4581 
L 2188 4581 
Q 2713 4581 3030 4442 
Q 3347 4303 3526 4014 
Q 3706 3725 3706 3409 
Q 3706 3116 3547 2856 
Q 3388 2597 3066 2438 
Q 3481 2316 3704 2022 
Q 3928 1728 3928 1328 
Q 3928 1006 3792 729 
Q 3656 453 3456 303 
Q 3256 153 2954 76 
Q 2653 0 2216 0 
L 469 0 
z
M 1075 2656 
L 2066 2656 
Q 2469 2656 2644 2709 
Q 2875 2778 2992 2937 
Q 3109 3097 3109 3338 
Q 3109 3566 3000 3739 
Q 2891 3913 2687 3977 
Q 2484 4041 1991 4041 
L 1075 4041 
L 1075 2656 
z
M 1075 541 
L 2216 541 
Q 2509 541 2628 563 
Q 2838 600 2978 687 
Q 3119 775 3209 942 
Q 3300 1109 3300 1328 
Q 3300 1584 3169 1773 
Q 3038 1963 2805 2039 
Q 2572 2116 2134 2116 
L 1075 2116 
L 1075 541 
z
" transform="scale(0.015625)"/>
       <path id="ArialMT-6d" d="M 422 0 
L 422 3319 
L 925 3319 
L 925 2853 
Q 1081 3097 1340 3245 
Q 1600 3394 1931 3394 
Q 2300 3394 2536 3241 
Q 2772 3088 2869 2813 
Q 3263 3394 3894 3394 
Q 4388 3394 4653 3120 
Q 4919 2847 4919 2278 
L 4919 0 
L 4359 0 
L 4359 2091 
Q 4359 2428 4304 2576 
Q 4250 2725 4106 2815 
Q 3963 2906 3769 2906 
Q 3419 2906 3187 2673 
Q 2956 2441 2956 1928 
L 2956 0 
L 2394 0 
L 2394 2156 
Q 2394 2531 2256 2718 
Q 2119 2906 1806 2906 
Q 1569 2906 1367 2781 
Q 1166 2656 1075 2415 
Q 984 2175 984 1722 
L 984 0 
L 422 0 
z
" transform="scale(0.015625)"/>
      </defs>
      <use xlink:href="#ArialMT-42"/>
      <use xlink:href="#ArialMT-6f" x="66.699219"/>
      <use xlink:href="#ArialMT-74" x="122.314453"/>
      <use xlink:href="#ArialMT-74" x="150.097656"/>
      <use xlink:href="#ArialMT-6f" x="177.880859"/>
      <use xlink:href="#ArialMT-6d" x="233.496094"/>
     </g>
    </g>
    <g id="line2d_13">
     <path d="M 171.1125 24.990156 
L 181.1125 24.990156 
L 191.1125 24.990156 
" style="fill: none; stroke: #616eeb; stroke-width: 1.5; stroke-linecap: square"/>
    </g>
    <g id="text_7">
     <!-- Top Left -->
     <g transform="translate(199.1125 28.490156) scale(0.1 -0.1)">
      <defs>
       <path id="ArialMT-54" d="M 1659 0 
L 1659 4041 
L 150 4041 
L 150 4581 
L 3781 4581 
L 3781 4041 
L 2266 4041 
L 2266 0 
L 1659 0 
z
" transform="scale(0.015625)"/>
       <path id="ArialMT-70" d="M 422 -1272 
L 422 3319 
L 934 3319 
L 934 2888 
Q 1116 3141 1344 3267 
Q 1572 3394 1897 3394 
Q 2322 3394 2647 3175 
Q 2972 2956 3137 2557 
Q 3303 2159 3303 1684 
Q 3303 1175 3120 767 
Q 2938 359 2589 142 
Q 2241 -75 1856 -75 
Q 1575 -75 1351 44 
Q 1128 163 984 344 
L 984 -1272 
L 422 -1272 
z
M 931 1641 
Q 931 1000 1190 694 
Q 1450 388 1819 388 
Q 2194 388 2461 705 
Q 2728 1022 2728 1688 
Q 2728 2322 2467 2637 
Q 2206 2953 1844 2953 
Q 1484 2953 1207 2617 
Q 931 2281 931 1641 
z
" transform="scale(0.015625)"/>
       <path id="ArialMT-20" transform="scale(0.015625)"/>
       <path id="ArialMT-4c" d="M 469 0 
L 469 4581 
L 1075 4581 
L 1075 541 
L 3331 541 
L 3331 0 
L 469 0 
z
" transform="scale(0.015625)"/>
       <path id="ArialMT-66" d="M 556 0 
L 556 2881 
L 59 2881 
L 59 3319 
L 556 3319 
L 556 3672 
Q 556 4006 616 4169 
Q 697 4388 901 4523 
Q 1106 4659 1475 4659 
Q 1713 4659 2000 4603 
L 1916 4113 
Q 1741 4144 1584 4144 
Q 1328 4144 1222 4034 
Q 1116 3925 1116 3625 
L 1116 3319 
L 1763 3319 
L 1763 2881 
L 1116 2881 
L 1116 0 
L 556 0 
z
" transform="scale(0.015625)"/>
      </defs>
      <use xlink:href="#ArialMT-54"/>
      <use xlink:href="#ArialMT-6f" x="49.958984"/>
      <use xlink:href="#ArialMT-70" x="105.574219"/>
      <use xlink:href="#ArialMT-20" x="161.189453"/>
      <use xlink:href="#ArialMT-4c" x="188.972656"/>
      <use xlink:href="#ArialMT-65" x="244.587891"/>
      <use xlink:href="#ArialMT-66" x="300.203125"/>
      <use xlink:href="#ArialMT-74" x="327.986328"/>
     </g>
    </g>
    <g id="line2d_14">
     <path d="M 254.685938 24.990156 
L 264.685938 24.990156 
L 274.685938 24.990156 
" style="fill: none; stroke: #e8c54a; stroke-width: 1.5; stroke-linecap: square"/>
    </g>
    <g id="text_8">
     <!-- Top Right -->
     <g transform="translate(282.685938 28.490156) scale(0.1 -0.1)">
      <defs>
       <path id="ArialMT-52" d="M 503 0 
L 503 4581 
L 2534 4581 
Q 3147 4581 3465 4457 
Q 3784 4334 3975 4021 
Q 4166 3709 4166 3331 
Q 4166 2844 3850 2509 
Q 3534 2175 2875 2084 
Q 3116 1969 3241 1856 
Q 3506 1613 3744 1247 
L 4541 0 
L 3778 0 
L 3172 953 
Q 2906 1366 2734 1584 
Q 2563 1803 2427 1890 
Q 2291 1978 2150 2013 
Q 2047 2034 1813 2034 
L 1109 2034 
L 1109 0 
L 503 0 
z
M 1109 2559 
L 2413 2559 
Q 2828 2559 3062 2645 
Q 3297 2731 3419 2920 
Q 3541 3109 3541 3331 
Q 3541 3656 3305 3865 
Q 3069 4075 2559 4075 
L 1109 4075 
L 1109 2559 
z
" transform="scale(0.015625)"/>
       <path id="ArialMT-69" d="M 425 3934 
L 425 4581 
L 988 4581 
L 988 3934 
L 425 3934 
z
M 425 0 
L 425 3319 
L 988 3319 
L 988 0 
L 425 0 
z
" transform="scale(0.015625)"/>
      </defs>
      <use xlink:href="#ArialMT-54"/>
      <use xlink:href="#ArialMT-6f" x="49.958984"/>
      <use xlink:href="#ArialMT-70" x="105.574219"/>
      <use xlink:href="#ArialMT-20" x="161.189453"/>
      <use xlink:href="#ArialMT-52" x="188.972656"/>
      <use xlink:href="#ArialMT-69" x="261.189453"/>
      <use xlink:href="#ArialMT-67" x="283.40625"/>
      <use xlink:href="#ArialMT-68" x="339.021484"/>
      <use xlink:href="#ArialMT-74" x="394.636719"/>
     </g>
    </g>
   </g>
  </g>
  <g id="axes_2">
   <g id="patch_7">
    <path d="M 84.3625 178.530469 
L 251.7625 178.530469 
L 251.7625 101.172329 
L 84.3625 101.172329 
z
" style="fill: #ffffff"/>
   </g>
   <g id="matplotlib.axis_3">
    <g id="xtick_4">
     <g id="line2d_15">
      <g>
       <use xlink:href="#m226879c8af" x="84.3625" y="178.530469" style="stroke: #000000; stroke-width: 0.8"/>
      </g>
     </g>
     <g id="text_9">
      <!-- 0.0 -->
      <g transform="translate(74.6325 195.551406) scale(0.14 -0.14)">
       <use xlink:href="#ArialMT-30"/>
       <use xlink:href="#ArialMT-2e" x="55.615234"/>
       <use xlink:href="#ArialMT-30" x="83.398438"/>
      </g>
     </g>
    </g>
    <g id="xtick_5">
     <g id="line2d_16">
      <g>
       <use xlink:href="#m226879c8af" x="168.0625" y="178.530469" style="stroke: #000000; stroke-width: 0.8"/>
      </g>
     </g>
     <g id="text_10">
      <!-- 1.5 -->
      <g transform="translate(158.3325 195.551406) scale(0.14 -0.14)">
       <defs>
        <path id="ArialMT-31" d="M 2384 0 
L 1822 0 
L 1822 3584 
Q 1619 3391 1289 3197 
Q 959 3003 697 2906 
L 697 3450 
Q 1169 3672 1522 3987 
Q 1875 4303 2022 4600 
L 2384 4600 
L 2384 0 
z
" transform="scale(0.015625)"/>
        <path id="ArialMT-35" d="M 266 1200 
L 856 1250 
Q 922 819 1161 601 
Q 1400 384 1738 384 
Q 2144 384 2425 690 
Q 2706 997 2706 1503 
Q 2706 1984 2436 2262 
Q 2166 2541 1728 2541 
Q 1456 2541 1237 2417 
Q 1019 2294 894 2097 
L 366 2166 
L 809 4519 
L 3088 4519 
L 3088 3981 
L 1259 3981 
L 1013 2750 
Q 1425 3038 1878 3038 
Q 2478 3038 2890 2622 
Q 3303 2206 3303 1553 
Q 3303 931 2941 478 
Q 2500 -78 1738 -78 
Q 1113 -78 717 272 
Q 322 622 266 1200 
z
" transform="scale(0.015625)"/>
       </defs>
       <use xlink:href="#ArialMT-31"/>
       <use xlink:href="#ArialMT-2e" x="55.615234"/>
       <use xlink:href="#ArialMT-35" x="83.398438"/>
      </g>
     </g>
    </g>
    <g id="xtick_6">
     <g id="line2d_17">
      <g>
       <use xlink:href="#m226879c8af" x="251.7625" y="178.530469" style="stroke: #000000; stroke-width: 0.8"/>
      </g>
     </g>
     <g id="text_11">
      <!-- 3.0 -->
      <g transform="translate(242.0325 195.551406) scale(0.14 -0.14)">
       <defs>
        <path id="ArialMT-33" d="M 269 1209 
L 831 1284 
Q 928 806 1161 595 
Q 1394 384 1728 384 
Q 2125 384 2398 659 
Q 2672 934 2672 1341 
Q 2672 1728 2419 1979 
Q 2166 2231 1775 2231 
Q 1616 2231 1378 2169 
L 1441 2663 
Q 1497 2656 1531 2656 
Q 1891 2656 2178 2843 
Q 2466 3031 2466 3422 
Q 2466 3731 2256 3934 
Q 2047 4138 1716 4138 
Q 1388 4138 1169 3931 
Q 950 3725 888 3313 
L 325 3413 
Q 428 3978 793 4289 
Q 1159 4600 1703 4600 
Q 2078 4600 2393 4439 
Q 2709 4278 2876 4000 
Q 3044 3722 3044 3409 
Q 3044 3113 2884 2869 
Q 2725 2625 2413 2481 
Q 2819 2388 3044 2092 
Q 3269 1797 3269 1353 
Q 3269 753 2831 336 
Q 2394 -81 1725 -81 
Q 1122 -81 723 278 
Q 325 638 269 1209 
z
" transform="scale(0.015625)"/>
       </defs>
       <use xlink:href="#ArialMT-33"/>
       <use xlink:href="#ArialMT-2e" x="55.615234"/>
       <use xlink:href="#ArialMT-30" x="83.398438"/>
      </g>
     </g>
    </g>
    <g id="text_12">
     <!-- Time (s) -->
     <g transform="translate(142.664531 212.525469) scale(0.14 -0.14)">
      <defs>
       <path id="ArialMT-73" d="M 197 991 
L 753 1078 
Q 800 744 1014 566 
Q 1228 388 1613 388 
Q 2000 388 2187 545 
Q 2375 703 2375 916 
Q 2375 1106 2209 1216 
Q 2094 1291 1634 1406 
Q 1016 1563 777 1677 
Q 538 1791 414 1992 
Q 291 2194 291 2438 
Q 291 2659 392 2848 
Q 494 3038 669 3163 
Q 800 3259 1026 3326 
Q 1253 3394 1513 3394 
Q 1903 3394 2198 3281 
Q 2494 3169 2634 2976 
Q 2775 2784 2828 2463 
L 2278 2388 
Q 2241 2644 2061 2787 
Q 1881 2931 1553 2931 
Q 1166 2931 1000 2803 
Q 834 2675 834 2503 
Q 834 2394 903 2306 
Q 972 2216 1119 2156 
Q 1203 2125 1616 2013 
Q 2213 1853 2448 1751 
Q 2684 1650 2818 1456 
Q 2953 1263 2953 975 
Q 2953 694 2789 445 
Q 2625 197 2315 61 
Q 2006 -75 1616 -75 
Q 969 -75 630 194 
Q 291 463 197 991 
z
" transform="scale(0.015625)"/>
      </defs>
      <use xlink:href="#ArialMT-54"/>
      <use xlink:href="#ArialMT-69" x="57.333984"/>
      <use xlink:href="#ArialMT-6d" x="79.550781"/>
      <use xlink:href="#ArialMT-65" x="162.851562"/>
      <use xlink:href="#ArialMT-20" x="218.466797"/>
      <use xlink:href="#ArialMT-28" x="246.25"/>
      <use xlink:href="#ArialMT-73" x="279.550781"/>
      <use xlink:href="#ArialMT-29" x="329.550781"/>
     </g>
    </g>
   </g>
   <g id="matplotlib.axis_4">
    <g id="ytick_4">
     <g id="line2d_18">
      <g>
       <use xlink:href="#m159f1aae8c" x="84.3625" y="178.530469" style="stroke: #000000; stroke-width: 0.8"/>
      </g>
     </g>
     <g id="text_13">
      <!-- −10 -->
      <g transform="translate(53.615 183.540938) scale(0.14 -0.14)">
       <use xlink:href="#ArialMT-2212"/>
       <use xlink:href="#ArialMT-31" x="58.398438"/>
       <use xlink:href="#ArialMT-30" x="114.013672"/>
      </g>
     </g>
    </g>
    <g id="ytick_5">
     <g id="line2d_19">
      <g>
       <use xlink:href="#m159f1aae8c" x="84.3625" y="139.851399" style="stroke: #000000; stroke-width: 0.8"/>
      </g>
     </g>
     <g id="text_14">
      <!-- 0 -->
      <g transform="translate(69.577188 144.861868) scale(0.14 -0.14)">
       <use xlink:href="#ArialMT-30"/>
      </g>
     </g>
    </g>
    <g id="ytick_6">
     <g id="line2d_20">
      <g>
       <use xlink:href="#m159f1aae8c" x="84.3625" y="101.172329" style="stroke: #000000; stroke-width: 0.8"/>
      </g>
     </g>
     <g id="text_15">
      <!-- 10 -->
      <g transform="translate(61.791875 106.182798) scale(0.14 -0.14)">
       <use xlink:href="#ArialMT-31"/>
       <use xlink:href="#ArialMT-30" x="55.615234"/>
      </g>
     </g>
    </g>
    <g id="text_16">
     <!-- Angles -->
     <g transform="translate(31.324438 161.253899) rotate(-90) scale(0.14 -0.14)">
      <defs>
       <path id="ArialMT-41" d="M -9 0 
L 1750 4581 
L 2403 4581 
L 4278 0 
L 3588 0 
L 3053 1388 
L 1138 1388 
L 634 0 
L -9 0 
z
M 1313 1881 
L 2866 1881 
L 2388 3150 
Q 2169 3728 2063 4100 
Q 1975 3659 1816 3225 
L 1313 1881 
z
" transform="scale(0.015625)"/>
      </defs>
      <use xlink:href="#ArialMT-41"/>
      <use xlink:href="#ArialMT-6e" x="66.699219"/>
      <use xlink:href="#ArialMT-67" x="122.314453"/>
      <use xlink:href="#ArialMT-6c" x="177.929688"/>
      <use xlink:href="#ArialMT-65" x="200.146484"/>
      <use xlink:href="#ArialMT-73" x="255.761719"/>
     </g>
     <!-- ($\circ$) -->
     <g transform="translate(46.535 148.951399) rotate(-90) scale(0.14 -0.14)">
      <defs>
       <path id="DejaVuSans-2218" d="M 2003 2603 
Q 1753 2603 1581 2429 
Q 1409 2256 1409 2006 
Q 1409 1759 1581 1589 
Q 1753 1419 2003 1419 
Q 2253 1419 2425 1589 
Q 2597 1759 2597 2006 
Q 2597 2253 2423 2428 
Q 2250 2603 2003 2603 
z
M 2003 3006 
Q 2203 3006 2387 2929 
Q 2572 2853 2706 2709 
Q 2850 2569 2922 2390 
Q 2994 2212 2994 2006 
Q 2994 1594 2705 1308 
Q 2416 1022 1997 1022 
Q 1575 1022 1294 1303 
Q 1013 1584 1013 2006 
Q 1013 2425 1300 2715 
Q 1588 3006 2003 3006 
z
" transform="scale(0.015625)"/>
      </defs>
      <use xlink:href="#ArialMT-28" transform="translate(0 0.203125)"/>
      <use xlink:href="#DejaVuSans-2218" transform="translate(33.300781 0.203125)"/>
      <use xlink:href="#ArialMT-29" transform="translate(95.898438 0.203125)"/>
     </g>
    </g>
   </g>
   <g id="line2d_21">
    <path d="M 84.3067 142.773532 
L 85.7017 142.024849 
L 86.5387 141.82294 
L 87.2083 141.88105 
L 87.9337 142.168395 
L 90.3331 143.337223 
L 91.2259 143.372241 
L 92.7883 143.403856 
L 93.6811 143.687948 
L 95.7457 144.453566 
L 96.6385 144.474536 
L 97.8661 144.242585 
L 100.1539 143.783165 
L 101.2699 143.804082 
L 103.3345 143.938738 
L 104.0041 143.694304 
L 104.7853 143.149177 
L 106.6267 141.747715 
L 107.2963 141.580312 
L 107.9659 141.652437 
L 108.8029 141.986979 
L 110.4211 142.947192 
L 112.0393 143.814016 
L 113.0995 144.14077 
L 113.9923 144.200055 
L 114.8293 144.045938 
L 115.7779 143.630166 
L 118.2889 142.376744 
L 120.5209 141.652678 
L 121.3579 140.998237 
L 123.3667 139.269199 
L 124.0363 139.034457 
L 124.8175 139.001359 
L 126.8263 139.031063 
L 128.5561 138.868619 
L 129.2815 139.082795 
L 130.1743 139.618799 
L 131.4577 140.373207 
L 132.1273 140.491915 
L 132.7969 140.370845 
L 133.8013 139.917008 
L 135.1963 139.32085 
L 136.4797 139.056171 
L 138.6001 138.633535 
L 139.8835 138.137991 
L 142.5619 136.955796 
L 143.2315 136.991113 
L 143.9569 137.259876 
L 145.1845 138.014884 
L 146.4679 138.724118 
L 147.4165 139.005364 
L 148.3093 139.048922 
L 149.3695 138.858281 
L 150.7087 138.625046 
L 151.4341 138.731304 
L 152.3827 139.14061 
L 153.3313 139.4867 
L 153.8893 139.450487 
L 154.4473 139.169059 
L 156.1213 138.071406 
L 156.5119 138.199997 
L 156.9025 138.614987 
L 157.3489 139.458932 
L 157.9627 141.158504 
L 159.9715 147.207751 
L 160.5853 148.181948 
L 161.1433 148.664394 
L 161.7571 148.895756 
L 162.7615 148.980533 
L 164.4913 148.92063 
L 165.3841 148.669077 
L 166.4443 148.115825 
L 168.2299 147.169216 
L 170.5735 146.21092 
L 171.2989 145.505505 
L 172.6381 143.775974 
L 173.4751 142.890626 
L 174.0889 142.524104 
L 174.7585 142.390517 
L 177.4927 142.199684 
L 178.6645 141.954698 
L 179.2783 142.047506 
L 179.9479 142.391945 
L 180.8407 143.141025 
L 182.5147 144.572892 
L 183.5191 145.098369 
L 184.7467 145.476132 
L 186.3091 145.727588 
L 187.4809 145.708936 
L 188.5969 145.468144 
L 189.8245 144.971119 
L 191.2195 144.164905 
L 192.3355 143.272453 
L 193.3399 142.181555 
L 195.5719 139.585298 
L 196.1857 139.254911 
L 196.7995 139.162022 
L 198.9757 139.078505 
L 199.7011 138.623218 
L 201.3751 137.458232 
L 201.9889 137.336621 
L 202.7143 137.43214 
L 204.1093 137.671907 
L 204.7231 137.52426 
L 205.3927 137.130201 
L 206.5087 136.156862 
L 208.0711 134.855253 
L 210.2473 133.456157 
L 211.4749 132.811855 
L 212.1445 132.686 
L 212.7583 132.801617 
L 213.4279 133.184527 
L 215.7715 134.799784 
L 216.4411 134.831047 
L 217.4455 134.604242 
L 218.5615 134.414839 
L 219.3427 134.517003 
L 220.1239 134.842238 
L 221.0167 135.466708 
L 223.3045 137.244528 
L 223.8625 137.300269 
L 224.4205 137.110953 
L 225.2017 136.561676 
L 226.2619 135.837771 
L 226.8199 135.713511 
L 227.3221 135.816569 
L 227.9359 136.189277 
L 228.8287 137.040697 
L 230.5585 138.729279 
L 231.2281 139.071194 
L 231.7861 139.104593 
L 232.2883 138.901924 
L 232.9021 138.371153 
L 235.1341 136.085698 
L 235.6363 136.008301 
L 236.1943 136.158726 
L 236.9755 136.630847 
L 238.5379 137.610548 
L 239.5981 137.964247 
L 241.0489 138.182344 
L 243.6157 138.545512 
L 247.0753 139.297374 
L 249.2515 139.502621 
L 251.7625 140.075237 
L 251.7625 140.075237 
" clip-path="url(#p65566c404a)" style="fill: none; stroke: #4ae875; stroke-width: 1.5; stroke-linecap: square"/>
   </g>
   <g id="line2d_22">
    <path d="M 84.3067 133.377374 
L 84.9205 133.774565 
L 85.5343 133.911575 
L 86.2039 133.830077 
L 87.2083 133.448934 
L 89.5519 132.241729 
L 91.2817 131.430482 
L 92.0629 131.302287 
L 92.7325 131.417003 
L 93.5137 131.803096 
L 94.8529 132.497816 
L 95.4109 132.512411 
L 95.9689 132.278088 
L 96.8059 131.616955 
L 97.6429 131.051789 
L 98.0893 130.984919 
L 98.5357 131.154319 
L 99.0379 131.623982 
L 99.7633 132.66001 
L 100.9909 134.412146 
L 101.6047 134.89272 
L 102.1627 135.044858 
L 102.8323 134.964515 
L 104.4505 134.40938 
L 106.0129 133.790816 
L 106.7941 133.207522 
L 107.6311 132.287814 
L 109.1377 130.210783 
L 110.4769 128.521625 
L 111.3139 127.780223 
L 111.9835 127.445589 
L 112.5973 127.382021 
L 113.1553 127.543145 
L 113.7691 127.967034 
L 114.4387 128.725841 
L 115.2199 129.989344 
L 116.3359 132.305416 
L 117.8425 135.378325 
L 118.6237 136.489619 
L 119.2375 137.021089 
L 119.7955 137.215035 
L 120.2977 137.138644 
L 120.7999 136.8209 
L 121.4137 136.133658 
L 122.2507 134.815022 
L 124.8733 130.449956 
L 126.2125 128.794901 
L 127.3285 127.724007 
L 128.1655 127.201127 
L 128.8351 127.027446 
L 129.4489 127.099028 
L 130.0627 127.414872 
L 130.6765 127.991439 
L 131.3461 128.934505 
L 132.1273 130.445473 
L 133.3549 133.411351 
L 134.6941 136.485818 
L 135.5869 137.976988 
L 136.4797 139.02616 
L 137.4841 139.851811 
L 138.3211 140.282161 
L 138.9349 140.357371 
L 139.4371 140.192994 
L 139.9393 139.774351 
L 140.4973 138.988741 
L 141.2227 137.546788 
L 143.2315 133.312332 
L 143.9011 132.474984 
L 144.5707 131.990307 
L 145.2403 131.789631 
L 145.9657 131.817407 
L 146.7469 132.078836 
L 147.5839 132.608518 
L 148.4767 133.459425 
L 149.4253 134.698082 
L 150.3739 136.314344 
L 151.3783 138.48795 
L 152.3827 141.207192 
L 153.3871 144.590196 
L 154.4473 148.98007 
L 156.4003 157.292118 
L 157.0699 159.13566 
L 157.6279 160.079047 
L 158.1859 160.60495 
L 160.1389 162.032023 
L 161.1991 163.553127 
L 161.9803 164.489759 
L 162.4825 164.77211 
L 162.8731 164.764445 
L 163.3195 164.511404 
L 163.8775 163.879 
L 164.6587 162.579524 
L 166.1095 159.622476 
L 167.7277 155.892306 
L 171.0757 147.724916 
L 171.7453 146.840639 
L 172.3591 146.383512 
L 172.8613 146.25821 
L 173.3635 146.35077 
L 173.9215 146.689695 
L 174.6469 147.414793 
L 176.5441 149.445594 
L 177.1579 149.740699 
L 177.7717 149.782147 
L 178.3855 149.585633 
L 179.0551 149.126527 
L 179.8921 148.248108 
L 181.1197 146.56953 
L 183.4633 143.343638 
L 185.4163 141.087713 
L 186.4207 140.21006 
L 187.0903 139.895827 
L 187.6483 139.862069 
L 188.2621 140.064199 
L 189.1549 140.640429 
L 190.2709 141.302053 
L 190.9405 141.424237 
L 191.5543 141.309588 
L 192.2797 140.934517 
L 193.1725 140.208551 
L 194.2885 138.997895 
L 195.4045 137.440451 
L 196.7437 135.120925 
L 197.9155 133.242496 
L 198.5293 132.635601 
L 199.0315 132.428793 
L 199.4779 132.470955 
L 199.9801 132.740204 
L 200.6497 133.367005 
L 201.9889 135.014373 
L 204.1651 137.592315 
L 205.8949 139.296149 
L 207.6805 140.734093 
L 209.2987 141.764415 
L 210.7495 142.428402 
L 212.7025 143.04463 
L 214.0975 143.310739 
L 214.8787 143.232234 
L 215.5483 142.939127 
L 216.2737 142.366759 
L 217.3339 141.206838 
L 219.3427 139.007729 
L 221.2399 136.994475 
L 223.8067 134.014727 
L 224.5321 133.592371 
L 225.4249 133.346562 
L 227.2105 132.921469 
L 228.5497 132.267695 
L 230.3353 131.43775 
L 231.5629 131.124495 
L 232.7347 131.057522 
L 233.7391 131.218642 
L 234.6319 131.580702 
L 235.5805 132.217594 
L 239.2633 135.022918 
L 240.6583 135.942603 
L 242.6113 137.35831 
L 243.1693 137.445459 
L 243.6715 137.30568 
L 244.2853 136.88972 
L 245.9593 135.612477 
L 246.4615 135.560016 
L 246.9637 135.733848 
L 247.5775 136.195657 
L 248.8609 137.53806 
L 250.0327 138.598584 
L 251.2045 139.345963 
L 251.7625 139.625319 
L 251.7625 139.625319 
" clip-path="url(#p65566c404a)" style="fill: none; stroke: #94885f; stroke-width: 1.5; stroke-linecap: square"/>
   </g>
   <g id="line2d_23">
    <path d="M 84.3067 144.396774 
L 84.9205 144.482924 
L 85.8133 144.877721 
L 86.8177 145.259827 
L 87.4315 145.245729 
L 88.0453 144.993951 
L 88.8823 144.36579 
L 91.1701 142.494443 
L 92.0629 142.093283 
L 92.8999 141.962303 
L 93.7369 142.060907 
L 94.9645 142.46183 
L 97.2523 143.216342 
L 99.0379 143.544429 
L 102.1069 143.809389 
L 103.6693 144.082575 
L 105.9571 144.580004 
L 106.5709 144.430046 
L 107.2405 144.026041 
L 108.3007 143.061071 
L 109.3051 142.242661 
L 109.9747 141.963553 
L 110.6443 141.926478 
L 111.4813 142.125521 
L 114.6061 143.11209 
L 115.4989 143.050152 
L 116.5033 142.741973 
L 123.5899 140.039497 
L 126.9937 139.10788 
L 127.9423 139.011897 
L 128.6119 139.163246 
L 129.2815 139.562695 
L 130.1743 140.404961 
L 131.4019 141.5359 
L 132.0157 141.815484 
L 132.5737 141.844393 
L 133.2433 141.651984 
L 137.0935 140.127078 
L 138.6001 139.491111 
L 140.5531 138.677804 
L 141.7249 138.443511 
L 143.0083 138.420052 
L 144.2917 138.620033 
L 145.4635 139.020624 
L 147.0817 139.855197 
L 148.1977 140.321758 
L 149.0347 140.437388 
L 150.0391 140.322904 
L 152.2711 139.983172 
L 153.4429 140.081027 
L 156.0655 140.446591 
L 156.6235 140.189709 
L 157.1815 139.690385 
L 157.9069 138.702395 
L 159.4135 136.106509 
L 160.4737 134.532417 
L 161.3665 133.58791 
L 162.2035 133.019553 
L 162.9847 132.756895 
L 163.7101 132.741849 
L 164.4355 132.947663 
L 165.2167 133.414153 
L 166.1653 134.269855 
L 168.5089 136.515979 
L 169.4575 137.03881 
L 170.5735 137.391859 
L 172.1359 137.637273 
L 174.2563 137.733843 
L 176.7115 137.873431 
L 178.3855 137.99109 
L 179.1667 137.814504 
L 180.0037 137.382257 
L 182.0683 136.189536 
L 182.7937 136.106132 
L 183.5749 136.257652 
L 184.5793 136.69988 
L 188.2621 138.536139 
L 189.2107 138.653159 
L 190.0477 138.537755 
L 190.8847 138.199802 
L 192.0565 137.451519 
L 194.4559 135.887996 
L 195.6835 135.011733 
L 196.6321 134.05759 
L 197.8039 132.535454 
L 200.8171 128.411184 
L 201.4867 127.944913 
L 202.1005 127.789598 
L 202.7701 127.877252 
L 203.7745 128.287353 
L 205.2811 128.868096 
L 206.6203 129.111708 
L 209.8009 129.591052 
L 210.7495 130.013345 
L 211.5307 130.594796 
L 212.2561 131.404567 
L 213.0931 132.710002 
L 215.3809 136.589453 
L 215.9947 137.07458 
L 216.5527 137.237778 
L 217.2223 137.191131 
L 219.5659 136.826883 
L 222.1885 136.762389 
L 223.0255 136.446892 
L 223.7509 135.937207 
L 224.6437 135.01449 
L 226.0945 133.494039 
L 226.7083 133.173707 
L 227.2663 133.140507 
L 227.8801 133.356264 
L 228.7729 133.961245 
L 230.3353 135.03472 
L 231.0049 135.229524 
L 231.5629 135.173129 
L 232.1209 134.872398 
L 232.7347 134.259186 
L 235.0225 131.634124 
L 235.5247 131.555101 
L 236.0269 131.722571 
L 236.6965 132.225411 
L 240.1003 135.21321 
L 243.3925 137.73097 
L 244.1179 137.842846 
L 245.1781 137.736181 
L 246.2941 137.69189 
L 247.1311 137.891587 
L 248.5819 138.529715 
L 249.9769 139.041787 
L 251.4277 139.318988 
L 251.7625 139.356569 
L 251.7625 139.356569 
" clip-path="url(#p65566c404a)" style="fill: none; stroke: #6b4545; stroke-width: 1.5; stroke-linecap: square"/>
   </g>
   <g id="patch_8">
    <path d="M 84.3625 178.530469 
L 84.3625 101.172329 
" style="fill: none; stroke: #000000; stroke-width: 0.8; stroke-linejoin: miter; stroke-linecap: square"/>
   </g>
   <g id="patch_9">
    <path d="M 251.7625 178.530469 
L 251.7625 101.172329 
" style="fill: none; stroke: #000000; stroke-width: 0.8; stroke-linejoin: miter; stroke-linecap: square"/>
   </g>
   <g id="patch_10">
    <path d="M 84.3625 178.530469 
L 251.7625 178.530469 
" style="fill: none; stroke: #000000; stroke-width: 0.8; stroke-linejoin: miter; stroke-linecap: square"/>
   </g>
   <g id="patch_11">
    <path d="M 84.3625 101.172329 
L 251.7625 101.172329 
" style="fill: none; stroke: #000000; stroke-width: 0.8; stroke-linejoin: miter; stroke-linecap: square"/>
   </g>
   <g id="legend_2">
    <g id="line2d_24">
     <path d="M 76.975781 113.830142 
L 86.975781 113.830142 
L 96.975781 113.830142 
" style="fill: none; stroke: #4ae875; stroke-width: 1.5; stroke-linecap: square"/>
    </g>
    <g id="text_17">
     <!-- Roll -->
     <g transform="translate(104.975781 117.330142) scale(0.1 -0.1)">
      <use xlink:href="#ArialMT-52"/>
      <use xlink:href="#ArialMT-6f" x="72.216797"/>
      <use xlink:href="#ArialMT-6c" x="127.832031"/>
      <use xlink:href="#ArialMT-6c" x="150.048828"/>
     </g>
    </g>
    <g id="line2d_25">
     <path d="M 142.202344 113.830142 
L 152.202344 113.830142 
L 162.202344 113.830142 
" style="fill: none; stroke: #94885f; stroke-width: 1.5; stroke-linecap: square"/>
    </g>
    <g id="text_18">
     <!-- Pitch -->
     <g transform="translate(170.202344 117.330142) scale(0.1 -0.1)">
      <defs>
       <path id="ArialMT-63" d="M 2588 1216 
L 3141 1144 
Q 3050 572 2676 248 
Q 2303 -75 1759 -75 
Q 1078 -75 664 370 
Q 250 816 250 1647 
Q 250 2184 428 2587 
Q 606 2991 970 3192 
Q 1334 3394 1763 3394 
Q 2303 3394 2647 3120 
Q 2991 2847 3088 2344 
L 2541 2259 
Q 2463 2594 2264 2762 
Q 2066 2931 1784 2931 
Q 1359 2931 1093 2626 
Q 828 2322 828 1663 
Q 828 994 1084 691 
Q 1341 388 1753 388 
Q 2084 388 2306 591 
Q 2528 794 2588 1216 
z
" transform="scale(0.015625)"/>
      </defs>
      <use xlink:href="#ArialMT-50"/>
      <use xlink:href="#ArialMT-69" x="66.699219"/>
      <use xlink:href="#ArialMT-74" x="88.916016"/>
      <use xlink:href="#ArialMT-63" x="116.699219"/>
      <use xlink:href="#ArialMT-68" x="166.699219"/>
     </g>
    </g>
    <g id="line2d_26">
     <path d="M 212.433594 113.830142 
L 222.433594 113.830142 
L 232.433594 113.830142 
" style="fill: none; stroke: #6b4545; stroke-width: 1.5; stroke-linecap: square"/>
    </g>
    <g id="text_19">
     <!-- Yaw -->
     <g transform="translate(240.433594 117.330142) scale(0.1 -0.1)">
      <defs>
       <path id="ArialMT-59" d="M 1784 0 
L 1784 1941 
L 19 4581 
L 756 4581 
L 1659 3200 
Q 1909 2813 2125 2425 
Q 2331 2784 2625 3234 
L 3513 4581 
L 4219 4581 
L 2391 1941 
L 2391 0 
L 1784 0 
z
" transform="scale(0.015625)"/>
       <path id="ArialMT-77" d="M 1034 0 
L 19 3319 
L 600 3319 
L 1128 1403 
L 1325 691 
Q 1338 744 1497 1375 
L 2025 3319 
L 2603 3319 
L 3100 1394 
L 3266 759 
L 3456 1400 
L 4025 3319 
L 4572 3319 
L 3534 0 
L 2950 0 
L 2422 1988 
L 2294 2553 
L 1622 0 
L 1034 0 
z
" transform="scale(0.015625)"/>
      </defs>
      <use xlink:href="#ArialMT-59"/>
      <use xlink:href="#ArialMT-61" x="59.324219"/>
      <use xlink:href="#ArialMT-77" x="114.939453"/>
     </g>
    </g>
   </g>
  </g>
 </g>
 <defs>
  <clipPath id="p181a3e2c21">
   <rect x="84.3625" y="12.210469" width="167.4" height="77.35814"/>
  </clipPath>
  <clipPath id="p65566c404a">
   <rect x="84.3625" y="101.172329" width="167.4" height="77.35814"/>
  </clipPath>
 </defs>
</svg>
