<?xml version="1.0" encoding="utf-8" standalone="no"?>
<!DOCTYPE svg PUBLIC "-//W3C//DTD SVG 1.1//EN"
  "http://www.w3.org/Graphics/SVG/1.1/DTD/svg11.dtd">
<svg xmlns:xlink="http://www.w3.org/1999/xlink" width="336.125pt" height="222.672031pt" viewBox="0 0 336.125 222.672031" xmlns="http://www.w3.org/2000/svg" version="1.1">
 <metadata>
  <rdf:RDF xmlns:dc="http://purl.org/dc/elements/1.1/" xmlns:cc="http://creativecommons.org/ns#" xmlns:rdf="http://www.w3.org/1999/02/22-rdf-syntax-ns#">
   <cc:Work>
    <dc:type rdf:resource="http://purl.org/dc/dcmitype/StillImage"/>
    <dc:date>2024-08-27T12:55:52.769544</dc:date>
    <dc:format>image/svg+xml</dc:format>
    <dc:creator>
     <cc:Agent>
      <dc:title>Matplotlib v3.7.1, https://matplotlib.org/</dc:title>
     </cc:Agent>
    </dc:creator>
   </cc:Work>
  </rdf:RDF>
 </metadata>
 <defs>
  <style type="text/css">*{stroke-linejoin: round; stroke-linecap: butt}</style>
 </defs>
 <g id="figure_1">
  <g id="patch_1">
   <path d="M 0 222.672031 
L 336.125 222.672031 
L 336.125 0 
L 0 0 
z
" style="fill: #ffffff"/>
  </g>
  <g id="axes_1">
   <g id="patch_2">
    <path d="M 84.3625 89.568608 
L 251.7625 89.568608 
L 251.7625 12.210469 
L 84.3625 12.210469 
z
" style="fill: #ffffff"/>
   </g>
   <g id="matplotlib.axis_1">
    <g id="xtick_1">
     <g id="line2d_1">
      <defs>
       <path id="me7b3c001bd" d="M 0 0 
L 0 3.5 
" style="stroke: #000000; stroke-width: 0.8"/>
      </defs>
      <g>
       <use xlink:href="#me7b3c001bd" x="84.3625" y="89.568608" style="stroke: #000000; stroke-width: 0.8"/>
      </g>
     </g>
    </g>
    <g id="xtick_2">
     <g id="line2d_2">
      <g>
       <use xlink:href="#me7b3c001bd" x="168.0625" y="89.568608" style="stroke: #000000; stroke-width: 0.8"/>
      </g>
     </g>
    </g>
    <g id="xtick_3">
     <g id="line2d_3">
      <g>
       <use xlink:href="#me7b3c001bd" x="251.7625" y="89.568608" style="stroke: #000000; stroke-width: 0.8"/>
      </g>
     </g>
    </g>
   </g>
   <g id="matplotlib.axis_2">
    <g id="ytick_1">
     <g id="line2d_4">
      <defs>
       <path id="m0e53ab9b97" d="M 0 0 
L -3.5 0 
" style="stroke: #000000; stroke-width: 0.8"/>
      </defs>
      <g>
       <use xlink:href="#m0e53ab9b97" x="84.3625" y="89.568608" style="stroke: #000000; stroke-width: 0.8"/>
      </g>
     </g>
     <g id="text_1">
      <!-- −0.2 -->
      <g transform="translate(49.725625 94.579077) scale(0.14 -0.14)">
       <defs>
        <path id="ArialMT-2212" d="M 3381 1997 
L 356 1997 
L 356 2522 
L 3381 2522 
L 3381 1997 
z
" transform="scale(0.015625)"/>
        <path id="ArialMT-30" d="M 266 2259 
Q 266 3072 433 3567 
Q 600 4063 929 4331 
Q 1259 4600 1759 4600 
Q 2128 4600 2406 4451 
Q 2684 4303 2865 4023 
Q 3047 3744 3150 3342 
Q 3253 2941 3253 2259 
Q 3253 1453 3087 958 
Q 2922 463 2592 192 
Q 2263 -78 1759 -78 
Q 1097 -78 719 397 
Q 266 969 266 2259 
z
M 844 2259 
Q 844 1131 1108 757 
Q 1372 384 1759 384 
Q 2147 384 2411 759 
Q 2675 1134 2675 2259 
Q 2675 3391 2411 3762 
Q 2147 4134 1753 4134 
Q 1366 4134 1134 3806 
Q 844 3388 844 2259 
z
" transform="scale(0.015625)"/>
        <path id="ArialMT-2e" d="M 581 0 
L 581 641 
L 1222 641 
L 1222 0 
L 581 0 
z
" transform="scale(0.015625)"/>
        <path id="ArialMT-32" d="M 3222 541 
L 3222 0 
L 194 0 
Q 188 203 259 391 
Q 375 700 629 1000 
Q 884 1300 1366 1694 
Q 2113 2306 2375 2664 
Q 2638 3022 2638 3341 
Q 2638 3675 2398 3904 
Q 2159 4134 1775 4134 
Q 1369 4134 1125 3890 
Q 881 3647 878 3216 
L 300 3275 
Q 359 3922 746 4261 
Q 1134 4600 1788 4600 
Q 2447 4600 2831 4234 
Q 3216 3869 3216 3328 
Q 3216 3053 3103 2787 
Q 2991 2522 2730 2228 
Q 2469 1934 1863 1422 
Q 1356 997 1212 845 
Q 1069 694 975 541 
L 3222 541 
z
" transform="scale(0.015625)"/>
       </defs>
       <use xlink:href="#ArialMT-2212"/>
       <use xlink:href="#ArialMT-30" x="58.398438"/>
       <use xlink:href="#ArialMT-2e" x="114.013672"/>
       <use xlink:href="#ArialMT-32" x="141.796875"/>
      </g>
     </g>
    </g>
    <g id="ytick_2">
     <g id="line2d_5">
      <g>
       <use xlink:href="#m0e53ab9b97" x="84.3625" y="50.889539" style="stroke: #000000; stroke-width: 0.8"/>
      </g>
     </g>
     <g id="text_2">
      <!-- 0.0 -->
      <g transform="translate(57.9025 55.900007) scale(0.14 -0.14)">
       <use xlink:href="#ArialMT-30"/>
       <use xlink:href="#ArialMT-2e" x="55.615234"/>
       <use xlink:href="#ArialMT-30" x="83.398438"/>
      </g>
     </g>
    </g>
    <g id="ytick_3">
     <g id="line2d_6">
      <g>
       <use xlink:href="#m0e53ab9b97" x="84.3625" y="12.210469" style="stroke: #000000; stroke-width: 0.8"/>
      </g>
     </g>
     <g id="text_3">
      <!-- 0.2 -->
      <g transform="translate(57.9025 17.220938) scale(0.14 -0.14)">
       <use xlink:href="#ArialMT-30"/>
       <use xlink:href="#ArialMT-2e" x="55.615234"/>
       <use xlink:href="#ArialMT-32" x="83.398438"/>
      </g>
     </g>
    </g>
    <g id="text_4">
     <!-- Photovoltage -->
     <g transform="translate(27.602625 91.752039) rotate(-90) scale(0.14 -0.14)">
      <defs>
       <path id="ArialMT-50" d="M 494 0 
L 494 4581 
L 2222 4581 
Q 2678 4581 2919 4538 
Q 3256 4481 3484 4323 
Q 3713 4166 3852 3881 
Q 3991 3597 3991 3256 
Q 3991 2672 3619 2267 
Q 3247 1863 2275 1863 
L 1100 1863 
L 1100 0 
L 494 0 
z
M 1100 2403 
L 2284 2403 
Q 2872 2403 3119 2622 
Q 3366 2841 3366 3238 
Q 3366 3525 3220 3729 
Q 3075 3934 2838 4000 
Q 2684 4041 2272 4041 
L 1100 4041 
L 1100 2403 
z
" transform="scale(0.015625)"/>
       <path id="ArialMT-68" d="M 422 0 
L 422 4581 
L 984 4581 
L 984 2938 
Q 1378 3394 1978 3394 
Q 2347 3394 2619 3248 
Q 2891 3103 3008 2847 
Q 3125 2591 3125 2103 
L 3125 0 
L 2563 0 
L 2563 2103 
Q 2563 2525 2380 2717 
Q 2197 2909 1863 2909 
Q 1613 2909 1392 2779 
Q 1172 2650 1078 2428 
Q 984 2206 984 1816 
L 984 0 
L 422 0 
z
" transform="scale(0.015625)"/>
       <path id="ArialMT-6f" d="M 213 1659 
Q 213 2581 725 3025 
Q 1153 3394 1769 3394 
Q 2453 3394 2887 2945 
Q 3322 2497 3322 1706 
Q 3322 1066 3130 698 
Q 2938 331 2570 128 
Q 2203 -75 1769 -75 
Q 1072 -75 642 372 
Q 213 819 213 1659 
z
M 791 1659 
Q 791 1022 1069 705 
Q 1347 388 1769 388 
Q 2188 388 2466 706 
Q 2744 1025 2744 1678 
Q 2744 2294 2464 2611 
Q 2184 2928 1769 2928 
Q 1347 2928 1069 2612 
Q 791 2297 791 1659 
z
" transform="scale(0.015625)"/>
       <path id="ArialMT-74" d="M 1650 503 
L 1731 6 
Q 1494 -44 1306 -44 
Q 1000 -44 831 53 
Q 663 150 594 308 
Q 525 466 525 972 
L 525 2881 
L 113 2881 
L 113 3319 
L 525 3319 
L 525 4141 
L 1084 4478 
L 1084 3319 
L 1650 3319 
L 1650 2881 
L 1084 2881 
L 1084 941 
Q 1084 700 1114 631 
Q 1144 563 1211 522 
Q 1278 481 1403 481 
Q 1497 481 1650 503 
z
" transform="scale(0.015625)"/>
       <path id="ArialMT-76" d="M 1344 0 
L 81 3319 
L 675 3319 
L 1388 1331 
Q 1503 1009 1600 663 
Q 1675 925 1809 1294 
L 2547 3319 
L 3125 3319 
L 1869 0 
L 1344 0 
z
" transform="scale(0.015625)"/>
       <path id="ArialMT-6c" d="M 409 0 
L 409 4581 
L 972 4581 
L 972 0 
L 409 0 
z
" transform="scale(0.015625)"/>
       <path id="ArialMT-61" d="M 2588 409 
Q 2275 144 1986 34 
Q 1697 -75 1366 -75 
Q 819 -75 525 192 
Q 231 459 231 875 
Q 231 1119 342 1320 
Q 453 1522 633 1644 
Q 813 1766 1038 1828 
Q 1203 1872 1538 1913 
Q 2219 1994 2541 2106 
Q 2544 2222 2544 2253 
Q 2544 2597 2384 2738 
Q 2169 2928 1744 2928 
Q 1347 2928 1158 2789 
Q 969 2650 878 2297 
L 328 2372 
Q 403 2725 575 2942 
Q 747 3159 1072 3276 
Q 1397 3394 1825 3394 
Q 2250 3394 2515 3294 
Q 2781 3194 2906 3042 
Q 3031 2891 3081 2659 
Q 3109 2516 3109 2141 
L 3109 1391 
Q 3109 606 3145 398 
Q 3181 191 3288 0 
L 2700 0 
Q 2613 175 2588 409 
z
M 2541 1666 
Q 2234 1541 1622 1453 
Q 1275 1403 1131 1340 
Q 988 1278 909 1158 
Q 831 1038 831 891 
Q 831 666 1001 516 
Q 1172 366 1500 366 
Q 1825 366 2078 508 
Q 2331 650 2450 897 
Q 2541 1088 2541 1459 
L 2541 1666 
z
" transform="scale(0.015625)"/>
       <path id="ArialMT-67" d="M 319 -275 
L 866 -356 
Q 900 -609 1056 -725 
Q 1266 -881 1628 -881 
Q 2019 -881 2231 -725 
Q 2444 -569 2519 -288 
Q 2563 -116 2559 434 
Q 2191 0 1641 0 
Q 956 0 581 494 
Q 206 988 206 1678 
Q 206 2153 378 2554 
Q 550 2956 876 3175 
Q 1203 3394 1644 3394 
Q 2231 3394 2613 2919 
L 2613 3319 
L 3131 3319 
L 3131 450 
Q 3131 -325 2973 -648 
Q 2816 -972 2473 -1159 
Q 2131 -1347 1631 -1347 
Q 1038 -1347 672 -1080 
Q 306 -813 319 -275 
z
M 784 1719 
Q 784 1066 1043 766 
Q 1303 466 1694 466 
Q 2081 466 2343 764 
Q 2606 1063 2606 1700 
Q 2606 2309 2336 2618 
Q 2066 2928 1684 2928 
Q 1309 2928 1046 2623 
Q 784 2319 784 1719 
z
" transform="scale(0.015625)"/>
       <path id="ArialMT-65" d="M 2694 1069 
L 3275 997 
Q 3138 488 2766 206 
Q 2394 -75 1816 -75 
Q 1088 -75 661 373 
Q 234 822 234 1631 
Q 234 2469 665 2931 
Q 1097 3394 1784 3394 
Q 2450 3394 2872 2941 
Q 3294 2488 3294 1666 
Q 3294 1616 3291 1516 
L 816 1516 
Q 847 969 1125 678 
Q 1403 388 1819 388 
Q 2128 388 2347 550 
Q 2566 713 2694 1069 
z
M 847 1978 
L 2700 1978 
Q 2663 2397 2488 2606 
Q 2219 2931 1791 2931 
Q 1403 2931 1139 2672 
Q 875 2413 847 1978 
z
" transform="scale(0.015625)"/>
      </defs>
      <use xlink:href="#ArialMT-50"/>
      <use xlink:href="#ArialMT-68" x="66.699219"/>
      <use xlink:href="#ArialMT-6f" x="122.314453"/>
      <use xlink:href="#ArialMT-74" x="177.929688"/>
      <use xlink:href="#ArialMT-6f" x="205.712891"/>
      <use xlink:href="#ArialMT-76" x="261.328125"/>
      <use xlink:href="#ArialMT-6f" x="311.328125"/>
      <use xlink:href="#ArialMT-6c" x="366.943359"/>
      <use xlink:href="#ArialMT-74" x="389.160156"/>
      <use xlink:href="#ArialMT-61" x="416.943359"/>
      <use xlink:href="#ArialMT-67" x="472.558594"/>
      <use xlink:href="#ArialMT-65" x="528.173828"/>
     </g>
     <!-- (V) -->
     <g transform="translate(42.779063 60.22032) rotate(-90) scale(0.14 -0.14)">
      <defs>
       <path id="ArialMT-28" d="M 1497 -1347 
Q 1031 -759 709 28 
Q 388 816 388 1659 
Q 388 2403 628 3084 
Q 909 3875 1497 4659 
L 1900 4659 
Q 1522 4009 1400 3731 
Q 1209 3300 1100 2831 
Q 966 2247 966 1656 
Q 966 153 1900 -1347 
L 1497 -1347 
z
" transform="scale(0.015625)"/>
       <path id="ArialMT-56" d="M 1803 0 
L 28 4581 
L 684 4581 
L 1875 1253 
Q 2019 853 2116 503 
Q 2222 878 2363 1253 
L 3600 4581 
L 4219 4581 
L 2425 0 
L 1803 0 
z
" transform="scale(0.015625)"/>
       <path id="ArialMT-29" d="M 791 -1347 
L 388 -1347 
Q 1322 153 1322 1656 
Q 1322 2244 1188 2822 
Q 1081 3291 891 3722 
Q 769 4003 388 4659 
L 791 4659 
Q 1378 3875 1659 3084 
Q 1900 2403 1900 1659 
Q 1900 816 1576 28 
Q 1253 -759 791 -1347 
z
" transform="scale(0.015625)"/>
      </defs>
      <use xlink:href="#ArialMT-28"/>
      <use xlink:href="#ArialMT-56" x="33.300781"/>
      <use xlink:href="#ArialMT-29" x="100"/>
     </g>
    </g>
   </g>
   <g id="line2d_7">
    <path d="M 84.3067 51.416608 
L 88.4359 51.226869 
L 91.7281 51.349257 
L 104.8411 51.248527 
L 108.5239 51.21484 
L 117.6193 51.1063 
L 122.3623 51.063909 
L 130.7881 50.976825 
L 134.3593 51.085734 
L 138.5443 51.055284 
L 141.1669 50.977116 
L 152.7175 51.288963 
L 154.1125 51.342082 
L 155.4517 51.644167 
L 157.0699 51.978959 
L 158.2975 51.972785 
L 161.3665 51.844518 
L 165.2725 51.89739 
L 167.0023 51.576654 
L 168.8995 51.286447 
L 171.0757 51.235301 
L 181.3429 51.109983 
L 183.7423 51.055687 
L 189.0433 51.006148 
L 204.4441 50.784487 
L 208.4617 50.558553 
L 211.8655 50.669424 
L 219.0637 50.655001 
L 223.6393 50.72004 
L 251.2045 51.131322 
L 251.7625 51.207376 
L 251.7625 51.207376 
" clip-path="url(#p100e9f3948)" style="fill: none; stroke: #e84a4e; stroke-width: 1.5; stroke-linecap: square"/>
   </g>
   <g id="line2d_8">
    <path d="M 84.3067 51.612081 
L 85.2553 51.474846 
L 87.0967 51.121041 
L 87.9337 51.240517 
L 90.3889 51.776874 
L 91.3933 51.611026 
L 93.4021 51.217219 
L 94.4065 51.284867 
L 95.4109 51.583757 
L 98.2009 52.623019 
L 98.8705 52.488854 
L 99.7633 52.056547 
L 101.1583 51.391553 
L 101.9953 51.273469 
L 103.1671 51.378027 
L 104.6179 51.456338 
L 106.4035 51.261505 
L 108.5239 51.117713 
L 114.7735 51.035183 
L 124.3711 51.87489 
L 126.0451 52.097547 
L 127.2169 52.011452 
L 131.0113 51.524797 
L 133.1317 51.636416 
L 135.9217 51.760185 
L 138.8791 51.611071 
L 144.6265 51.100242 
L 147.3049 50.8578 
L 148.4767 50.61247 
L 149.7601 50.079794 
L 151.0435 49.614527 
L 151.9921 49.532762 
L 153.1081 49.430799 
L 153.6661 49.152045 
L 154.2241 48.625551 
L 156.0097 46.647315 
L 156.3445 46.690507 
L 156.6793 47.005752 
L 157.0699 47.759588 
L 157.5721 49.338126 
L 158.2417 52.311099 
L 161.2549 66.921211 
L 162.0361 69.269394 
L 162.7057 70.67596 
L 163.3195 71.492399 
L 163.8775 71.889392 
L 164.4355 72.015139 
L 165.0493 71.90741 
L 165.7747 71.525165 
L 166.5559 70.84855 
L 167.3929 69.81298 
L 168.2857 68.340433 
L 169.5133 65.821427 
L 171.8569 60.945056 
L 172.8055 59.511256 
L 173.5309 58.788437 
L 174.2005 58.428998 
L 175.0375 58.265858 
L 176.2093 58.040697 
L 176.8789 57.667235 
L 177.6601 56.961271 
L 181.1755 53.402866 
L 182.4589 52.607487 
L 184.1329 51.859933 
L 187.4251 50.661692 
L 188.8201 50.407741 
L 190.2151 50.384325 
L 192.5029 50.640878 
L 193.8421 50.640413 
L 195.6835 50.368064 
L 197.8039 50.125858 
L 199.6453 50.141251 
L 201.5983 50.389503 
L 203.8861 50.686373 
L 204.9463 50.563593 
L 207.7363 50.066035 
L 209.2987 50.22022 
L 210.8053 50.272622 
L 214.5997 50.212876 
L 220.4587 50.673739 
L 222.5791 50.896479 
L 223.6951 50.794974 
L 224.8669 50.447181 
L 226.7083 49.880579 
L 227.7127 49.841087 
L 228.9961 50.040249 
L 231.5629 50.490984 
L 232.6231 50.417911 
L 235.6363 50.00627 
L 238.6495 50.240145 
L 242.6113 49.7374 
L 247.1311 49.737891 
L 248.8051 49.727201 
L 251.0929 49.851623 
L 251.7067 49.561217 
L 251.7625 49.522687 
L 251.7625 49.522687 
" clip-path="url(#p100e9f3948)" style="fill: none; stroke: #51546b; stroke-width: 1.5; stroke-linecap: square"/>
   </g>
   <g id="line2d_9">
    <path d="M 84.3067 49.292818 
L 87.0409 49.486927 
L 90.5563 49.674282 
L 97.1965 49.675404 
L 102.2743 49.717465 
L 107.8543 49.748622 
L 130.6765 49.769668 
L 136.1449 50.061515 
L 144.3475 50.147061 
L 153.9451 50.282839 
L 155.1727 49.968287 
L 156.6793 49.326956 
L 159.3577 48.1489 
L 160.3621 47.985833 
L 161.5897 48.03165 
L 166.7233 48.69552 
L 170.2387 49.064813 
L 174.5911 49.233727 
L 186.5323 49.639476 
L 196.0183 49.623339 
L 216.8875 49.55111 
L 219.7333 49.739593 
L 222.2443 49.847551 
L 225.6481 49.947891 
L 228.8845 50.049466 
L 248.0239 50.105045 
L 249.2515 50.296669 
L 250.7581 50.547073 
L 251.3719 50.405098 
L 251.7625 50.189271 
L 251.7625 50.189271 
" clip-path="url(#p100e9f3948)" style="fill: none; stroke: #616eeb; stroke-width: 1.5; stroke-linecap: square"/>
   </g>
   <g id="line2d_10">
    <path d="M 84.3067 51.186753 
L 86.8735 51.326406 
L 89.3287 51.198923 
L 92.2861 51.131865 
L 95.8015 50.953148 
L 98.9263 50.950515 
L 103.4461 50.923933 
L 126.2683 50.437832 
L 128.7793 50.656614 
L 132.1273 50.933449 
L 137.9305 50.853799 
L 144.1801 50.814905 
L 148.9231 50.851673 
L 154.7821 50.963882 
L 156.8467 51.370697 
L 160.9201 52.197363 
L 162.6499 52.305906 
L 164.3797 52.18067 
L 171.2431 51.417792 
L 177.6601 51.465041 
L 206.4529 50.576023 
L 212.9815 50.427811 
L 215.7715 50.461379 
L 222.4117 50.938899 
L 226.5409 50.834719 
L 230.4469 50.794878 
L 234.7993 50.802191 
L 247.4659 50.763963 
L 250.2559 51.022896 
L 251.7625 51.364484 
L 251.7625 51.364484 
" clip-path="url(#p100e9f3948)" style="fill: none; stroke: #e8c54a; stroke-width: 1.5; stroke-linecap: square"/>
   </g>
   <g id="patch_3">
    <path d="M 84.3625 89.568608 
L 84.3625 12.210469 
" style="fill: none; stroke: #000000; stroke-width: 0.8; stroke-linejoin: miter; stroke-linecap: square"/>
   </g>
   <g id="patch_4">
    <path d="M 251.7625 89.568608 
L 251.7625 12.210469 
" style="fill: none; stroke: #000000; stroke-width: 0.8; stroke-linejoin: miter; stroke-linecap: square"/>
   </g>
   <g id="patch_5">
    <path d="M 84.3625 89.568608 
L 251.7625 89.568608 
" style="fill: none; stroke: #000000; stroke-width: 0.8; stroke-linejoin: miter; stroke-linecap: square"/>
   </g>
   <g id="patch_6">
    <path d="M 84.3625 12.210469 
L 251.7625 12.210469 
" style="fill: none; stroke: #000000; stroke-width: 0.8; stroke-linejoin: miter; stroke-linecap: square"/>
   </g>
   <g id="legend_1">
    <g id="line2d_11">
     <path d="M 11.2 24.990156 
L 21.2 24.990156 
L 31.2 24.990156 
" style="fill: none; stroke: #e84a4e; stroke-width: 1.5; stroke-linecap: square"/>
    </g>
    <g id="text_5">
     <!-- Central -->
     <g transform="translate(39.2 28.490156) scale(0.1 -0.1)">
      <defs>
       <path id="ArialMT-43" d="M 3763 1606 
L 4369 1453 
Q 4178 706 3683 314 
Q 3188 -78 2472 -78 
Q 1731 -78 1267 223 
Q 803 525 561 1097 
Q 319 1669 319 2325 
Q 319 3041 592 3573 
Q 866 4106 1370 4382 
Q 1875 4659 2481 4659 
Q 3169 4659 3637 4309 
Q 4106 3959 4291 3325 
L 3694 3184 
Q 3534 3684 3231 3912 
Q 2928 4141 2469 4141 
Q 1941 4141 1586 3887 
Q 1231 3634 1087 3207 
Q 944 2781 944 2328 
Q 944 1744 1114 1308 
Q 1284 872 1643 656 
Q 2003 441 2422 441 
Q 2931 441 3284 734 
Q 3638 1028 3763 1606 
z
" transform="scale(0.015625)"/>
       <path id="ArialMT-6e" d="M 422 0 
L 422 3319 
L 928 3319 
L 928 2847 
Q 1294 3394 1984 3394 
Q 2284 3394 2536 3286 
Q 2788 3178 2913 3003 
Q 3038 2828 3088 2588 
Q 3119 2431 3119 2041 
L 3119 0 
L 2556 0 
L 2556 2019 
Q 2556 2363 2490 2533 
Q 2425 2703 2258 2804 
Q 2091 2906 1866 2906 
Q 1506 2906 1245 2678 
Q 984 2450 984 1813 
L 984 0 
L 422 0 
z
" transform="scale(0.015625)"/>
       <path id="ArialMT-72" d="M 416 0 
L 416 3319 
L 922 3319 
L 922 2816 
Q 1116 3169 1280 3281 
Q 1444 3394 1641 3394 
Q 1925 3394 2219 3213 
L 2025 2691 
Q 1819 2813 1613 2813 
Q 1428 2813 1281 2702 
Q 1134 2591 1072 2394 
Q 978 2094 978 1738 
L 978 0 
L 416 0 
z
" transform="scale(0.015625)"/>
      </defs>
      <use xlink:href="#ArialMT-43"/>
      <use xlink:href="#ArialMT-65" x="72.216797"/>
      <use xlink:href="#ArialMT-6e" x="127.832031"/>
      <use xlink:href="#ArialMT-74" x="183.447266"/>
      <use xlink:href="#ArialMT-72" x="211.230469"/>
      <use xlink:href="#ArialMT-61" x="244.53125"/>
      <use xlink:href="#ArialMT-6c" x="300.146484"/>
     </g>
    </g>
    <g id="line2d_12">
     <path d="M 91.434375 24.990156 
L 101.434375 24.990156 
L 111.434375 24.990156 
" style="fill: none; stroke: #51546b; stroke-width: 1.5; stroke-linecap: square"/>
    </g>
    <g id="text_6">
     <!-- Bottom -->
     <g transform="translate(119.434375 28.490156) scale(0.1 -0.1)">
      <defs>
       <path id="ArialMT-42" d="M 469 0 
L 469 4581 
L 2188 4581 
Q 2713 4581 3030 4442 
Q 3347 4303 3526 4014 
Q 3706 3725 3706 3409 
Q 3706 3116 3547 2856 
Q 3388 2597 3066 2438 
Q 3481 2316 3704 2022 
Q 3928 1728 3928 1328 
Q 3928 1006 3792 729 
Q 3656 453 3456 303 
Q 3256 153 2954 76 
Q 2653 0 2216 0 
L 469 0 
z
M 1075 2656 
L 2066 2656 
Q 2469 2656 2644 2709 
Q 2875 2778 2992 2937 
Q 3109 3097 3109 3338 
Q 3109 3566 3000 3739 
Q 2891 3913 2687 3977 
Q 2484 4041 1991 4041 
L 1075 4041 
L 1075 2656 
z
M 1075 541 
L 2216 541 
Q 2509 541 2628 563 
Q 2838 600 2978 687 
Q 3119 775 3209 942 
Q 3300 1109 3300 1328 
Q 3300 1584 3169 1773 
Q 3038 1963 2805 2039 
Q 2572 2116 2134 2116 
L 1075 2116 
L 1075 541 
z
" transform="scale(0.015625)"/>
       <path id="ArialMT-6d" d="M 422 0 
L 422 3319 
L 925 3319 
L 925 2853 
Q 1081 3097 1340 3245 
Q 1600 3394 1931 3394 
Q 2300 3394 2536 3241 
Q 2772 3088 2869 2813 
Q 3263 3394 3894 3394 
Q 4388 3394 4653 3120 
Q 4919 2847 4919 2278 
L 4919 0 
L 4359 0 
L 4359 2091 
Q 4359 2428 4304 2576 
Q 4250 2725 4106 2815 
Q 3963 2906 3769 2906 
Q 3419 2906 3187 2673 
Q 2956 2441 2956 1928 
L 2956 0 
L 2394 0 
L 2394 2156 
Q 2394 2531 2256 2718 
Q 2119 2906 1806 2906 
Q 1569 2906 1367 2781 
Q 1166 2656 1075 2415 
Q 984 2175 984 1722 
L 984 0 
L 422 0 
z
" transform="scale(0.015625)"/>
      </defs>
      <use xlink:href="#ArialMT-42"/>
      <use xlink:href="#ArialMT-6f" x="66.699219"/>
      <use xlink:href="#ArialMT-74" x="122.314453"/>
      <use xlink:href="#ArialMT-74" x="150.097656"/>
      <use xlink:href="#ArialMT-6f" x="177.880859"/>
      <use xlink:href="#ArialMT-6d" x="233.496094"/>
     </g>
    </g>
    <g id="line2d_13">
     <path d="M 171.1125 24.990156 
L 181.1125 24.990156 
L 191.1125 24.990156 
" style="fill: none; stroke: #616eeb; stroke-width: 1.5; stroke-linecap: square"/>
    </g>
    <g id="text_7">
     <!-- Top Left -->
     <g transform="translate(199.1125 28.490156) scale(0.1 -0.1)">
      <defs>
       <path id="ArialMT-54" d="M 1659 0 
L 1659 4041 
L 150 4041 
L 150 4581 
L 3781 4581 
L 3781 4041 
L 2266 4041 
L 2266 0 
L 1659 0 
z
" transform="scale(0.015625)"/>
       <path id="ArialMT-70" d="M 422 -1272 
L 422 3319 
L 934 3319 
L 934 2888 
Q 1116 3141 1344 3267 
Q 1572 3394 1897 3394 
Q 2322 3394 2647 3175 
Q 2972 2956 3137 2557 
Q 3303 2159 3303 1684 
Q 3303 1175 3120 767 
Q 2938 359 2589 142 
Q 2241 -75 1856 -75 
Q 1575 -75 1351 44 
Q 1128 163 984 344 
L 984 -1272 
L 422 -1272 
z
M 931 1641 
Q 931 1000 1190 694 
Q 1450 388 1819 388 
Q 2194 388 2461 705 
Q 2728 1022 2728 1688 
Q 2728 2322 2467 2637 
Q 2206 2953 1844 2953 
Q 1484 2953 1207 2617 
Q 931 2281 931 1641 
z
" transform="scale(0.015625)"/>
       <path id="ArialMT-20" transform="scale(0.015625)"/>
       <path id="ArialMT-4c" d="M 469 0 
L 469 4581 
L 1075 4581 
L 1075 541 
L 3331 541 
L 3331 0 
L 469 0 
z
" transform="scale(0.015625)"/>
       <path id="ArialMT-66" d="M 556 0 
L 556 2881 
L 59 2881 
L 59 3319 
L 556 3319 
L 556 3672 
Q 556 4006 616 4169 
Q 697 4388 901 4523 
Q 1106 4659 1475 4659 
Q 1713 4659 2000 4603 
L 1916 4113 
Q 1741 4144 1584 4144 
Q 1328 4144 1222 4034 
Q 1116 3925 1116 3625 
L 1116 3319 
L 1763 3319 
L 1763 2881 
L 1116 2881 
L 1116 0 
L 556 0 
z
" transform="scale(0.015625)"/>
      </defs>
      <use xlink:href="#ArialMT-54"/>
      <use xlink:href="#ArialMT-6f" x="49.958984"/>
      <use xlink:href="#ArialMT-70" x="105.574219"/>
      <use xlink:href="#ArialMT-20" x="161.189453"/>
      <use xlink:href="#ArialMT-4c" x="188.972656"/>
      <use xlink:href="#ArialMT-65" x="244.587891"/>
      <use xlink:href="#ArialMT-66" x="300.203125"/>
      <use xlink:href="#ArialMT-74" x="327.986328"/>
     </g>
    </g>
    <g id="line2d_14">
     <path d="M 254.685938 24.990156 
L 264.685938 24.990156 
L 274.685938 24.990156 
" style="fill: none; stroke: #e8c54a; stroke-width: 1.5; stroke-linecap: square"/>
    </g>
    <g id="text_8">
     <!-- Top Right -->
     <g transform="translate(282.685938 28.490156) scale(0.1 -0.1)">
      <defs>
       <path id="ArialMT-52" d="M 503 0 
L 503 4581 
L 2534 4581 
Q 3147 4581 3465 4457 
Q 3784 4334 3975 4021 
Q 4166 3709 4166 3331 
Q 4166 2844 3850 2509 
Q 3534 2175 2875 2084 
Q 3116 1969 3241 1856 
Q 3506 1613 3744 1247 
L 4541 0 
L 3778 0 
L 3172 953 
Q 2906 1366 2734 1584 
Q 2563 1803 2427 1890 
Q 2291 1978 2150 2013 
Q 2047 2034 1813 2034 
L 1109 2034 
L 1109 0 
L 503 0 
z
M 1109 2559 
L 2413 2559 
Q 2828 2559 3062 2645 
Q 3297 2731 3419 2920 
Q 3541 3109 3541 3331 
Q 3541 3656 3305 3865 
Q 3069 4075 2559 4075 
L 1109 4075 
L 1109 2559 
z
" transform="scale(0.015625)"/>
       <path id="ArialMT-69" d="M 425 3934 
L 425 4581 
L 988 4581 
L 988 3934 
L 425 3934 
z
M 425 0 
L 425 3319 
L 988 3319 
L 988 0 
L 425 0 
z
" transform="scale(0.015625)"/>
      </defs>
      <use xlink:href="#ArialMT-54"/>
      <use xlink:href="#ArialMT-6f" x="49.958984"/>
      <use xlink:href="#ArialMT-70" x="105.574219"/>
      <use xlink:href="#ArialMT-20" x="161.189453"/>
      <use xlink:href="#ArialMT-52" x="188.972656"/>
      <use xlink:href="#ArialMT-69" x="261.189453"/>
      <use xlink:href="#ArialMT-67" x="283.40625"/>
      <use xlink:href="#ArialMT-68" x="339.021484"/>
      <use xlink:href="#ArialMT-74" x="394.636719"/>
     </g>
    </g>
   </g>
  </g>
  <g id="axes_2">
   <g id="patch_7">
    <path d="M 84.3625 178.530469 
L 251.7625 178.530469 
L 251.7625 101.172329 
L 84.3625 101.172329 
z
" style="fill: #ffffff"/>
   </g>
   <g id="matplotlib.axis_3">
    <g id="xtick_4">
     <g id="line2d_15">
      <g>
       <use xlink:href="#me7b3c001bd" x="84.3625" y="178.530469" style="stroke: #000000; stroke-width: 0.8"/>
      </g>
     </g>
     <g id="text_9">
      <!-- 0.0 -->
      <g transform="translate(74.6325 195.551406) scale(0.14 -0.14)">
       <use xlink:href="#ArialMT-30"/>
       <use xlink:href="#ArialMT-2e" x="55.615234"/>
       <use xlink:href="#ArialMT-30" x="83.398438"/>
      </g>
     </g>
    </g>
    <g id="xtick_5">
     <g id="line2d_16">
      <g>
       <use xlink:href="#me7b3c001bd" x="168.0625" y="178.530469" style="stroke: #000000; stroke-width: 0.8"/>
      </g>
     </g>
     <g id="text_10">
      <!-- 1.5 -->
      <g transform="translate(158.3325 195.551406) scale(0.14 -0.14)">
       <defs>
        <path id="ArialMT-31" d="M 2384 0 
L 1822 0 
L 1822 3584 
Q 1619 3391 1289 3197 
Q 959 3003 697 2906 
L 697 3450 
Q 1169 3672 1522 3987 
Q 1875 4303 2022 4600 
L 2384 4600 
L 2384 0 
z
" transform="scale(0.015625)"/>
        <path id="ArialMT-35" d="M 266 1200 
L 856 1250 
Q 922 819 1161 601 
Q 1400 384 1738 384 
Q 2144 384 2425 690 
Q 2706 997 2706 1503 
Q 2706 1984 2436 2262 
Q 2166 2541 1728 2541 
Q 1456 2541 1237 2417 
Q 1019 2294 894 2097 
L 366 2166 
L 809 4519 
L 3088 4519 
L 3088 3981 
L 1259 3981 
L 1013 2750 
Q 1425 3038 1878 3038 
Q 2478 3038 2890 2622 
Q 3303 2206 3303 1553 
Q 3303 931 2941 478 
Q 2500 -78 1738 -78 
Q 1113 -78 717 272 
Q 322 622 266 1200 
z
" transform="scale(0.015625)"/>
       </defs>
       <use xlink:href="#ArialMT-31"/>
       <use xlink:href="#ArialMT-2e" x="55.615234"/>
       <use xlink:href="#ArialMT-35" x="83.398438"/>
      </g>
     </g>
    </g>
    <g id="xtick_6">
     <g id="line2d_17">
      <g>
       <use xlink:href="#me7b3c001bd" x="251.7625" y="178.530469" style="stroke: #000000; stroke-width: 0.8"/>
      </g>
     </g>
     <g id="text_11">
      <!-- 3.0 -->
      <g transform="translate(242.0325 195.551406) scale(0.14 -0.14)">
       <defs>
        <path id="ArialMT-33" d="M 269 1209 
L 831 1284 
Q 928 806 1161 595 
Q 1394 384 1728 384 
Q 2125 384 2398 659 
Q 2672 934 2672 1341 
Q 2672 1728 2419 1979 
Q 2166 2231 1775 2231 
Q 1616 2231 1378 2169 
L 1441 2663 
Q 1497 2656 1531 2656 
Q 1891 2656 2178 2843 
Q 2466 3031 2466 3422 
Q 2466 3731 2256 3934 
Q 2047 4138 1716 4138 
Q 1388 4138 1169 3931 
Q 950 3725 888 3313 
L 325 3413 
Q 428 3978 793 4289 
Q 1159 4600 1703 4600 
Q 2078 4600 2393 4439 
Q 2709 4278 2876 4000 
Q 3044 3722 3044 3409 
Q 3044 3113 2884 2869 
Q 2725 2625 2413 2481 
Q 2819 2388 3044 2092 
Q 3269 1797 3269 1353 
Q 3269 753 2831 336 
Q 2394 -81 1725 -81 
Q 1122 -81 723 278 
Q 325 638 269 1209 
z
" transform="scale(0.015625)"/>
       </defs>
       <use xlink:href="#ArialMT-33"/>
       <use xlink:href="#ArialMT-2e" x="55.615234"/>
       <use xlink:href="#ArialMT-30" x="83.398438"/>
      </g>
     </g>
    </g>
    <g id="text_12">
     <!-- Time (s) -->
     <g transform="translate(142.664531 212.525469) scale(0.14 -0.14)">
      <defs>
       <path id="ArialMT-73" d="M 197 991 
L 753 1078 
Q 800 744 1014 566 
Q 1228 388 1613 388 
Q 2000 388 2187 545 
Q 2375 703 2375 916 
Q 2375 1106 2209 1216 
Q 2094 1291 1634 1406 
Q 1016 1563 777 1677 
Q 538 1791 414 1992 
Q 291 2194 291 2438 
Q 291 2659 392 2848 
Q 494 3038 669 3163 
Q 800 3259 1026 3326 
Q 1253 3394 1513 3394 
Q 1903 3394 2198 3281 
Q 2494 3169 2634 2976 
Q 2775 2784 2828 2463 
L 2278 2388 
Q 2241 2644 2061 2787 
Q 1881 2931 1553 2931 
Q 1166 2931 1000 2803 
Q 834 2675 834 2503 
Q 834 2394 903 2306 
Q 972 2216 1119 2156 
Q 1203 2125 1616 2013 
Q 2213 1853 2448 1751 
Q 2684 1650 2818 1456 
Q 2953 1263 2953 975 
Q 2953 694 2789 445 
Q 2625 197 2315 61 
Q 2006 -75 1616 -75 
Q 969 -75 630 194 
Q 291 463 197 991 
z
" transform="scale(0.015625)"/>
      </defs>
      <use xlink:href="#ArialMT-54"/>
      <use xlink:href="#ArialMT-69" x="57.333984"/>
      <use xlink:href="#ArialMT-6d" x="79.550781"/>
      <use xlink:href="#ArialMT-65" x="162.851562"/>
      <use xlink:href="#ArialMT-20" x="218.466797"/>
      <use xlink:href="#ArialMT-28" x="246.25"/>
      <use xlink:href="#ArialMT-73" x="279.550781"/>
      <use xlink:href="#ArialMT-29" x="329.550781"/>
     </g>
    </g>
   </g>
   <g id="matplotlib.axis_4">
    <g id="ytick_4">
     <g id="line2d_18">
      <g>
       <use xlink:href="#m0e53ab9b97" x="84.3625" y="178.530469" style="stroke: #000000; stroke-width: 0.8"/>
      </g>
     </g>
     <g id="text_13">
      <!-- −10 -->
      <g transform="translate(53.615 183.540938) scale(0.14 -0.14)">
       <use xlink:href="#ArialMT-2212"/>
       <use xlink:href="#ArialMT-31" x="58.398438"/>
       <use xlink:href="#ArialMT-30" x="114.013672"/>
      </g>
     </g>
    </g>
    <g id="ytick_5">
     <g id="line2d_19">
      <g>
       <use xlink:href="#m0e53ab9b97" x="84.3625" y="139.851399" style="stroke: #000000; stroke-width: 0.8"/>
      </g>
     </g>
     <g id="text_14">
      <!-- 0 -->
      <g transform="translate(69.577188 144.861868) scale(0.14 -0.14)">
       <use xlink:href="#ArialMT-30"/>
      </g>
     </g>
    </g>
    <g id="ytick_6">
     <g id="line2d_20">
      <g>
       <use xlink:href="#m0e53ab9b97" x="84.3625" y="101.172329" style="stroke: #000000; stroke-width: 0.8"/>
      </g>
     </g>
     <g id="text_15">
      <!-- 10 -->
      <g transform="translate(61.791875 106.182798) scale(0.14 -0.14)">
       <use xlink:href="#ArialMT-31"/>
       <use xlink:href="#ArialMT-30" x="55.615234"/>
      </g>
     </g>
    </g>
    <g id="text_16">
     <!-- Angles -->
     <g transform="translate(31.324438 161.253899) rotate(-90) scale(0.14 -0.14)">
      <defs>
       <path id="ArialMT-41" d="M -9 0 
L 1750 4581 
L 2403 4581 
L 4278 0 
L 3588 0 
L 3053 1388 
L 1138 1388 
L 634 0 
L -9 0 
z
M 1313 1881 
L 2866 1881 
L 2388 3150 
Q 2169 3728 2063 4100 
Q 1975 3659 1816 3225 
L 1313 1881 
z
" transform="scale(0.015625)"/>
      </defs>
      <use xlink:href="#ArialMT-41"/>
      <use xlink:href="#ArialMT-6e" x="66.699219"/>
      <use xlink:href="#ArialMT-67" x="122.314453"/>
      <use xlink:href="#ArialMT-6c" x="177.929688"/>
      <use xlink:href="#ArialMT-65" x="200.146484"/>
      <use xlink:href="#ArialMT-73" x="255.761719"/>
     </g>
     <!-- ($\circ$) -->
     <g transform="translate(46.535 148.951399) rotate(-90) scale(0.14 -0.14)">
      <defs>
       <path id="DejaVuSans-2218" d="M 2003 2603 
Q 1753 2603 1581 2429 
Q 1409 2256 1409 2006 
Q 1409 1759 1581 1589 
Q 1753 1419 2003 1419 
Q 2253 1419 2425 1589 
Q 2597 1759 2597 2006 
Q 2597 2253 2423 2428 
Q 2250 2603 2003 2603 
z
M 2003 3006 
Q 2203 3006 2387 2929 
Q 2572 2853 2706 2709 
Q 2850 2569 2922 2390 
Q 2994 2212 2994 2006 
Q 2994 1594 2705 1308 
Q 2416 1022 1997 1022 
Q 1575 1022 1294 1303 
Q 1013 1584 1013 2006 
Q 1013 2425 1300 2715 
Q 1588 3006 2003 3006 
z
" transform="scale(0.015625)"/>
      </defs>
      <use xlink:href="#ArialMT-28" transform="translate(0 0.203125)"/>
      <use xlink:href="#DejaVuSans-2218" transform="translate(33.300781 0.203125)"/>
      <use xlink:href="#ArialMT-29" transform="translate(95.898438 0.203125)"/>
     </g>
    </g>
   </g>
   <g id="line2d_21">
    <path d="M 84.3067 142.171455 
L 84.9205 142.739144 
L 85.4785 142.964498 
L 86.0923 142.974317 
L 87.1525 142.719734 
L 88.8823 142.346189 
L 92.7883 141.641275 
L 94.9645 141.053068 
L 95.7457 141.11876 
L 96.6385 141.441962 
L 98.5357 142.206609 
L 99.4285 142.26427 
L 100.6561 142.090648 
L 108.0217 140.778648 
L 109.5283 140.943893 
L 111.4813 141.171642 
L 112.3183 141.017869 
L 113.2111 140.600842 
L 116.2243 138.937976 
L 117.6751 138.591029 
L 120.0187 138.047416 
L 121.1905 137.502957 
L 122.9203 136.670707 
L 123.7015 136.574662 
L 125.5429 136.52902 
L 126.0451 136.199535 
L 126.6589 135.487112 
L 128.3887 133.18935 
L 128.7793 133.085882 
L 129.1141 133.215832 
L 129.5047 133.615627 
L 130.1185 134.637966 
L 131.2345 136.528292 
L 131.6251 136.820178 
L 131.9599 136.828071 
L 132.2947 136.613938 
L 132.7969 135.964426 
L 134.1361 134.013542 
L 134.5267 133.876202 
L 134.8615 134.013504 
L 135.2521 134.453202 
L 135.8659 135.559392 
L 136.8703 137.356642 
L 137.3167 137.712831 
L 137.6515 137.711709 
L 137.9863 137.489873 
L 138.4885 136.846543 
L 139.7161 135.130139 
L 140.1067 134.970342 
L 140.4415 135.072906 
L 140.8321 135.456129 
L 141.4459 136.448822 
L 142.3945 137.984917 
L 142.8409 138.311821 
L 143.1757 138.300727 
L 143.5663 138.014988 
L 144.0685 137.319462 
L 145.3519 135.391046 
L 145.7425 135.188114 
L 146.0773 135.241386 
L 146.4679 135.551222 
L 147.0259 136.321829 
L 148.1977 137.990399 
L 148.6441 138.238474 
L 149.0347 138.19573 
L 149.4811 137.882553 
L 150.1507 137.081946 
L 151.2109 135.849378 
L 151.7131 135.590881 
L 152.1595 135.61025 
L 152.6059 135.863761 
L 153.1081 136.409079 
L 153.7219 137.409936 
L 154.5589 139.251249 
L 156.6235 144.019652 
L 157.2373 144.80494 
L 157.7953 145.175472 
L 158.5207 145.353579 
L 159.5251 145.601259 
L 160.1947 146.034 
L 161.7013 147.140932 
L 162.1477 147.13546 
L 162.5383 146.902608 
L 163.0405 146.29538 
L 163.9333 144.728008 
L 164.6587 143.637756 
L 165.1051 143.325394 
L 165.4399 143.329804 
L 165.8305 143.584616 
L 166.3885 144.279801 
L 167.3371 145.491961 
L 167.7277 145.666817 
L 168.0625 145.562513 
L 168.3973 145.207721 
L 168.8995 144.27235 
L 170.5177 140.865973 
L 170.8525 140.683657 
L 171.1315 140.756021 
L 171.4663 141.098789 
L 171.9685 142.025241 
L 173.5309 145.284365 
L 173.9215 145.582226 
L 174.2563 145.601964 
L 174.6469 145.397277 
L 175.3165 144.730926 
L 176.0419 144.086107 
L 176.4883 143.971819 
L 176.8789 144.117858 
L 177.3253 144.559741 
L 177.9391 145.538484 
L 181.0639 151.12343 
L 182.8495 153.999017 
L 183.9097 155.554768 
L 184.5235 156.089735 
L 185.0257 156.232482 
L 185.4721 156.128119 
L 186.0301 155.735865 
L 186.8113 154.863255 
L 189.8245 151.228721 
L 192.0565 148.575318 
L 194.0095 145.879934 
L 195.9625 143.255526 
L 197.2459 141.935916 
L 201.4309 138.259779 
L 203.1049 137.073892 
L 206.1739 135.19176 
L 206.8993 135.054039 
L 207.5689 135.166778 
L 208.3501 135.542353 
L 210.2473 136.550985 
L 211.0285 136.660042 
L 211.8097 136.549601 
L 212.7583 136.170975 
L 214.2649 135.512624 
L 214.8229 135.540428 
L 215.3251 135.815467 
L 215.8831 136.424593 
L 216.7759 137.827503 
L 217.6129 139.000516 
L 218.0593 139.317401 
L 218.4499 139.342813 
L 218.8405 139.127866 
L 219.3427 138.557758 
L 220.4029 136.875676 
L 221.1283 135.93427 
L 221.6863 135.539315 
L 222.2443 135.426667 
L 222.9139 135.545192 
L 225.0343 136.091519 
L 226.2061 136.051324 
L 228.2707 135.699935 
L 229.8889 135.531304 
L 233.5717 135.345242 
L 234.6319 135.336236 
L 235.4689 135.549208 
L 236.5291 136.07919 
L 238.3147 136.998059 
L 239.0401 137.112152 
L 239.5981 136.984913 
L 240.1561 136.606562 
L 240.7699 135.867559 
L 241.7743 134.188733 
L 242.5555 133.091671 
L 243.0019 132.813488 
L 243.3367 132.840524 
L 243.6715 133.082912 
L 244.1179 133.707226 
L 244.8991 135.294043 
L 245.7361 136.873009 
L 246.2383 137.382967 
L 246.6289 137.480813 
L 247.0195 137.349978 
L 247.6891 136.828211 
L 248.3587 136.376635 
L 248.7493 136.340881 
L 249.1399 136.552299 
L 249.5863 137.1058 
L 250.2001 138.280034 
L 251.5951 141.06279 
L 251.7625 141.27814 
L 251.7625 141.27814 
" clip-path="url(#pb7edbd95f9)" style="fill: none; stroke: #4ae875; stroke-width: 1.5; stroke-linecap: square"/>
   </g>
   <g id="line2d_22">
    <path d="M 84.3067 131.94009 
L 85.1995 131.87867 
L 86.2039 132.046215 
L 87.4873 132.507188 
L 89.9425 133.444926 
L 91.3375 133.649828 
L 92.5651 133.896641 
L 93.5137 134.319483 
L 96.5827 135.895821 
L 98.4241 136.61217 
L 99.5959 137.373389 
L 101.8279 138.867508 
L 103.3903 139.564267 
L 106.2361 140.800211 
L 109.1935 142.285188 
L 109.9189 142.292043 
L 111.1465 142.012429 
L 111.9835 141.944191 
L 112.6531 142.127451 
L 113.4343 142.608219 
L 115.6663 144.153572 
L 116.7265 144.482274 
L 118.8469 145.076032 
L 120.6883 145.920399 
L 125.7661 148.327638 
L 127.4401 148.879433 
L 128.3887 148.972084 
L 129.2257 148.826371 
L 130.2859 148.384105 
L 131.5693 147.891263 
L 132.4063 147.831471 
L 135.0289 147.899785 
L 136.0891 147.452955 
L 137.2609 147.018271 
L 138.0979 146.965142 
L 140.6647 147.036922 
L 143.2873 146.419623 
L 144.2917 146.639835 
L 145.3519 146.810791 
L 146.0215 146.691243 
L 146.8585 146.293448 
L 148.0303 145.756895 
L 148.6441 145.73213 
L 149.3137 145.954737 
L 150.7087 146.509929 
L 151.2109 146.426462 
L 151.7689 146.070583 
L 153.1639 145.016161 
L 153.4987 145.070364 
L 153.8335 145.359176 
L 154.2241 146.026348 
L 154.7263 147.363947 
L 156.4003 152.280235 
L 156.7351 152.572353 
L 156.9583 152.543594 
L 157.2373 152.254261 
L 157.6279 151.425457 
L 158.2417 149.455255 
L 159.2461 146.266529 
L 159.6925 145.553579 
L 159.9715 145.436446 
L 160.2505 145.570649 
L 160.5853 146.022903 
L 161.0875 147.127428 
L 162.4267 150.274721 
L 162.8731 150.745001 
L 163.2079 150.82491 
L 163.5427 150.690477 
L 163.9891 150.238483 
L 164.6587 149.173758 
L 167.4487 144.330584 
L 168.7321 142.685579 
L 170.1829 141.212118 
L 172.1359 139.55611 
L 173.1403 138.954842 
L 173.9773 138.698474 
L 175.0375 138.637646 
L 176.3767 138.536154 
L 177.2695 138.213907 
L 178.6087 137.440478 
L 180.1711 136.609273 
L 181.6219 136.102798 
L 183.4633 135.703741 
L 185.3605 135.519194 
L 187.0903 135.563948 
L 188.6527 135.817646 
L 189.9919 136.254019 
L 191.4427 136.982135 
L 193.1725 137.822308 
L 194.4001 138.136333 
L 196.5763 138.638314 
L 199.3105 139.469039 
L 202.7701 140.041018 
L 203.7745 140.560693 
L 205.0021 141.477887 
L 206.1181 142.229105 
L 206.7319 142.372348 
L 207.2341 142.268376 
L 207.8479 141.88107 
L 209.7451 140.450162 
L 210.2473 140.457089 
L 210.8053 140.713409 
L 212.7025 141.844003 
L 213.2047 141.775793 
L 213.7627 141.466836 
L 214.7113 140.624001 
L 215.8273 139.701543 
L 216.6085 139.339023 
L 217.4455 139.20492 
L 218.4499 139.290571 
L 220.0123 139.692154 
L 221.6863 140.057147 
L 222.7465 140.066565 
L 223.6951 139.86321 
L 226.2619 139.124055 
L 226.8757 139.349253 
L 227.6569 139.921743 
L 228.7171 140.688857 
L 229.2193 140.805027 
L 229.6657 140.696082 
L 230.1679 140.339911 
L 231.0049 139.402402 
L 232.0093 138.346631 
L 232.5673 138.05902 
L 233.0695 138.037004 
L 233.6275 138.243943 
L 234.3529 138.7711 
L 237.0313 140.978112 
L 237.6451 141.086827 
L 238.2031 140.958198 
L 238.9285 140.528338 
L 240.5467 139.471879 
L 241.2163 139.358283 
L 241.9975 139.475278 
L 243.5041 139.749609 
L 244.3969 139.620211 
L 246.0151 139.323173 
L 246.7405 139.455511 
L 247.6333 139.873096 
L 250.4791 141.38005 
L 251.5393 142.034543 
L 251.7625 142.220046 
L 251.7625 142.220046 
" clip-path="url(#pb7edbd95f9)" style="fill: none; stroke: #94885f; stroke-width: 1.5; stroke-linecap: square"/>
   </g>
   <g id="line2d_23">
    <path d="M 84.3067 145.870093 
L 84.9205 146.358239 
L 85.4785 146.51966 
L 86.1481 146.456979 
L 89.8309 145.676579 
L 92.4535 145.476806 
L 93.5137 145.101065 
L 95.3551 144.414695 
L 96.1921 144.377299 
L 97.6429 144.605735 
L 98.6473 144.645899 
L 99.6517 144.4526 
L 103.6693 143.418409 
L 109.0819 142.822777 
L 110.3653 142.894181 
L 112.5415 143.062717 
L 113.9365 142.867281 
L 116.0011 142.594409 
L 118.5679 142.333374 
L 120.0187 141.908807 
L 122.1949 140.994185 
L 123.6457 140.515954 
L 125.3755 140.004726 
L 126.1009 139.503485 
L 126.9379 138.622811 
L 128.0539 137.47327 
L 128.5561 137.251023 
L 128.9467 137.291003 
L 129.3931 137.577687 
L 130.0069 138.296224 
L 131.1787 139.724816 
L 131.6251 139.91656 
L 132.0157 139.82614 
L 132.4621 139.444626 
L 133.2433 138.371194 
L 133.9687 137.519371 
L 134.3593 137.349088 
L 134.6941 137.427503 
L 135.0847 137.78468 
L 135.6427 138.684481 
L 136.9819 141.020868 
L 137.3725 141.29321 
L 137.7073 141.294305 
L 138.0979 141.044212 
L 138.6559 140.357764 
L 139.7719 138.941578 
L 140.2183 138.756116 
L 140.6089 138.85803 
L 141.0553 139.23708 
L 142.8409 141.08572 
L 143.2315 141.0472 
L 143.6779 140.732719 
L 144.3475 139.910182 
L 145.2961 138.800823 
L 145.7425 138.595621 
L 146.1331 138.652136 
L 146.5795 138.961503 
L 147.3607 139.858688 
L 148.1419 140.657872 
L 148.5883 140.853026 
L 149.0347 140.797809 
L 149.5369 140.470486 
L 150.4297 139.527809 
L 151.2667 138.769076 
L 151.8247 138.563757 
L 152.3269 138.635352 
L 152.8291 138.943066 
L 153.4429 139.610782 
L 154.1683 140.754395 
L 156.7351 145.190285 
L 157.2373 145.488122 
L 157.7395 145.526866 
L 158.4649 145.310151 
L 159.3577 145.085684 
L 159.9157 145.199839 
L 160.5295 145.586588 
L 161.9803 146.620438 
L 162.4267 146.644801 
L 162.8731 146.451411 
L 163.4869 145.909313 
L 164.5471 144.941161 
L 164.9935 144.830846 
L 165.3841 144.975575 
L 165.8305 145.416632 
L 166.5559 146.54437 
L 167.3929 147.778225 
L 167.8393 148.090877 
L 168.1741 148.08883 
L 168.5647 147.825521 
L 169.0669 147.158899 
L 170.4619 145.118145 
L 170.8525 144.966066 
L 171.1873 145.069586 
L 171.5779 145.442114 
L 172.1917 146.397585 
L 173.1961 147.96688 
L 173.6425 148.294596 
L 174.0331 148.303915 
L 174.4237 148.073461 
L 175.0375 147.390454 
L 176.0419 146.26782 
L 176.4883 146.084509 
L 176.8789 146.164395 
L 177.3253 146.521148 
L 177.9391 147.366712 
L 180.7291 151.717096 
L 182.6821 154.267343 
L 183.8539 155.749116 
L 184.4677 156.197929 
L 184.9699 156.296844 
L 185.4163 156.168409 
L 185.9743 155.755815 
L 186.7555 154.851616 
L 190.3825 150.250326 
L 193.0051 147.53743 
L 196.6321 144.025056 
L 198.1945 142.845239 
L 199.5337 142.113219 
L 206.3413 139.129691 
L 207.2341 139.042528 
L 208.1827 139.188486 
L 210.8053 139.749502 
L 211.6423 139.636874 
L 212.4235 139.318357 
L 213.4837 138.606831 
L 214.3765 138.097893 
L 214.8787 138.043302 
L 215.3251 138.216561 
L 215.8273 138.685425 
L 216.5527 139.750727 
L 217.6129 141.305877 
L 218.1151 141.657627 
L 218.5057 141.658869 
L 218.8963 141.419614 
L 219.3985 140.825658 
L 221.4073 138.075315 
L 221.9095 137.863353 
L 222.4675 137.87933 
L 223.2487 138.171795 
L 225.0343 138.912106 
L 226.0945 139.078207 
L 227.2663 139.029708 
L 229.8331 138.8255 
L 231.5629 139.095434 
L 232.8463 139.174191 
L 234.8551 139.23795 
L 235.8037 139.559544 
L 238.7053 140.781205 
L 239.3749 140.725442 
L 239.9887 140.436115 
L 240.6025 139.878747 
L 241.4395 138.767699 
L 242.4439 137.482386 
L 242.9461 137.16596 
L 243.3367 137.1672 
L 243.7273 137.402696 
L 244.2295 138.00181 
L 246.0151 140.471622 
L 246.4057 140.584369 
L 246.7963 140.47582 
L 247.3543 140.039918 
L 248.4703 139.090204 
L 248.9167 139.029671 
L 249.3073 139.217097 
L 249.7537 139.690371 
L 250.4791 140.835513 
L 251.4835 142.36357 
L 251.7625 142.634469 
L 251.7625 142.634469 
" clip-path="url(#pb7edbd95f9)" style="fill: none; stroke: #6b4545; stroke-width: 1.5; stroke-linecap: square"/>
   </g>
   <g id="patch_8">
    <path d="M 84.3625 178.530469 
L 84.3625 101.172329 
" style="fill: none; stroke: #000000; stroke-width: 0.8; stroke-linejoin: miter; stroke-linecap: square"/>
   </g>
   <g id="patch_9">
    <path d="M 251.7625 178.530469 
L 251.7625 101.172329 
" style="fill: none; stroke: #000000; stroke-width: 0.8; stroke-linejoin: miter; stroke-linecap: square"/>
   </g>
   <g id="patch_10">
    <path d="M 84.3625 178.530469 
L 251.7625 178.530469 
" style="fill: none; stroke: #000000; stroke-width: 0.8; stroke-linejoin: miter; stroke-linecap: square"/>
   </g>
   <g id="patch_11">
    <path d="M 84.3625 101.172329 
L 251.7625 101.172329 
" style="fill: none; stroke: #000000; stroke-width: 0.8; stroke-linejoin: miter; stroke-linecap: square"/>
   </g>
   <g id="legend_2">
    <g id="line2d_24">
     <path d="M 76.975781 113.830142 
L 86.975781 113.830142 
L 96.975781 113.830142 
" style="fill: none; stroke: #4ae875; stroke-width: 1.5; stroke-linecap: square"/>
    </g>
    <g id="text_17">
     <!-- Roll -->
     <g transform="translate(104.975781 117.330142) scale(0.1 -0.1)">
      <use xlink:href="#ArialMT-52"/>
      <use xlink:href="#ArialMT-6f" x="72.216797"/>
      <use xlink:href="#ArialMT-6c" x="127.832031"/>
      <use xlink:href="#ArialMT-6c" x="150.048828"/>
     </g>
    </g>
    <g id="line2d_25">
     <path d="M 142.202344 113.830142 
L 152.202344 113.830142 
L 162.202344 113.830142 
" style="fill: none; stroke: #94885f; stroke-width: 1.5; stroke-linecap: square"/>
    </g>
    <g id="text_18">
     <!-- Pitch -->
     <g transform="translate(170.202344 117.330142) scale(0.1 -0.1)">
      <defs>
       <path id="ArialMT-63" d="M 2588 1216 
L 3141 1144 
Q 3050 572 2676 248 
Q 2303 -75 1759 -75 
Q 1078 -75 664 370 
Q 250 816 250 1647 
Q 250 2184 428 2587 
Q 606 2991 970 3192 
Q 1334 3394 1763 3394 
Q 2303 3394 2647 3120 
Q 2991 2847 3088 2344 
L 2541 2259 
Q 2463 2594 2264 2762 
Q 2066 2931 1784 2931 
Q 1359 2931 1093 2626 
Q 828 2322 828 1663 
Q 828 994 1084 691 
Q 1341 388 1753 388 
Q 2084 388 2306 591 
Q 2528 794 2588 1216 
z
" transform="scale(0.015625)"/>
      </defs>
      <use xlink:href="#ArialMT-50"/>
      <use xlink:href="#ArialMT-69" x="66.699219"/>
      <use xlink:href="#ArialMT-74" x="88.916016"/>
      <use xlink:href="#ArialMT-63" x="116.699219"/>
      <use xlink:href="#ArialMT-68" x="166.699219"/>
     </g>
    </g>
    <g id="line2d_26">
     <path d="M 212.433594 113.830142 
L 222.433594 113.830142 
L 232.433594 113.830142 
" style="fill: none; stroke: #6b4545; stroke-width: 1.5; stroke-linecap: square"/>
    </g>
    <g id="text_19">
     <!-- Yaw -->
     <g transform="translate(240.433594 117.330142) scale(0.1 -0.1)">
      <defs>
       <path id="ArialMT-59" d="M 1784 0 
L 1784 1941 
L 19 4581 
L 756 4581 
L 1659 3200 
Q 1909 2813 2125 2425 
Q 2331 2784 2625 3234 
L 3513 4581 
L 4219 4581 
L 2391 1941 
L 2391 0 
L 1784 0 
z
" transform="scale(0.015625)"/>
       <path id="ArialMT-77" d="M 1034 0 
L 19 3319 
L 600 3319 
L 1128 1403 
L 1325 691 
Q 1338 744 1497 1375 
L 2025 3319 
L 2603 3319 
L 3100 1394 
L 3266 759 
L 3456 1400 
L 4025 3319 
L 4572 3319 
L 3534 0 
L 2950 0 
L 2422 1988 
L 2294 2553 
L 1622 0 
L 1034 0 
z
" transform="scale(0.015625)"/>
      </defs>
      <use xlink:href="#ArialMT-59"/>
      <use xlink:href="#ArialMT-61" x="59.324219"/>
      <use xlink:href="#ArialMT-77" x="114.939453"/>
     </g>
    </g>
   </g>
  </g>
 </g>
 <defs>
  <clipPath id="p100e9f3948">
   <rect x="84.3625" y="12.210469" width="167.4" height="77.35814"/>
  </clipPath>
  <clipPath id="pb7edbd95f9">
   <rect x="84.3625" y="101.172329" width="167.4" height="77.35814"/>
  </clipPath>
 </defs>
</svg>
