<?xml version="1.0" encoding="utf-8" standalone="no"?>
<!DOCTYPE svg PUBLIC "-//W3C//DTD SVG 1.1//EN"
  "http://www.w3.org/Graphics/SVG/1.1/DTD/svg11.dtd">
<svg xmlns:xlink="http://www.w3.org/1999/xlink" width="336.125pt" height="222.672031pt" viewBox="0 0 336.125 222.672031" xmlns="http://www.w3.org/2000/svg" version="1.1">
 <metadata>
  <rdf:RDF xmlns:dc="http://purl.org/dc/elements/1.1/" xmlns:cc="http://creativecommons.org/ns#" xmlns:rdf="http://www.w3.org/1999/02/22-rdf-syntax-ns#">
   <cc:Work>
    <dc:type rdf:resource="http://purl.org/dc/dcmitype/StillImage"/>
    <dc:date>2024-09-05T12:55:33.684716</dc:date>
    <dc:format>image/svg+xml</dc:format>
    <dc:creator>
     <cc:Agent>
      <dc:title>Matplotlib v3.7.1, https://matplotlib.org/</dc:title>
     </cc:Agent>
    </dc:creator>
   </cc:Work>
  </rdf:RDF>
 </metadata>
 <defs>
  <style type="text/css">*{stroke-linejoin: round; stroke-linecap: butt}</style>
 </defs>
 <g id="figure_1">
  <g id="patch_1">
   <path d="M 0 222.672031 
L 336.125 222.672031 
L 336.125 0 
L 0 0 
z
" style="fill: #ffffff"/>
  </g>
  <g id="axes_1">
   <g id="patch_2">
    <path d="M 84.3625 89.568608 
L 251.7625 89.568608 
L 251.7625 12.210469 
L 84.3625 12.210469 
z
" style="fill: #ffffff"/>
   </g>
   <g id="matplotlib.axis_1">
    <g id="xtick_1">
     <g id="line2d_1">
      <defs>
       <path id="m962023b6d0" d="M 0 0 
L 0 3.5 
" style="stroke: #000000; stroke-width: 0.8"/>
      </defs>
      <g>
       <use xlink:href="#m962023b6d0" x="84.3625" y="89.568608" style="stroke: #000000; stroke-width: 0.8"/>
      </g>
     </g>
    </g>
    <g id="xtick_2">
     <g id="line2d_2">
      <g>
       <use xlink:href="#m962023b6d0" x="168.0625" y="89.568608" style="stroke: #000000; stroke-width: 0.8"/>
      </g>
     </g>
    </g>
    <g id="xtick_3">
     <g id="line2d_3">
      <g>
       <use xlink:href="#m962023b6d0" x="251.7625" y="89.568608" style="stroke: #000000; stroke-width: 0.8"/>
      </g>
     </g>
    </g>
   </g>
   <g id="matplotlib.axis_2">
    <g id="ytick_1">
     <g id="line2d_4">
      <defs>
       <path id="m12bddb589c" d="M 0 0 
L -3.5 0 
" style="stroke: #000000; stroke-width: 0.8"/>
      </defs>
      <g>
       <use xlink:href="#m12bddb589c" x="84.3625" y="89.568608" style="stroke: #000000; stroke-width: 0.8"/>
      </g>
     </g>
     <g id="text_1">
      <!-- −0.05 -->
      <g transform="translate(41.940313 94.579077) scale(0.14 -0.14)">
       <defs>
        <path id="ArialMT-2212" d="M 3381 1997 
L 356 1997 
L 356 2522 
L 3381 2522 
L 3381 1997 
z
" transform="scale(0.015625)"/>
        <path id="ArialMT-30" d="M 266 2259 
Q 266 3072 433 3567 
Q 600 4063 929 4331 
Q 1259 4600 1759 4600 
Q 2128 4600 2406 4451 
Q 2684 4303 2865 4023 
Q 3047 3744 3150 3342 
Q 3253 2941 3253 2259 
Q 3253 1453 3087 958 
Q 2922 463 2592 192 
Q 2263 -78 1759 -78 
Q 1097 -78 719 397 
Q 266 969 266 2259 
z
M 844 2259 
Q 844 1131 1108 757 
Q 1372 384 1759 384 
Q 2147 384 2411 759 
Q 2675 1134 2675 2259 
Q 2675 3391 2411 3762 
Q 2147 4134 1753 4134 
Q 1366 4134 1134 3806 
Q 844 3388 844 2259 
z
" transform="scale(0.015625)"/>
        <path id="ArialMT-2e" d="M 581 0 
L 581 641 
L 1222 641 
L 1222 0 
L 581 0 
z
" transform="scale(0.015625)"/>
        <path id="ArialMT-35" d="M 266 1200 
L 856 1250 
Q 922 819 1161 601 
Q 1400 384 1738 384 
Q 2144 384 2425 690 
Q 2706 997 2706 1503 
Q 2706 1984 2436 2262 
Q 2166 2541 1728 2541 
Q 1456 2541 1237 2417 
Q 1019 2294 894 2097 
L 366 2166 
L 809 4519 
L 3088 4519 
L 3088 3981 
L 1259 3981 
L 1013 2750 
Q 1425 3038 1878 3038 
Q 2478 3038 2890 2622 
Q 3303 2206 3303 1553 
Q 3303 931 2941 478 
Q 2500 -78 1738 -78 
Q 1113 -78 717 272 
Q 322 622 266 1200 
z
" transform="scale(0.015625)"/>
       </defs>
       <use xlink:href="#ArialMT-2212"/>
       <use xlink:href="#ArialMT-30" x="58.398438"/>
       <use xlink:href="#ArialMT-2e" x="114.013672"/>
       <use xlink:href="#ArialMT-30" x="141.796875"/>
       <use xlink:href="#ArialMT-35" x="197.412109"/>
      </g>
     </g>
    </g>
    <g id="ytick_2">
     <g id="line2d_5">
      <g>
       <use xlink:href="#m12bddb589c" x="84.3625" y="50.889539" style="stroke: #000000; stroke-width: 0.8"/>
      </g>
     </g>
     <g id="text_2">
      <!-- 0.00 -->
      <g transform="translate(50.117188 55.900007) scale(0.14 -0.14)">
       <use xlink:href="#ArialMT-30"/>
       <use xlink:href="#ArialMT-2e" x="55.615234"/>
       <use xlink:href="#ArialMT-30" x="83.398438"/>
       <use xlink:href="#ArialMT-30" x="139.013672"/>
      </g>
     </g>
    </g>
    <g id="ytick_3">
     <g id="line2d_6">
      <g>
       <use xlink:href="#m12bddb589c" x="84.3625" y="12.210469" style="stroke: #000000; stroke-width: 0.8"/>
      </g>
     </g>
     <g id="text_3">
      <!-- 0.05 -->
      <g transform="translate(50.117188 17.220938) scale(0.14 -0.14)">
       <use xlink:href="#ArialMT-30"/>
       <use xlink:href="#ArialMT-2e" x="55.615234"/>
       <use xlink:href="#ArialMT-30" x="83.398438"/>
       <use xlink:href="#ArialMT-35" x="139.013672"/>
      </g>
     </g>
    </g>
    <g id="text_4">
     <!-- Photovoltage -->
     <g transform="translate(19.817312 91.752039) rotate(-90) scale(0.14 -0.14)">
      <defs>
       <path id="ArialMT-50" d="M 494 0 
L 494 4581 
L 2222 4581 
Q 2678 4581 2919 4538 
Q 3256 4481 3484 4323 
Q 3713 4166 3852 3881 
Q 3991 3597 3991 3256 
Q 3991 2672 3619 2267 
Q 3247 1863 2275 1863 
L 1100 1863 
L 1100 0 
L 494 0 
z
M 1100 2403 
L 2284 2403 
Q 2872 2403 3119 2622 
Q 3366 2841 3366 3238 
Q 3366 3525 3220 3729 
Q 3075 3934 2838 4000 
Q 2684 4041 2272 4041 
L 1100 4041 
L 1100 2403 
z
" transform="scale(0.015625)"/>
       <path id="ArialMT-68" d="M 422 0 
L 422 4581 
L 984 4581 
L 984 2938 
Q 1378 3394 1978 3394 
Q 2347 3394 2619 3248 
Q 2891 3103 3008 2847 
Q 3125 2591 3125 2103 
L 3125 0 
L 2563 0 
L 2563 2103 
Q 2563 2525 2380 2717 
Q 2197 2909 1863 2909 
Q 1613 2909 1392 2779 
Q 1172 2650 1078 2428 
Q 984 2206 984 1816 
L 984 0 
L 422 0 
z
" transform="scale(0.015625)"/>
       <path id="ArialMT-6f" d="M 213 1659 
Q 213 2581 725 3025 
Q 1153 3394 1769 3394 
Q 2453 3394 2887 2945 
Q 3322 2497 3322 1706 
Q 3322 1066 3130 698 
Q 2938 331 2570 128 
Q 2203 -75 1769 -75 
Q 1072 -75 642 372 
Q 213 819 213 1659 
z
M 791 1659 
Q 791 1022 1069 705 
Q 1347 388 1769 388 
Q 2188 388 2466 706 
Q 2744 1025 2744 1678 
Q 2744 2294 2464 2611 
Q 2184 2928 1769 2928 
Q 1347 2928 1069 2612 
Q 791 2297 791 1659 
z
" transform="scale(0.015625)"/>
       <path id="ArialMT-74" d="M 1650 503 
L 1731 6 
Q 1494 -44 1306 -44 
Q 1000 -44 831 53 
Q 663 150 594 308 
Q 525 466 525 972 
L 525 2881 
L 113 2881 
L 113 3319 
L 525 3319 
L 525 4141 
L 1084 4478 
L 1084 3319 
L 1650 3319 
L 1650 2881 
L 1084 2881 
L 1084 941 
Q 1084 700 1114 631 
Q 1144 563 1211 522 
Q 1278 481 1403 481 
Q 1497 481 1650 503 
z
" transform="scale(0.015625)"/>
       <path id="ArialMT-76" d="M 1344 0 
L 81 3319 
L 675 3319 
L 1388 1331 
Q 1503 1009 1600 663 
Q 1675 925 1809 1294 
L 2547 3319 
L 3125 3319 
L 1869 0 
L 1344 0 
z
" transform="scale(0.015625)"/>
       <path id="ArialMT-6c" d="M 409 0 
L 409 4581 
L 972 4581 
L 972 0 
L 409 0 
z
" transform="scale(0.015625)"/>
       <path id="ArialMT-61" d="M 2588 409 
Q 2275 144 1986 34 
Q 1697 -75 1366 -75 
Q 819 -75 525 192 
Q 231 459 231 875 
Q 231 1119 342 1320 
Q 453 1522 633 1644 
Q 813 1766 1038 1828 
Q 1203 1872 1538 1913 
Q 2219 1994 2541 2106 
Q 2544 2222 2544 2253 
Q 2544 2597 2384 2738 
Q 2169 2928 1744 2928 
Q 1347 2928 1158 2789 
Q 969 2650 878 2297 
L 328 2372 
Q 403 2725 575 2942 
Q 747 3159 1072 3276 
Q 1397 3394 1825 3394 
Q 2250 3394 2515 3294 
Q 2781 3194 2906 3042 
Q 3031 2891 3081 2659 
Q 3109 2516 3109 2141 
L 3109 1391 
Q 3109 606 3145 398 
Q 3181 191 3288 0 
L 2700 0 
Q 2613 175 2588 409 
z
M 2541 1666 
Q 2234 1541 1622 1453 
Q 1275 1403 1131 1340 
Q 988 1278 909 1158 
Q 831 1038 831 891 
Q 831 666 1001 516 
Q 1172 366 1500 366 
Q 1825 366 2078 508 
Q 2331 650 2450 897 
Q 2541 1088 2541 1459 
L 2541 1666 
z
" transform="scale(0.015625)"/>
       <path id="ArialMT-67" d="M 319 -275 
L 866 -356 
Q 900 -609 1056 -725 
Q 1266 -881 1628 -881 
Q 2019 -881 2231 -725 
Q 2444 -569 2519 -288 
Q 2563 -116 2559 434 
Q 2191 0 1641 0 
Q 956 0 581 494 
Q 206 988 206 1678 
Q 206 2153 378 2554 
Q 550 2956 876 3175 
Q 1203 3394 1644 3394 
Q 2231 3394 2613 2919 
L 2613 3319 
L 3131 3319 
L 3131 450 
Q 3131 -325 2973 -648 
Q 2816 -972 2473 -1159 
Q 2131 -1347 1631 -1347 
Q 1038 -1347 672 -1080 
Q 306 -813 319 -275 
z
M 784 1719 
Q 784 1066 1043 766 
Q 1303 466 1694 466 
Q 2081 466 2343 764 
Q 2606 1063 2606 1700 
Q 2606 2309 2336 2618 
Q 2066 2928 1684 2928 
Q 1309 2928 1046 2623 
Q 784 2319 784 1719 
z
" transform="scale(0.015625)"/>
       <path id="ArialMT-65" d="M 2694 1069 
L 3275 997 
Q 3138 488 2766 206 
Q 2394 -75 1816 -75 
Q 1088 -75 661 373 
Q 234 822 234 1631 
Q 234 2469 665 2931 
Q 1097 3394 1784 3394 
Q 2450 3394 2872 2941 
Q 3294 2488 3294 1666 
Q 3294 1616 3291 1516 
L 816 1516 
Q 847 969 1125 678 
Q 1403 388 1819 388 
Q 2128 388 2347 550 
Q 2566 713 2694 1069 
z
M 847 1978 
L 2700 1978 
Q 2663 2397 2488 2606 
Q 2219 2931 1791 2931 
Q 1403 2931 1139 2672 
Q 875 2413 847 1978 
z
" transform="scale(0.015625)"/>
      </defs>
      <use xlink:href="#ArialMT-50"/>
      <use xlink:href="#ArialMT-68" x="66.699219"/>
      <use xlink:href="#ArialMT-6f" x="122.314453"/>
      <use xlink:href="#ArialMT-74" x="177.929688"/>
      <use xlink:href="#ArialMT-6f" x="205.712891"/>
      <use xlink:href="#ArialMT-76" x="261.328125"/>
      <use xlink:href="#ArialMT-6f" x="311.328125"/>
      <use xlink:href="#ArialMT-6c" x="366.943359"/>
      <use xlink:href="#ArialMT-74" x="389.160156"/>
      <use xlink:href="#ArialMT-61" x="416.943359"/>
      <use xlink:href="#ArialMT-67" x="472.558594"/>
      <use xlink:href="#ArialMT-65" x="528.173828"/>
     </g>
     <!-- (V) -->
     <g transform="translate(34.99375 60.22032) rotate(-90) scale(0.14 -0.14)">
      <defs>
       <path id="ArialMT-28" d="M 1497 -1347 
Q 1031 -759 709 28 
Q 388 816 388 1659 
Q 388 2403 628 3084 
Q 909 3875 1497 4659 
L 1900 4659 
Q 1522 4009 1400 3731 
Q 1209 3300 1100 2831 
Q 966 2247 966 1656 
Q 966 153 1900 -1347 
L 1497 -1347 
z
" transform="scale(0.015625)"/>
       <path id="ArialMT-56" d="M 1803 0 
L 28 4581 
L 684 4581 
L 1875 1253 
Q 2019 853 2116 503 
Q 2222 878 2363 1253 
L 3600 4581 
L 4219 4581 
L 2425 0 
L 1803 0 
z
" transform="scale(0.015625)"/>
       <path id="ArialMT-29" d="M 791 -1347 
L 388 -1347 
Q 1322 153 1322 1656 
Q 1322 2244 1188 2822 
Q 1081 3291 891 3722 
Q 769 4003 388 4659 
L 791 4659 
Q 1378 3875 1659 3084 
Q 1900 2403 1900 1659 
Q 1900 816 1576 28 
Q 1253 -759 791 -1347 
z
" transform="scale(0.015625)"/>
      </defs>
      <use xlink:href="#ArialMT-28"/>
      <use xlink:href="#ArialMT-56" x="33.300781"/>
      <use xlink:href="#ArialMT-29" x="100"/>
     </g>
    </g>
   </g>
   <g id="line2d_7">
    <path d="M 84.34576 53.50443 
L 84.63034 53.415344 
L 85.35016 53.079789 
L 85.7854 53.285468 
L 86.18716 53.373243 
L 86.63914 53.189857 
L 87.17482 53.045055 
L 87.69376 53.168656 
L 88.3801 53.322469 
L 88.69816 53.136473 
L 89.5519 52.484097 
L 89.90344 52.623067 
L 90.60652 52.928681 
L 91.02502 52.842709 
L 91.69462 52.40503 
L 92.19682 52.233701 
L 92.76598 52.046281 
L 93.25144 51.554208 
L 93.78712 51.115041 
L 94.30606 51.020712 
L 95.4109 50.834151 
L 95.89636 50.856016 
L 96.23116 51.109719 
L 96.68314 51.783577 
L 97.6708 53.321254 
L 97.98886 53.416383 
L 98.39062 53.262265 
L 98.99326 53.067894 
L 99.4285 53.17539 
L 100.1818 53.439668 
L 100.46638 53.219093 
L 101.15272 52.586335 
L 101.40382 52.703106 
L 102.20734 53.250042 
L 102.6928 53.092168 
L 103.22848 53.020595 
L 104.33332 52.997654 
L 104.73508 52.64211 
L 105.42142 52.032751 
L 105.94036 51.977242 
L 106.35886 51.811721 
L 107.19586 51.374191 
L 107.61436 51.48387 
L 108.7192 51.878756 
L 109.45576 51.832978 
L 109.77382 52.173888 
L 110.54386 53.085014 
L 110.9791 53.162954 
L 111.8161 53.314303 
L 112.3183 53.293658 
L 112.72006 53.052309 
L 113.27248 52.396405 
L 113.70772 52.031911 
L 114.04252 52.04566 
L 114.84604 52.195034 
L 115.96762 51.858936 
L 116.3359 51.463943 
L 116.98876 50.713327 
L 117.23986 50.765609 
L 117.69184 51.19431 
L 118.07686 51.396599 
L 118.4284 51.316516 
L 119.56672 50.895511 
L 120.30328 50.915062 
L 120.63808 50.547464 
L 121.1068 50.072307 
L 121.30768 50.134719 
L 121.57552 50.503878 
L 122.446 51.866886 
L 122.98168 52.133454 
L 124.50502 52.578522 
L 124.90678 52.303392 
L 125.35876 52.056472 
L 125.66008 52.162476 
L 126.36316 52.510657 
L 126.78166 52.331941 
L 127.23364 52.220333 
L 127.98694 52.166035 
L 128.3887 51.749232 
L 129.27592 50.783936 
L 129.79486 50.566198 
L 130.44772 50.566966 
L 131.30146 50.763043 
L 131.78692 50.837072 
L 132.03802 50.616914 
L 132.37282 49.947839 
L 132.87502 49.018362 
L 133.0759 49.004962 
L 133.327 49.279573 
L 133.96312 50.055162 
L 134.29792 50.066407 
L 134.98426 50.032719 
L 135.46972 50.285739 
L 136.0054 50.541509 
L 136.23976 50.410358 
L 136.55782 49.910884 
L 137.04328 49.21996 
L 137.24416 49.272128 
L 137.512 49.659938 
L 138.14812 50.637818 
L 138.48292 50.718539 
L 139.83886 50.533084 
L 140.32432 50.196501 
L 141.3622 49.336262 
L 141.73048 49.516942 
L 142.1155 49.625263 
L 142.40008 49.442775 
L 143.18686 48.805124 
L 143.68906 48.605062 
L 143.97364 48.161557 
L 144.72694 46.848489 
L 144.9613 46.883732 
L 145.86526 47.302469 
L 146.26702 47.020801 
L 147.18772 46.306314 
L 147.84058 46.105185 
L 148.10842 45.622753 
L 148.8115 44.195443 
L 148.9789 44.277241 
L 149.24674 44.757568 
L 149.74894 45.633475 
L 149.9833 45.666514 
L 150.77008 45.519209 
L 151.1551 45.916067 
L 151.87492 46.656718 
L 152.12602 46.614869 
L 152.4106 46.28535 
L 152.96302 45.635478 
L 153.1639 45.719371 
L 153.44848 46.155757 
L 154.252 47.490972 
L 154.68724 47.728346 
L 155.99296 48.183104 
L 156.37798 48.275541 
L 156.77974 48.104746 
L 157.19824 48.006709 
L 157.5163 48.195446 
L 158.21938 48.677906 
L 158.63788 48.620059 
L 159.34096 48.524688 
L 159.79294 48.708564 
L 160.32862 49.201609 
L 161.55064 50.397526 
L 162.08632 50.529504 
L 163.34182 50.736671 
L 163.76032 50.760451 
L 164.07838 50.53115 
L 164.59732 50.159844 
L 164.81494 50.300484 
L 165.11626 50.835675 
L 165.75238 51.976543 
L 166.08718 52.13216 
L 167.2255 52.392842 
L 167.86162 52.658941 
L 168.11272 52.47996 
L 168.59818 51.715944 
L 168.88276 51.504939 
L 169.08364 51.634419 
L 169.41844 52.225238 
L 169.88716 52.947175 
L 170.18848 53.038848 
L 172.11358 52.82635 
L 172.85014 52.615424 
L 173.40256 52.701059 
L 174.03868 52.769294 
L 174.90916 52.706766 
L 175.41136 52.795629 
L 175.64572 52.568723 
L 176.04748 51.760484 
L 176.41576 51.233823 
L 176.61664 51.273756 
L 176.88448 51.638267 
L 177.48712 52.482017 
L 177.80518 52.538264 
L 178.96024 52.489067 
L 179.79724 52.77728 
L 180.14878 52.504965 
L 180.60076 52.204735 
L 180.8686 52.304488 
L 181.99018 53.047596 
L 183.99898 52.742248 
L 184.98664 52.071021 
L 185.40514 52.409643 
L 185.79016 52.587167 
L 186.1417 52.469239 
L 186.94522 52.141511 
L 188.569 51.863322 
L 189.1549 51.676146 
L 191.46502 51.517754 
L 191.78308 50.876365 
L 192.23506 50.071339 
L 192.40246 50.123711 
L 192.60334 50.499094 
L 193.52404 52.629861 
L 193.74166 52.563832 
L 194.02624 52.192598 
L 194.77954 51.095761 
L 194.98042 51.209459 
L 195.71698 51.957939 
L 195.73372 51.943127 
L 195.95134 51.58209 
L 196.53724 50.519678 
L 196.70464 50.61595 
L 196.97248 51.13162 
L 197.47468 52.067447 
L 197.72578 52.114226 
L 198.14428 51.863405 
L 198.54604 51.749539 
L 199.73458 51.684059 
L 200.06938 51.201596 
L 200.65528 50.349528 
L 200.8729 50.374048 
L 201.17422 50.710935 
L 201.67642 51.240499 
L 201.99448 51.238627 
L 202.74778 51.125951 
L 203.56804 51.160759 
L 204.15394 51.167541 
L 204.85702 51.517584 
L 205.40944 51.622808 
L 206.46406 51.754187 
L 207.16714 51.940735 
L 207.4015 51.704722 
L 207.76978 50.919897 
L 208.17154 50.242029 
L 208.35568 50.269084 
L 208.59004 50.620183 
L 209.2429 51.709388 
L 209.494 51.683215 
L 210.48166 51.273993 
L 210.9169 51.507271 
L 211.3354 51.660772 
L 211.55302 51.500741 
L 211.85434 50.925602 
L 212.35654 49.996631 
L 212.54068 50.0219 
L 212.77504 50.375784 
L 213.41116 51.442279 
L 213.64552 51.415166 
L 214.78384 50.903256 
L 215.6041 50.820381 
L 216.6085 50.632772 
L 216.99352 50.935392 
L 217.59616 51.38846 
L 218.48338 51.769268 
L 219.00232 52.146333 
L 219.21994 52.032139 
L 219.55474 51.53098 
L 219.98998 50.987398 
L 220.22434 51.003598 
L 220.65958 51.36142 
L 221.01112 51.497293 
L 221.34592 51.370665 
L 222.45076 50.795859 
L 223.33798 50.828014 
L 224.1415 50.146419 
L 224.35912 50.503151 
L 225.397 52.658614 
L 225.76528 52.639546 
L 226.51858 52.367942 
L 226.87012 51.942916 
L 227.27188 51.055153 
L 227.908 48.947369 
L 228.27628 48.153029 
L 228.46042 48.127234 
L 228.6613 48.365997 
L 229.48156 49.566164 
L 229.78288 49.493541 
L 230.80402 49.059269 
L 231.27274 49.252869 
L 231.64102 49.301714 
L 231.94234 49.095817 
L 232.56172 48.628173 
L 232.8463 48.724851 
L 233.48242 49.007417 
L 233.90092 48.829424 
L 234.33616 48.736457 
L 235.00576 48.730839 
L 235.34056 48.355894 
L 235.84276 47.840593 
L 236.07712 47.902309 
L 236.49562 48.341685 
L 236.8639 48.577142 
L 237.1987 48.516728 
L 237.85156 48.372777 
L 238.3705 48.556119 
L 238.97314 48.742811 
L 239.25772 48.585963 
L 240.09472 47.924625 
L 240.32908 48.186358 
L 241.36696 49.650396 
L 242.20396 49.908855 
L 242.68942 49.901499 
L 243.12466 49.65509 
L 243.82774 48.927343 
L 244.19602 48.728608 
L 244.46386 48.82548 
L 244.88236 49.27599 
L 245.5687 49.960062 
L 245.95372 50.053888 
L 246.47266 49.896306 
L 246.9079 49.870193 
L 247.59424 49.910823 
L 247.97926 49.573506 
L 248.43124 49.260053 
L 248.71582 49.33865 
L 249.40216 49.62977 
L 249.80392 49.426218 
L 250.30612 49.24606 
L 250.94224 49.108766 
L 251.344 48.667166 
L 251.7625 48.227553 
L 251.7625 48.227553 
" clip-path="url(#p2c62e26ede)" style="fill: none; stroke: #e84a4e; stroke-width: 1.5; stroke-linecap: square"/>
   </g>
   <g id="line2d_8">
    <path d="M 84.34576 41.537762 
L 84.83122 41.552455 
L 87.292 41.285627 
L 89.31754 41.38967 
L 93.53602 40.572026 
L 95.76244 40.697978 
L 96.29812 41.115123 
L 97.21882 41.866924 
L 97.95538 42.059813 
L 98.69194 42.088939 
L 100.6003 41.855709 
L 101.55448 41.875319 
L 103.31218 41.576662 
L 104.04874 41.406515 
L 106.7104 41.164832 
L 107.76502 40.82208 
L 108.11656 41.05001 
L 109.42228 42.146034 
L 111.44782 42.668381 
L 112.58614 42.357304 
L 114.10948 42.260465 
L 115.48216 42.051474 
L 116.8381 41.890641 
L 117.70858 41.695609 
L 120.13588 41.001074 
L 120.78874 41.032845 
L 121.59226 41.319189 
L 123.18256 41.956288 
L 123.93586 42.027438 
L 124.67242 42.181902 
L 125.94466 42.06833 
L 126.83188 42.213949 
L 127.98694 42.199494 
L 128.9746 41.887918 
L 129.4768 42.132225 
L 130.71556 42.780723 
L 131.66974 42.963421 
L 133.327 43.233345 
L 135.35254 44.197629 
L 136.03888 45.163553 
L 136.5913 45.744045 
L 138.91816 47.293122 
L 140.14018 47.66049 
L 141.2785 48.140023 
L 142.16572 48.230541 
L 143.82298 48.165084 
L 144.34192 47.909823 
L 144.81064 47.408869 
L 145.68112 46.416167 
L 146.14984 46.282955 
L 147.15424 46.28846 
L 148.6441 46.692817 
L 149.1463 47.014573 
L 152.05906 49.369091 
L 152.42734 49.259922 
L 153.39826 48.831442 
L 154.0846 48.663085 
L 154.90486 48.371926 
L 156.12688 48.259117 
L 157.0978 48.041683 
L 157.78414 48.144809 
L 159.17356 48.391335 
L 159.91012 48.540233 
L 160.59646 48.69393 
L 161.96914 48.6145 
L 162.43786 48.614292 
L 163.19116 48.548819 
L 164.8819 49.257302 
L 165.78586 50.048985 
L 166.48894 50.448875 
L 167.62726 50.759276 
L 169.08364 51.29549 
L 170.08804 51.60541 
L 170.95852 51.60035 
L 172.34794 51.584073 
L 173.46952 51.847064 
L 174.85894 52.148092 
L 175.5118 52.029632 
L 176.23162 51.898631 
L 176.5162 52.113983 
L 177.03514 52.893491 
L 177.4369 53.285909 
L 177.7717 53.301519 
L 178.70914 53.189524 
L 179.16112 53.439111 
L 180.1153 54.046262 
L 180.7849 54.082697 
L 181.99018 54.168367 
L 182.72674 54.1384 
L 183.36286 54.16674 
L 183.7981 54.427829 
L 184.3003 55.038786 
L 184.86946 55.644719 
L 185.20426 55.696131 
L 185.77342 55.494285 
L 187.0624 55.089598 
L 188.33464 54.883385 
L 189.10468 54.772691 
L 190.20952 54.419834 
L 191.38132 54.601527 
L 191.71612 55.000586 
L 192.70378 56.356705 
L 193.20598 56.512003 
L 193.95928 56.523717 
L 197.47468 55.874994 
L 198.14428 55.813534 
L 199.33282 55.551847 
L 200.6218 55.831032 
L 201.5425 56.002856 
L 203.09932 56.337076 
L 204.90724 56.445347 
L 205.99534 56.773093 
L 206.8993 56.866119 
L 207.4852 57.237851 
L 208.08784 57.578278 
L 208.38916 57.480039 
L 209.42704 56.865033 
L 211.0843 57.167852 
L 212.54068 57.217533 
L 213.46138 57.131313 
L 214.44904 57.234155 
L 214.8508 57.308685 
L 215.1856 57.632511 
L 215.97238 58.477998 
L 216.37414 58.493993 
L 217.12744 58.507691 
L 217.98118 58.535608 
L 218.81818 58.32233 
L 219.25342 57.973986 
L 220.00672 56.978144 
L 221.27896 55.49476 
L 222.06574 54.787291 
L 222.61816 54.57272 
L 223.37146 54.331927 
L 223.82344 53.846587 
L 224.74414 52.429769 
L 225.54766 50.821463 
L 226.35118 48.671531 
L 227.9917 44.191599 
L 228.47716 43.463302 
L 228.92914 43.185908 
L 230.51944 42.665113 
L 231.03838 42.823241 
L 232.41106 43.63853 
L 233.39872 44.022621 
L 234.03484 44.053089 
L 234.6877 43.834387 
L 235.32382 43.70181 
L 236.98108 43.608553 
L 237.71764 43.549447 
L 238.65508 43.565069 
L 239.7097 43.381626 
L 241.14934 43.374188 
L 241.95286 43.305469 
L 242.60572 43.272915 
L 243.811 42.886313 
L 244.61452 43.293938 
L 245.485 43.605562 
L 246.35548 43.662751 
L 249.40216 43.538463 
L 251.24356 43.259798 
L 251.7625 43.208273 
L 251.7625 43.208273 
" clip-path="url(#p2c62e26ede)" style="fill: none; stroke: #51546b; stroke-width: 1.5; stroke-linecap: square"/>
   </g>
   <g id="line2d_9">
    <path d="M 84.34576 52.966443 
L 84.91492 52.91856 
L 85.5343 52.939604 
L 86.13694 52.936722 
L 87.17482 52.710993 
L 88.02856 52.875944 
L 90.10432 52.37826 
L 91.62766 51.839521 
L 92.34748 51.6163 
L 93.58624 51.323711 
L 94.45672 50.685223 
L 95.17654 50.349267 
L 95.89636 50.214665 
L 96.3316 50.374055 
L 97.93864 51.234222 
L 98.6752 51.325241 
L 99.52894 51.374764 
L 100.5166 51.693211 
L 101.83906 51.475678 
L 102.65932 51.434133 
L 104.06548 51.2206 
L 105.57208 51.466148 
L 106.30864 51.256649 
L 107.01172 51.101689 
L 107.51392 51.261728 
L 111.12976 52.86676 
L 111.69892 52.894976 
L 114.62842 52.779564 
L 115.54912 53.105363 
L 120.32002 52.639246 
L 120.98962 52.860529 
L 124.22044 54.194133 
L 126.59752 54.168955 
L 127.35082 54.031366 
L 128.2213 53.957296 
L 129.35962 53.431074 
L 130.33054 53.123774 
L 131.3182 53.110845 
L 133.0759 52.908064 
L 134.19748 52.618377 
L 134.68294 52.788401 
L 136.02214 53.441141 
L 136.70848 53.348652 
L 137.19394 53.391508 
L 138.39922 53.732061 
L 139.25296 53.685632 
L 140.75956 53.792131 
L 141.697 53.529523 
L 143.0362 53.144699 
L 144.09082 53.198395 
L 145.51372 52.673505 
L 146.58508 52.574206 
L 148.52692 51.822006 
L 149.91634 51.566913 
L 150.58594 51.628137 
L 152.14276 51.990142 
L 153.3313 51.982419 
L 156.4282 52.76717 
L 159.67576 52.626117 
L 161.7013 52.527276 
L 162.88984 52.182128 
L 163.72684 52.215194 
L 164.39644 52.467528 
L 166.53916 53.447696 
L 167.59378 53.503567 
L 168.21316 53.364631 
L 169.05016 53.126665 
L 169.61932 53.307596 
L 170.42284 53.498141 
L 171.56116 53.501877 
L 173.30212 53.461193 
L 174.9259 53.510471 
L 177.53734 53.366561 
L 178.59196 53.450945 
L 179.49592 53.747676 
L 180.4501 54.003113 
L 181.25362 53.957791 
L 182.39194 53.943129 
L 183.98224 53.864689 
L 185.27122 53.650095 
L 185.92408 53.57641 
L 186.84478 53.406747 
L 187.74874 53.339948 
L 189.6571 52.882253 
L 190.61128 52.82579 
L 192.0844 52.680307 
L 192.68704 52.910411 
L 193.5073 53.212363 
L 194.3443 53.197541 
L 198.42886 52.962454 
L 199.04824 52.92644 
L 199.63414 52.608547 
L 200.27026 52.345873 
L 200.90638 52.346436 
L 201.91078 52.366818 
L 202.61386 52.374096 
L 203.51782 52.467127 
L 204.25438 52.466874 
L 206.983 53.193779 
L 208.25524 53.142356 
L 211.15126 53.317487 
L 213.16006 53.191786 
L 215.45344 52.82068 
L 215.9389 52.949968 
L 216.87634 53.286553 
L 217.73008 53.367537 
L 219.6217 54.097738 
L 220.5424 54.146837 
L 222.86926 54.230001 
L 223.25428 54.252048 
L 223.57234 54.01304 
L 224.6437 52.989976 
L 225.66484 52.447739 
L 226.46836 51.675019 
L 228.29302 49.895433 
L 229.4146 49.029723 
L 230.2516 48.723473 
L 230.98816 48.654661 
L 232.47802 48.664142 
L 233.54938 48.426416 
L 234.73792 48.00604 
L 237.75112 47.552559 
L 238.83922 47.345659 
L 240.39604 47.365361 
L 241.24978 47.615768 
L 243.9784 47.888802 
L 244.9828 48.129271 
L 245.95372 48.135724 
L 247.29292 48.024851 
L 247.8286 47.921748 
L 248.71582 47.685978 
L 249.35194 47.580921 
L 250.74136 46.977899 
L 251.32726 46.796317 
L 251.7625 46.571834 
L 251.7625 46.571834 
" clip-path="url(#p2c62e26ede)" style="fill: none; stroke: #616eeb; stroke-width: 1.5; stroke-linecap: square"/>
   </g>
   <g id="line2d_10">
    <path d="M 84.34576 37.988447 
L 84.76426 38.058644 
L 85.21624 37.891209 
L 85.90258 37.618789 
L 86.2039 37.78752 
L 86.85676 38.236172 
L 87.10786 38.053733 
L 87.76072 37.457479 
L 87.99508 37.601436 
L 88.6312 38.085912 
L 88.8823 37.921175 
L 89.5519 37.392512 
L 89.90344 37.496382 
L 90.37216 37.588729 
L 91.49374 37.481895 
L 92.51488 37.912124 
L 92.88316 37.769149 
L 93.80386 37.283365 
L 94.42324 37.460473 
L 94.9924 37.481548 
L 96.39856 37.195677 
L 97.03468 36.914917 
L 97.5871 36.69377 
L 97.87168 36.847583 
L 98.54128 37.337729 
L 98.7589 37.13561 
L 99.32806 36.508374 
L 99.49546 36.700623 
L 99.78004 37.49176 
L 100.19854 38.517005 
L 100.3492 38.493864 
L 100.53334 38.137068 
L 101.23642 36.480281 
L 101.40382 36.597874 
L 102.24082 37.526518 
L 102.6091 37.213084 
L 102.99412 37.003038 
L 103.32892 37.083432 
L 104.5342 37.57937 
L 105.00292 37.35356 
L 105.67252 37.07828 
L 106.89454 36.969903 
L 108.0496 37.032049 
L 108.8029 36.734182 
L 109.32184 36.896484 
L 109.891 36.984772 
L 111.01258 36.989876 
L 111.3139 37.473558 
L 111.83284 38.305058 
L 112.00024 38.22966 
L 112.21786 37.786128 
L 112.85398 36.318374 
L 113.00464 36.399562 
L 113.25574 36.888355 
L 113.72446 37.756793 
L 113.92534 37.759459 
L 114.6619 37.4719 
L 114.94648 37.911648 
L 115.93414 39.674809 
L 116.20198 39.728919 
L 116.5033 39.533898 
L 116.97202 39.255763 
L 117.22312 39.382634 
L 117.90946 39.860562 
L 118.16056 39.655791 
L 118.91386 38.902135 
L 119.21518 38.980374 
L 119.70064 39.389988 
L 120.772 40.636818 
L 121.70944 41.59172 
L 122.37904 41.988579 
L 122.66362 41.934365 
L 122.93146 41.631886 
L 123.55084 40.832835 
L 123.71824 41.00453 
L 123.96934 41.715725 
L 124.58872 43.614158 
L 124.75612 43.631235 
L 124.97374 43.350284 
L 125.52616 42.586297 
L 125.72704 42.650146 
L 126.01162 43.026264 
L 127.33408 45.129977 
L 127.68562 45.122519 
L 128.35522 45.027714 
L 128.57284 45.340528 
L 128.84068 46.215399 
L 130.01248 50.82429 
L 130.28032 50.915799 
L 130.6486 50.763456 
L 131.1508 50.599511 
L 131.43538 50.7537 
L 132.5737 51.651469 
L 132.89176 51.467199 
L 133.37722 50.851694 
L 133.86268 50.373622 
L 134.18074 50.360711 
L 134.54902 50.592577 
L 135.05122 51.188197 
L 135.60364 52.206858 
L 137.512 56.623145 
L 138.48292 59.110134 
L 138.80098 59.419212 
L 139.06882 59.394799 
L 139.6882 59.239677 
L 140.03974 59.516549 
L 140.45824 59.75979 
L 140.70934 59.650282 
L 141.22828 59.0745 
L 142.88554 57.45605 
L 143.06968 57.648359 
L 143.32078 58.296695 
L 143.68906 59.969547 
L 144.9613 66.475224 
L 145.68112 68.180221 
L 146.20006 69.564288 
L 146.36746 69.573969 
L 146.5516 69.280471 
L 147.2212 67.989648 
L 147.3886 68.164236 
L 147.68992 68.928426 
L 148.25908 70.319196 
L 148.51018 70.448583 
L 148.69432 70.293085 
L 148.94542 69.731992 
L 150.05026 66.758001 
L 150.4855 66.596632 
L 151.10488 66.534483 
L 151.35598 66.792963 
L 151.77448 67.657633 
L 152.17624 68.273113 
L 152.39386 68.265099 
L 152.67844 67.957023 
L 153.3313 67.216046 
L 153.5824 67.232835 
L 153.8335 67.493008 
L 154.20178 68.264105 
L 154.8379 69.546822 
L 155.23966 69.831076 
L 155.90926 70.263045 
L 156.39472 70.509714 
L 156.72952 70.421319 
L 157.23172 70.007454 
L 157.78414 69.632668 
L 158.05198 69.714845 
L 158.33656 70.075039 
L 158.80528 71.099081 
L 159.37444 72.238942 
L 159.57532 72.264902 
L 159.75946 71.995165 
L 160.06078 71.043542 
L 160.59646 69.444141 
L 160.83082 69.315027 
L 161.46694 69.29603 
L 161.76826 68.732631 
L 162.35416 67.661631 
L 162.60526 67.61183 
L 162.8731 67.814498 
L 163.42552 68.623311 
L 163.74358 68.880323 
L 163.94446 68.791964 
L 164.22904 68.358203 
L 164.69776 67.702123 
L 164.89864 67.745338 
L 165.19996 68.123732 
L 165.61846 68.566749 
L 165.86956 68.530314 
L 166.52242 68.308578 
L 166.79026 68.569888 
L 167.17528 69.326491 
L 167.8114 70.585098 
L 167.96206 70.536416 
L 168.1462 70.148132 
L 168.43078 68.892532 
L 169.4017 64.148014 
L 169.6528 63.873697 
L 169.8202 63.996636 
L 170.08804 64.569352 
L 170.54002 65.463118 
L 170.70742 65.444397 
L 170.92504 65.126744 
L 171.44398 64.318229 
L 171.62812 64.380027 
L 171.96292 64.832872 
L 172.28098 65.110364 
L 172.4986 65.019417 
L 173.15146 64.576448 
L 173.38582 64.834384 
L 174.39022 66.261372 
L 175.21048 66.812374 
L 176.04748 67.536712 
L 176.21488 67.273874 
L 176.4325 66.412659 
L 176.78404 63.877206 
L 177.28624 60.643428 
L 177.48712 60.381624 
L 177.62104 60.531651 
L 177.9391 61.373807 
L 178.29064 62.043959 
L 178.54174 62.106805 
L 179.01046 62.143546 
L 179.37874 62.557016 
L 179.6968 62.767032 
L 179.88094 62.639394 
L 180.14878 62.112454 
L 180.96904 60.308937 
L 181.25362 60.196618 
L 181.50472 60.342174 
L 182.49238 61.19491 
L 182.92762 61.151025 
L 183.1285 61.427224 
L 183.73114 62.654901 
L 183.78136 62.603026 
L 183.93202 62.137995 
L 184.16638 60.462215 
L 184.91968 54.333909 
L 185.03686 54.288548 
L 185.0536 54.305149 
L 185.20426 54.661477 
L 186.10822 57.421172 
L 186.57694 57.566123 
L 187.0624 57.886667 
L 187.66504 58.223187 
L 187.94962 58.13952 
L 188.2342 57.788207 
L 189.00424 56.68619 
L 189.20512 56.83433 
L 189.55666 57.47777 
L 190.04212 58.231908 
L 190.44388 58.428782 
L 191.39806 58.625973 
L 191.63242 58.256876 
L 191.93374 57.308447 
L 192.3355 55.229561 
L 193.03858 51.492588 
L 193.18924 51.401258 
L 193.20598 51.415178 
L 193.35664 51.739348 
L 193.69144 53.22035 
L 194.02624 54.278035 
L 194.1769 54.272618 
L 194.36104 53.912914 
L 194.8465 52.89638 
L 194.98042 52.981913 
L 195.21478 53.507198 
L 195.5998 54.27233 
L 195.73372 54.188648 
L 195.91786 53.705201 
L 196.63768 51.457631 
L 196.78834 51.584448 
L 197.40772 52.472049 
L 197.45794 52.430918 
L 197.65882 52.057898 
L 198.22798 50.8902 
L 198.37864 50.965629 
L 198.613 51.410412 
L 199.18216 52.543404 
L 199.38304 52.535221 
L 199.60066 52.231371 
L 199.90198 51.352231 
L 200.92312 47.936884 
L 201.15748 47.889472 
L 201.47554 48.116377 
L 202.19536 48.938629 
L 202.64734 49.897581 
L 203.06584 50.615775 
L 203.24998 50.602229 
L 203.45086 50.296514 
L 203.8861 49.066487 
L 204.3046 48.17373 
L 204.58918 48.012759 
L 204.84028 48.138719 
L 205.19182 48.623041 
L 205.8949 49.603798 
L 206.69842 50.295924 
L 207.1504 50.821276 
L 207.30106 50.731258 
L 207.50194 50.260697 
L 207.83674 48.738027 
L 208.42264 46.219082 
L 208.67374 45.90539 
L 208.84114 45.976168 
L 209.05876 46.367026 
L 209.56096 47.937517 
L 209.86228 48.452593 
L 210.01294 48.380833 
L 210.23056 47.927475 
L 210.76624 46.751541 
L 210.9169 46.799741 
L 211.15126 47.208919 
L 211.6702 48.12565 
L 211.85434 48.072922 
L 212.0887 47.703976 
L 212.57416 46.385323 
L 213.04288 45.347605 
L 213.2605 45.275518 
L 213.46138 45.499566 
L 214.14772 46.488995 
L 214.33186 46.288088 
L 214.64992 45.491705 
L 215.353 43.734469 
L 216.07282 42.715166 
L 216.5248 42.33947 
L 216.87634 42.335955 
L 217.29484 42.316567 
L 217.54594 42.030195 
L 217.99792 41.046591 
L 218.39968 40.415337 
L 218.68426 40.348905 
L 219.55474 40.398757 
L 220.27456 40.22507 
L 220.60936 40.400452 
L 220.97764 40.889161 
L 221.61376 41.748345 
L 221.89834 41.751846 
L 222.23314 41.779382 
L 222.43402 42.084049 
L 222.78556 43.176694 
L 223.0534 43.697387 
L 223.15384 43.602852 
L 223.3045 43.034875 
L 223.5556 40.958285 
L 224.25868 34.600571 
L 224.42608 34.410369 
L 224.44282 34.420594 
L 224.59348 34.685797 
L 225.26308 36.168845 
L 225.46396 36.068979 
L 225.84898 35.516255 
L 226.33444 34.959904 
L 226.58554 34.960784 
L 226.83664 35.218163 
L 227.50624 36.017795 
L 227.72386 35.889556 
L 228.5776 35.097717 
L 229.4146 35.248488 
L 229.98376 35.009665 
L 230.2516 35.225037 
L 230.82076 35.74139 
L 231.03838 35.623337 
L 231.7582 35.03458 
L 232.0093 35.282798 
L 232.54498 35.840051 
L 232.77934 35.743007 
L 233.48242 35.266807 
L 233.81722 35.500768 
L 234.1855 35.675421 
L 234.4366 35.536268 
L 235.13968 35.009505 
L 235.441 35.175178 
L 235.92646 35.41481 
L 236.24452 35.27511 
L 236.76346 35.054041 
L 237.09826 35.202457 
L 237.6172 35.409689 
L 238.0357 35.256745 
L 238.42072 35.211846 
L 238.80574 35.448928 
L 239.2075 35.606565 
L 239.49208 35.454611 
L 240.22864 34.948817 
L 240.61366 35.076768 
L 241.23304 35.262081 
L 241.85242 35.42752 
L 243.24184 36.151073 
L 243.61012 35.937245 
L 244.54756 35.279068 
L 246.02068 35.079065 
L 246.9079 35.556791 
L 247.29292 35.287448 
L 247.79512 35.015042 
L 249.43564 34.874507 
L 249.85414 35.271062 
L 250.74136 36.159404 
L 250.99246 36.106948 
L 251.31052 35.769632 
L 251.7625 35.153758 
L 251.7625 35.153758 
" clip-path="url(#p2c62e26ede)" style="fill: none; stroke: #e8c54a; stroke-width: 1.5; stroke-linecap: square"/>
   </g>
   <g id="patch_3">
    <path d="M 84.3625 89.568608 
L 84.3625 12.210469 
" style="fill: none; stroke: #000000; stroke-width: 0.8; stroke-linejoin: miter; stroke-linecap: square"/>
   </g>
   <g id="patch_4">
    <path d="M 251.7625 89.568608 
L 251.7625 12.210469 
" style="fill: none; stroke: #000000; stroke-width: 0.8; stroke-linejoin: miter; stroke-linecap: square"/>
   </g>
   <g id="patch_5">
    <path d="M 84.3625 89.568608 
L 251.7625 89.568608 
" style="fill: none; stroke: #000000; stroke-width: 0.8; stroke-linejoin: miter; stroke-linecap: square"/>
   </g>
   <g id="patch_6">
    <path d="M 84.3625 12.210469 
L 251.7625 12.210469 
" style="fill: none; stroke: #000000; stroke-width: 0.8; stroke-linejoin: miter; stroke-linecap: square"/>
   </g>
   <g id="legend_1">
    <g id="line2d_11">
     <path d="M 11.2 24.990156 
L 21.2 24.990156 
L 31.2 24.990156 
" style="fill: none; stroke: #e84a4e; stroke-width: 1.5; stroke-linecap: square"/>
    </g>
    <g id="text_5">
     <!-- Central -->
     <g transform="translate(39.2 28.490156) scale(0.1 -0.1)">
      <defs>
       <path id="ArialMT-43" d="M 3763 1606 
L 4369 1453 
Q 4178 706 3683 314 
Q 3188 -78 2472 -78 
Q 1731 -78 1267 223 
Q 803 525 561 1097 
Q 319 1669 319 2325 
Q 319 3041 592 3573 
Q 866 4106 1370 4382 
Q 1875 4659 2481 4659 
Q 3169 4659 3637 4309 
Q 4106 3959 4291 3325 
L 3694 3184 
Q 3534 3684 3231 3912 
Q 2928 4141 2469 4141 
Q 1941 4141 1586 3887 
Q 1231 3634 1087 3207 
Q 944 2781 944 2328 
Q 944 1744 1114 1308 
Q 1284 872 1643 656 
Q 2003 441 2422 441 
Q 2931 441 3284 734 
Q 3638 1028 3763 1606 
z
" transform="scale(0.015625)"/>
       <path id="ArialMT-6e" d="M 422 0 
L 422 3319 
L 928 3319 
L 928 2847 
Q 1294 3394 1984 3394 
Q 2284 3394 2536 3286 
Q 2788 3178 2913 3003 
Q 3038 2828 3088 2588 
Q 3119 2431 3119 2041 
L 3119 0 
L 2556 0 
L 2556 2019 
Q 2556 2363 2490 2533 
Q 2425 2703 2258 2804 
Q 2091 2906 1866 2906 
Q 1506 2906 1245 2678 
Q 984 2450 984 1813 
L 984 0 
L 422 0 
z
" transform="scale(0.015625)"/>
       <path id="ArialMT-72" d="M 416 0 
L 416 3319 
L 922 3319 
L 922 2816 
Q 1116 3169 1280 3281 
Q 1444 3394 1641 3394 
Q 1925 3394 2219 3213 
L 2025 2691 
Q 1819 2813 1613 2813 
Q 1428 2813 1281 2702 
Q 1134 2591 1072 2394 
Q 978 2094 978 1738 
L 978 0 
L 416 0 
z
" transform="scale(0.015625)"/>
      </defs>
      <use xlink:href="#ArialMT-43"/>
      <use xlink:href="#ArialMT-65" x="72.216797"/>
      <use xlink:href="#ArialMT-6e" x="127.832031"/>
      <use xlink:href="#ArialMT-74" x="183.447266"/>
      <use xlink:href="#ArialMT-72" x="211.230469"/>
      <use xlink:href="#ArialMT-61" x="244.53125"/>
      <use xlink:href="#ArialMT-6c" x="300.146484"/>
     </g>
    </g>
    <g id="line2d_12">
     <path d="M 91.434375 24.990156 
L 101.434375 24.990156 
L 111.434375 24.990156 
" style="fill: none; stroke: #51546b; stroke-width: 1.5; stroke-linecap: square"/>
    </g>
    <g id="text_6">
     <!-- Bottom -->
     <g transform="translate(119.434375 28.490156) scale(0.1 -0.1)">
      <defs>
       <path id="ArialMT-42" d="M 469 0 
L 469 4581 
L 2188 4581 
Q 2713 4581 3030 4442 
Q 3347 4303 3526 4014 
Q 3706 3725 3706 3409 
Q 3706 3116 3547 2856 
Q 3388 2597 3066 2438 
Q 3481 2316 3704 2022 
Q 3928 1728 3928 1328 
Q 3928 1006 3792 729 
Q 3656 453 3456 303 
Q 3256 153 2954 76 
Q 2653 0 2216 0 
L 469 0 
z
M 1075 2656 
L 2066 2656 
Q 2469 2656 2644 2709 
Q 2875 2778 2992 2937 
Q 3109 3097 3109 3338 
Q 3109 3566 3000 3739 
Q 2891 3913 2687 3977 
Q 2484 4041 1991 4041 
L 1075 4041 
L 1075 2656 
z
M 1075 541 
L 2216 541 
Q 2509 541 2628 563 
Q 2838 600 2978 687 
Q 3119 775 3209 942 
Q 3300 1109 3300 1328 
Q 3300 1584 3169 1773 
Q 3038 1963 2805 2039 
Q 2572 2116 2134 2116 
L 1075 2116 
L 1075 541 
z
" transform="scale(0.015625)"/>
       <path id="ArialMT-6d" d="M 422 0 
L 422 3319 
L 925 3319 
L 925 2853 
Q 1081 3097 1340 3245 
Q 1600 3394 1931 3394 
Q 2300 3394 2536 3241 
Q 2772 3088 2869 2813 
Q 3263 3394 3894 3394 
Q 4388 3394 4653 3120 
Q 4919 2847 4919 2278 
L 4919 0 
L 4359 0 
L 4359 2091 
Q 4359 2428 4304 2576 
Q 4250 2725 4106 2815 
Q 3963 2906 3769 2906 
Q 3419 2906 3187 2673 
Q 2956 2441 2956 1928 
L 2956 0 
L 2394 0 
L 2394 2156 
Q 2394 2531 2256 2718 
Q 2119 2906 1806 2906 
Q 1569 2906 1367 2781 
Q 1166 2656 1075 2415 
Q 984 2175 984 1722 
L 984 0 
L 422 0 
z
" transform="scale(0.015625)"/>
      </defs>
      <use xlink:href="#ArialMT-42"/>
      <use xlink:href="#ArialMT-6f" x="66.699219"/>
      <use xlink:href="#ArialMT-74" x="122.314453"/>
      <use xlink:href="#ArialMT-74" x="150.097656"/>
      <use xlink:href="#ArialMT-6f" x="177.880859"/>
      <use xlink:href="#ArialMT-6d" x="233.496094"/>
     </g>
    </g>
    <g id="line2d_13">
     <path d="M 171.1125 24.990156 
L 181.1125 24.990156 
L 191.1125 24.990156 
" style="fill: none; stroke: #616eeb; stroke-width: 1.5; stroke-linecap: square"/>
    </g>
    <g id="text_7">
     <!-- Top Left -->
     <g transform="translate(199.1125 28.490156) scale(0.1 -0.1)">
      <defs>
       <path id="ArialMT-54" d="M 1659 0 
L 1659 4041 
L 150 4041 
L 150 4581 
L 3781 4581 
L 3781 4041 
L 2266 4041 
L 2266 0 
L 1659 0 
z
" transform="scale(0.015625)"/>
       <path id="ArialMT-70" d="M 422 -1272 
L 422 3319 
L 934 3319 
L 934 2888 
Q 1116 3141 1344 3267 
Q 1572 3394 1897 3394 
Q 2322 3394 2647 3175 
Q 2972 2956 3137 2557 
Q 3303 2159 3303 1684 
Q 3303 1175 3120 767 
Q 2938 359 2589 142 
Q 2241 -75 1856 -75 
Q 1575 -75 1351 44 
Q 1128 163 984 344 
L 984 -1272 
L 422 -1272 
z
M 931 1641 
Q 931 1000 1190 694 
Q 1450 388 1819 388 
Q 2194 388 2461 705 
Q 2728 1022 2728 1688 
Q 2728 2322 2467 2637 
Q 2206 2953 1844 2953 
Q 1484 2953 1207 2617 
Q 931 2281 931 1641 
z
" transform="scale(0.015625)"/>
       <path id="ArialMT-20" transform="scale(0.015625)"/>
       <path id="ArialMT-4c" d="M 469 0 
L 469 4581 
L 1075 4581 
L 1075 541 
L 3331 541 
L 3331 0 
L 469 0 
z
" transform="scale(0.015625)"/>
       <path id="ArialMT-66" d="M 556 0 
L 556 2881 
L 59 2881 
L 59 3319 
L 556 3319 
L 556 3672 
Q 556 4006 616 4169 
Q 697 4388 901 4523 
Q 1106 4659 1475 4659 
Q 1713 4659 2000 4603 
L 1916 4113 
Q 1741 4144 1584 4144 
Q 1328 4144 1222 4034 
Q 1116 3925 1116 3625 
L 1116 3319 
L 1763 3319 
L 1763 2881 
L 1116 2881 
L 1116 0 
L 556 0 
z
" transform="scale(0.015625)"/>
      </defs>
      <use xlink:href="#ArialMT-54"/>
      <use xlink:href="#ArialMT-6f" x="49.958984"/>
      <use xlink:href="#ArialMT-70" x="105.574219"/>
      <use xlink:href="#ArialMT-20" x="161.189453"/>
      <use xlink:href="#ArialMT-4c" x="188.972656"/>
      <use xlink:href="#ArialMT-65" x="244.587891"/>
      <use xlink:href="#ArialMT-66" x="300.203125"/>
      <use xlink:href="#ArialMT-74" x="327.986328"/>
     </g>
    </g>
    <g id="line2d_14">
     <path d="M 254.685938 24.990156 
L 264.685938 24.990156 
L 274.685938 24.990156 
" style="fill: none; stroke: #e8c54a; stroke-width: 1.5; stroke-linecap: square"/>
    </g>
    <g id="text_8">
     <!-- Top Right -->
     <g transform="translate(282.685938 28.490156) scale(0.1 -0.1)">
      <defs>
       <path id="ArialMT-52" d="M 503 0 
L 503 4581 
L 2534 4581 
Q 3147 4581 3465 4457 
Q 3784 4334 3975 4021 
Q 4166 3709 4166 3331 
Q 4166 2844 3850 2509 
Q 3534 2175 2875 2084 
Q 3116 1969 3241 1856 
Q 3506 1613 3744 1247 
L 4541 0 
L 3778 0 
L 3172 953 
Q 2906 1366 2734 1584 
Q 2563 1803 2427 1890 
Q 2291 1978 2150 2013 
Q 2047 2034 1813 2034 
L 1109 2034 
L 1109 0 
L 503 0 
z
M 1109 2559 
L 2413 2559 
Q 2828 2559 3062 2645 
Q 3297 2731 3419 2920 
Q 3541 3109 3541 3331 
Q 3541 3656 3305 3865 
Q 3069 4075 2559 4075 
L 1109 4075 
L 1109 2559 
z
" transform="scale(0.015625)"/>
       <path id="ArialMT-69" d="M 425 3934 
L 425 4581 
L 988 4581 
L 988 3934 
L 425 3934 
z
M 425 0 
L 425 3319 
L 988 3319 
L 988 0 
L 425 0 
z
" transform="scale(0.015625)"/>
      </defs>
      <use xlink:href="#ArialMT-54"/>
      <use xlink:href="#ArialMT-6f" x="49.958984"/>
      <use xlink:href="#ArialMT-70" x="105.574219"/>
      <use xlink:href="#ArialMT-20" x="161.189453"/>
      <use xlink:href="#ArialMT-52" x="188.972656"/>
      <use xlink:href="#ArialMT-69" x="261.189453"/>
      <use xlink:href="#ArialMT-67" x="283.40625"/>
      <use xlink:href="#ArialMT-68" x="339.021484"/>
      <use xlink:href="#ArialMT-74" x="394.636719"/>
     </g>
    </g>
   </g>
  </g>
  <g id="axes_2">
   <g id="patch_7">
    <path d="M 84.3625 178.530469 
L 251.7625 178.530469 
L 251.7625 101.172329 
L 84.3625 101.172329 
z
" style="fill: #ffffff"/>
   </g>
   <g id="matplotlib.axis_3">
    <g id="xtick_4">
     <g id="line2d_15">
      <g>
       <use xlink:href="#m962023b6d0" x="84.3625" y="178.530469" style="stroke: #000000; stroke-width: 0.8"/>
      </g>
     </g>
     <g id="text_9">
      <!-- 0.0 -->
      <g transform="translate(74.6325 195.551406) scale(0.14 -0.14)">
       <use xlink:href="#ArialMT-30"/>
       <use xlink:href="#ArialMT-2e" x="55.615234"/>
       <use xlink:href="#ArialMT-30" x="83.398438"/>
      </g>
     </g>
    </g>
    <g id="xtick_5">
     <g id="line2d_16">
      <g>
       <use xlink:href="#m962023b6d0" x="168.0625" y="178.530469" style="stroke: #000000; stroke-width: 0.8"/>
      </g>
     </g>
     <g id="text_10">
      <!-- 5.0 -->
      <g transform="translate(158.3325 195.551406) scale(0.14 -0.14)">
       <use xlink:href="#ArialMT-35"/>
       <use xlink:href="#ArialMT-2e" x="55.615234"/>
       <use xlink:href="#ArialMT-30" x="83.398438"/>
      </g>
     </g>
    </g>
    <g id="xtick_6">
     <g id="line2d_17">
      <g>
       <use xlink:href="#m962023b6d0" x="251.7625" y="178.530469" style="stroke: #000000; stroke-width: 0.8"/>
      </g>
     </g>
     <g id="text_11">
      <!-- 10.0 -->
      <g transform="translate(238.139844 195.551406) scale(0.14 -0.14)">
       <defs>
        <path id="ArialMT-31" d="M 2384 0 
L 1822 0 
L 1822 3584 
Q 1619 3391 1289 3197 
Q 959 3003 697 2906 
L 697 3450 
Q 1169 3672 1522 3987 
Q 1875 4303 2022 4600 
L 2384 4600 
L 2384 0 
z
" transform="scale(0.015625)"/>
       </defs>
       <use xlink:href="#ArialMT-31"/>
       <use xlink:href="#ArialMT-30" x="55.615234"/>
       <use xlink:href="#ArialMT-2e" x="111.230469"/>
       <use xlink:href="#ArialMT-30" x="139.013672"/>
      </g>
     </g>
    </g>
    <g id="text_12">
     <!-- Time (s) -->
     <g transform="translate(142.664531 212.525469) scale(0.14 -0.14)">
      <defs>
       <path id="ArialMT-73" d="M 197 991 
L 753 1078 
Q 800 744 1014 566 
Q 1228 388 1613 388 
Q 2000 388 2187 545 
Q 2375 703 2375 916 
Q 2375 1106 2209 1216 
Q 2094 1291 1634 1406 
Q 1016 1563 777 1677 
Q 538 1791 414 1992 
Q 291 2194 291 2438 
Q 291 2659 392 2848 
Q 494 3038 669 3163 
Q 800 3259 1026 3326 
Q 1253 3394 1513 3394 
Q 1903 3394 2198 3281 
Q 2494 3169 2634 2976 
Q 2775 2784 2828 2463 
L 2278 2388 
Q 2241 2644 2061 2787 
Q 1881 2931 1553 2931 
Q 1166 2931 1000 2803 
Q 834 2675 834 2503 
Q 834 2394 903 2306 
Q 972 2216 1119 2156 
Q 1203 2125 1616 2013 
Q 2213 1853 2448 1751 
Q 2684 1650 2818 1456 
Q 2953 1263 2953 975 
Q 2953 694 2789 445 
Q 2625 197 2315 61 
Q 2006 -75 1616 -75 
Q 969 -75 630 194 
Q 291 463 197 991 
z
" transform="scale(0.015625)"/>
      </defs>
      <use xlink:href="#ArialMT-54"/>
      <use xlink:href="#ArialMT-69" x="57.333984"/>
      <use xlink:href="#ArialMT-6d" x="79.550781"/>
      <use xlink:href="#ArialMT-65" x="162.851562"/>
      <use xlink:href="#ArialMT-20" x="218.466797"/>
      <use xlink:href="#ArialMT-28" x="246.25"/>
      <use xlink:href="#ArialMT-73" x="279.550781"/>
      <use xlink:href="#ArialMT-29" x="329.550781"/>
     </g>
    </g>
   </g>
   <g id="matplotlib.axis_4">
    <g id="ytick_4">
     <g id="line2d_18">
      <g>
       <use xlink:href="#m12bddb589c" x="84.3625" y="178.530469" style="stroke: #000000; stroke-width: 0.8"/>
      </g>
     </g>
     <g id="text_13">
      <!-- −50 -->
      <g transform="translate(53.615 183.540938) scale(0.14 -0.14)">
       <use xlink:href="#ArialMT-2212"/>
       <use xlink:href="#ArialMT-35" x="58.398438"/>
       <use xlink:href="#ArialMT-30" x="114.013672"/>
      </g>
     </g>
    </g>
    <g id="ytick_5">
     <g id="line2d_19">
      <g>
       <use xlink:href="#m12bddb589c" x="84.3625" y="139.851399" style="stroke: #000000; stroke-width: 0.8"/>
      </g>
     </g>
     <g id="text_14">
      <!-- 0 -->
      <g transform="translate(69.577188 144.861868) scale(0.14 -0.14)">
       <use xlink:href="#ArialMT-30"/>
      </g>
     </g>
    </g>
    <g id="ytick_6">
     <g id="line2d_20">
      <g>
       <use xlink:href="#m12bddb589c" x="84.3625" y="101.172329" style="stroke: #000000; stroke-width: 0.8"/>
      </g>
     </g>
     <g id="text_15">
      <!-- 50 -->
      <g transform="translate(61.791875 106.182798) scale(0.14 -0.14)">
       <use xlink:href="#ArialMT-35"/>
       <use xlink:href="#ArialMT-30" x="55.615234"/>
      </g>
     </g>
    </g>
    <g id="text_16">
     <!-- Angles -->
     <g transform="translate(31.324438 161.253899) rotate(-90) scale(0.14 -0.14)">
      <defs>
       <path id="ArialMT-41" d="M -9 0 
L 1750 4581 
L 2403 4581 
L 4278 0 
L 3588 0 
L 3053 1388 
L 1138 1388 
L 634 0 
L -9 0 
z
M 1313 1881 
L 2866 1881 
L 2388 3150 
Q 2169 3728 2063 4100 
Q 1975 3659 1816 3225 
L 1313 1881 
z
" transform="scale(0.015625)"/>
      </defs>
      <use xlink:href="#ArialMT-41"/>
      <use xlink:href="#ArialMT-6e" x="66.699219"/>
      <use xlink:href="#ArialMT-67" x="122.314453"/>
      <use xlink:href="#ArialMT-6c" x="177.929688"/>
      <use xlink:href="#ArialMT-65" x="200.146484"/>
      <use xlink:href="#ArialMT-73" x="255.761719"/>
     </g>
     <!-- ($\circ$) -->
     <g transform="translate(46.535 148.951399) rotate(-90) scale(0.14 -0.14)">
      <defs>
       <path id="DejaVuSans-2218" d="M 2003 2603 
Q 1753 2603 1581 2429 
Q 1409 2256 1409 2006 
Q 1409 1759 1581 1589 
Q 1753 1419 2003 1419 
Q 2253 1419 2425 1589 
Q 2597 1759 2597 2006 
Q 2597 2253 2423 2428 
Q 2250 2603 2003 2603 
z
M 2003 3006 
Q 2203 3006 2387 2929 
Q 2572 2853 2706 2709 
Q 2850 2569 2922 2390 
Q 2994 2212 2994 2006 
Q 2994 1594 2705 1308 
Q 2416 1022 1997 1022 
Q 1575 1022 1294 1303 
Q 1013 1584 1013 2006 
Q 1013 2425 1300 2715 
Q 1588 3006 2003 3006 
z
" transform="scale(0.015625)"/>
      </defs>
      <use xlink:href="#ArialMT-28" transform="translate(0 0.203125)"/>
      <use xlink:href="#DejaVuSans-2218" transform="translate(33.300781 0.203125)"/>
      <use xlink:href="#ArialMT-29" transform="translate(95.898438 0.203125)"/>
     </g>
    </g>
   </g>
   <g id="line2d_21">
    <path d="M 84.34576 141.383768 
L 84.54664 141.394102 
L 84.83122 141.710616 
L 85.24972 142.114014 
L 85.46734 142.046404 
L 85.7854 141.650099 
L 87.07438 139.815913 
L 87.86116 138.681564 
L 88.78186 137.272489 
L 90.12106 135.872806 
L 91.00828 134.878978 
L 91.7281 134.433362 
L 92.51488 133.881951 
L 93.36862 133.21674 
L 93.58624 133.398754 
L 93.9043 134.04227 
L 94.33954 134.807466 
L 94.52368 134.784932 
L 94.75804 134.450435 
L 95.26024 133.714082 
L 95.44438 133.775398 
L 95.72896 134.18269 
L 96.19768 134.7786 
L 96.44878 134.758162 
L 96.8338 134.431951 
L 97.36948 134.048632 
L 97.6708 134.087023 
L 97.98886 134.388075 
L 98.5915 134.982065 
L 98.85934 134.921782 
L 99.3448 134.776791 
L 99.56242 134.994823 
L 99.94744 135.79569 
L 100.39942 136.564374 
L 100.70074 136.678182 
L 101.53774 136.776598 
L 102.1069 137.249798 
L 103.47958 138.455458 
L 104.68486 139.177214 
L 105.68926 140.334532 
L 106.2082 140.491875 
L 107.07868 140.48703 
L 107.9659 140.543522 
L 109.3051 141.007354 
L 110.3932 141.242142 
L 112.50244 141.152025 
L 113.4064 140.913213 
L 115.73326 140.886824 
L 116.36938 141.124103 
L 117.0055 141.016883 
L 117.5914 141.028578 
L 118.21078 141.287532 
L 118.6795 141.391849 
L 119.098 141.221111 
L 119.65042 141.027199 
L 120.08566 141.154057 
L 120.9394 141.427751 
L 121.3579 141.309913 
L 121.92706 140.874866 
L 122.81428 140.229012 
L 123.40018 140.114868 
L 123.96934 139.929048 
L 125.57638 139.136397 
L 126.68122 139.061841 
L 127.3006 138.99969 
L 129.4768 139.388803 
L 130.53142 139.996769 
L 130.91644 139.857037 
L 131.63626 139.285624 
L 132.8248 138.400149 
L 133.5781 137.832807 
L 133.9966 137.142976 
L 134.81686 135.730346 
L 135.21862 135.501831 
L 137.31112 135.036212 
L 137.66266 135.394382 
L 138.23182 136.378213 
L 138.6001 136.803214 
L 138.80098 136.751319 
L 139.05208 136.391556 
L 139.53754 135.694079 
L 139.70494 135.757369 
L 139.9393 136.15286 
L 140.55868 137.271081 
L 140.75956 137.229795 
L 141.04414 136.86793 
L 141.83092 135.743055 
L 142.0318 135.801841 
L 142.26616 136.173959 
L 143.0362 137.663771 
L 143.22034 137.554417 
L 143.92342 136.928921 
L 144.25822 137.231494 
L 144.50932 137.326385 
L 144.69346 137.13226 
L 144.99478 136.365427 
L 145.41328 135.460198 
L 145.58068 135.494537 
L 145.7983 135.885595 
L 146.31724 136.863677 
L 146.48464 136.78271 
L 146.73574 136.306758 
L 147.25468 135.332071 
L 147.48904 135.313434 
L 147.82384 135.595478 
L 148.37626 136.009962 
L 148.91194 136.099479 
L 149.88286 136.228113 
L 150.4855 136.611539 
L 151.18858 137.318658 
L 151.77448 138.226074 
L 152.34364 139.54773 
L 152.96302 140.874168 
L 153.23086 141.010624 
L 153.4987 140.887979 
L 154.63702 140.143829 
L 155.27314 140.051386 
L 155.72512 140.221936 
L 156.27754 140.411076 
L 156.57886 140.250903 
L 157.61674 139.481597 
L 158.16916 139.567821 
L 158.7718 139.853529 
L 159.4414 140.481086 
L 159.99382 140.855918 
L 160.3621 140.855574 
L 160.73038 140.617222 
L 162.18676 139.387595 
L 162.63874 139.378149 
L 162.97354 139.595002 
L 163.39204 140.185221 
L 164.02816 141.03676 
L 164.44666 141.197468 
L 165.16648 141.434812 
L 166.50568 142.105005 
L 167.5603 141.791686 
L 168.17968 142.242898 
L 169.43518 143.038655 
L 169.8202 143.066214 
L 170.85808 142.922259 
L 171.59464 143.494744 
L 172.14706 143.734242 
L 172.69948 143.715539 
L 173.30212 143.746956 
L 174.28978 143.918903 
L 175.44484 143.862452 
L 176.56642 143.972009 
L 177.67126 143.653002 
L 178.15672 143.898554 
L 179.37874 144.617008 
L 181.05274 145.096064 
L 181.75582 145.323935 
L 182.49238 145.281708 
L 183.16198 145.055368 
L 184.2166 144.593438 
L 185.15404 144.47985 
L 186.04126 144.206738 
L 186.45976 144.341121 
L 187.36372 144.761666 
L 187.6483 144.526079 
L 188.18398 143.705051 
L 189.03772 142.491996 
L 189.4897 142.183933 
L 189.79102 142.228668 
L 190.1593 142.557237 
L 190.5778 142.850909 
L 190.81216 142.749328 
L 191.14696 142.288 
L 191.73286 141.525572 
L 192.05092 141.45912 
L 192.38572 141.6357 
L 193.03858 142.044146 
L 193.2562 141.895275 
L 193.55752 141.367046 
L 194.428 139.703181 
L 194.66236 139.659489 
L 194.87998 139.864732 
L 195.29848 140.697576 
L 195.61654 141.095498 
L 195.78394 141.028607 
L 196.0183 140.627904 
L 196.58746 139.594659 
L 196.78834 139.617642 
L 197.12314 139.968018 
L 197.47468 140.216585 
L 197.75926 140.133336 
L 198.47908 139.812097 
L 199.83502 139.789774 
L 200.67202 139.513502 
L 201.59272 138.935791 
L 202.32928 139.169929 
L 202.56364 138.702859 
L 203.31694 136.928286 
L 203.50108 137.015414 
L 203.83588 137.541699 
L 204.2209 137.995974 
L 204.5557 138.032755 
L 204.94072 138.10635 
L 205.69402 138.450657 
L 205.92838 138.097103 
L 206.7319 136.636463 
L 206.93278 136.724412 
L 207.25084 137.164224 
L 208.50634 139.097932 
L 208.8244 139.258249 
L 209.04202 139.136312 
L 209.3266 138.664954 
L 209.97946 137.526648 
L 210.19708 137.536421 
L 210.51514 137.836119 
L 211.21822 138.492392 
L 211.61998 138.953483 
L 212.79178 140.634892 
L 213.2605 140.902022 
L 213.66226 141.501827 
L 214.08076 141.983618 
L 214.29838 141.95103 
L 214.5997 141.623511 
L 215.40322 140.686806 
L 215.88868 140.102288 
L 216.50806 138.87451 
L 217.24462 137.598956 
L 218.3662 135.939219 
L 219.10276 134.25146 
L 219.2869 134.277807 
L 219.50452 134.593847 
L 220.6261 136.621198 
L 220.8772 136.563604 
L 221.69746 136.119875 
L 221.98204 136.503707 
L 222.43402 137.067798 
L 222.6349 137.016387 
L 222.95296 136.6148 
L 223.32124 136.257566 
L 223.53886 136.324972 
L 223.92388 136.776002 
L 224.3089 137.079775 
L 224.66044 137.050691 
L 225.1459 137.035907 
L 225.53092 137.300045 
L 226.3177 138.211885 
L 226.87012 138.659232 
L 227.60668 138.878381 
L 229.09654 139.456463 
L 229.53178 140.009142 
L 230.419 141.173146 
L 230.9212 141.875087 
L 231.47362 142.650142 
L 231.64102 142.586164 
L 231.85864 142.192401 
L 232.49476 140.86248 
L 232.64542 140.988135 
L 232.91326 141.629339 
L 233.29828 142.415022 
L 233.44894 142.368272 
L 233.64982 141.969582 
L 234.23572 140.674174 
L 234.38638 140.768752 
L 234.604 141.261028 
L 235.24012 143.566678 
L 235.64188 144.485269 
L 235.8595 144.556698 
L 236.06038 144.327996 
L 236.47888 143.363472 
L 236.8639 142.741497 
L 237.09826 142.70651 
L 237.3661 142.927676 
L 238.30354 143.937894 
L 238.50442 143.693184 
L 238.83922 142.836118 
L 239.49208 141.204601 
L 239.74318 141.058124 
L 239.92732 141.194056 
L 240.17842 141.710358 
L 240.76432 143.00329 
L 240.89824 142.933341 
L 241.09912 142.463112 
L 241.76872 140.607674 
L 241.90264 140.730053 
L 242.15374 141.393953 
L 242.6392 142.634788 
L 242.84008 142.683905 
L 243.4762 142.533277 
L 243.74404 143.013003 
L 244.24624 143.89393 
L 244.44712 143.874121 
L 244.71496 143.54182 
L 245.30086 142.799503 
L 245.58544 142.779986 
L 245.93698 143.005546 
L 246.55636 143.428398 
L 246.79072 143.294127 
L 247.14226 142.735462 
L 247.54402 142.221122 
L 247.76164 142.256386 
L 248.43124 142.599298 
L 248.6656 142.224871 
L 249.26824 141.155652 
L 249.45238 141.232676 
L 250.15546 141.830459 
L 250.1722 141.81359 
L 250.40656 141.39588 
L 250.97572 140.325202 
L 251.15986 140.359291 
L 251.49466 140.752965 
L 251.7625 140.970191 
L 251.7625 140.970191 
" clip-path="url(#p616d13cc0f)" style="fill: none; stroke: #4ae875; stroke-width: 1.5; stroke-linecap: square"/>
   </g>
   <g id="line2d_22">
    <path d="M 84.34576 139.187462 
L 86.58892 139.88914 
L 88.39684 140.163751 
L 88.94926 140.297039 
L 90.23824 140.722641 
L 91.52722 140.901571 
L 92.8999 141.441034 
L 95.27698 141.080316 
L 96.06376 140.936186 
L 96.54922 141.171911 
L 96.98446 141.280421 
L 97.65406 141.296523 
L 97.9219 141.700627 
L 98.47432 142.576515 
L 98.62498 142.484681 
L 98.8426 142.008088 
L 99.5122 140.345476 
L 99.6796 140.408361 
L 99.96418 140.862944 
L 100.36594 141.39782 
L 100.6003 141.3768 
L 101.48752 140.99279 
L 101.8558 141.29052 
L 102.55888 142.226531 
L 104.09896 144.568645 
L 104.88574 145.90771 
L 105.2875 146.196402 
L 105.60556 146.159894 
L 106.02406 145.844415 
L 107.02846 145.000608 
L 107.38 145.040835 
L 107.7985 145.341883 
L 108.45136 146.136264 
L 109.50598 147.384387 
L 110.91214 148.347728 
L 111.1465 148.265123 
L 111.43108 147.863836 
L 112.30156 146.437515 
L 112.8205 146.220504 
L 113.27248 146.180654 
L 113.4901 146.425543 
L 113.75794 147.15704 
L 114.39406 149.08906 
L 114.51124 149.014593 
L 114.67864 148.558416 
L 115.11388 146.421183 
L 115.4152 145.538311 
L 115.5826 145.524876 
L 115.81696 145.852073 
L 116.11828 146.152381 
L 116.26894 146.016965 
L 116.5033 145.401151 
L 117.12268 143.66412 
L 117.30682 143.655706 
L 117.52444 143.937689 
L 118.52884 145.575514 
L 118.71298 145.35441 
L 118.99756 144.565192 
L 119.58346 142.926554 
L 119.80108 142.839208 
L 120.05218 143.031921 
L 120.62134 143.501554 
L 121.74292 143.921879 
L 122.06098 143.944544 
L 122.3623 143.716303 
L 123.1993 142.972509 
L 123.73498 142.92675 
L 124.40458 142.818022 
L 124.8733 142.492119 
L 126.44686 141.193632 
L 126.98254 141.084477 
L 127.53496 141.216191 
L 128.74024 141.55643 
L 129.57724 141.539389 
L 130.83274 141.221454 
L 133.12612 140.72958 
L 134.13052 140.901366 
L 135.13492 141.002216 
L 137.62918 140.732621 
L 139.03534 140.157101 
L 139.70494 140.022403 
L 140.55868 139.691283 
L 141.06088 139.916036 
L 141.47938 139.977891 
L 142.04854 139.756938 
L 142.8688 139.555425 
L 143.99038 139.311939 
L 145.045 139.6451 
L 145.84852 139.654868 
L 147.50578 140.01755 
L 149.71546 139.339331 
L 150.21766 139.675206 
L 150.6529 139.850405 
L 151.05466 139.751231 
L 152.42734 139.246205 
L 153.34804 139.072827 
L 153.86698 139.022911 
L 154.38592 139.266203 
L 154.82116 139.354403 
L 155.20618 139.179256 
L 156.4282 138.442721 
L 156.763 138.634213 
L 157.4326 139.359586 
L 157.88458 139.683655 
L 158.1859 139.63462 
L 159.45814 139.059389 
L 159.75946 138.833176 
L 160.46254 138.155499 
L 160.66342 138.372216 
L 161.46694 139.622583 
L 161.50042 139.598767 
L 161.71804 139.271556 
L 162.40438 138.08621 
L 162.60526 138.13411 
L 162.83962 138.451896 
L 163.2079 139.398002 
L 163.76032 140.723371 
L 163.94446 140.746285 
L 164.14534 140.468505 
L 164.93212 139.095111 
L 165.18322 139.198117 
L 165.65194 139.404188 
L 166.08718 139.227482 
L 166.33828 139.256562 
L 166.57264 139.534747 
L 166.99114 140.487359 
L 167.61052 141.750201 
L 168.54796 142.933982 
L 168.99994 143.261687 
L 169.30126 143.230703 
L 169.58584 142.956862 
L 169.95412 142.229016 
L 170.59024 140.971848 
L 170.8246 140.913277 
L 171.0757 141.114294 
L 171.56116 141.885307 
L 172.02988 142.47516 
L 172.26424 142.483961 
L 172.54882 142.213599 
L 172.95058 141.874873 
L 173.13472 141.988828 
L 173.40256 142.495986 
L 173.8378 143.255118 
L 174.0052 143.197388 
L 174.22282 142.785524 
L 174.80872 141.579767 
L 174.97612 141.648027 
L 175.22722 142.080231 
L 175.82986 143.143651 
L 176.13118 143.237626 
L 177.03514 143.310538 
L 177.33646 143.710188 
L 178.0228 144.736791 
L 178.20694 144.623766 
L 178.50826 144.060634 
L 178.87654 143.516122 
L 179.04394 143.584931 
L 179.2783 144.030434 
L 179.8642 145.212153 
L 180.04834 145.169407 
L 180.29944 144.809098 
L 181.30384 143.132074 
L 181.82278 142.776524 
L 182.42542 142.638204 
L 182.7937 142.734982 
L 183.07828 143.054047 
L 183.61396 144.142473 
L 183.8818 144.398065 
L 184.0492 144.285584 
L 184.3003 143.75732 
L 184.85272 142.580223 
L 185.03686 142.595161 
L 185.27122 142.908188 
L 186.12496 144.265664 
L 186.35932 144.235611 
L 186.61042 143.922153 
L 187.71526 142.151809 
L 188.8201 142.047448 
L 189.0712 142.354756 
L 189.85798 143.534842 
L 190.04212 143.330994 
L 190.84564 142.165115 
L 191.13022 142.405723 
L 191.46502 142.600082 
L 191.6659 142.446918 
L 192.0007 141.802687 
L 192.5029 140.950267 
L 192.754 140.89889 
L 193.0051 141.10494 
L 193.37338 141.760774 
L 193.89232 142.618574 
L 194.0932 142.620178 
L 194.31082 142.354149 
L 194.8465 141.174469 
L 195.265 140.545819 
L 195.56632 140.440564 
L 195.8509 140.602347 
L 196.36984 140.935945 
L 196.57072 140.782396 
L 196.88878 140.169597 
L 197.2738 139.57595 
L 197.4412 139.628146 
L 197.67556 140.027138 
L 198.14428 140.823568 
L 198.29494 140.75807 
L 198.51256 140.34849 
L 199.06498 139.251901 
L 199.23238 139.329014 
L 199.46674 139.785037 
L 200.52136 142.241183 
L 200.8729 142.454322 
L 201.17422 142.385235 
L 201.50902 142.05489 
L 201.99448 141.208079 
L 202.83148 139.779349 
L 203.09932 139.677505 
L 203.33368 139.837828 
L 203.76892 140.520244 
L 204.12046 140.883516 
L 204.35482 140.837894 
L 204.6394 140.509784 
L 205.25878 139.34045 
L 205.77772 138.593362 
L 206.11252 138.465831 
L 206.5645 138.5715 
L 207.58564 138.820666 
L 208.10458 138.991376 
L 208.50634 139.405815 
L 208.9918 139.831711 
L 209.22616 139.758639 
L 209.62792 139.301706 
L 209.9962 139.03919 
L 210.29752 139.115499 
L 210.69928 139.191014 
L 210.95038 138.975684 
L 211.97152 137.804966 
L 212.3398 137.923612 
L 212.99266 138.390815 
L 213.49486 139.044797 
L 214.0138 139.640912 
L 214.2649 139.636745 
L 214.56622 139.366194 
L 216.84286 136.753437 
L 217.3618 136.61246 
L 218.1151 136.391269 
L 219.27016 135.869043 
L 219.65518 136.191071 
L 220.34152 136.748127 
L 220.72654 136.775812 
L 221.17852 136.543096 
L 221.66398 136.363907 
L 222.03226 136.494972 
L 222.58468 136.680667 
L 222.9697 136.535333 
L 224.0578 135.998797 
L 224.4763 136.100806 
L 226.3177 137.069784 
L 227.00404 137.440547 
L 228.0754 137.647805 
L 228.9124 137.661229 
L 229.46482 137.438014 
L 231.5908 136.310369 
L 232.15996 136.262281 
L 232.91326 136.180934 
L 234.03484 135.992067 
L 235.54144 136.005837 
L 236.31148 135.997035 
L 237.21544 135.721288 
L 238.57138 135.311156 
L 239.25772 135.38858 
L 243.6436 136.655302 
L 244.7317 137.056182 
L 245.8198 137.462233 
L 247.12552 137.984943 
L 247.8286 138.25104 
L 248.76604 138.673681 
L 249.55282 138.94868 
L 250.4233 139.324709 
L 251.7625 139.617381 
L 251.7625 139.617381 
" clip-path="url(#p616d13cc0f)" style="fill: none; stroke: #94885f; stroke-width: 1.5; stroke-linecap: square"/>
   </g>
   <g id="line2d_23">
    <path d="M 84.34576 143.055637 
L 84.56338 143.058161 
L 84.8647 143.366533 
L 85.24972 143.673657 
L 85.48408 143.578641 
L 85.83562 143.114162 
L 86.94046 141.539648 
L 87.82768 140.308847 
L 88.7149 138.96714 
L 90.1378 137.674842 
L 91.02502 136.692577 
L 91.77832 136.207107 
L 92.69902 135.59604 
L 93.33514 135.13796 
L 93.55276 135.267922 
L 93.83734 135.763894 
L 94.35628 136.629923 
L 94.54042 136.576281 
L 94.80826 136.161468 
L 95.26024 135.527006 
L 95.44438 135.580157 
L 95.72896 135.96609 
L 96.19768 136.541066 
L 96.44878 136.527882 
L 96.8338 136.225118 
L 97.36948 135.869142 
L 97.65406 135.91782 
L 97.97212 136.241106 
L 98.5915 136.91429 
L 98.8426 136.855024 
L 99.41176 136.620211 
L 99.64612 136.845492 
L 100.58356 138.033456 
L 101.11924 137.955294 
L 101.521 138.055627 
L 102.14038 138.498789 
L 103.12804 139.166568 
L 103.76416 139.311691 
L 104.3668 139.468994 
L 104.7853 139.866913 
L 105.5386 140.597121 
L 105.99058 140.688259 
L 106.72714 140.576108 
L 107.98264 140.342732 
L 108.86986 140.672996 
L 109.69012 140.80672 
L 111.19672 140.749998 
L 112.26808 140.596468 
L 113.64076 140.278462 
L 114.77908 140.293038 
L 115.4989 140.084357 
L 116.68744 140.089405 
L 117.45748 139.920901 
L 117.9262 140.061253 
L 118.72972 140.364662 
L 119.14822 140.174361 
L 119.66716 139.992088 
L 120.05218 140.119849 
L 121.22398 140.683239 
L 121.57552 140.440816 
L 122.446 139.763118 
L 123.09886 139.647552 
L 123.93586 139.465084 
L 124.85656 138.946445 
L 125.52616 138.690646 
L 126.86536 138.622034 
L 127.41778 138.753963 
L 128.23804 138.962067 
L 129.12526 139.111786 
L 129.69442 139.487209 
L 130.41424 139.952442 
L 130.78252 139.897487 
L 131.41864 139.504108 
L 133.12612 138.477075 
L 133.64506 138.187295 
L 134.04682 137.651272 
L 134.80012 136.617991 
L 135.21862 136.455832 
L 136.80892 136.142176 
L 137.29438 136.065372 
L 137.62918 136.231595 
L 137.98072 136.674261 
L 138.6838 137.630591 
L 138.88468 137.540169 
L 139.21948 137.040284 
L 139.55428 136.682828 
L 139.73842 136.758202 
L 140.00626 137.181394 
L 140.49172 137.8975 
L 140.6926 137.866315 
L 140.96044 137.549953 
L 141.74722 136.517745 
L 141.99832 136.541552 
L 142.24942 136.826006 
L 143.01946 137.870139 
L 143.23708 137.735592 
L 143.92342 137.167265 
L 144.6265 137.231117 
L 144.89434 136.695316 
L 145.43002 135.601075 
L 145.59742 135.622695 
L 145.83178 135.954765 
L 146.28376 136.586203 
L 146.45116 136.518231 
L 146.70226 136.102191 
L 147.25468 135.182456 
L 147.48904 135.189074 
L 147.90754 135.526688 
L 148.34278 135.734857 
L 149.16304 135.739263 
L 149.76568 135.906881 
L 150.55246 136.408588 
L 151.27228 137.054178 
L 151.80796 137.893539 
L 153.09694 140.056559 
L 153.43174 140.114858 
L 154.43614 139.862689 
L 156.05992 139.554438 
L 156.39472 139.421848 
L 156.8467 138.927658 
L 157.2652 138.601437 
L 157.56652 138.636704 
L 158.57092 139.197788 
L 159.29074 139.689366 
L 159.91012 140.033438 
L 160.37884 140.030207 
L 160.93126 139.788748 
L 162.58852 138.888087 
L 162.92332 139.104947 
L 163.34182 139.689096 
L 163.99468 140.562085 
L 164.36296 140.672519 
L 165.23344 140.80998 
L 165.83608 141.235869 
L 166.33828 141.502448 
L 166.68982 141.42213 
L 167.35942 141.204898 
L 167.76118 141.391883 
L 169.0669 142.12434 
L 169.7365 142.359226 
L 170.28892 142.247197 
L 170.70742 142.274778 
L 171.14266 142.56484 
L 172.0801 143.226885 
L 172.4986 143.237822 
L 173.26864 143.196217 
L 174.22282 143.410943 
L 175.177 143.308368 
L 178.49152 144.139366 
L 179.93116 144.920663 
L 182.67652 145.392463 
L 185.62276 145.230579 
L 186.49324 145.325011 
L 187.38046 145.5994 
L 187.71526 145.332873 
L 188.38486 144.408505 
L 189.03772 143.675736 
L 189.43948 143.520115 
L 189.80776 143.611744 
L 190.67824 143.96513 
L 190.97956 143.675646 
L 191.81656 142.742605 
L 192.1681 142.738763 
L 192.68704 143.00638 
L 193.0888 143.09846 
L 193.37338 142.915078 
L 193.79188 142.309946 
L 194.52844 141.26757 
L 194.77954 141.247608 
L 195.03064 141.501044 
L 195.70024 142.293889 
L 195.90112 142.152237 
L 196.3531 141.416142 
L 196.67116 141.130452 
L 196.92226 141.18227 
L 197.89318 141.614432 
L 198.39538 141.427196 
L 199.09846 141.184842 
L 199.51696 141.305977 
L 200.68876 141.797426 
L 201.07378 141.527986 
L 201.52576 141.277033 
L 201.86056 141.388389 
L 202.19536 141.435352 
L 202.41298 141.193444 
L 202.74778 140.360844 
L 203.19976 139.383507 
L 203.3839 139.366372 
L 203.60152 139.63002 
L 204.3046 140.629824 
L 204.67288 140.640179 
L 205.12486 140.710628 
L 205.5601 140.773474 
L 205.8112 140.543327 
L 206.26318 139.6885 
L 206.61472 139.250098 
L 206.83234 139.277838 
L 207.11692 139.596844 
L 208.75744 141.860837 
L 209.00854 141.845585 
L 209.25964 141.554143 
L 210.14686 140.275491 
L 210.44818 140.362705 
L 211.15126 140.616244 
L 211.56976 140.806513 
L 211.97152 141.306357 
L 212.55742 141.986555 
L 213.36094 142.591808 
L 214.19794 143.760012 
L 214.4323 143.633103 
L 215.83846 142.093438 
L 216.3574 140.98407 
L 216.96004 139.868857 
L 217.4455 139.415203 
L 218.06488 138.896147 
L 218.38294 138.21271 
L 219.1195 136.469266 
L 219.2869 136.512033 
L 219.50452 136.857843 
L 220.47544 138.712127 
L 220.76002 138.750511 
L 221.1283 138.532773 
L 221.51332 138.390856 
L 221.74768 138.558727 
L 222.61816 139.465273 
L 222.90274 139.189562 
L 223.32124 138.844001 
L 223.5556 138.938513 
L 224.56 139.678884 
L 225.1459 139.718214 
L 225.54766 140.052136 
L 227.02078 141.51737 
L 228.20932 142.021869 
L 229.3309 142.607387 
L 231.57406 145.255918 
L 231.7582 145.035392 
L 232.093 144.145578 
L 232.46128 143.405061 
L 232.61194 143.434824 
L 232.81282 143.774201 
L 233.33176 144.709471 
L 233.48242 144.602929 
L 233.73352 144.030463 
L 234.20224 143.023134 
L 234.36964 143.06997 
L 234.57052 143.444642 
L 235.00576 144.88046 
L 235.54144 146.379175 
L 235.80928 146.60058 
L 235.99342 146.478315 
L 236.29474 145.916966 
L 236.84716 144.939957 
L 237.09826 144.894668 
L 237.3661 145.101145 
L 238.30354 146.055019 
L 238.50442 145.802614 
L 238.85596 144.890717 
L 239.4586 143.413689 
L 239.7097 143.264289 
L 239.89384 143.391184 
L 240.14494 143.89014 
L 240.78106 145.279398 
L 240.91498 145.179946 
L 241.11586 144.673339 
L 241.75198 142.882323 
L 241.8859 142.986003 
L 242.12026 143.579936 
L 242.6392 144.890938 
L 242.82334 144.900449 
L 243.50968 144.614305 
L 243.79426 145.146891 
L 244.24624 145.914232 
L 244.44712 145.890696 
L 244.71496 145.547583 
L 245.30086 144.785905 
L 245.60218 144.760943 
L 246.00394 144.994569 
L 246.52288 145.250597 
L 246.75724 145.122617 
L 247.09204 144.625389 
L 247.52728 144.067071 
L 247.7449 144.097578 
L 248.46472 144.459406 
L 248.71582 144.047813 
L 249.2515 143.167342 
L 249.43564 143.224284 
L 250.15546 143.744478 
L 250.38982 143.314657 
L 250.97572 142.173028 
L 251.15986 142.21789 
L 251.47792 142.626185 
L 251.7625 142.902804 
L 251.7625 142.902804 
" clip-path="url(#p616d13cc0f)" style="fill: none; stroke: #6b4545; stroke-width: 1.5; stroke-linecap: square"/>
   </g>
   <g id="patch_8">
    <path d="M 84.3625 178.530469 
L 84.3625 101.172329 
" style="fill: none; stroke: #000000; stroke-width: 0.8; stroke-linejoin: miter; stroke-linecap: square"/>
   </g>
   <g id="patch_9">
    <path d="M 251.7625 178.530469 
L 251.7625 101.172329 
" style="fill: none; stroke: #000000; stroke-width: 0.8; stroke-linejoin: miter; stroke-linecap: square"/>
   </g>
   <g id="patch_10">
    <path d="M 84.3625 178.530469 
L 251.7625 178.530469 
" style="fill: none; stroke: #000000; stroke-width: 0.8; stroke-linejoin: miter; stroke-linecap: square"/>
   </g>
   <g id="patch_11">
    <path d="M 84.3625 101.172329 
L 251.7625 101.172329 
" style="fill: none; stroke: #000000; stroke-width: 0.8; stroke-linejoin: miter; stroke-linecap: square"/>
   </g>
   <g id="legend_2">
    <g id="line2d_24">
     <path d="M 76.975781 113.830142 
L 86.975781 113.830142 
L 96.975781 113.830142 
" style="fill: none; stroke: #4ae875; stroke-width: 1.5; stroke-linecap: square"/>
    </g>
    <g id="text_17">
     <!-- Roll -->
     <g transform="translate(104.975781 117.330142) scale(0.1 -0.1)">
      <use xlink:href="#ArialMT-52"/>
      <use xlink:href="#ArialMT-6f" x="72.216797"/>
      <use xlink:href="#ArialMT-6c" x="127.832031"/>
      <use xlink:href="#ArialMT-6c" x="150.048828"/>
     </g>
    </g>
    <g id="line2d_25">
     <path d="M 142.202344 113.830142 
L 152.202344 113.830142 
L 162.202344 113.830142 
" style="fill: none; stroke: #94885f; stroke-width: 1.5; stroke-linecap: square"/>
    </g>
    <g id="text_18">
     <!-- Pitch -->
     <g transform="translate(170.202344 117.330142) scale(0.1 -0.1)">
      <defs>
       <path id="ArialMT-63" d="M 2588 1216 
L 3141 1144 
Q 3050 572 2676 248 
Q 2303 -75 1759 -75 
Q 1078 -75 664 370 
Q 250 816 250 1647 
Q 250 2184 428 2587 
Q 606 2991 970 3192 
Q 1334 3394 1763 3394 
Q 2303 3394 2647 3120 
Q 2991 2847 3088 2344 
L 2541 2259 
Q 2463 2594 2264 2762 
Q 2066 2931 1784 2931 
Q 1359 2931 1093 2626 
Q 828 2322 828 1663 
Q 828 994 1084 691 
Q 1341 388 1753 388 
Q 2084 388 2306 591 
Q 2528 794 2588 1216 
z
" transform="scale(0.015625)"/>
      </defs>
      <use xlink:href="#ArialMT-50"/>
      <use xlink:href="#ArialMT-69" x="66.699219"/>
      <use xlink:href="#ArialMT-74" x="88.916016"/>
      <use xlink:href="#ArialMT-63" x="116.699219"/>
      <use xlink:href="#ArialMT-68" x="166.699219"/>
     </g>
    </g>
    <g id="line2d_26">
     <path d="M 212.433594 113.830142 
L 222.433594 113.830142 
L 232.433594 113.830142 
" style="fill: none; stroke: #6b4545; stroke-width: 1.5; stroke-linecap: square"/>
    </g>
    <g id="text_19">
     <!-- Yaw -->
     <g transform="translate(240.433594 117.330142) scale(0.1 -0.1)">
      <defs>
       <path id="ArialMT-59" d="M 1784 0 
L 1784 1941 
L 19 4581 
L 756 4581 
L 1659 3200 
Q 1909 2813 2125 2425 
Q 2331 2784 2625 3234 
L 3513 4581 
L 4219 4581 
L 2391 1941 
L 2391 0 
L 1784 0 
z
" transform="scale(0.015625)"/>
       <path id="ArialMT-77" d="M 1034 0 
L 19 3319 
L 600 3319 
L 1128 1403 
L 1325 691 
Q 1338 744 1497 1375 
L 2025 3319 
L 2603 3319 
L 3100 1394 
L 3266 759 
L 3456 1400 
L 4025 3319 
L 4572 3319 
L 3534 0 
L 2950 0 
L 2422 1988 
L 2294 2553 
L 1622 0 
L 1034 0 
z
" transform="scale(0.015625)"/>
      </defs>
      <use xlink:href="#ArialMT-59"/>
      <use xlink:href="#ArialMT-61" x="59.324219"/>
      <use xlink:href="#ArialMT-77" x="114.939453"/>
     </g>
    </g>
   </g>
  </g>
 </g>
 <defs>
  <clipPath id="p2c62e26ede">
   <rect x="84.3625" y="12.210469" width="167.4" height="77.35814"/>
  </clipPath>
  <clipPath id="p616d13cc0f">
   <rect x="84.3625" y="101.172329" width="167.4" height="77.35814"/>
  </clipPath>
 </defs>
</svg>
