<?xml version="1.0" encoding="utf-8" standalone="no"?>
<!DOCTYPE svg PUBLIC "-//W3C//DTD SVG 1.1//EN"
  "http://www.w3.org/Graphics/SVG/1.1/DTD/svg11.dtd">
<svg xmlns:xlink="http://www.w3.org/1999/xlink" width="414.597656pt" height="388.992031pt" viewBox="0 0 414.597656 388.992031" xmlns="http://www.w3.org/2000/svg" version="1.1">
 <metadata>
  <rdf:RDF xmlns:dc="http://purl.org/dc/elements/1.1/" xmlns:cc="http://creativecommons.org/ns#" xmlns:rdf="http://www.w3.org/1999/02/22-rdf-syntax-ns#">
   <cc:Work>
    <dc:type rdf:resource="http://purl.org/dc/dcmitype/StillImage"/>
    <dc:date>2024-08-12T19:56:14.098325</dc:date>
    <dc:format>image/svg+xml</dc:format>
    <dc:creator>
     <cc:Agent>
      <dc:title>Matplotlib v3.7.1, https://matplotlib.org/</dc:title>
     </cc:Agent>
    </dc:creator>
   </cc:Work>
  </rdf:RDF>
 </metadata>
 <defs>
  <style type="text/css">*{stroke-linejoin: round; stroke-linecap: butt}</style>
 </defs>
 <g id="figure_1">
  <g id="patch_1">
   <path d="M 0 388.992031 
L 414.597656 388.992031 
L 414.597656 0 
L 0 0 
z
" style="fill: #ffffff"/>
  </g>
  <g id="axes_1">
   <g id="patch_2">
    <path d="M 58.975 170.610469 
L 393.775 170.610469 
L 393.775 12.210469 
L 58.975 12.210469 
z
" style="fill: #ffffff"/>
   </g>
   <g id="matplotlib.axis_1">
    <g id="xtick_1">
     <g id="line2d_1">
      <defs>
       <path id="mf751f659c9" d="M 0 0 
L 0 3.5 
" style="stroke: #000000; stroke-width: 0.8"/>
      </defs>
      <g>
       <use xlink:href="#mf751f659c9" x="58.975" y="170.610469" style="stroke: #000000; stroke-width: 0.8"/>
      </g>
     </g>
    </g>
    <g id="xtick_2">
     <g id="line2d_2">
      <g>
       <use xlink:href="#mf751f659c9" x="226.375" y="170.610469" style="stroke: #000000; stroke-width: 0.8"/>
      </g>
     </g>
    </g>
    <g id="xtick_3">
     <g id="line2d_3">
      <g>
       <use xlink:href="#mf751f659c9" x="393.775" y="170.610469" style="stroke: #000000; stroke-width: 0.8"/>
      </g>
     </g>
    </g>
   </g>
   <g id="matplotlib.axis_2">
    <g id="ytick_1">
     <g id="line2d_4">
      <defs>
       <path id="ma508dcb545" d="M 0 0 
L -3.5 0 
" style="stroke: #000000; stroke-width: 0.8"/>
      </defs>
      <g>
       <use xlink:href="#ma508dcb545" x="58.975" y="170.610469" style="stroke: #000000; stroke-width: 0.8"/>
      </g>
     </g>
     <g id="text_1">
      <!-- −0.2 -->
      <g transform="translate(24.338125 175.620937) scale(0.14 -0.14)">
       <defs>
        <path id="ArialMT-2212" d="M 3381 1997 
L 356 1997 
L 356 2522 
L 3381 2522 
L 3381 1997 
z
" transform="scale(0.015625)"/>
        <path id="ArialMT-30" d="M 266 2259 
Q 266 3072 433 3567 
Q 600 4063 929 4331 
Q 1259 4600 1759 4600 
Q 2128 4600 2406 4451 
Q 2684 4303 2865 4023 
Q 3047 3744 3150 3342 
Q 3253 2941 3253 2259 
Q 3253 1453 3087 958 
Q 2922 463 2592 192 
Q 2263 -78 1759 -78 
Q 1097 -78 719 397 
Q 266 969 266 2259 
z
M 844 2259 
Q 844 1131 1108 757 
Q 1372 384 1759 384 
Q 2147 384 2411 759 
Q 2675 1134 2675 2259 
Q 2675 3391 2411 3762 
Q 2147 4134 1753 4134 
Q 1366 4134 1134 3806 
Q 844 3388 844 2259 
z
" transform="scale(0.015625)"/>
        <path id="ArialMT-2e" d="M 581 0 
L 581 641 
L 1222 641 
L 1222 0 
L 581 0 
z
" transform="scale(0.015625)"/>
        <path id="ArialMT-32" d="M 3222 541 
L 3222 0 
L 194 0 
Q 188 203 259 391 
Q 375 700 629 1000 
Q 884 1300 1366 1694 
Q 2113 2306 2375 2664 
Q 2638 3022 2638 3341 
Q 2638 3675 2398 3904 
Q 2159 4134 1775 4134 
Q 1369 4134 1125 3890 
Q 881 3647 878 3216 
L 300 3275 
Q 359 3922 746 4261 
Q 1134 4600 1788 4600 
Q 2447 4600 2831 4234 
Q 3216 3869 3216 3328 
Q 3216 3053 3103 2787 
Q 2991 2522 2730 2228 
Q 2469 1934 1863 1422 
Q 1356 997 1212 845 
Q 1069 694 975 541 
L 3222 541 
z
" transform="scale(0.015625)"/>
       </defs>
       <use xlink:href="#ArialMT-2212"/>
       <use xlink:href="#ArialMT-30" x="58.398438"/>
       <use xlink:href="#ArialMT-2e" x="114.013672"/>
       <use xlink:href="#ArialMT-32" x="141.796875"/>
      </g>
     </g>
    </g>
    <g id="ytick_2">
     <g id="line2d_5">
      <g>
       <use xlink:href="#ma508dcb545" x="58.975" y="91.410469" style="stroke: #000000; stroke-width: 0.8"/>
      </g>
     </g>
     <g id="text_2">
      <!-- 0.0 -->
      <g transform="translate(32.515 96.420937) scale(0.14 -0.14)">
       <use xlink:href="#ArialMT-30"/>
       <use xlink:href="#ArialMT-2e" x="55.615234"/>
       <use xlink:href="#ArialMT-30" x="83.398438"/>
      </g>
     </g>
    </g>
    <g id="ytick_3">
     <g id="line2d_6">
      <g>
       <use xlink:href="#ma508dcb545" x="58.975" y="12.210469" style="stroke: #000000; stroke-width: 0.8"/>
      </g>
     </g>
     <g id="text_3">
      <!-- 0.2 -->
      <g transform="translate(32.515 17.220937) scale(0.14 -0.14)">
       <use xlink:href="#ArialMT-30"/>
       <use xlink:href="#ArialMT-2e" x="55.615234"/>
       <use xlink:href="#ArialMT-32" x="83.398438"/>
      </g>
     </g>
    </g>
    <g id="text_4">
     <!-- Photovoltage (V) -->
     <g transform="translate(17.391562 143.548437) rotate(-90) scale(0.14 -0.14)">
      <defs>
       <path id="ArialMT-50" d="M 494 0 
L 494 4581 
L 2222 4581 
Q 2678 4581 2919 4538 
Q 3256 4481 3484 4323 
Q 3713 4166 3852 3881 
Q 3991 3597 3991 3256 
Q 3991 2672 3619 2267 
Q 3247 1863 2275 1863 
L 1100 1863 
L 1100 0 
L 494 0 
z
M 1100 2403 
L 2284 2403 
Q 2872 2403 3119 2622 
Q 3366 2841 3366 3238 
Q 3366 3525 3220 3729 
Q 3075 3934 2838 4000 
Q 2684 4041 2272 4041 
L 1100 4041 
L 1100 2403 
z
" transform="scale(0.015625)"/>
       <path id="ArialMT-68" d="M 422 0 
L 422 4581 
L 984 4581 
L 984 2938 
Q 1378 3394 1978 3394 
Q 2347 3394 2619 3248 
Q 2891 3103 3008 2847 
Q 3125 2591 3125 2103 
L 3125 0 
L 2563 0 
L 2563 2103 
Q 2563 2525 2380 2717 
Q 2197 2909 1863 2909 
Q 1613 2909 1392 2779 
Q 1172 2650 1078 2428 
Q 984 2206 984 1816 
L 984 0 
L 422 0 
z
" transform="scale(0.015625)"/>
       <path id="ArialMT-6f" d="M 213 1659 
Q 213 2581 725 3025 
Q 1153 3394 1769 3394 
Q 2453 3394 2887 2945 
Q 3322 2497 3322 1706 
Q 3322 1066 3130 698 
Q 2938 331 2570 128 
Q 2203 -75 1769 -75 
Q 1072 -75 642 372 
Q 213 819 213 1659 
z
M 791 1659 
Q 791 1022 1069 705 
Q 1347 388 1769 388 
Q 2188 388 2466 706 
Q 2744 1025 2744 1678 
Q 2744 2294 2464 2611 
Q 2184 2928 1769 2928 
Q 1347 2928 1069 2612 
Q 791 2297 791 1659 
z
" transform="scale(0.015625)"/>
       <path id="ArialMT-74" d="M 1650 503 
L 1731 6 
Q 1494 -44 1306 -44 
Q 1000 -44 831 53 
Q 663 150 594 308 
Q 525 466 525 972 
L 525 2881 
L 113 2881 
L 113 3319 
L 525 3319 
L 525 4141 
L 1084 4478 
L 1084 3319 
L 1650 3319 
L 1650 2881 
L 1084 2881 
L 1084 941 
Q 1084 700 1114 631 
Q 1144 563 1211 522 
Q 1278 481 1403 481 
Q 1497 481 1650 503 
z
" transform="scale(0.015625)"/>
       <path id="ArialMT-76" d="M 1344 0 
L 81 3319 
L 675 3319 
L 1388 1331 
Q 1503 1009 1600 663 
Q 1675 925 1809 1294 
L 2547 3319 
L 3125 3319 
L 1869 0 
L 1344 0 
z
" transform="scale(0.015625)"/>
       <path id="ArialMT-6c" d="M 409 0 
L 409 4581 
L 972 4581 
L 972 0 
L 409 0 
z
" transform="scale(0.015625)"/>
       <path id="ArialMT-61" d="M 2588 409 
Q 2275 144 1986 34 
Q 1697 -75 1366 -75 
Q 819 -75 525 192 
Q 231 459 231 875 
Q 231 1119 342 1320 
Q 453 1522 633 1644 
Q 813 1766 1038 1828 
Q 1203 1872 1538 1913 
Q 2219 1994 2541 2106 
Q 2544 2222 2544 2253 
Q 2544 2597 2384 2738 
Q 2169 2928 1744 2928 
Q 1347 2928 1158 2789 
Q 969 2650 878 2297 
L 328 2372 
Q 403 2725 575 2942 
Q 747 3159 1072 3276 
Q 1397 3394 1825 3394 
Q 2250 3394 2515 3294 
Q 2781 3194 2906 3042 
Q 3031 2891 3081 2659 
Q 3109 2516 3109 2141 
L 3109 1391 
Q 3109 606 3145 398 
Q 3181 191 3288 0 
L 2700 0 
Q 2613 175 2588 409 
z
M 2541 1666 
Q 2234 1541 1622 1453 
Q 1275 1403 1131 1340 
Q 988 1278 909 1158 
Q 831 1038 831 891 
Q 831 666 1001 516 
Q 1172 366 1500 366 
Q 1825 366 2078 508 
Q 2331 650 2450 897 
Q 2541 1088 2541 1459 
L 2541 1666 
z
" transform="scale(0.015625)"/>
       <path id="ArialMT-67" d="M 319 -275 
L 866 -356 
Q 900 -609 1056 -725 
Q 1266 -881 1628 -881 
Q 2019 -881 2231 -725 
Q 2444 -569 2519 -288 
Q 2563 -116 2559 434 
Q 2191 0 1641 0 
Q 956 0 581 494 
Q 206 988 206 1678 
Q 206 2153 378 2554 
Q 550 2956 876 3175 
Q 1203 3394 1644 3394 
Q 2231 3394 2613 2919 
L 2613 3319 
L 3131 3319 
L 3131 450 
Q 3131 -325 2973 -648 
Q 2816 -972 2473 -1159 
Q 2131 -1347 1631 -1347 
Q 1038 -1347 672 -1080 
Q 306 -813 319 -275 
z
M 784 1719 
Q 784 1066 1043 766 
Q 1303 466 1694 466 
Q 2081 466 2343 764 
Q 2606 1063 2606 1700 
Q 2606 2309 2336 2618 
Q 2066 2928 1684 2928 
Q 1309 2928 1046 2623 
Q 784 2319 784 1719 
z
" transform="scale(0.015625)"/>
       <path id="ArialMT-65" d="M 2694 1069 
L 3275 997 
Q 3138 488 2766 206 
Q 2394 -75 1816 -75 
Q 1088 -75 661 373 
Q 234 822 234 1631 
Q 234 2469 665 2931 
Q 1097 3394 1784 3394 
Q 2450 3394 2872 2941 
Q 3294 2488 3294 1666 
Q 3294 1616 3291 1516 
L 816 1516 
Q 847 969 1125 678 
Q 1403 388 1819 388 
Q 2128 388 2347 550 
Q 2566 713 2694 1069 
z
M 847 1978 
L 2700 1978 
Q 2663 2397 2488 2606 
Q 2219 2931 1791 2931 
Q 1403 2931 1139 2672 
Q 875 2413 847 1978 
z
" transform="scale(0.015625)"/>
       <path id="ArialMT-20" transform="scale(0.015625)"/>
       <path id="ArialMT-28" d="M 1497 -1347 
Q 1031 -759 709 28 
Q 388 816 388 1659 
Q 388 2403 628 3084 
Q 909 3875 1497 4659 
L 1900 4659 
Q 1522 4009 1400 3731 
Q 1209 3300 1100 2831 
Q 966 2247 966 1656 
Q 966 153 1900 -1347 
L 1497 -1347 
z
" transform="scale(0.015625)"/>
       <path id="ArialMT-56" d="M 1803 0 
L 28 4581 
L 684 4581 
L 1875 1253 
Q 2019 853 2116 503 
Q 2222 878 2363 1253 
L 3600 4581 
L 4219 4581 
L 2425 0 
L 1803 0 
z
" transform="scale(0.015625)"/>
       <path id="ArialMT-29" d="M 791 -1347 
L 388 -1347 
Q 1322 153 1322 1656 
Q 1322 2244 1188 2822 
Q 1081 3291 891 3722 
Q 769 4003 388 4659 
L 791 4659 
Q 1378 3875 1659 3084 
Q 1900 2403 1900 1659 
Q 1900 816 1576 28 
Q 1253 -759 791 -1347 
z
" transform="scale(0.015625)"/>
      </defs>
      <use xlink:href="#ArialMT-50"/>
      <use xlink:href="#ArialMT-68" x="66.699219"/>
      <use xlink:href="#ArialMT-6f" x="122.314453"/>
      <use xlink:href="#ArialMT-74" x="177.929688"/>
      <use xlink:href="#ArialMT-6f" x="205.712891"/>
      <use xlink:href="#ArialMT-76" x="261.328125"/>
      <use xlink:href="#ArialMT-6f" x="311.328125"/>
      <use xlink:href="#ArialMT-6c" x="366.943359"/>
      <use xlink:href="#ArialMT-74" x="389.160156"/>
      <use xlink:href="#ArialMT-61" x="416.943359"/>
      <use xlink:href="#ArialMT-67" x="472.558594"/>
      <use xlink:href="#ArialMT-65" x="528.173828"/>
      <use xlink:href="#ArialMT-20" x="583.789062"/>
      <use xlink:href="#ArialMT-28" x="611.572266"/>
      <use xlink:href="#ArialMT-56" x="644.873047"/>
      <use xlink:href="#ArialMT-29" x="711.572266"/>
     </g>
    </g>
   </g>
   <g id="line2d_7">
    <path d="M 58.9471 94.029851 
L 61.4302 92.830987 
L 63.4669 92.055771 
L 65.6431 91.195726 
L 69.4096 89.592431 
L 70.8883 89.222663 
L 71.8927 89.200098 
L 78.0028 89.62099 
L 79.0351 89.354585 
L 79.9 88.908114 
L 80.7928 88.183751 
L 82.2994 86.593819 
L 83.5828 85.397089 
L 84.5872 84.751626 
L 85.5358 84.398428 
L 86.5123 84.27481 
L 87.712 84.357998 
L 88.8838 84.647916 
L 89.8882 85.126137 
L 90.8368 85.835274 
L 91.7575 86.80596 
L 92.7619 88.206285 
L 93.9058 90.206017 
L 94.966 92.503411 
L 97.198 97.657582 
L 97.5607 97.885438 
L 97.8397 97.828517 
L 98.1745 97.495104 
L 98.6209 96.668668 
L 99.5137 94.386283 
L 100.4065 92.367829 
L 101.2156 91.081979 
L 102.2479 89.864162 
L 103.0849 89.166418 
L 103.6708 88.945299 
L 104.1172 88.999269 
L 104.5636 89.277594 
L 105.1774 89.966026 
L 106.126 91.022807 
L 106.5166 91.150804 
L 106.8793 91.026828 
L 107.2978 90.610379 
L 107.9395 89.594614 
L 109.3903 87.242711 
L 110.2831 86.264856 
L 111.0922 85.688598 
L 111.7339 85.491462 
L 112.264 85.561981 
L 112.7383 85.850208 
L 113.2405 86.434035 
L 113.7706 87.409358 
L 114.3844 89.027393 
L 115.2493 92.02061 
L 116.6722 96.929537 
L 117.3697 98.540207 
L 117.9556 99.393855 
L 118.4857 99.817874 
L 119.0158 99.962722 
L 119.5459 99.876632 
L 120.1318 99.546087 
L 120.7177 98.942127 
L 121.2757 98.033049 
L 121.9174 96.520719 
L 124.1494 90.738975 
L 124.6237 90.276941 
L 125.0422 90.161769 
L 125.4607 90.286434 
L 125.935 90.673195 
L 126.5209 91.456268 
L 127.2184 92.77931 
L 128.0554 94.870695 
L 130.1479 100.39937 
L 130.5943 100.88366 
L 130.9012 100.9418 
L 131.2081 100.765786 
L 131.5708 100.275007 
L 132.1009 99.133007 
L 133.5238 95.865346 
L 133.9423 95.444733 
L 134.2771 95.389597 
L 134.584 95.573848 
L 134.9467 96.091202 
L 135.3931 97.180464 
L 135.9511 99.206941 
L 137.5135 105.333742 
L 137.7367 105.459199 
L 137.9041 105.299016 
L 138.1273 104.710837 
L 138.4342 103.171893 
L 138.8527 99.790526 
L 139.5781 91.663679 
L 140.5546 81.283216 
L 141.1126 77.52851 
L 141.5869 75.692465 
L 141.9775 74.964009 
L 142.2565 74.819186 
L 142.5076 74.944202 
L 142.7866 75.374759 
L 143.1214 76.328709 
L 143.5399 78.261364 
L 144.0421 81.726909 
L 144.7396 88.340532 
L 146.4973 105.844374 
L 146.9716 108.30528 
L 147.2785 108.926701 
L 147.4459 108.900231 
L 147.6412 108.526882 
L 147.9202 107.350269 
L 148.3108 104.519084 
L 148.9246 98.110884 
L 149.8732 88.476032 
L 150.2917 86.201429 
L 150.5707 85.628218 
L 150.7381 85.641077 
L 150.9334 85.96735 
L 151.2403 87.059591 
L 151.7425 89.881031 
L 152.998 97.218467 
L 153.5281 98.994114 
L 154.0024 99.870572 
L 154.4488 100.254365 
L 154.9231 100.371251 
L 155.6206 100.283854 
L 156.6529 100.169526 
L 157.2109 100.337418 
L 157.7689 100.741391 
L 158.4385 101.522561 
L 159.3592 102.976994 
L 161.5354 106.549917 
L 161.9539 106.801252 
L 162.2608 106.74277 
L 162.5677 106.415612 
L 162.9025 105.69221 
L 163.321 104.183677 
L 163.8511 101.300856 
L 164.6323 95.563772 
L 166.0273 85.266498 
L 166.669 82.11146 
L 167.227 80.374401 
L 167.7292 79.479722 
L 168.2035 79.062654 
L 168.7057 78.920242 
L 169.3474 78.986542 
L 170.7982 79.435205 
L 173.1976 80.342096 
L 175.0111 81.29925 
L 176.3503 82.251112 
L 178.2196 83.923603 
L 179.6425 85.046444 
L 180.8422 85.707466 
L 182.3767 86.27275 
L 187.6498 88.073935 
L 194.29 90.489269 
L 196.7452 91.154167 
L 203.6644 92.496518 
L 206.1475 92.796844 
L 209.356 93.369093 
L 211.588 93.420537 
L 216.7495 93.312511 
L 220.3486 92.912843 
L 222.7201 92.59814 
L 225.9286 91.888169 
L 234.3544 89.96214 
L 236.5027 89.224725 
L 243.673 86.226163 
L 246.4072 85.071495 
L 249.7552 83.760023 
L 252.2383 82.578249 
L 255.4189 81.406809 
L 256.4512 80.689383 
L 258.1531 79.430369 
L 258.5158 79.474639 
L 258.8227 79.735556 
L 259.1575 80.331362 
L 259.5481 81.535353 
L 259.9945 83.691233 
L 260.5525 87.601201 
L 261.3616 95.106809 
L 262.645 106.837074 
L 263.2867 110.720787 
L 263.9563 113.425561 
L 266.5789 121.961175 
L 266.9416 122.40764 
L 267.1648 122.404777 
L 267.388 122.156634 
L 267.667 121.468647 
L 268.0297 119.904326 
L 268.4761 116.916506 
L 269.062 111.345313 
L 269.9827 100.031393 
L 271.2382 85.034137 
L 271.8799 79.815163 
L 272.41 77.114206 
L 272.8564 75.845593 
L 273.247 75.333194 
L 273.5818 75.224593 
L 273.9445 75.348172 
L 274.4746 75.801687 
L 276.0091 77.577161 
L 277.0693 78.56577 
L 277.9063 79.053621 
L 278.6317 79.230228 
L 279.3571 79.175412 
L 280.2499 78.863052 
L 282.7051 77.893204 
L 283.8211 77.418092 
L 284.7139 76.765319 
L 285.6067 76.173542 
L 285.9973 76.172241 
L 286.3321 76.413413 
L 286.6948 77.005456 
L 287.1133 78.194686 
L 287.6155 80.396474 
L 288.2572 84.356332 
L 290.6287 100.3133 
L 291.0472 101.397131 
L 291.3541 101.693505 
L 291.6052 101.64932 
L 291.8842 101.342011 
L 292.3027 100.502174 
L 294.0604 96.517485 
L 294.5626 96.064632 
L 295.1485 95.854417 
L 296.3482 95.505457 
L 297.0736 94.982916 
L 298.8034 93.633655 
L 299.4451 93.458476 
L 300.0589 93.515148 
L 300.6727 93.793138 
L 301.3144 94.330152 
L 302.0398 95.249951 
L 302.9326 96.781066 
L 306.2527 102.873778 
L 307.0618 103.767024 
L 307.7314 104.189923 
L 308.3173 104.311323 
L 308.9032 104.206543 
L 309.4891 103.875514 
L 310.1029 103.265279 
L 310.7446 102.293866 
L 311.4142 100.854121 
L 312.1675 98.660359 
L 313.3114 94.484946 
L 314.2042 91.595142 
L 314.7064 90.644622 
L 315.0691 90.381655 
L 315.3481 90.433774 
L 315.655 90.733782 
L 316.0735 91.49298 
L 316.771 93.322514 
L 317.887 96.196836 
L 318.4171 97.002809 
L 318.8077 97.260163 
L 319.1425 97.239637 
L 319.5052 96.972451 
L 319.9516 96.332683 
L 320.6212 94.926369 
L 321.8767 92.262247 
L 322.4068 91.646302 
L 322.7974 91.492777 
L 323.1322 91.581354 
L 323.4949 91.911897 
L 323.9413 92.649132 
L 324.4993 94.051052 
L 325.2247 96.545466 
L 326.4244 101.633763 
L 327.5404 106.003304 
L 328.1542 107.589209 
L 328.6285 108.285453 
L 329.047 108.548943 
L 329.4655 108.557895 
L 329.9956 108.331067 
L 330.7768 107.728014 
L 331.558 106.843085 
L 332.2555 105.701476 
L 333.0367 103.969179 
L 335.6035 97.858374 
L 336.1894 97.185673 
L 336.7195 96.891118 
L 337.2775 96.83826 
L 338.0308 97.014785 
L 339.1468 97.502522 
L 339.7606 98.009548 
L 340.5976 99.072351 
L 341.0719 99.486158 
L 341.323 99.469986 
L 341.5741 99.209198 
L 341.881 98.500457 
L 342.2995 96.846299 
L 343.8898 89.676693 
L 344.1409 89.473609 
L 344.3362 89.56032 
L 344.5873 89.948357 
L 345.0058 91.103846 
L 346.7077 96.355655 
L 347.3494 97.409204 
L 348.019 98.087561 
L 348.7444 98.501507 
L 349.7209 98.766806 
L 350.7532 99.09732 
L 351.4228 99.559107 
L 352.1482 100.353404 
L 353.6269 102.088873 
L 353.9617 102.143825 
L 354.2407 101.973137 
L 354.5476 101.50302 
L 354.9103 100.507682 
L 355.3567 98.582797 
L 355.9426 94.974115 
L 358.3978 78.380499 
L 358.9558 76.574896 
L 359.4859 75.553665 
L 359.9881 75.04195 
L 360.4903 74.841435 
L 361.0483 74.868707 
L 361.7737 75.149541 
L 363.085 75.950287 
L 365.596 77.455988 
L 367.549 78.671609 
L 368.9719 79.835721 
L 372.8221 83.223967 
L 374.3845 84.060153 
L 376.7281 85.044318 
L 380.6341 86.655889 
L 385.7119 88.762932 
L 390.2875 90.47842 
L 393.775 91.530443 
L 393.775 91.530443 
" clip-path="url(#p9eda34530a)" style="fill: none; stroke: #e84a4e; stroke-width: 1.5; stroke-linecap: square"/>
   </g>
   <g id="line2d_8">
    <path d="M 58.9471 96.193616 
L 62.2672 95.980203 
L 64.6666 95.671319 
L 67.1776 95.069158 
L 69.9118 94.269627 
L 75.4081 92.353611 
L 80.0116 91.135376 
L 83.0248 90.657328 
L 88.4932 89.96856 
L 90.502 90.19404 
L 93.9616 90.546616 
L 97.6723 90.749349 
L 99.8485 90.613121 
L 101.1319 90.31568 
L 103.2244 89.783061 
L 104.3962 89.777045 
L 106.5724 89.83426 
L 107.2978 89.564344 
L 107.9953 89.057398 
L 108.8044 88.17106 
L 111.2317 85.264408 
L 111.8455 84.985199 
L 112.4872 84.944844 
L 113.4916 85.153192 
L 114.5797 85.298637 
L 115.4725 85.177565 
L 118.123 84.635366 
L 118.8763 84.805845 
L 119.5738 85.192886 
L 120.2713 85.845989 
L 120.9967 86.840774 
L 121.8895 88.471866 
L 124.0657 92.634189 
L 124.7353 93.374664 
L 125.3212 93.717296 
L 125.9071 93.80959 
L 126.6046 93.68127 
L 127.6648 93.223862 
L 129.3109 92.262245 
L 130.399 91.39298 
L 131.3476 90.340398 
L 133.3843 87.929675 
L 133.9981 87.616109 
L 134.6677 87.538194 
L 136.258 87.480929 
L 136.8718 87.148087 
L 137.5972 86.470256 
L 139.4944 84.540489 
L 140.0803 84.321141 
L 140.6104 84.350389 
L 141.1684 84.603493 
L 141.8101 85.147132 
L 142.6192 86.148748 
L 144.4327 88.517594 
L 144.9907 88.835497 
L 145.465 88.861091 
L 145.9672 88.65268 
L 146.581 88.131153 
L 147.8923 86.608401 
L 148.6735 85.903616 
L 149.2315 85.673129 
L 149.7058 85.717781 
L 150.1522 85.998895 
L 150.6265 86.584733 
L 151.1566 87.616768 
L 151.7983 89.383801 
L 152.8585 93.098611 
L 153.8629 96.334349 
L 154.4767 97.635802 
L 155.0068 98.278933 
L 155.5648 98.601108 
L 156.6808 99.134313 
L 157.1551 99.717651 
L 157.6573 100.72789 
L 158.299 102.578225 
L 159.9451 107.616736 
L 160.3636 108.191097 
L 160.6705 108.307475 
L 160.9495 108.187243 
L 161.2843 107.782374 
L 161.7865 106.761818 
L 163.5163 102.892256 
L 164.2417 102.055762 
L 164.995 101.125527 
L 165.5809 99.976292 
L 166.4179 97.740015 
L 167.5339 94.888785 
L 168.2035 93.762747 
L 168.8173 93.137627 
L 169.4869 92.773481 
L 170.4634 92.530409 
L 173.4487 92.090482 
L 174.2578 92.278388 
L 175.2622 92.76975 
L 176.6572 93.439122 
L 177.3547 93.523323 
L 178.0243 93.374335 
L 178.8055 92.951364 
L 181.7629 91.095771 
L 183.1021 90.719126 
L 185.5852 90.290242 
L 187.7335 90.121472 
L 190.105 90.182365 
L 192.616 90.194801 
L 195.4618 90.207746 
L 197.9449 90.41731 
L 200.3164 90.916471 
L 202.1299 91.165399 
L 204.4456 91.221896 
L 207.6541 91.332614 
L 209.5513 91.674758 
L 211.3648 91.938146 
L 212.6203 91.887927 
L 214.3222 91.566869 
L 217.5307 90.957634 
L 219.8185 90.790557 
L 222.1342 90.843143 
L 225.5938 91.170448 
L 232.0666 91.773979 
L 243.8683 91.766613 
L 247.2721 91.82418 
L 250.7875 91.965307 
L 252.9358 91.757109 
L 256.0606 91.229594 
L 257.344 90.768124 
L 258.8506 89.96925 
L 260.8594 88.639443 
L 262.8682 87.346144 
L 263.8447 86.992704 
L 264.7933 86.892789 
L 266.0209 87.012932 
L 267.3601 87.342958 
L 268.1413 87.758322 
L 268.9504 88.463583 
L 271.0429 90.460126 
L 271.5451 90.566878 
L 271.9915 90.437591 
L 272.4658 90.059948 
L 273.0796 89.260282 
L 274.921 86.644715 
L 275.4511 86.351675 
L 275.9533 86.329027 
L 276.5392 86.543064 
L 279.0781 87.756159 
L 279.943 87.736138 
L 282.175 87.549437 
L 282.9004 87.775882 
L 283.5421 88.212684 
L 284.1559 88.920594 
L 284.7976 90.026023 
L 285.6625 92.023515 
L 287.0854 95.306697 
L 287.755 96.292237 
L 288.3688 96.811998 
L 289.0105 97.062494 
L 289.9033 97.146892 
L 291.4378 97.041883 
L 292.9165 96.728283 
L 294.2278 96.224406 
L 297.6316 94.738637 
L 299.1661 94.511378 
L 301.3423 94.170795 
L 303.5185 93.524371 
L 307.1455 92.521607 
L 309.517 91.821021 
L 310.8283 91.187154 
L 314.3995 89.241185 
L 315.4318 89.129633 
L 320.8165 88.897671 
L 322.3789 88.556104 
L 323.467 88.086732 
L 324.6109 87.333896 
L 327.1777 85.543144 
L 328.0426 85.26245 
L 328.8796 85.223241 
L 329.9677 85.419181 
L 332.3113 85.877215 
L 333.2599 86.164023 
L 334.0132 86.630765 
L 334.9339 87.498869 
L 336.3847 88.878492 
L 337.0264 89.172798 
L 337.6123 89.193748 
L 338.2819 88.975051 
L 339.7327 88.412011 
L 340.1791 88.519597 
L 340.5697 88.845145 
L 340.9882 89.498348 
L 341.4904 90.753039 
L 342.1321 93.053166 
L 343.834 99.547359 
L 344.3362 100.514157 
L 344.7547 100.898336 
L 345.1732 100.986598 
L 345.6754 100.847566 
L 348.1585 99.853098 
L 349.135 99.897102 
L 350.5021 99.95255 
L 351.4786 99.728084 
L 352.6504 99.483246 
L 353.2642 99.589989 
L 353.878 99.938717 
L 355.3009 100.885704 
L 355.6357 100.793051 
L 355.9705 100.462165 
L 356.389 99.694197 
L 356.9749 98.077679 
L 358.5094 93.608026 
L 359.0953 92.624287 
L 359.6533 92.088272 
L 360.2671 91.812731 
L 361.0762 91.72176 
L 363.8104 91.586901 
L 369.3625 90.423112 
L 371.3155 89.894515 
L 372.7105 89.799721 
L 376.5328 89.864553 
L 379.1554 90.10519 
L 381.22 90.540184 
L 386.2978 91.636784 
L 388.6693 91.954297 
L 391.1803 92.096823 
L 393.1612 91.980365 
L 393.775 91.908286 
L 393.775 91.908286 
" clip-path="url(#p9eda34530a)" style="fill: none; stroke: #51546b; stroke-width: 1.5; stroke-linecap: square"/>
   </g>
   <g id="line2d_9">
    <path d="M 58.9471 94.438526 
L 63.6064 93.259887 
L 69.856 91.804191 
L 71.6974 91.660287 
L 73.0087 91.769857 
L 74.32 92.109886 
L 77.6401 93.087803 
L 81.7972 93.835085 
L 84.6151 94.134748 
L 86.3449 94.057757 
L 91.7296 93.657346 
L 93.4873 93.760435 
L 96.1936 94.00718 
L 97.5886 93.805938 
L 103.7545 92.694308 
L 105.01 92.952126 
L 105.9865 93.072264 
L 106.5445 92.92838 
L 107.0746 92.547908 
L 107.6326 91.851895 
L 108.4138 90.462503 
L 109.9204 87.733814 
L 110.6458 86.898629 
L 111.3712 86.385819 
L 112.2082 86.065473 
L 113.3521 85.882949 
L 115.5004 85.803354 
L 117.2023 85.927475 
L 118.5973 86.270314 
L 120.076 86.591485 
L 121.2199 86.572835 
L 122.4475 86.59613 
L 123.2566 86.847621 
L 124.4563 87.499348 
L 125.7118 88.093066 
L 127.5532 88.846773 
L 128.1391 89.435841 
L 128.725 90.360692 
L 129.4504 91.974046 
L 132.1288 98.469044 
L 132.6589 98.999477 
L 133.1332 99.171107 
L 133.6354 99.109274 
L 134.4166 98.748461 
L 135.6163 97.956181 
L 136.2859 97.241077 
L 136.9555 96.182082 
L 138.0994 93.848863 
L 139.0201 92.200999 
L 139.6897 91.425498 
L 140.3314 91.016272 
L 141.0568 90.831611 
L 142.1449 90.818515 
L 143.9026 90.786896 
L 144.8233 90.52845 
L 145.8277 89.998049 
L 147.6691 88.976475 
L 148.4224 88.851 
L 149.1757 88.957913 
L 150.2359 89.3637 
L 152.0773 90.060374 
L 153.8071 90.412785 
L 155.4532 90.565972 
L 156.7087 90.441874 
L 158.9965 90.154262 
L 159.9172 90.316117 
L 160.8658 90.722751 
L 161.9539 91.448947 
L 164.716 93.47211 
L 165.274 93.48075 
L 165.832 93.259485 
L 166.5853 92.692071 
L 168.2593 91.36832 
L 169.1242 91.014904 
L 170.2123 90.826834 
L 172.4443 90.724447 
L 177.1036 90.665852 
L 180.3121 91.186933 
L 183.6322 91.144145 
L 186.199 91.258822 
L 190.0213 91.618025 
L 193.2019 91.339197 
L 195.685 91.308297 
L 202.939 91.240011 
L 206.0917 91.264941 
L 207.9889 91.561974 
L 209.7466 91.750102 
L 212.5645 91.739714 
L 224.3383 91.541304 
L 225.9565 91.600957 
L 230.5042 92.03004 
L 233.7685 91.98673 
L 236.8096 92.010702 
L 240.2413 91.954044 
L 242.836 91.880768 
L 245.2354 91.83768 
L 249.1972 91.985064 
L 255.8932 91.09821 
L 262.1428 89.614571 
L 263.5657 89.462044 
L 265.0165 89.547098 
L 266.272 89.813483 
L 267.1927 90.24587 
L 269.5642 91.541531 
L 270.2338 91.52876 
L 271.0429 91.26588 
L 272.9122 90.573434 
L 273.6934 90.571675 
L 274.4467 90.794298 
L 275.2837 91.287926 
L 276.316 92.180072 
L 278.4364 94.0827 
L 279.1897 94.426625 
L 279.9151 94.521522 
L 280.8079 94.40134 
L 283.8211 93.608727 
L 284.9092 93.098366 
L 286.6948 91.939823 
L 289.8475 90.016764 
L 290.8798 89.606889 
L 291.7726 89.490107 
L 292.8049 89.59371 
L 294.3394 90.003128 
L 296.2366 90.463664 
L 297.4921 90.527593 
L 298.915 90.364212 
L 301.7608 89.965474 
L 307.0339 89.927595 
L 308.5405 90.238649 
L 311.7211 90.978827 
L 312.7813 90.942893 
L 313.8694 90.669501 
L 316.0177 89.823549 
L 317.7754 89.241047 
L 318.724 89.147676 
L 319.561 89.28615 
L 320.5933 89.706137 
L 322.0162 90.264547 
L 322.7974 90.312107 
L 323.6623 90.121434 
L 326.7592 89.22285 
L 328.21 89.156947 
L 329.9956 89.315717 
L 331.8928 89.431358 
L 333.3157 89.275923 
L 337.696 88.612636 
L 338.1424 88.870251 
L 338.5609 89.404855 
L 339.0073 90.388172 
L 339.5374 92.167156 
L 340.2907 95.624316 
L 341.9089 103.243181 
L 342.6622 105.637677 
L 343.3597 107.150185 
L 343.9456 107.949346 
L 344.392 108.230145 
L 344.7268 108.20497 
L 345.0616 107.931194 
L 345.4243 107.307763 
L 345.8707 106.030923 
L 346.4287 103.687053 
L 348.6607 93.360264 
L 349.1908 92.26183 
L 349.693 91.701582 
L 350.2231 91.434623 
L 351.0322 91.314947 
L 352.6225 91.098433 
L 356.4169 90.256708 
L 358.9837 90.387296 
L 360.8809 90.66694 
L 362.527 90.826957 
L 365.9308 90.817232 
L 368.1907 90.804786 
L 369.781 91.08575 
L 371.9293 91.424611 
L 373.6312 91.454263 
L 377.7325 91.422654 
L 379.3507 91.674662 
L 381.4432 91.989652 
L 383.2567 91.988603 
L 387.7207 91.916505 
L 392.4358 91.799539 
L 393.775 91.718988 
L 393.775 91.718988 
" clip-path="url(#p9eda34530a)" style="fill: none; stroke: #616eeb; stroke-width: 1.5; stroke-linecap: square"/>
   </g>
   <g id="line2d_10">
    <path d="M 58.9471 95.831087 
L 62.1835 94.977285 
L 67.2055 93.906045 
L 70.1629 93.127729 
L 72.088 92.925393 
L 73.9294 92.94434 
L 79.4257 93.438287 
L 82.4947 93.774936 
L 84.4756 93.698605 
L 88.4374 93.463385 
L 93.1804 93.68579 
L 95.5798 93.765992 
L 96.6121 93.555958 
L 97.5886 93.121401 
L 100.9645 91.360656 
L 102.9454 90.668921 
L 103.7266 90.655542 
L 104.4241 90.861061 
L 105.1495 91.309514 
L 106.2097 92.271787 
L 107.3536 93.232787 
L 108.0232 93.517003 
L 108.637 93.532446 
L 109.3066 93.309627 
L 111.3712 92.437009 
L 111.9292 92.546249 
L 112.5709 92.91258 
L 114.2449 94.005448 
L 114.6634 93.959611 
L 115.054 93.687451 
L 115.5004 93.06586 
L 116.0305 91.896862 
L 116.8117 89.540714 
L 118.1509 85.507408 
L 118.7926 84.257762 
L 119.3785 83.575627 
L 119.9644 83.234422 
L 120.6061 83.121414 
L 121.3873 83.220461 
L 122.1964 83.545607 
L 123.1171 84.173111 
L 125.2375 85.737859 
L 126.1303 86.028028 
L 127.6927 86.473134 
L 128.2786 86.926742 
L 128.8366 87.647336 
L 129.4504 88.823457 
L 130.2316 90.853275 
L 132.1009 95.921709 
L 132.7147 96.874704 
L 133.2727 97.350068 
L 133.8586 97.559685 
L 134.6398 97.587715 
L 135.3373 97.412917 
L 135.8674 97.042817 
L 136.3696 96.387967 
L 136.9276 95.24866 
L 137.7088 93.069373 
L 138.9643 89.612849 
L 139.5781 88.555104 
L 140.1082 88.046634 
L 140.6383 87.843675 
L 141.2242 87.866201 
L 142.0891 88.154027 
L 144.5722 89.086334 
L 145.5487 89.167817 
L 146.7484 89.011219 
L 148.1434 88.880961 
L 149.3989 89.016127 
L 152.6074 89.696781 
L 155.5927 90.198426 
L 158.2153 90.374196 
L 162.3445 90.692076 
L 163.5163 91.12564 
L 164.995 91.650727 
L 165.7483 91.673416 
L 166.4737 91.46053 
L 167.4223 90.916802 
L 168.8173 90.139019 
L 169.6822 89.928734 
L 170.6308 89.935908 
L 172.0816 90.201589 
L 174.2857 90.586203 
L 176.9641 90.933264 
L 178.0243 91.392387 
L 180.2842 92.45811 
L 181.3444 92.644748 
L 182.8789 92.653708 
L 185.92 92.678787 
L 188.7937 92.873461 
L 191.3047 93.026798 
L 203.1901 92.980626 
L 209.2444 92.895608 
L 211.3369 92.90553 
L 213.6247 92.667236 
L 217.2796 92.302525 
L 225.2032 91.578257 
L 228.1327 91.575904 
L 231.397 91.520656 
L 236.3632 91.341717 
L 244.3984 90.797009 
L 247.2721 90.507885 
L 250.369 90.212148 
L 252.8242 89.720563 
L 255.67 88.986556 
L 257.7904 88.132941 
L 260.7478 86.979099 
L 262.7845 86.44775 
L 264.1237 86.303523 
L 265.1281 86.417447 
L 266.0209 86.740915 
L 266.8579 87.276687 
L 267.7228 88.1084 
L 269.0062 89.725129 
L 269.899 90.683359 
L 270.4849 91.010873 
L 270.9871 91.052757 
L 271.5451 90.868211 
L 272.3821 90.316454 
L 274.0003 89.246701 
L 274.8652 88.941622 
L 275.5627 88.917087 
L 276.2323 89.121966 
L 277.0135 89.618698 
L 278.9386 90.967539 
L 279.5803 91.086552 
L 280.2499 90.981766 
L 281.2822 90.555762 
L 282.9562 89.897269 
L 284.6302 89.261412 
L 285.5509 88.630021 
L 287.3365 87.024695 
L 288.4525 86.223897 
L 289.5685 85.701044 
L 290.6008 85.444294 
L 291.4099 85.45847 
L 292.1911 85.699203 
L 293.4187 86.363641 
L 294.9811 87.115464 
L 295.7902 87.618961 
L 296.3482 88.251129 
L 296.8783 89.205194 
L 297.4921 90.803372 
L 298.4407 94.025222 
L 299.5846 97.708983 
L 300.2542 99.156916 
L 300.8401 99.934967 
L 301.3981 100.333206 
L 302.0398 100.511831 
L 303.0163 100.512686 
L 304.7461 100.524131 
L 306.1132 100.782587 
L 307.4524 101.254834 
L 310.4935 102.457314 
L 311.9443 102.675302 
L 312.9208 102.625921 
L 313.6462 102.372552 
L 314.3158 101.892092 
L 315.0133 101.093044 
L 315.8503 99.757724 
L 318.3892 95.426555 
L 319.0867 94.764971 
L 319.7005 94.469915 
L 320.2864 94.437062 
L 320.9281 94.639215 
L 321.9325 95.236778 
L 322.9648 95.764698 
L 323.5507 95.823526 
L 324.025 95.659525 
L 324.4993 95.254492 
L 325.0294 94.477671 
L 325.6711 93.094607 
L 327.0661 89.330153 
L 327.8752 87.560313 
L 328.5169 86.648316 
L 329.1028 86.173603 
L 329.7445 85.938761 
L 330.6373 85.875314 
L 332.3671 86.011936 
L 333.5389 86.308054 
L 334.7665 86.872856 
L 336.2731 87.545302 
L 337.0543 87.632116 
L 338.6446 87.682556 
L 339.0352 88.019575 
L 339.4537 88.714 
L 339.9001 89.920197 
L 340.4581 92.122705 
L 341.5183 97.505896 
L 342.2437 100.605693 
L 342.718 101.79556 
L 343.0528 102.15962 
L 343.3318 102.168888 
L 343.6108 101.932896 
L 343.9735 101.307347 
L 344.5036 99.884563 
L 345.3685 96.807805 
L 346.6798 92.252631 
L 347.3494 90.684015 
L 347.9353 89.83311 
L 348.4933 89.39369 
L 349.135 89.181563 
L 350.1952 89.112848 
L 351.8971 88.960945 
L 353.4316 88.579059 
L 355.1893 87.909107 
L 357.7282 86.906407 
L 358.7884 86.766078 
L 359.9044 86.846309 
L 361.2994 87.187946 
L 369.1393 89.694447 
L 371.9572 91.097534 
L 373.3522 91.390071 
L 375.1936 91.558726 
L 377.593 91.507045 
L 379.6018 91.554832 
L 386.1862 92.008871 
L 393.1612 92.332847 
L 393.775 92.341678 
L 393.775 92.341678 
" clip-path="url(#p9eda34530a)" style="fill: none; stroke: #e8c54a; stroke-width: 1.5; stroke-linecap: square"/>
   </g>
   <g id="patch_3">
    <path d="M 58.975 170.610469 
L 58.975 12.210469 
" style="fill: none; stroke: #000000; stroke-width: 0.8; stroke-linejoin: miter; stroke-linecap: square"/>
   </g>
   <g id="patch_4">
    <path d="M 393.775 170.610469 
L 393.775 12.210469 
" style="fill: none; stroke: #000000; stroke-width: 0.8; stroke-linejoin: miter; stroke-linecap: square"/>
   </g>
   <g id="patch_5">
    <path d="M 58.975 170.610469 
L 393.775 170.610469 
" style="fill: none; stroke: #000000; stroke-width: 0.8; stroke-linejoin: miter; stroke-linecap: square"/>
   </g>
   <g id="patch_6">
    <path d="M 58.975 12.210469 
L 393.775 12.210469 
" style="fill: none; stroke: #000000; stroke-width: 0.8; stroke-linejoin: miter; stroke-linecap: square"/>
   </g>
   <g id="legend_1">
    <g id="line2d_11">
     <path d="M 69.5125 24.990156 
L 79.5125 24.990156 
L 89.5125 24.990156 
" style="fill: none; stroke: #e84a4e; stroke-width: 1.5; stroke-linecap: square"/>
    </g>
    <g id="text_5">
     <!-- Central -->
     <g transform="translate(97.5125 28.490156) scale(0.1 -0.1)">
      <defs>
       <path id="ArialMT-43" d="M 3763 1606 
L 4369 1453 
Q 4178 706 3683 314 
Q 3188 -78 2472 -78 
Q 1731 -78 1267 223 
Q 803 525 561 1097 
Q 319 1669 319 2325 
Q 319 3041 592 3573 
Q 866 4106 1370 4382 
Q 1875 4659 2481 4659 
Q 3169 4659 3637 4309 
Q 4106 3959 4291 3325 
L 3694 3184 
Q 3534 3684 3231 3912 
Q 2928 4141 2469 4141 
Q 1941 4141 1586 3887 
Q 1231 3634 1087 3207 
Q 944 2781 944 2328 
Q 944 1744 1114 1308 
Q 1284 872 1643 656 
Q 2003 441 2422 441 
Q 2931 441 3284 734 
Q 3638 1028 3763 1606 
z
" transform="scale(0.015625)"/>
       <path id="ArialMT-6e" d="M 422 0 
L 422 3319 
L 928 3319 
L 928 2847 
Q 1294 3394 1984 3394 
Q 2284 3394 2536 3286 
Q 2788 3178 2913 3003 
Q 3038 2828 3088 2588 
Q 3119 2431 3119 2041 
L 3119 0 
L 2556 0 
L 2556 2019 
Q 2556 2363 2490 2533 
Q 2425 2703 2258 2804 
Q 2091 2906 1866 2906 
Q 1506 2906 1245 2678 
Q 984 2450 984 1813 
L 984 0 
L 422 0 
z
" transform="scale(0.015625)"/>
       <path id="ArialMT-72" d="M 416 0 
L 416 3319 
L 922 3319 
L 922 2816 
Q 1116 3169 1280 3281 
Q 1444 3394 1641 3394 
Q 1925 3394 2219 3213 
L 2025 2691 
Q 1819 2813 1613 2813 
Q 1428 2813 1281 2702 
Q 1134 2591 1072 2394 
Q 978 2094 978 1738 
L 978 0 
L 416 0 
z
" transform="scale(0.015625)"/>
      </defs>
      <use xlink:href="#ArialMT-43"/>
      <use xlink:href="#ArialMT-65" x="72.216797"/>
      <use xlink:href="#ArialMT-6e" x="127.832031"/>
      <use xlink:href="#ArialMT-74" x="183.447266"/>
      <use xlink:href="#ArialMT-72" x="211.230469"/>
      <use xlink:href="#ArialMT-61" x="244.53125"/>
      <use xlink:href="#ArialMT-6c" x="300.146484"/>
     </g>
    </g>
    <g id="line2d_12">
     <path d="M 149.746875 24.990156 
L 159.746875 24.990156 
L 169.746875 24.990156 
" style="fill: none; stroke: #51546b; stroke-width: 1.5; stroke-linecap: square"/>
    </g>
    <g id="text_6">
     <!-- Bottom -->
     <g transform="translate(177.746875 28.490156) scale(0.1 -0.1)">
      <defs>
       <path id="ArialMT-42" d="M 469 0 
L 469 4581 
L 2188 4581 
Q 2713 4581 3030 4442 
Q 3347 4303 3526 4014 
Q 3706 3725 3706 3409 
Q 3706 3116 3547 2856 
Q 3388 2597 3066 2438 
Q 3481 2316 3704 2022 
Q 3928 1728 3928 1328 
Q 3928 1006 3792 729 
Q 3656 453 3456 303 
Q 3256 153 2954 76 
Q 2653 0 2216 0 
L 469 0 
z
M 1075 2656 
L 2066 2656 
Q 2469 2656 2644 2709 
Q 2875 2778 2992 2937 
Q 3109 3097 3109 3338 
Q 3109 3566 3000 3739 
Q 2891 3913 2687 3977 
Q 2484 4041 1991 4041 
L 1075 4041 
L 1075 2656 
z
M 1075 541 
L 2216 541 
Q 2509 541 2628 563 
Q 2838 600 2978 687 
Q 3119 775 3209 942 
Q 3300 1109 3300 1328 
Q 3300 1584 3169 1773 
Q 3038 1963 2805 2039 
Q 2572 2116 2134 2116 
L 1075 2116 
L 1075 541 
z
" transform="scale(0.015625)"/>
       <path id="ArialMT-6d" d="M 422 0 
L 422 3319 
L 925 3319 
L 925 2853 
Q 1081 3097 1340 3245 
Q 1600 3394 1931 3394 
Q 2300 3394 2536 3241 
Q 2772 3088 2869 2813 
Q 3263 3394 3894 3394 
Q 4388 3394 4653 3120 
Q 4919 2847 4919 2278 
L 4919 0 
L 4359 0 
L 4359 2091 
Q 4359 2428 4304 2576 
Q 4250 2725 4106 2815 
Q 3963 2906 3769 2906 
Q 3419 2906 3187 2673 
Q 2956 2441 2956 1928 
L 2956 0 
L 2394 0 
L 2394 2156 
Q 2394 2531 2256 2718 
Q 2119 2906 1806 2906 
Q 1569 2906 1367 2781 
Q 1166 2656 1075 2415 
Q 984 2175 984 1722 
L 984 0 
L 422 0 
z
" transform="scale(0.015625)"/>
      </defs>
      <use xlink:href="#ArialMT-42"/>
      <use xlink:href="#ArialMT-6f" x="66.699219"/>
      <use xlink:href="#ArialMT-74" x="122.314453"/>
      <use xlink:href="#ArialMT-74" x="150.097656"/>
      <use xlink:href="#ArialMT-6f" x="177.880859"/>
      <use xlink:href="#ArialMT-6d" x="233.496094"/>
     </g>
    </g>
    <g id="line2d_13">
     <path d="M 229.425 24.990156 
L 239.425 24.990156 
L 249.425 24.990156 
" style="fill: none; stroke: #616eeb; stroke-width: 1.5; stroke-linecap: square"/>
    </g>
    <g id="text_7">
     <!-- Top Left -->
     <g transform="translate(257.425 28.490156) scale(0.1 -0.1)">
      <defs>
       <path id="ArialMT-54" d="M 1659 0 
L 1659 4041 
L 150 4041 
L 150 4581 
L 3781 4581 
L 3781 4041 
L 2266 4041 
L 2266 0 
L 1659 0 
z
" transform="scale(0.015625)"/>
       <path id="ArialMT-70" d="M 422 -1272 
L 422 3319 
L 934 3319 
L 934 2888 
Q 1116 3141 1344 3267 
Q 1572 3394 1897 3394 
Q 2322 3394 2647 3175 
Q 2972 2956 3137 2557 
Q 3303 2159 3303 1684 
Q 3303 1175 3120 767 
Q 2938 359 2589 142 
Q 2241 -75 1856 -75 
Q 1575 -75 1351 44 
Q 1128 163 984 344 
L 984 -1272 
L 422 -1272 
z
M 931 1641 
Q 931 1000 1190 694 
Q 1450 388 1819 388 
Q 2194 388 2461 705 
Q 2728 1022 2728 1688 
Q 2728 2322 2467 2637 
Q 2206 2953 1844 2953 
Q 1484 2953 1207 2617 
Q 931 2281 931 1641 
z
" transform="scale(0.015625)"/>
       <path id="ArialMT-4c" d="M 469 0 
L 469 4581 
L 1075 4581 
L 1075 541 
L 3331 541 
L 3331 0 
L 469 0 
z
" transform="scale(0.015625)"/>
       <path id="ArialMT-66" d="M 556 0 
L 556 2881 
L 59 2881 
L 59 3319 
L 556 3319 
L 556 3672 
Q 556 4006 616 4169 
Q 697 4388 901 4523 
Q 1106 4659 1475 4659 
Q 1713 4659 2000 4603 
L 1916 4113 
Q 1741 4144 1584 4144 
Q 1328 4144 1222 4034 
Q 1116 3925 1116 3625 
L 1116 3319 
L 1763 3319 
L 1763 2881 
L 1116 2881 
L 1116 0 
L 556 0 
z
" transform="scale(0.015625)"/>
      </defs>
      <use xlink:href="#ArialMT-54"/>
      <use xlink:href="#ArialMT-6f" x="49.958984"/>
      <use xlink:href="#ArialMT-70" x="105.574219"/>
      <use xlink:href="#ArialMT-20" x="161.189453"/>
      <use xlink:href="#ArialMT-4c" x="188.972656"/>
      <use xlink:href="#ArialMT-65" x="244.587891"/>
      <use xlink:href="#ArialMT-66" x="300.203125"/>
      <use xlink:href="#ArialMT-74" x="327.986328"/>
     </g>
    </g>
    <g id="line2d_14">
     <path d="M 312.998438 24.990156 
L 322.998438 24.990156 
L 332.998438 24.990156 
" style="fill: none; stroke: #e8c54a; stroke-width: 1.5; stroke-linecap: square"/>
    </g>
    <g id="text_8">
     <!-- Top Right -->
     <g transform="translate(340.998438 28.490156) scale(0.1 -0.1)">
      <defs>
       <path id="ArialMT-52" d="M 503 0 
L 503 4581 
L 2534 4581 
Q 3147 4581 3465 4457 
Q 3784 4334 3975 4021 
Q 4166 3709 4166 3331 
Q 4166 2844 3850 2509 
Q 3534 2175 2875 2084 
Q 3116 1969 3241 1856 
Q 3506 1613 3744 1247 
L 4541 0 
L 3778 0 
L 3172 953 
Q 2906 1366 2734 1584 
Q 2563 1803 2427 1890 
Q 2291 1978 2150 2013 
Q 2047 2034 1813 2034 
L 1109 2034 
L 1109 0 
L 503 0 
z
M 1109 2559 
L 2413 2559 
Q 2828 2559 3062 2645 
Q 3297 2731 3419 2920 
Q 3541 3109 3541 3331 
Q 3541 3656 3305 3865 
Q 3069 4075 2559 4075 
L 1109 4075 
L 1109 2559 
z
" transform="scale(0.015625)"/>
       <path id="ArialMT-69" d="M 425 3934 
L 425 4581 
L 988 4581 
L 988 3934 
L 425 3934 
z
M 425 0 
L 425 3319 
L 988 3319 
L 988 0 
L 425 0 
z
" transform="scale(0.015625)"/>
      </defs>
      <use xlink:href="#ArialMT-54"/>
      <use xlink:href="#ArialMT-6f" x="49.958984"/>
      <use xlink:href="#ArialMT-70" x="105.574219"/>
      <use xlink:href="#ArialMT-20" x="161.189453"/>
      <use xlink:href="#ArialMT-52" x="188.972656"/>
      <use xlink:href="#ArialMT-69" x="261.189453"/>
      <use xlink:href="#ArialMT-67" x="283.40625"/>
      <use xlink:href="#ArialMT-68" x="339.021484"/>
      <use xlink:href="#ArialMT-74" x="394.636719"/>
     </g>
    </g>
   </g>
  </g>
  <g id="axes_2">
   <g id="patch_7">
    <path d="M 58.975 344.850469 
L 393.775 344.850469 
L 393.775 186.450469 
L 58.975 186.450469 
z
" style="fill: #ffffff"/>
   </g>
   <g id="matplotlib.axis_3">
    <g id="xtick_4">
     <g id="line2d_15">
      <g>
       <use xlink:href="#mf751f659c9" x="58.975" y="344.850469" style="stroke: #000000; stroke-width: 0.8"/>
      </g>
     </g>
     <g id="text_9">
      <!-- 0.0 -->
      <g transform="translate(49.245 361.871406) scale(0.14 -0.14)">
       <use xlink:href="#ArialMT-30"/>
       <use xlink:href="#ArialMT-2e" x="55.615234"/>
       <use xlink:href="#ArialMT-30" x="83.398438"/>
      </g>
     </g>
    </g>
    <g id="xtick_5">
     <g id="line2d_16">
      <g>
       <use xlink:href="#mf751f659c9" x="226.375" y="344.850469" style="stroke: #000000; stroke-width: 0.8"/>
      </g>
     </g>
     <g id="text_10">
      <!-- 6.0 -->
      <g transform="translate(216.645 361.871406) scale(0.14 -0.14)">
       <defs>
        <path id="ArialMT-36" d="M 3184 3459 
L 2625 3416 
Q 2550 3747 2413 3897 
Q 2184 4138 1850 4138 
Q 1581 4138 1378 3988 
Q 1113 3794 959 3422 
Q 806 3050 800 2363 
Q 1003 2672 1297 2822 
Q 1591 2972 1913 2972 
Q 2475 2972 2870 2558 
Q 3266 2144 3266 1488 
Q 3266 1056 3080 686 
Q 2894 316 2569 119 
Q 2244 -78 1831 -78 
Q 1128 -78 684 439 
Q 241 956 241 2144 
Q 241 3472 731 4075 
Q 1159 4600 1884 4600 
Q 2425 4600 2770 4297 
Q 3116 3994 3184 3459 
z
M 888 1484 
Q 888 1194 1011 928 
Q 1134 663 1356 523 
Q 1578 384 1822 384 
Q 2178 384 2434 671 
Q 2691 959 2691 1453 
Q 2691 1928 2437 2201 
Q 2184 2475 1800 2475 
Q 1419 2475 1153 2201 
Q 888 1928 888 1484 
z
" transform="scale(0.015625)"/>
       </defs>
       <use xlink:href="#ArialMT-36"/>
       <use xlink:href="#ArialMT-2e" x="55.615234"/>
       <use xlink:href="#ArialMT-30" x="83.398438"/>
      </g>
     </g>
    </g>
    <g id="xtick_6">
     <g id="line2d_17">
      <g>
       <use xlink:href="#mf751f659c9" x="393.775" y="344.850469" style="stroke: #000000; stroke-width: 0.8"/>
      </g>
     </g>
     <g id="text_11">
      <!-- 12.0 -->
      <g transform="translate(380.152344 361.871406) scale(0.14 -0.14)">
       <defs>
        <path id="ArialMT-31" d="M 2384 0 
L 1822 0 
L 1822 3584 
Q 1619 3391 1289 3197 
Q 959 3003 697 2906 
L 697 3450 
Q 1169 3672 1522 3987 
Q 1875 4303 2022 4600 
L 2384 4600 
L 2384 0 
z
" transform="scale(0.015625)"/>
       </defs>
       <use xlink:href="#ArialMT-31"/>
       <use xlink:href="#ArialMT-32" x="55.615234"/>
       <use xlink:href="#ArialMT-2e" x="111.230469"/>
       <use xlink:href="#ArialMT-30" x="139.013672"/>
      </g>
     </g>
    </g>
    <g id="text_12">
     <!-- Time (s) -->
     <g transform="translate(200.977031 378.845469) scale(0.14 -0.14)">
      <defs>
       <path id="ArialMT-73" d="M 197 991 
L 753 1078 
Q 800 744 1014 566 
Q 1228 388 1613 388 
Q 2000 388 2187 545 
Q 2375 703 2375 916 
Q 2375 1106 2209 1216 
Q 2094 1291 1634 1406 
Q 1016 1563 777 1677 
Q 538 1791 414 1992 
Q 291 2194 291 2438 
Q 291 2659 392 2848 
Q 494 3038 669 3163 
Q 800 3259 1026 3326 
Q 1253 3394 1513 3394 
Q 1903 3394 2198 3281 
Q 2494 3169 2634 2976 
Q 2775 2784 2828 2463 
L 2278 2388 
Q 2241 2644 2061 2787 
Q 1881 2931 1553 2931 
Q 1166 2931 1000 2803 
Q 834 2675 834 2503 
Q 834 2394 903 2306 
Q 972 2216 1119 2156 
Q 1203 2125 1616 2013 
Q 2213 1853 2448 1751 
Q 2684 1650 2818 1456 
Q 2953 1263 2953 975 
Q 2953 694 2789 445 
Q 2625 197 2315 61 
Q 2006 -75 1616 -75 
Q 969 -75 630 194 
Q 291 463 197 991 
z
" transform="scale(0.015625)"/>
      </defs>
      <use xlink:href="#ArialMT-54"/>
      <use xlink:href="#ArialMT-69" x="57.333984"/>
      <use xlink:href="#ArialMT-6d" x="79.550781"/>
      <use xlink:href="#ArialMT-65" x="162.851562"/>
      <use xlink:href="#ArialMT-20" x="218.466797"/>
      <use xlink:href="#ArialMT-28" x="246.25"/>
      <use xlink:href="#ArialMT-73" x="279.550781"/>
      <use xlink:href="#ArialMT-29" x="329.550781"/>
     </g>
    </g>
   </g>
   <g id="matplotlib.axis_4">
    <g id="ytick_4">
     <g id="line2d_18">
      <g>
       <use xlink:href="#ma508dcb545" x="58.975" y="329.010469" style="stroke: #000000; stroke-width: 0.8"/>
      </g>
     </g>
     <g id="text_13">
      <!-- −20 -->
      <g transform="translate(28.2275 334.020937) scale(0.14 -0.14)">
       <use xlink:href="#ArialMT-2212"/>
       <use xlink:href="#ArialMT-32" x="58.398438"/>
       <use xlink:href="#ArialMT-30" x="114.013672"/>
      </g>
     </g>
    </g>
    <g id="ytick_5">
     <g id="line2d_19">
      <g>
       <use xlink:href="#ma508dcb545" x="58.975" y="297.330469" style="stroke: #000000; stroke-width: 0.8"/>
      </g>
     </g>
     <g id="text_14">
      <!-- −10 -->
      <g transform="translate(28.2275 302.340937) scale(0.14 -0.14)">
       <use xlink:href="#ArialMT-2212"/>
       <use xlink:href="#ArialMT-31" x="58.398438"/>
       <use xlink:href="#ArialMT-30" x="114.013672"/>
      </g>
     </g>
    </g>
    <g id="ytick_6">
     <g id="line2d_20">
      <g>
       <use xlink:href="#ma508dcb545" x="58.975" y="265.650469" style="stroke: #000000; stroke-width: 0.8"/>
      </g>
     </g>
     <g id="text_15">
      <!-- 0 -->
      <g transform="translate(44.189688 270.660937) scale(0.14 -0.14)">
       <use xlink:href="#ArialMT-30"/>
      </g>
     </g>
    </g>
    <g id="ytick_7">
     <g id="line2d_21">
      <g>
       <use xlink:href="#ma508dcb545" x="58.975" y="233.970469" style="stroke: #000000; stroke-width: 0.8"/>
      </g>
     </g>
     <g id="text_16">
      <!-- 10 -->
      <g transform="translate(36.404375 238.980937) scale(0.14 -0.14)">
       <use xlink:href="#ArialMT-31"/>
       <use xlink:href="#ArialMT-30" x="55.615234"/>
      </g>
     </g>
    </g>
    <g id="ytick_8">
     <g id="line2d_22">
      <g>
       <use xlink:href="#ma508dcb545" x="58.975" y="202.290469" style="stroke: #000000; stroke-width: 0.8"/>
      </g>
     </g>
     <g id="text_17">
      <!-- 20 -->
      <g transform="translate(36.404375 207.300937) scale(0.14 -0.14)">
       <use xlink:href="#ArialMT-32"/>
       <use xlink:href="#ArialMT-30" x="55.615234"/>
      </g>
     </g>
    </g>
    <g id="text_18">
     <!-- Angles ($\circ$) -->
     <g transform="translate(21.1475 298.060469) rotate(-90) scale(0.14 -0.14)">
      <defs>
       <path id="ArialMT-41" d="M -9 0 
L 1750 4581 
L 2403 4581 
L 4278 0 
L 3588 0 
L 3053 1388 
L 1138 1388 
L 634 0 
L -9 0 
z
M 1313 1881 
L 2866 1881 
L 2388 3150 
Q 2169 3728 2063 4100 
Q 1975 3659 1816 3225 
L 1313 1881 
z
" transform="scale(0.015625)"/>
       <path id="DejaVuSans-2218" d="M 2003 2603 
Q 1753 2603 1581 2429 
Q 1409 2256 1409 2006 
Q 1409 1759 1581 1589 
Q 1753 1419 2003 1419 
Q 2253 1419 2425 1589 
Q 2597 1759 2597 2006 
Q 2597 2253 2423 2428 
Q 2250 2603 2003 2603 
z
M 2003 3006 
Q 2203 3006 2387 2929 
Q 2572 2853 2706 2709 
Q 2850 2569 2922 2390 
Q 2994 2212 2994 2006 
Q 2994 1594 2705 1308 
Q 2416 1022 1997 1022 
Q 1575 1022 1294 1303 
Q 1013 1584 1013 2006 
Q 1013 2425 1300 2715 
Q 1588 3006 2003 3006 
z
" transform="scale(0.015625)"/>
      </defs>
      <use xlink:href="#ArialMT-41" transform="translate(0 0.203125)"/>
      <use xlink:href="#ArialMT-6e" transform="translate(66.699219 0.203125)"/>
      <use xlink:href="#ArialMT-67" transform="translate(122.314453 0.203125)"/>
      <use xlink:href="#ArialMT-6c" transform="translate(177.929688 0.203125)"/>
      <use xlink:href="#ArialMT-65" transform="translate(200.146484 0.203125)"/>
      <use xlink:href="#ArialMT-73" transform="translate(255.761719 0.203125)"/>
      <use xlink:href="#ArialMT-20" transform="translate(305.761719 0.203125)"/>
      <use xlink:href="#ArialMT-28" transform="translate(333.544922 0.203125)"/>
      <use xlink:href="#DejaVuSans-2218" transform="translate(366.845703 0.203125)"/>
      <use xlink:href="#ArialMT-29" transform="translate(429.443359 0.203125)"/>
     </g>
    </g>
   </g>
   <g id="line2d_23">
    <path d="M 58.9471 264.486509 
L 60.2863 264.767826 
L 63.7459 265.54769 
L 64.5829 265.343153 
L 65.8942 265.013237 
L 66.6475 265.09509 
L 69.1585 265.596618 
L 72.3391 265.518259 
L 75.9382 265.272505 
L 81.3787 266.119004 
L 82.3552 265.92491 
L 83.4712 265.466001 
L 85.9543 264.30633 
L 86.7076 264.343453 
L 88.0468 264.697964 
L 90.1393 265.173016 
L 91.339 265.220321 
L 92.7898 265.29076 
L 94.1569 265.388401 
L 95.1055 265.171422 
L 96.5005 264.870307 
L 100.2112 264.61595 
L 101.0761 264.929253 
L 102.2758 265.357967 
L 102.9175 265.335503 
L 103.6987 265.057066 
L 104.9542 264.602267 
L 105.7075 264.599151 
L 106.7677 264.855199 
L 108.1348 265.400519 
L 109.8367 266.127887 
L 110.5621 266.143464 
L 112.0129 266.083237 
L 112.6267 266.363616 
L 114.4681 267.420504 
L 114.9145 267.315284 
L 115.4167 266.957466 
L 116.2537 266.021363 
L 117.1186 265.172996 
L 117.6766 264.925664 
L 118.2625 264.914254 
L 120.8014 265.367022 
L 121.5826 265.746536 
L 122.7823 266.641005 
L 123.8704 267.335304 
L 124.5958 267.54533 
L 125.3212 267.52223 
L 126.3256 267.238836 
L 127.7485 266.865296 
L 128.5576 266.896143 
L 129.5341 267.184603 
L 131.1802 267.680928 
L 132.0172 267.688768 
L 132.7705 267.465778 
L 134.5561 266.811421 
L 136.3417 266.626911 
L 136.8718 266.166192 
L 137.5972 265.190939 
L 138.8527 263.491169 
L 139.4665 263.043416 
L 140.0524 262.891176 
L 140.8336 262.945155 
L 142.4518 263.085423 
L 143.9584 262.91112 
L 144.9349 262.899615 
L 145.6882 263.120233 
L 147.5575 263.802571 
L 148.5619 263.748271 
L 149.2594 263.816222 
L 149.7616 264.087935 
L 150.2917 264.652863 
L 150.9334 265.712995 
L 153.0538 269.570184 
L 153.5281 269.852942 
L 153.9466 269.840957 
L 154.393 269.59107 
L 155.0068 268.963279 
L 157.462 266.178326 
L 158.5222 265.465206 
L 159.5545 265.020899 
L 160.4473 264.867021 
L 161.4796 264.932214 
L 163.2094 265.288907 
L 165.1345 265.755919 
L 165.6367 265.568972 
L 166.1668 265.121036 
L 167.2549 263.791746 
L 167.8687 263.267797 
L 168.3151 263.149383 
L 168.7615 263.255237 
L 169.3753 263.656492 
L 172.3048 266.132417 
L 174.76 268.710281 
L 175.3738 268.905599 
L 176.0434 268.882746 
L 177.3268 268.546085 
L 178.3033 268.419662 
L 179.3356 268.538459 
L 180.4795 268.628191 
L 181.1491 268.447943 
L 181.8466 268.016643 
L 182.7394 267.173762 
L 184.7482 265.187584 
L 185.362 264.945609 
L 185.9479 264.965072 
L 188.3752 265.368733 
L 189.6307 265.425924 
L 190.6072 265.403712 
L 192.3928 265.187015 
L 192.9508 265.472291 
L 193.8715 266.258216 
L 194.7085 266.849044 
L 195.3781 267.049159 
L 196.243 267.051689 
L 198.1681 266.776254 
L 200.5675 266.247541 
L 201.7114 265.741792 
L 203.6644 264.797136 
L 204.2782 264.824858 
L 205.0594 265.113532 
L 206.3707 265.593203 
L 207.403 265.701526 
L 208.4911 265.597105 
L 210.2767 265.383402 
L 211.4485 265.2765 
L 212.2018 264.951311 
L 213.6526 264.264953 
L 214.2943 264.262545 
L 215.4103 264.544293 
L 218.7025 265.350231 
L 221.9389 265.296822 
L 222.8596 265.543268 
L 223.8082 265.750467 
L 224.3941 265.642387 
L 225.3706 265.168858 
L 226.0402 264.976753 
L 226.6261 265.051223 
L 228.1606 265.41546 
L 228.6907 265.192156 
L 229.6114 264.479051 
L 230.281 264.102317 
L 230.8111 264.055769 
L 231.4528 264.247866 
L 232.5967 264.60124 
L 233.3221 264.546395 
L 235.8052 263.926831 
L 237.7303 263.379161 
L 238.5952 263.498462 
L 240.3808 263.757797 
L 243.3382 264.212095 
L 244.6495 264.449404 
L 245.4307 264.319521 
L 246.8257 264.05051 
L 247.6348 264.174437 
L 250.7596 264.907756 
L 252.0988 264.793062 
L 255.9211 264.376183 
L 257.0371 264.624021 
L 258.0415 264.772318 
L 258.739 264.637985 
L 259.6597 264.198143 
L 260.7757 263.723182 
L 261.5011 263.671068 
L 262.2544 263.850274 
L 263.2309 264.330947 
L 266.7742 266.550107 
L 267.6112 267.443762 
L 269.8432 270.015458 
L 270.457 270.316019 
L 270.9592 270.322108 
L 271.4614 270.092792 
L 272.0473 269.55696 
L 273.0238 268.298378 
L 274.3351 266.710068 
L 275.5348 265.637534 
L 276.6508 264.901078 
L 277.5715 264.556826 
L 278.6317 264.408253 
L 279.7198 264.477366 
L 281.5612 264.895483 
L 282.7609 265.290274 
L 283.4026 265.750174 
L 284.0164 266.475197 
L 284.7418 267.701314 
L 286.8622 271.536123 
L 287.476 272.097532 
L 288.0619 272.34697 
L 288.6757 272.362187 
L 289.429 272.136506 
L 293.335 270.37206 
L 294.2836 269.453525 
L 296.9341 266.413444 
L 299.0824 264.019766 
L 300.0031 263.317183 
L 300.7006 263.045769 
L 301.3144 263.032486 
L 301.9561 263.247606 
L 302.6815 263.741136 
L 303.7417 264.772227 
L 305.4436 266.396292 
L 306.5875 267.16596 
L 307.3408 267.438861 
L 307.8988 267.421365 
L 308.4289 267.171732 
L 309.0148 266.623455 
L 309.9076 265.421791 
L 311.0794 263.927231 
L 311.8327 263.335164 
L 312.6139 263.005604 
L 313.5625 262.851507 
L 314.4553 262.927341 
L 315.4039 263.244483 
L 316.7431 263.947165 
L 319.1983 265.321313 
L 319.8679 265.367808 
L 320.5096 265.192154 
L 321.2908 264.732701 
L 322.9369 263.705277 
L 323.6902 263.549052 
L 324.9736 263.567589 
L 327.4846 263.760287 
L 330.2467 264.245134 
L 333.2041 264.431162 
L 335.6314 264.799098 
L 336.6637 265.374235 
L 338.0029 266.074203 
L 338.8678 266.27491 
L 339.5932 266.220935 
L 340.2907 265.941655 
L 341.1835 265.315957 
L 342.2716 264.60181 
L 342.7738 264.524567 
L 343.2202 264.67503 
L 343.7224 265.105956 
L 344.392 266.025735 
L 346.066 268.459326 
L 346.7356 268.983286 
L 347.4331 269.239289 
L 348.2701 269.298074 
L 349.2466 269.144734 
L 350.1952 268.767864 
L 351.2554 268.089824 
L 354.157 266.048358 
L 354.8545 265.950205 
L 355.831 266.070864 
L 356.7796 266.114302 
L 357.3376 265.921695 
L 357.8398 265.513827 
L 358.3699 264.78621 
L 359.0674 263.409953 
L 360.2113 261.14502 
L 360.6856 260.686435 
L 361.0483 260.619466 
L 361.411 260.786013 
L 361.8853 261.283962 
L 362.7223 262.570941 
L 364.0615 264.567532 
L 364.9543 265.494036 
L 365.7913 266.051388 
L 366.6841 266.379582 
L 367.7443 266.525827 
L 369.0556 266.467003 
L 370.6738 266.412504 
L 371.7898 266.635757 
L 374.4682 267.277512 
L 377.1187 267.453251 
L 377.9836 267.312894 
L 378.7369 266.963969 
L 380.0203 266.04623 
L 380.7178 265.722071 
L 381.2758 265.711175 
L 381.9733 265.950957 
L 382.9219 266.247072 
L 383.5078 266.189006 
L 384.2611 265.867671 
L 385.684 265.239847 
L 386.2978 265.230706 
L 386.9116 265.458998 
L 389.0041 266.491407 
L 389.5342 266.355164 
L 390.148 265.955329 
L 391.1803 264.956793 
L 392.0452 264.254652 
L 392.6032 264.082591 
L 393.1333 264.16386 
L 393.775 264.499341 
L 393.775 264.499341 
" clip-path="url(#p3b7ac52465)" style="fill: none; stroke: #4ae875; stroke-width: 1.5; stroke-linecap: square"/>
   </g>
   <g id="line2d_24">
    <path d="M 58.9471 263.974615 
L 60.9559 263.022762 
L 61.6255 262.910179 
L 62.1556 263.043631 
L 62.7136 263.435053 
L 63.4948 264.306978 
L 64.834 265.803164 
L 65.4199 266.121692 
L 65.8942 266.145721 
L 66.3964 265.937978 
L 67.0102 265.418082 
L 68.8516 263.686322 
L 69.4096 263.54056 
L 69.9676 263.625546 
L 70.6372 263.964286 
L 71.6974 264.788034 
L 73.2598 265.975614 
L 74.0689 266.302676 
L 74.9338 266.40063 
L 76.1335 266.301866 
L 76.831 266.049027 
L 77.4448 265.585449 
L 78.226 264.677575 
L 79.5373 263.144761 
L 80.2069 262.719032 
L 81.1834 262.414557 
L 82.0204 262.05767 
L 82.7458 261.491264 
L 83.6107 260.506656 
L 85.0057 258.509942 
L 86.317 256.776564 
L 87.154 256.020909 
L 87.8236 255.699653 
L 88.4932 255.625932 
L 91.3111 255.62064 
L 92.7898 255.594219 
L 93.9616 255.779557 
L 95.6914 256.101908 
L 96.8074 255.997183 
L 97.8397 255.709793 
L 98.7883 255.188174 
L 99.709 254.748243 
L 100.2391 254.740425 
L 100.7692 254.964984 
L 101.6899 255.670391 
L 102.3874 256.069212 
L 102.8896 256.104276 
L 103.3918 255.902984 
L 104.1451 255.30933 
L 105.2611 254.469645 
L 107.2141 253.283123 
L 107.8837 252.36908 
L 109.9483 249.253155 
L 110.3668 249.117801 
L 110.7295 249.237595 
L 111.148 249.648017 
L 111.6781 250.527608 
L 112.6267 252.646883 
L 113.5753 254.557395 
L 114.1333 255.233933 
L 114.6076 255.484282 
L 115.0819 255.471931 
L 115.7236 255.193516 
L 117.0349 254.594444 
L 117.8161 254.515227 
L 118.5136 254.661031 
L 119.0995 255.003102 
L 119.6854 255.61583 
L 120.2992 256.593258 
L 121.0246 258.19453 
L 121.9732 260.886709 
L 124.1494 267.249143 
L 125.0143 269.017472 
L 125.7955 270.144378 
L 126.5488 270.849704 
L 127.3021 271.256836 
L 127.9996 271.402157 
L 128.5576 271.311786 
L 129.0598 270.999175 
L 129.562 270.399608 
L 130.12 269.357312 
L 130.8454 267.475629 
L 133.6075 259.722411 
L 134.026 259.286809 
L 134.3608 259.215429 
L 134.6956 259.37903 
L 135.142 259.882215 
L 136.5091 261.606079 
L 136.8718 261.685699 
L 137.2345 261.526092 
L 137.653 261.063438 
L 138.2668 259.99338 
L 139.3549 258.081876 
L 139.7455 257.795826 
L 140.0524 257.826727 
L 140.3593 258.111304 
L 140.722 258.784938 
L 141.1963 260.189135 
L 141.838 262.869973 
L 142.8982 268.443492 
L 144.2932 275.552042 
L 144.9349 277.759896 
L 145.3813 278.619602 
L 145.6882 278.836884 
L 145.9393 278.778029 
L 146.2183 278.465123 
L 146.581 277.692338 
L 147.1111 275.945265 
L 149.0641 268.816282 
L 149.3989 268.439955 
L 149.65 268.433268 
L 149.9011 268.667695 
L 150.2359 269.34185 
L 150.6823 270.808099 
L 151.3798 274.004654 
L 153.3607 283.511214 
L 154.2535 286.583544 
L 155.0068 288.440829 
L 155.6206 289.415549 
L 156.2344 289.990949 
L 157.0993 290.464331 
L 158.3269 290.91142 
L 158.9407 290.911712 
L 159.4987 290.690254 
L 160.1404 290.178345 
L 160.9774 289.195943 
L 161.8702 287.802467 
L 162.6514 286.159822 
L 163.4884 283.829305 
L 164.7997 279.354881 
L 165.832 276.168154 
L 166.4737 274.836896 
L 167.0038 274.205505 
L 167.506 273.94649 
L 168.0919 273.911319 
L 169.8496 273.941815 
L 172.0816 273.549688 
L 172.6396 273.148071 
L 173.2255 272.433258 
L 173.923 271.198987 
L 174.9832 268.791248 
L 176.2387 266.065221 
L 176.9362 265.061808 
L 177.55 264.54511 
L 178.3033 264.22484 
L 179.5309 263.733274 
L 180.2842 263.145127 
L 181.2607 262.064836 
L 182.7952 260.380211 
L 183.4927 259.944766 
L 184.1344 259.800124 
L 184.8877 259.878968 
L 188.5705 260.599989 
L 191.6674 260.897925 
L 193.2856 261.172124 
L 194.1784 261.079429 
L 194.9875 260.770654 
L 196.0477 260.091616 
L 197.0242 259.557439 
L 197.638 259.47331 
L 198.2797 259.620604 
L 199.2283 260.103122 
L 203.5807 262.515967 
L 204.334 262.602811 
L 205.3942 262.454913 
L 206.2591 262.426243 
L 206.9845 262.630422 
L 209.7745 263.672096 
L 210.8626 263.787749 
L 211.7833 263.646003 
L 213.2341 263.417061 
L 218.3677 263.400387 
L 219.5674 263.740425 
L 220.7671 264.004813 
L 221.6878 263.971229 
L 225.0079 263.588035 
L 226.1518 263.847484 
L 227.9653 264.308951 
L 228.8581 264.233144 
L 230.9785 263.959143 
L 232.7362 264.02365 
L 235.2472 264.299832 
L 236.1121 263.926416 
L 237.3397 263.428198 
L 238.3162 263.310382 
L 242.8081 263.013281 
L 244.0357 263.006781 
L 245.1796 263.223448 
L 246.0166 263.60315 
L 246.9373 264.299475 
L 248.1649 265.199422 
L 248.8066 265.38753 
L 249.5041 265.350981 
L 250.7317 265.013554 
L 256.1722 263.129879 
L 256.9255 262.516548 
L 257.6509 261.627012 
L 258.9343 259.599057 
L 260.2735 257.688904 
L 261.7522 255.580775 
L 262.924 253.402181 
L 264.1795 251.18297 
L 265.1002 250.022834 
L 265.993 249.236076 
L 266.5789 248.983406 
L 267.0253 249.021562 
L 267.4438 249.281798 
L 267.946 249.887977 
L 268.6156 251.10686 
L 272.0473 258.522805 
L 273.0238 261.065522 
L 275.5348 268.02114 
L 276.1486 268.910583 
L 276.7345 269.375774 
L 278.5201 270.473479 
L 279.1897 271.370431 
L 280.0267 272.893324 
L 280.8358 274.823488 
L 281.6728 277.425887 
L 282.7888 281.728282 
L 285.9136 294.172725 
L 286.7785 296.661376 
L 287.3644 297.739456 
L 287.8108 298.134838 
L 288.1735 298.173905 
L 288.5362 297.982379 
L 289.0384 297.421954 
L 290.2102 295.618215 
L 291.1867 294.379985 
L 293.335 291.904013 
L 294.0604 290.607117 
L 294.73 288.935331 
L 295.4554 286.492271 
L 296.4877 282.121383 
L 299.4172 269.350847 
L 300.31 266.481883 
L 300.9796 265.021022 
L 301.5376 264.29337 
L 302.0677 263.956566 
L 302.6815 263.853154 
L 303.937 263.725338 
L 304.4671 263.3933 
L 305.0251 262.758878 
L 305.6947 261.623478 
L 306.6712 259.455981 
L 308.8195 254.575433 
L 309.7123 253.143924 
L 310.4656 252.327643 
L 311.191 251.859724 
L 311.9443 251.639135 
L 312.8092 251.622566 
L 313.6183 251.818503 
L 314.26 252.20254 
L 314.8459 252.829022 
L 315.4597 253.828682 
L 316.3525 255.78017 
L 317.3848 257.908271 
L 317.887 258.484264 
L 318.2776 258.623578 
L 318.6403 258.503661 
L 319.0588 258.098979 
L 319.6726 257.137539 
L 321.5977 253.892526 
L 322.8811 252.44908 
L 323.6344 251.400054 
L 324.3319 250.026542 
L 325.3084 247.538422 
L 326.7871 243.841436 
L 327.5404 242.535285 
L 328.1263 241.923333 
L 328.6006 241.730907 
L 329.0191 241.805021 
L 329.4655 242.137238 
L 329.9956 242.84141 
L 330.721 244.226793 
L 331.7533 246.733849 
L 332.9251 250.178257 
L 336.58 261.47682 
L 337.3333 262.983156 
L 337.8913 263.660877 
L 338.3377 263.877503 
L 338.7283 263.812127 
L 339.1468 263.483007 
L 339.6769 262.736778 
L 341.3509 260.119254 
L 341.6578 260.078978 
L 341.9368 260.270617 
L 342.2716 260.81499 
L 342.6901 261.98067 
L 343.276 264.390076 
L 345.6196 274.996464 
L 346.2613 276.517481 
L 346.903 277.502052 
L 347.6284 278.212692 
L 348.5212 278.757665 
L 349.8604 279.54662 
L 350.53 280.251762 
L 351.3949 281.535258 
L 352.6225 283.317681 
L 353.1805 283.746142 
L 353.6269 283.833765 
L 354.0733 283.699042 
L 354.6313 283.279881 
L 358.342 279.628135 
L 359.0674 278.274988 
L 360.4624 275.604164 
L 361.0204 275.030877 
L 361.5784 274.771661 
L 362.3875 274.681646 
L 363.7825 274.517088 
L 364.6474 274.190174 
L 365.4007 273.666223 
L 366.2656 272.765201 
L 368.1907 270.648636 
L 368.8324 270.317874 
L 369.4741 270.234063 
L 370.4227 270.375509 
L 371.4829 270.477661 
L 372.2362 270.319915 
L 373.0453 269.912343 
L 374.0776 269.124173 
L 375.8632 267.427466 
L 379.6576 263.783035 
L 380.3551 263.556301 
L 381.0526 263.569609 
L 382.0012 263.842497 
L 384.6238 264.913884 
L 386.7442 265.918535 
L 389.5063 266.785772 
L 390.7339 267.332084 
L 391.4872 267.401067 
L 393.2449 267.432503 
L 393.775 267.657381 
L 393.775 267.657381 
" clip-path="url(#p3b7ac52465)" style="fill: none; stroke: #94885f; stroke-width: 1.5; stroke-linecap: square"/>
   </g>
   <g id="line2d_25">
    <path d="M 58.9471 269.589874 
L 60.3979 269.612876 
L 61.765 269.364348 
L 63.5785 268.851714 
L 64.5829 268.292927 
L 66.0058 267.503405 
L 66.7591 267.366522 
L 67.6519 267.454569 
L 70.972 267.999354 
L 71.8927 267.787505 
L 73.2319 267.212918 
L 74.4595 266.774568 
L 75.5197 266.650526 
L 77.0263 266.718897 
L 80.4859 267.00318 
L 81.853 266.797595 
L 82.9132 266.418206 
L 83.8339 265.848068 
L 86.2054 264.194769 
L 86.875 264.116177 
L 87.6562 264.263761 
L 89.1349 264.837925 
L 90.2788 265.161633 
L 91.1716 265.171943 
L 94.3801 264.741011 
L 95.6914 264.199473 
L 96.7516 263.887551 
L 97.8955 263.813041 
L 101.383 263.701668 
L 102.3595 263.347665 
L 104.1172 262.649249 
L 104.731 262.694534 
L 105.3448 262.972068 
L 106.3492 263.722453 
L 107.6047 264.569984 
L 108.6091 264.978964 
L 109.3624 265.05974 
L 110.0599 264.906689 
L 111.7339 264.404127 
L 112.264 264.560401 
L 113.0173 265.051636 
L 113.8264 265.500857 
L 114.2728 265.509132 
L 114.6913 265.296801 
L 115.1935 264.764687 
L 115.9468 263.576594 
L 117.0907 261.813907 
L 117.6766 261.297532 
L 118.2067 261.102793 
L 118.7926 261.129774 
L 119.4343 261.385714 
L 120.076 261.879772 
L 120.7735 262.712286 
L 122.9218 265.534311 
L 123.5635 265.880828 
L 124.2889 266.004757 
L 126.0187 265.95887 
L 127.4137 266.084988 
L 128.6692 266.42166 
L 130.7896 267.051854 
L 132.1009 267.103355 
L 135.4768 266.996283 
L 136.1185 266.644152 
L 136.7881 266.000927 
L 137.7367 264.716966 
L 138.769 263.422227 
L 139.3828 262.999001 
L 139.9408 262.878368 
L 140.6383 262.977005 
L 145.1023 264.035308 
L 146.0509 264.263952 
L 146.86 264.702144 
L 149.092 266.066078 
L 150.0406 266.262055 
L 151.603 266.313945 
L 152.9143 266.183829 
L 153.7513 265.880434 
L 154.6441 265.301156 
L 157.4062 263.29654 
L 158.1874 263.104314 
L 159.136 263.119252 
L 163.4884 263.451005 
L 165.9157 263.461641 
L 167.6176 263.180095 
L 168.1477 263.421253 
L 168.7615 263.968228 
L 170.7145 265.902594 
L 171.6073 266.328783 
L 173.6998 266.976871 
L 175.6528 267.376384 
L 178.4986 267.937058 
L 181.0096 268.843992 
L 181.6792 268.694229 
L 182.4883 268.262965 
L 185.1388 266.638933 
L 185.7805 266.659927 
L 186.757 266.973229 
L 187.7893 267.211601 
L 191.221 267.483606 
L 192.1138 267.543667 
L 192.8113 267.829881 
L 194.7085 268.768695 
L 195.406 268.748613 
L 196.4383 268.458515 
L 199.0888 267.669016 
L 200.9581 267.146746 
L 202.2415 266.502777 
L 203.3854 265.993611 
L 204.0829 265.925236 
L 204.9478 266.090995 
L 206.4544 266.383096 
L 208.1842 266.431342 
L 211.7554 266.135198 
L 212.4529 265.644703 
L 213.9316 264.521481 
L 214.5733 264.359066 
L 215.3824 264.403482 
L 216.4705 264.690099 
L 218.7583 265.414707 
L 222.9154 265.899601 
L 223.7524 266.016743 
L 224.3383 265.865625 
L 225.0637 265.416383 
L 226.1797 264.736948 
L 226.8214 264.633258 
L 228.886 264.552336 
L 230.3647 264.152797 
L 231.0901 264.262055 
L 232.5409 264.542231 
L 233.4895 264.405002 
L 234.5776 264.300585 
L 235.8889 264.470221 
L 237.5908 264.575696 
L 244.7332 264.92793 
L 247.1605 264.288068 
L 248.1649 264.496911 
L 250.5643 265.048613 
L 251.7919 265.082208 
L 256.3396 264.924863 
L 258.1531 265.054497 
L 259.018 264.832433 
L 260.8873 264.256851 
L 261.6406 264.31732 
L 262.4218 264.60666 
L 263.2309 265.152965 
L 264.0958 266.018943 
L 266.5231 268.643431 
L 267.7786 269.43357 
L 270.8197 271.130579 
L 271.4335 271.117477 
L 271.9636 270.873726 
L 272.4658 270.386266 
L 273.0238 269.513228 
L 273.7213 267.958663 
L 275.0047 264.39162 
L 276.0649 261.758178 
L 276.8461 260.384679 
L 277.5715 259.54646 
L 278.3527 258.990763 
L 279.3571 258.571802 
L 280.7521 258.238163 
L 281.8681 258.178196 
L 282.7609 258.348977 
L 283.4863 258.705846 
L 284.128 259.276045 
L 284.7697 260.169214 
L 285.5509 261.685472 
L 287.6155 265.914934 
L 288.4246 266.971266 
L 289.2058 267.632006 
L 290.0149 268.022732 
L 291.1867 268.306198 
L 292.9444 268.523756 
L 294.1162 268.410766 
L 295.4275 268.333126 
L 298.636 268.435801 
L 299.7241 268.078035 
L 302.5699 266.978513 
L 303.4627 266.978791 
L 304.2997 267.196725 
L 305.1367 267.656145 
L 307.5919 269.209331 
L 308.1778 269.198196 
L 308.8195 268.951596 
L 309.7402 268.317601 
L 311.3026 267.245861 
L 314.7901 265.511353 
L 315.5713 265.415901 
L 316.4641 265.552111 
L 318.9472 266.072317 
L 319.8679 265.935114 
L 320.8444 265.557646 
L 323.467 264.35985 
L 324.5272 264.318833 
L 326.257 264.238352 
L 329.0191 263.949767 
L 330.0793 264.171975 
L 332.3113 264.950785 
L 333.6784 265.304178 
L 335.9941 265.756379 
L 341.6857 268.037087 
L 342.2995 267.890009 
L 342.9412 267.489036 
L 343.834 266.622661 
L 345.0895 265.443962 
L 345.8428 265.057046 
L 346.7356 264.868754 
L 350.5021 264.313422 
L 356.389 262.690632 
L 358.1188 261.910817 
L 358.9 261.840003 
L 359.5696 261.99915 
L 360.1834 262.371328 
L 360.8809 263.076173 
L 362.0527 264.661778 
L 363.1408 265.972442 
L 363.922 266.577664 
L 364.7032 266.89892 
L 365.7355 267.05608 
L 371.7898 267.68548 
L 373.2685 267.912322 
L 378.1231 268.162884 
L 379.2112 267.934586 
L 380.8294 267.554919 
L 381.499 267.684359 
L 383.2288 268.158279 
L 383.9542 267.998837 
L 386.1025 267.364447 
L 386.8279 267.469192 
L 387.8881 267.894764 
L 388.7809 268.149727 
L 389.4226 268.104221 
L 390.0922 267.830192 
L 391.2082 267.07418 
L 392.0173 266.654513 
L 392.5753 266.605768 
L 393.1333 266.783331 
L 393.775 267.180963 
L 393.775 267.180963 
" clip-path="url(#p3b7ac52465)" style="fill: none; stroke: #6b4545; stroke-width: 1.5; stroke-linecap: square"/>
   </g>
   <g id="patch_8">
    <path d="M 58.975 344.850469 
L 58.975 186.450469 
" style="fill: none; stroke: #000000; stroke-width: 0.8; stroke-linejoin: miter; stroke-linecap: square"/>
   </g>
   <g id="patch_9">
    <path d="M 393.775 344.850469 
L 393.775 186.450469 
" style="fill: none; stroke: #000000; stroke-width: 0.8; stroke-linejoin: miter; stroke-linecap: square"/>
   </g>
   <g id="patch_10">
    <path d="M 58.975 344.850469 
L 393.775 344.850469 
" style="fill: none; stroke: #000000; stroke-width: 0.8; stroke-linejoin: miter; stroke-linecap: square"/>
   </g>
   <g id="patch_11">
    <path d="M 58.975 186.450469 
L 393.775 186.450469 
" style="fill: none; stroke: #000000; stroke-width: 0.8; stroke-linejoin: miter; stroke-linecap: square"/>
   </g>
   <g id="legend_2">
    <g id="line2d_26">
     <path d="M 135.288281 199.108281 
L 145.288281 199.108281 
L 155.288281 199.108281 
" style="fill: none; stroke: #4ae875; stroke-width: 1.5; stroke-linecap: square"/>
    </g>
    <g id="text_19">
     <!-- Roll -->
     <g transform="translate(163.288281 202.608281) scale(0.1 -0.1)">
      <use xlink:href="#ArialMT-52"/>
      <use xlink:href="#ArialMT-6f" x="72.216797"/>
      <use xlink:href="#ArialMT-6c" x="127.832031"/>
      <use xlink:href="#ArialMT-6c" x="150.048828"/>
     </g>
    </g>
    <g id="line2d_27">
     <path d="M 200.514844 199.108281 
L 210.514844 199.108281 
L 220.514844 199.108281 
" style="fill: none; stroke: #94885f; stroke-width: 1.5; stroke-linecap: square"/>
    </g>
    <g id="text_20">
     <!-- Pitch -->
     <g transform="translate(228.514844 202.608281) scale(0.1 -0.1)">
      <defs>
       <path id="ArialMT-63" d="M 2588 1216 
L 3141 1144 
Q 3050 572 2676 248 
Q 2303 -75 1759 -75 
Q 1078 -75 664 370 
Q 250 816 250 1647 
Q 250 2184 428 2587 
Q 606 2991 970 3192 
Q 1334 3394 1763 3394 
Q 2303 3394 2647 3120 
Q 2991 2847 3088 2344 
L 2541 2259 
Q 2463 2594 2264 2762 
Q 2066 2931 1784 2931 
Q 1359 2931 1093 2626 
Q 828 2322 828 1663 
Q 828 994 1084 691 
Q 1341 388 1753 388 
Q 2084 388 2306 591 
Q 2528 794 2588 1216 
z
" transform="scale(0.015625)"/>
      </defs>
      <use xlink:href="#ArialMT-50"/>
      <use xlink:href="#ArialMT-69" x="66.699219"/>
      <use xlink:href="#ArialMT-74" x="88.916016"/>
      <use xlink:href="#ArialMT-63" x="116.699219"/>
      <use xlink:href="#ArialMT-68" x="166.699219"/>
     </g>
    </g>
    <g id="line2d_28">
     <path d="M 270.746094 199.108281 
L 280.746094 199.108281 
L 290.746094 199.108281 
" style="fill: none; stroke: #6b4545; stroke-width: 1.5; stroke-linecap: square"/>
    </g>
    <g id="text_21">
     <!-- Yaw -->
     <g transform="translate(298.746094 202.608281) scale(0.1 -0.1)">
      <defs>
       <path id="ArialMT-59" d="M 1784 0 
L 1784 1941 
L 19 4581 
L 756 4581 
L 1659 3200 
Q 1909 2813 2125 2425 
Q 2331 2784 2625 3234 
L 3513 4581 
L 4219 4581 
L 2391 1941 
L 2391 0 
L 1784 0 
z
" transform="scale(0.015625)"/>
       <path id="ArialMT-77" d="M 1034 0 
L 19 3319 
L 600 3319 
L 1128 1403 
L 1325 691 
Q 1338 744 1497 1375 
L 2025 3319 
L 2603 3319 
L 3100 1394 
L 3266 759 
L 3456 1400 
L 4025 3319 
L 4572 3319 
L 3534 0 
L 2950 0 
L 2422 1988 
L 2294 2553 
L 1622 0 
L 1034 0 
z
" transform="scale(0.015625)"/>
      </defs>
      <use xlink:href="#ArialMT-59"/>
      <use xlink:href="#ArialMT-61" x="59.324219"/>
      <use xlink:href="#ArialMT-77" x="114.939453"/>
     </g>
    </g>
   </g>
  </g>
 </g>
 <defs>
  <clipPath id="p9eda34530a">
   <rect x="58.975" y="12.210469" width="334.8" height="158.4"/>
  </clipPath>
  <clipPath id="p3b7ac52465">
   <rect x="58.975" y="186.450469" width="334.8" height="158.4"/>
  </clipPath>
 </defs>
</svg>
