G04*
G04 #@! TF.GenerationSoftware,Altium Limited,Altium Designer,23.7.1 (13)*
G04*
G04 Layer_Color=0*
%FSLAX25Y25*%
%MOIN*%
G70*
G04*
G04 #@! TF.SameCoordinates,9375ACE6-C2A6-4354-9E23-E0B222F175F8*
G04*
G04*
G04 #@! TF.FilePolarity,Positive*
G04*
G01*
G75*
%ADD74C,0.00100*%
G36*
X208220Y143530D02*
Y143280D01*
X208574Y142926D01*
X209075D01*
X209430Y143280D01*
Y143530D01*
D01*
Y145997D01*
X209476Y146463D01*
X209833Y147326D01*
X210493Y147986D01*
X211355Y148343D01*
X212289D01*
X213151Y147986D01*
X213811Y147326D01*
X214168Y146463D01*
X214214Y145997D01*
D01*
Y143530D01*
Y143280D01*
X214569Y142926D01*
X215070D01*
X215424Y143280D01*
Y143530D01*
D01*
X215424Y145997D01*
X215470Y146463D01*
X215827Y147326D01*
X216487Y147986D01*
X217350Y148343D01*
X218283D01*
X219145Y147986D01*
X219806Y147326D01*
X220163Y146463D01*
X220209Y145997D01*
X220209D01*
Y143530D01*
Y143280D01*
X220563Y142926D01*
X221064D01*
X221418Y143280D01*
Y143530D01*
X221418D01*
Y145997D01*
X221464Y146463D01*
X221822Y147326D01*
X222482Y147986D01*
X223344Y148343D01*
X224278D01*
X225140Y147986D01*
X225800Y147326D01*
X226157Y146463D01*
X226203Y145997D01*
X226203D01*
Y143530D01*
Y143280D01*
X226557Y142926D01*
X227059D01*
X227413Y143280D01*
Y143530D01*
X227413D01*
Y145997D01*
X227459Y146463D01*
X227816Y147326D01*
X228476Y147986D01*
X229339Y148343D01*
X230272D01*
X231134Y147986D01*
X231794Y147326D01*
X232152Y146463D01*
X232198Y145997D01*
D01*
Y143530D01*
Y143280D01*
X232552Y142926D01*
X233053D01*
X233407Y143280D01*
Y143530D01*
D01*
Y145997D01*
X233453Y146463D01*
X233811Y147326D01*
X234471Y147986D01*
X235333Y148343D01*
X236266D01*
X237129Y147986D01*
X237789Y147326D01*
X238146Y146463D01*
X238192Y145997D01*
D01*
Y143530D01*
Y143280D01*
X238546Y142926D01*
X239048D01*
X239402Y143280D01*
Y143530D01*
D01*
X239402Y145997D01*
X239448Y146463D01*
X239805Y147326D01*
X240465Y147986D01*
X241328Y148343D01*
X242261D01*
X243123Y147986D01*
X243783Y147326D01*
X244141Y146463D01*
X244186Y145997D01*
D01*
X244186Y143530D01*
Y143280D01*
X244541Y142926D01*
X245042D01*
X245396Y143280D01*
Y143530D01*
D01*
X245396Y145997D01*
X245442Y146463D01*
X245799Y147326D01*
X246460Y147986D01*
X247322Y148343D01*
X248255D01*
X249118Y147986D01*
X249778Y147326D01*
X250135Y146463D01*
X250181Y145997D01*
X250181D01*
Y143530D01*
Y143280D01*
X250535Y142926D01*
X251037D01*
X251391Y143280D01*
Y143530D01*
X251391D01*
X251391Y143913D01*
X251433Y144404D01*
X251802Y145314D01*
X252496Y146007D01*
X253405Y146377D01*
X253897Y146419D01*
Y146419D01*
X265073D01*
Y151631D01*
X253955D01*
X253830D01*
X253597Y151535D01*
X253419Y151357D01*
X253322Y151124D01*
Y150998D01*
D01*
Y150543D01*
X253276Y150075D01*
X252918Y149210D01*
X252256Y148548D01*
X251391Y148190D01*
X250454D01*
X249589Y148548D01*
X248927Y149210D01*
X248569Y150075D01*
X248523Y150543D01*
D01*
Y153717D01*
Y153963D01*
X248175Y154311D01*
X247684D01*
X247336Y153963D01*
Y153717D01*
D01*
X247336Y150543D01*
X247290Y150075D01*
X246931Y149210D01*
X246269Y148548D01*
X245404Y148190D01*
X244468D01*
X243603Y148548D01*
X242941Y149210D01*
X242583Y150075D01*
X242537Y150543D01*
D01*
X242537Y153717D01*
Y153963D01*
X242189Y154311D01*
X241697D01*
X241349Y153963D01*
Y153717D01*
D01*
X241349Y150543D01*
X241303Y150075D01*
X240945Y149210D01*
X240283Y148548D01*
X239418Y148190D01*
X238482D01*
X237617Y148548D01*
X236955Y149210D01*
X236596Y150075D01*
X236550Y150543D01*
D01*
X236550Y153717D01*
Y153963D01*
X236202Y154311D01*
X235711D01*
X235363Y153963D01*
Y153717D01*
D01*
Y150543D01*
X235317Y150075D01*
X234959Y149210D01*
X234296Y148548D01*
X233431Y148190D01*
X232495D01*
X231630Y148548D01*
X230968Y149210D01*
X230610Y150075D01*
X230564Y150543D01*
D01*
Y153717D01*
Y153963D01*
X230216Y154311D01*
X229724D01*
X229377Y153963D01*
Y153717D01*
D01*
Y150543D01*
X229330Y150075D01*
X228972Y149210D01*
X228310Y148548D01*
X227445Y148190D01*
X226509D01*
X225644Y148548D01*
X224982Y149210D01*
X224623Y150075D01*
X224577Y150543D01*
D01*
Y153717D01*
Y153963D01*
X224230Y154311D01*
X223738D01*
X223390Y153963D01*
Y153717D01*
D01*
X223390Y150543D01*
X223344Y150075D01*
X222986Y149210D01*
X222324Y148548D01*
X221459Y148190D01*
X220522D01*
X219657Y148548D01*
X218995Y149210D01*
X218637Y150075D01*
X218591Y150543D01*
D01*
Y153717D01*
Y153963D01*
X218243Y154311D01*
X217751D01*
X217404Y153963D01*
Y153717D01*
D01*
Y150543D01*
X217357Y150075D01*
X216999Y149210D01*
X216337Y148548D01*
X215472Y148190D01*
X214536D01*
X213671Y148548D01*
X213009Y149210D01*
X212651Y150075D01*
X212604Y150543D01*
D01*
X212604Y153717D01*
Y153963D01*
X212257Y154311D01*
X211765D01*
X211417Y153963D01*
Y153717D01*
D01*
X211417Y150543D01*
X211371Y150074D01*
X211010Y149206D01*
X210344Y148544D01*
X209474Y148188D01*
X208534Y148193D01*
X207669Y148559D01*
X207010Y149229D01*
X206659Y150101D01*
X206618Y150571D01*
Y150571D01*
X206618Y150990D01*
Y151114D01*
X206523Y151343D01*
X206348Y151518D01*
X206119Y151613D01*
X205995D01*
Y151613D01*
X194530D01*
Y146419D01*
X205791Y146419D01*
X206265Y146372D01*
X207140Y146009D01*
X207810Y145339D01*
X208173Y144464D01*
X208220Y143990D01*
X208220D01*
Y143530D01*
D02*
G37*
G36*
X208392Y94990D02*
X208346Y94864D01*
X208357Y94597D01*
X208469Y94354D01*
X208666Y94173D01*
X208917Y94080D01*
X209184Y94091D01*
X209427Y94203D01*
X209609Y94399D01*
X209655Y94525D01*
X209655Y94525D01*
Y97274D01*
X209700Y97736D01*
X210054Y98589D01*
X210706Y99241D01*
X211559Y99594D01*
X212482D01*
X213335Y99241D01*
X213988Y98589D01*
X214341Y97736D01*
X214387Y97274D01*
D01*
Y94525D01*
Y94399D01*
X214483Y94167D01*
X214660Y93990D01*
X214892Y93894D01*
X215144D01*
X215376Y93990D01*
X215553Y94167D01*
X215649Y94399D01*
Y94525D01*
X215649D01*
Y97274D01*
X215695Y97736D01*
X216048Y98589D01*
X216701Y99241D01*
X217554Y99594D01*
X218477D01*
X219330Y99241D01*
X219982Y98589D01*
X220336Y97736D01*
X220381Y97274D01*
X220381D01*
Y94525D01*
X220381Y94399D01*
X220477Y94168D01*
X220655Y93990D01*
X220886Y93894D01*
X221138Y93893D01*
X221370Y93989D01*
X221547Y94167D01*
X221644Y94399D01*
X221644Y94524D01*
X221644Y94524D01*
X221644Y97274D01*
X221689Y97736D01*
X222043Y98589D01*
X222695Y99241D01*
X223548Y99594D01*
X224471D01*
X225324Y99241D01*
X225977Y98589D01*
X226330Y97736D01*
X226376Y97274D01*
D01*
Y94525D01*
Y94399D01*
X226472Y94167D01*
X226649Y93990D01*
X226881Y93894D01*
X227133D01*
X227365Y93990D01*
X227542Y94167D01*
X227638Y94399D01*
Y94525D01*
D01*
Y97274D01*
X227684Y97736D01*
X228037Y98589D01*
X228690Y99241D01*
X229543Y99594D01*
X230466D01*
X231318Y99241D01*
X231971Y98589D01*
X232325Y97736D01*
X232370Y97274D01*
D01*
Y94525D01*
X232370Y94399D01*
X232466Y94168D01*
X232644Y93990D01*
X232876Y93894D01*
X233127D01*
X233359Y93990D01*
X233537Y94168D01*
X233633Y94399D01*
X233633Y94525D01*
X233633Y94525D01*
Y97274D01*
X233678Y97736D01*
X234032Y98588D01*
X234684Y99241D01*
X235537Y99594D01*
X236460D01*
X237313Y99241D01*
X237966Y98588D01*
X238319Y97736D01*
X238364Y97274D01*
X238364Y97274D01*
Y94525D01*
X238365Y94399D01*
X238461Y94168D01*
X238638Y93990D01*
X238870Y93894D01*
X239121D01*
X239353Y93990D01*
X239531Y94168D01*
X239627Y94399D01*
X239627Y94525D01*
X239627Y94525D01*
Y97274D01*
X239673Y97736D01*
X240026Y98589D01*
X240679Y99241D01*
X241531Y99594D01*
X242455D01*
X243307Y99241D01*
X243960Y98589D01*
X244314Y97736D01*
X244359Y97274D01*
D01*
Y94525D01*
X244359Y94399D01*
X244455Y94168D01*
X244633Y93990D01*
X244864Y93894D01*
X245115Y93893D01*
X245347Y93989D01*
X245525Y94167D01*
X245622Y94399D01*
X245622Y94524D01*
X245622Y94524D01*
X245622Y97274D01*
X245667Y97736D01*
X246020Y98588D01*
X246673Y99241D01*
X247526Y99594D01*
X248449Y99595D01*
X249302Y99242D01*
X249954Y98589D01*
X250308Y97736D01*
X250353Y97275D01*
X250353Y97275D01*
X250353Y94525D01*
X250353Y94399D01*
X250449Y94168D01*
X250627Y93990D01*
X250859Y93894D01*
X251110Y93893D01*
X251342Y93989D01*
X251520Y94167D01*
X251616Y94399D01*
X251616Y94524D01*
X251616Y94524D01*
X251616Y94948D01*
X251663Y95425D01*
X252028Y96306D01*
X252702Y96980D01*
X253583Y97345D01*
X254060Y97392D01*
D01*
X265073D01*
X265099Y97419D01*
Y102631D01*
X265073Y102658D01*
X254060D01*
X253926D01*
X253678Y102555D01*
X253488Y102365D01*
X253385Y102117D01*
Y101983D01*
D01*
Y101559D01*
X253340Y101097D01*
X252986Y100244D01*
X252333Y99591D01*
X251480Y99238D01*
X250556Y99238D01*
X249703Y99592D01*
X249051Y100245D01*
X248697Y101098D01*
X248652Y101560D01*
Y101560D01*
X248652Y103623D01*
Y103749D01*
X248555Y103982D01*
X248377Y104160D01*
X248145Y104256D01*
X247893D01*
X247661Y104160D01*
X247483Y103982D01*
X247386Y103749D01*
Y103623D01*
D01*
Y101560D01*
X247341Y101098D01*
X246987Y100245D01*
X246334Y99592D01*
X245481Y99238D01*
X244558D01*
X243705Y99592D01*
X243052Y100245D01*
X242698Y101098D01*
X242653Y101560D01*
D01*
X242653Y103623D01*
X242653Y103749D01*
X242556Y103982D01*
X242378Y104160D01*
X242146Y104256D01*
X241894D01*
X241662Y104160D01*
X241484Y103982D01*
X241387Y103749D01*
X241387Y103623D01*
Y103623D01*
Y101560D01*
X241342Y101098D01*
X240988Y100245D01*
X240335Y99592D01*
X239482Y99238D01*
X238559D01*
X237705Y99592D01*
X237052Y100245D01*
X236699Y101098D01*
X236654Y101560D01*
D01*
X236654Y103623D01*
Y103749D01*
X236557Y103982D01*
X236379Y104160D01*
X236147Y104256D01*
X235895Y104256D01*
X235663Y104160D01*
X235485Y103982D01*
X235388Y103750D01*
X235388Y103624D01*
X235388D01*
X235388Y101560D01*
X235343Y101098D01*
X234989Y100245D01*
X234336Y99592D01*
X233483Y99238D01*
X232559D01*
X231706Y99592D01*
X231053Y100245D01*
X230700Y101098D01*
X230655Y101560D01*
D01*
Y103623D01*
Y103749D01*
X230558Y103982D01*
X230380Y104160D01*
X230148Y104256D01*
X229896D01*
X229663Y104160D01*
X229485Y103982D01*
X229389Y103749D01*
Y103623D01*
D01*
X229389Y101560D01*
X229344Y101098D01*
X228990Y100245D01*
X228337Y99592D01*
X227484Y99238D01*
X226560D01*
X225707Y99592D01*
X225054Y100245D01*
X224701Y101098D01*
X224655Y101560D01*
D01*
X224655Y103623D01*
Y103749D01*
X224559Y103982D01*
X224381Y104160D01*
X224149Y104256D01*
X223897Y104256D01*
X223665Y104160D01*
X223487Y103982D01*
X223390Y103750D01*
X223390Y103624D01*
X223390D01*
X223390Y101560D01*
X223344Y101098D01*
X222991Y100245D01*
X222338Y99592D01*
X221485Y99238D01*
X220561D01*
X219708Y99592D01*
X219055Y100245D01*
X218702Y101098D01*
X218656Y101560D01*
D01*
Y103623D01*
Y103749D01*
X218560Y103982D01*
X218382Y104160D01*
X218149Y104256D01*
X217898D01*
X217665Y104160D01*
X217487Y103982D01*
X217391Y103749D01*
Y103623D01*
D01*
X217391Y101560D01*
X217345Y101098D01*
X216992Y100245D01*
X216339Y99592D01*
X215486Y99238D01*
X214562D01*
X213709Y99592D01*
X213056Y100245D01*
X212703Y101098D01*
X212657Y101560D01*
D01*
X212657Y103623D01*
Y103749D01*
X212561Y103982D01*
X212383Y104160D01*
X212151Y104256D01*
X211899Y104256D01*
X211666Y104160D01*
X211488Y103982D01*
X211392Y103750D01*
X211392Y103624D01*
X211392D01*
X211392Y101560D01*
X211346Y101098D01*
X210993Y100245D01*
X210340Y99592D01*
X209487Y99238D01*
X208563D01*
X207710Y99592D01*
X207057Y100245D01*
X206704Y101098D01*
X206658Y101560D01*
D01*
X206658Y102013D01*
X206658Y102144D01*
X206555Y102386D01*
X206366Y102569D01*
X206121Y102663D01*
X205989Y102658D01*
X205989Y102658D01*
X194597D01*
X194571Y102631D01*
X194578Y97419D01*
X194605Y97392D01*
X205990Y97392D01*
X206458Y97346D01*
X207324Y96987D01*
X207987Y96325D01*
X208346Y95459D01*
X208392Y94990D01*
X208392Y94990D01*
D02*
G37*
G36*
X208392Y102013D02*
X208347Y101887D01*
X208360Y101620D01*
X208474Y101378D01*
X208672Y101198D01*
X208924Y101108D01*
X209191Y101121D01*
X209433Y101236D01*
X209613Y101434D01*
X209658Y101560D01*
X209658Y101560D01*
X209658Y103623D01*
X209703Y104085D01*
X210057Y104938D01*
X210710Y105591D01*
X211563Y105945D01*
X212486D01*
X213339Y105591D01*
X213992Y104938D01*
X214346Y104085D01*
X214391Y103623D01*
D01*
Y101560D01*
X214391Y101434D01*
X214488Y101201D01*
X214665Y101023D01*
X214898Y100927D01*
X215149Y100927D01*
X215382Y101023D01*
X215560Y101201D01*
X215657Y101433D01*
X215657Y101559D01*
X215657Y101559D01*
X215657Y103623D01*
X215702Y104085D01*
X216056Y104938D01*
X216709Y105591D01*
X217562Y105945D01*
X218485D01*
X219338Y105591D01*
X219991Y104938D01*
X220345Y104085D01*
X220390Y103623D01*
D01*
Y101560D01*
Y101434D01*
X220487Y101201D01*
X220665Y101023D01*
X220897Y100927D01*
X221149D01*
X221381Y101023D01*
X221560Y101201D01*
X221656Y101434D01*
Y101560D01*
D01*
X221656Y103623D01*
X221701Y104085D01*
X222055Y104938D01*
X222708Y105591D01*
X223561Y105945D01*
X224484D01*
X225338Y105591D01*
X225991Y104938D01*
X226344Y104085D01*
X226389Y103623D01*
X226389D01*
Y101560D01*
Y101434D01*
X226486Y101201D01*
X226664Y101023D01*
X226896Y100927D01*
X227148D01*
X227381Y101023D01*
X227559Y101201D01*
X227655Y101434D01*
Y101560D01*
D01*
X227655Y103623D01*
X227700Y104085D01*
X228054Y104938D01*
X228707Y105591D01*
X229560Y105945D01*
X230483D01*
X231337Y105591D01*
X231990Y104938D01*
X232343Y104085D01*
X232388Y103623D01*
D01*
Y101560D01*
X232389Y101434D01*
X232485Y101201D01*
X232663Y101023D01*
X232895Y100927D01*
X233147D01*
X233380Y101023D01*
X233558Y101201D01*
X233654Y101434D01*
X233654Y101560D01*
X233654Y101560D01*
Y103623D01*
X233699Y104085D01*
X234053Y104938D01*
X234706Y105591D01*
X235559Y105945D01*
X236483D01*
X237336Y105591D01*
X237989Y104938D01*
X238342Y104085D01*
X238388Y103623D01*
D01*
Y101560D01*
X238388Y101434D01*
X238484Y101201D01*
X238662Y101023D01*
X238894Y100927D01*
X239146Y100927D01*
X239378Y101023D01*
X239556Y101201D01*
X239653Y101433D01*
X239653Y101559D01*
X239653Y101559D01*
X239653Y103623D01*
X239699Y104085D01*
X240052Y104938D01*
X240705Y105591D01*
X241558Y105945D01*
X242482D01*
X243335Y105591D01*
X243988Y104938D01*
X244341Y104085D01*
X244387Y103623D01*
D01*
Y101560D01*
Y101434D01*
X244483Y101201D01*
X244661Y101023D01*
X244894Y100927D01*
X245145D01*
X245378Y101023D01*
X245556Y101201D01*
X245652Y101434D01*
Y101560D01*
X245652D01*
Y103623D01*
X245698Y104085D01*
X246051Y104938D01*
X246704Y105591D01*
X247557Y105945D01*
X248481D01*
X249334Y105591D01*
X249987Y104938D01*
X250340Y104085D01*
X250386Y103623D01*
D01*
Y101560D01*
X250386Y101434D01*
X250482Y101201D01*
X250660Y101023D01*
X250893Y100927D01*
X251144D01*
X251377Y101023D01*
X251555Y101201D01*
X251651Y101434D01*
X251651Y101560D01*
X251651Y101560D01*
X251651Y101941D01*
X251690Y102417D01*
X252042Y103299D01*
X252708Y103977D01*
X253585Y104345D01*
X254060Y104392D01*
X254060Y104392D01*
X265073D01*
X265099Y104419D01*
Y109131D01*
X265073Y109158D01*
X254060D01*
X253922D01*
X253667Y109052D01*
X253472Y108857D01*
X253366Y108602D01*
Y108464D01*
D01*
Y108025D01*
X253321Y107562D01*
X252966Y106706D01*
X252311Y106051D01*
X251456Y105697D01*
X250530D01*
X249674Y106051D01*
X249019Y106706D01*
X248665Y107562D01*
X248619Y108025D01*
D01*
X248619Y111309D01*
X248619Y111433D01*
X248524Y111662D01*
X248349Y111838D01*
X248119Y111932D01*
X247872D01*
X247642Y111838D01*
X247467Y111662D01*
X247372Y111433D01*
X247372Y111309D01*
Y111309D01*
X247372Y108025D01*
X247326Y107562D01*
X246972Y106706D01*
X246317Y106051D01*
X245461Y105697D01*
X244535D01*
X243679Y106051D01*
X243025Y106706D01*
X242670Y107562D01*
X242625Y108025D01*
D01*
Y111309D01*
Y111433D01*
X242530Y111662D01*
X242354Y111838D01*
X242125Y111933D01*
X241877D01*
X241648Y111838D01*
X241472Y111662D01*
X241377Y111433D01*
Y111309D01*
D01*
Y108025D01*
X241332Y107562D01*
X240978Y106706D01*
X240323Y106051D01*
X239467Y105697D01*
X238541D01*
X237685Y106051D01*
X237030Y106706D01*
X236676Y107562D01*
X236630Y108025D01*
D01*
X236630Y111309D01*
X236630Y111433D01*
X236535Y111662D01*
X236360Y111838D01*
X236130Y111932D01*
X235883D01*
X235653Y111838D01*
X235478Y111662D01*
X235383Y111433D01*
X235383Y111309D01*
Y111309D01*
X235383Y108025D01*
X235337Y107562D01*
X234983Y106706D01*
X234328Y106051D01*
X233472Y105697D01*
X232546D01*
X231691Y106051D01*
X231036Y106706D01*
X230681Y107562D01*
X230636Y108025D01*
D01*
Y111309D01*
Y111433D01*
X230541Y111662D01*
X230365Y111838D01*
X230136Y111933D01*
X229888D01*
X229659Y111838D01*
X229484Y111662D01*
X229389Y111433D01*
Y111309D01*
D01*
Y108025D01*
X229343Y107562D01*
X228989Y106706D01*
X228334Y106051D01*
X227478Y105697D01*
X226552D01*
X225696Y106051D01*
X225041Y106706D01*
X224687Y107562D01*
X224641Y108025D01*
D01*
Y111309D01*
Y111433D01*
X224546Y111662D01*
X224371Y111838D01*
X224142Y111933D01*
X223894D01*
X223664Y111838D01*
X223489Y111662D01*
X223394Y111433D01*
Y111309D01*
D01*
Y108025D01*
X223348Y107562D01*
X222994Y106706D01*
X222339Y106051D01*
X221483Y105697D01*
X220557D01*
X219702Y106051D01*
X219047Y106706D01*
X218692Y107562D01*
X218647Y108025D01*
D01*
X218647Y111309D01*
X218647Y111433D01*
X218552Y111662D01*
X218376Y111838D01*
X218147Y111932D01*
X217899D01*
X217670Y111838D01*
X217495Y111662D01*
X217400Y111433D01*
X217400Y111309D01*
Y111309D01*
X217400Y108025D01*
X217354Y107562D01*
X217000Y106706D01*
X216345Y106051D01*
X215489Y105697D01*
X214563D01*
X213707Y106051D01*
X213052Y106706D01*
X212698Y107562D01*
X212652Y108025D01*
D01*
Y111309D01*
Y111433D01*
X212557Y111662D01*
X212382Y111838D01*
X212153Y111933D01*
X211905D01*
X211676Y111838D01*
X211500Y111662D01*
X211405Y111433D01*
Y111309D01*
D01*
Y108025D01*
X211360Y107562D01*
X211005Y106706D01*
X210350Y106051D01*
X209494Y105697D01*
X208568D01*
X207713Y106051D01*
X207058Y106706D01*
X206703Y107562D01*
X206658Y108025D01*
D01*
X206658Y108490D01*
Y108623D01*
X206556Y108868D01*
X206368Y109056D01*
X206123Y109158D01*
X205990D01*
Y109158D01*
X194588D01*
X194562Y109131D01*
X194569Y104419D01*
X194595Y104392D01*
X206000Y104392D01*
X206466Y104349D01*
X207328Y103996D01*
X207989Y103339D01*
X208346Y102478D01*
X208392Y102013D01*
X208392D01*
D02*
G37*
G36*
X208434Y87560D02*
X208434Y87990D01*
X208387Y88467D01*
X208022Y89349D01*
X207346Y90024D01*
X206464Y90388D01*
X205986Y90434D01*
X205986Y90434D01*
X194614Y90419D01*
X194607Y95631D01*
X205990Y95631D01*
X206117D01*
X206353Y95534D01*
X206534Y95353D01*
X206631Y95117D01*
Y94990D01*
X206631D01*
Y94525D01*
X206677Y94058D01*
X207034Y93196D01*
X207694Y92536D01*
X208557Y92179D01*
X209490D01*
X210353Y92536D01*
X211013Y93196D01*
X211370Y94058D01*
X211416Y94525D01*
D01*
Y97274D01*
Y97525D01*
X211770Y97879D01*
X212271D01*
X212626Y97525D01*
Y97274D01*
D01*
Y94525D01*
X212672Y94058D01*
X213029Y93196D01*
X213689Y92536D01*
X214551Y92179D01*
X215485D01*
X216347Y92536D01*
X217007Y93196D01*
X217364Y94058D01*
X217410Y94525D01*
D01*
Y97274D01*
Y97525D01*
X217765Y97879D01*
X218266D01*
X218620Y97525D01*
Y97274D01*
D01*
X218620Y94525D01*
X218666Y94058D01*
X219023Y93196D01*
X219683Y92536D01*
X220546Y92179D01*
X221479D01*
X222342Y92536D01*
X223002Y93196D01*
X223359Y94058D01*
X223405Y94525D01*
D01*
X223405Y97274D01*
Y97525D01*
X223759Y97879D01*
X224260D01*
X224615Y97525D01*
Y97274D01*
X224615D01*
Y94525D01*
X224661Y94058D01*
X225018Y93196D01*
X225678Y92536D01*
X226540Y92179D01*
X227474D01*
X228336Y92536D01*
X228996Y93196D01*
X229353Y94058D01*
X229399Y94525D01*
D01*
Y97274D01*
Y97525D01*
X229754Y97879D01*
X230255D01*
X230609Y97525D01*
Y97274D01*
D01*
X230609Y94525D01*
X230655Y94058D01*
X231012Y93196D01*
X231672Y92536D01*
X232535Y92179D01*
X233468D01*
X234331Y92536D01*
X234991Y93196D01*
X235348Y94058D01*
X235394Y94525D01*
D01*
X235394Y97274D01*
Y97525D01*
X235748Y97879D01*
X236249D01*
X236603Y97525D01*
Y97274D01*
D01*
X236603Y94525D01*
X236649Y94058D01*
X237007Y93196D01*
X237667Y92536D01*
X238529Y92179D01*
X239463D01*
X240325Y92536D01*
X240985Y93196D01*
X241342Y94058D01*
X241388Y94525D01*
D01*
Y97274D01*
Y97525D01*
X241742Y97879D01*
X242244D01*
X242598Y97525D01*
Y97274D01*
D01*
Y94525D01*
X242644Y94058D01*
X243001Y93196D01*
X243661Y92536D01*
X244524Y92179D01*
X245457D01*
X246319Y92536D01*
X246979Y93196D01*
X247337Y94058D01*
X247383Y94525D01*
D01*
Y97274D01*
Y97525D01*
X247737Y97879D01*
X248238D01*
X248592Y97525D01*
Y97274D01*
X248592D01*
Y94525D01*
X248638Y94058D01*
X248996Y93196D01*
X249656Y92536D01*
X250518Y92179D01*
X251451D01*
X252314Y92536D01*
X252974Y93196D01*
X253331Y94058D01*
X253377Y94525D01*
D01*
X253377Y94948D01*
Y95084D01*
X253481Y95335D01*
X253673Y95527D01*
X253924Y95631D01*
X254060D01*
D01*
X265073D01*
Y90434D01*
X254060Y90434D01*
X253586Y90388D01*
X252710Y90025D01*
X252040Y89355D01*
X251677Y88479D01*
X251631Y88005D01*
X251631D01*
Y87560D01*
Y87312D01*
X251280Y86961D01*
X250784D01*
X250434Y87312D01*
Y87560D01*
D01*
X250434Y90274D01*
X250388Y90743D01*
X250029Y91608D01*
X249367Y92271D01*
X248501Y92630D01*
X247564D01*
X246698Y92271D01*
X246036Y91608D01*
X245677Y90743D01*
X245631Y90274D01*
D01*
X245631Y87560D01*
Y87312D01*
X245280Y86962D01*
X244785D01*
X244434Y87312D01*
Y87560D01*
D01*
Y90274D01*
X244388Y90743D01*
X244029Y91608D01*
X243367Y92271D01*
X242501Y92630D01*
X241564D01*
X240698Y92271D01*
X240036Y91608D01*
X239677Y90743D01*
X239631Y90274D01*
D01*
X239631Y87560D01*
Y87312D01*
X239280Y86962D01*
X238785D01*
X238434Y87312D01*
Y87560D01*
D01*
Y90274D01*
X238388Y90743D01*
X238029Y91608D01*
X237367Y92271D01*
X236501Y92630D01*
X235564D01*
X234698Y92271D01*
X234036Y91608D01*
X233677Y90743D01*
X233631Y90274D01*
D01*
X233631Y87560D01*
Y87312D01*
X233280Y86962D01*
X232785D01*
X232434Y87312D01*
Y87560D01*
D01*
X232434Y90274D01*
X232388Y90743D01*
X232029Y91608D01*
X231367Y92271D01*
X230501Y92630D01*
X229564D01*
X228698Y92271D01*
X228036Y91608D01*
X227677Y90743D01*
X227631Y90274D01*
D01*
Y87560D01*
Y87312D01*
X227280Y86961D01*
X226785D01*
X226434Y87312D01*
Y87560D01*
D01*
X226434Y90274D01*
X226388Y90743D01*
X226029Y91608D01*
X225367Y92271D01*
X224501Y92630D01*
X223564D01*
X222698Y92271D01*
X222036Y91608D01*
X221677Y90743D01*
X221631Y90274D01*
D01*
Y87560D01*
Y87312D01*
X221281Y86962D01*
X220785D01*
X220434Y87312D01*
Y87560D01*
D01*
X220434Y90274D01*
X220388Y90743D01*
X220029Y91608D01*
X219367Y92271D01*
X218501Y92630D01*
X217564D01*
X216699Y92271D01*
X216036Y91608D01*
X215677Y90743D01*
X215631Y90274D01*
D01*
X215631Y87560D01*
Y87312D01*
X215281Y86962D01*
X214785D01*
X214434Y87312D01*
Y87560D01*
D01*
Y90274D01*
X214388Y90743D01*
X214030Y91608D01*
X213367Y92271D01*
X212501Y92630D01*
X211564D01*
X210699Y92271D01*
X210036Y91608D01*
X209677Y90743D01*
X209631Y90274D01*
D01*
Y87560D01*
Y87312D01*
X209281Y86962D01*
X208785D01*
X208434Y87312D01*
Y87560D01*
D01*
D02*
G37*
G36*
X208408Y129990D02*
X208365Y129866D01*
X208381Y129603D01*
X208497Y129367D01*
X208694Y129193D01*
X208942Y129107D01*
X209205Y129124D01*
X209441Y129239D01*
X209615Y129436D01*
X209658Y129560D01*
X209658Y129560D01*
Y132320D01*
X209703Y132784D01*
X210058Y133640D01*
X210713Y134295D01*
X211569Y134649D01*
X212496D01*
X213352Y134295D01*
X214007Y133640D01*
X214362Y132784D01*
X214408Y132320D01*
X214408Y132320D01*
Y129560D01*
X214408Y129436D01*
X214503Y129206D01*
X214679Y129031D01*
X214909Y128936D01*
X215157D01*
X215387Y129031D01*
X215562Y129206D01*
X215658Y129436D01*
X215658Y129560D01*
X215658Y129560D01*
Y132320D01*
X215703Y132784D01*
X216058Y133640D01*
X216713Y134295D01*
X217569Y134650D01*
X218496Y134650D01*
X219352Y134295D01*
X220007Y133640D01*
X220362Y132784D01*
X220408Y132321D01*
X220408Y132321D01*
X220408Y129560D01*
Y129436D01*
X220503Y129206D01*
X220679Y129030D01*
X220908Y128935D01*
X221157D01*
X221387Y129030D01*
X221563Y129206D01*
X221658Y129436D01*
Y129560D01*
D01*
Y132320D01*
X221703Y132784D01*
X222058Y133640D01*
X222713Y134295D01*
X223569Y134650D01*
X224496D01*
X225352Y134295D01*
X226008Y133640D01*
X226362Y132784D01*
X226408Y132320D01*
D01*
X226408Y129560D01*
Y129436D01*
X226503Y129206D01*
X226679Y129030D01*
X226909Y128935D01*
X227157D01*
X227387Y129030D01*
X227563Y129206D01*
X227658Y129436D01*
Y129560D01*
D01*
Y132320D01*
X227703Y132784D01*
X228058Y133640D01*
X228713Y134295D01*
X229570Y134650D01*
X230496D01*
X231352Y134295D01*
X232008Y133640D01*
X232362Y132784D01*
X232408Y132320D01*
X232408D01*
Y129560D01*
Y129436D01*
X232503Y129206D01*
X232679Y129030D01*
X232909Y128935D01*
X233157D01*
X233387Y129030D01*
X233563Y129206D01*
X233658Y129436D01*
Y129560D01*
D01*
Y132320D01*
X233703Y132784D01*
X234058Y133640D01*
X234713Y134295D01*
X235570Y134649D01*
X236496D01*
X237352Y134295D01*
X238008Y133640D01*
X238362Y132784D01*
X238408Y132320D01*
X238408Y132320D01*
Y129560D01*
Y129436D01*
X238503Y129206D01*
X238679Y129030D01*
X238909Y128935D01*
X239157D01*
X239387Y129030D01*
X239563Y129206D01*
X239658Y129436D01*
Y129560D01*
D01*
Y132320D01*
X239703Y132784D01*
X240058Y133640D01*
X240713Y134295D01*
X241569Y134650D01*
X242496D01*
X243352Y134295D01*
X244008Y133640D01*
X244362Y132784D01*
X244408Y132320D01*
D01*
Y129560D01*
Y129436D01*
X244503Y129206D01*
X244679Y129030D01*
X244909Y128935D01*
X245157D01*
X245387Y129030D01*
X245563Y129206D01*
X245658Y129436D01*
Y129560D01*
D01*
Y132320D01*
X245703Y132784D01*
X246058Y133640D01*
X246713Y134295D01*
X247569Y134650D01*
X248496Y134650D01*
X249352Y134295D01*
X250007Y133640D01*
X250362Y132784D01*
X250408Y132321D01*
X250408Y132321D01*
X250408Y129560D01*
Y129436D01*
X250503Y129206D01*
X250679Y129030D01*
X250909Y128935D01*
X251157D01*
X251387Y129030D01*
X251563Y129206D01*
X251658Y129436D01*
Y129560D01*
D01*
Y130006D01*
X251704Y130474D01*
X252063Y131340D01*
X252725Y132003D01*
X253591Y132362D01*
X254060Y132408D01*
X254060Y132408D01*
X265073D01*
X265099Y132435D01*
Y137631D01*
X265073Y137658D01*
X254054D01*
X253922D01*
X253676Y137556D01*
X253488Y137368D01*
X253387Y137123D01*
Y136990D01*
D01*
Y136560D01*
X253341Y136098D01*
X252988Y135245D01*
X252335Y134592D01*
X251481Y134238D01*
X250558D01*
X249704Y134592D01*
X249051Y135245D01*
X248698Y136098D01*
X248652Y136560D01*
D01*
X248652Y138555D01*
Y138681D01*
X248556Y138913D01*
X248378Y139091D01*
X248145Y139187D01*
X247894D01*
X247661Y139091D01*
X247483Y138913D01*
X247387Y138681D01*
Y138555D01*
D01*
Y136560D01*
X247341Y136098D01*
X246988Y135245D01*
X246335Y134592D01*
X245481Y134238D01*
X244558D01*
X243704Y134592D01*
X243051Y135245D01*
X242698Y136098D01*
X242652Y136560D01*
D01*
Y138555D01*
Y138681D01*
X242556Y138913D01*
X242378Y139091D01*
X242145Y139187D01*
X241894D01*
X241661Y139091D01*
X241483Y138913D01*
X241387Y138681D01*
Y138555D01*
D01*
X241387Y136560D01*
X241341Y136098D01*
X240988Y135245D01*
X240335Y134592D01*
X239481Y134238D01*
X238558D01*
X237704Y134592D01*
X237051Y135245D01*
X236698Y136098D01*
X236652Y136560D01*
D01*
X236652Y138555D01*
Y138680D01*
X236556Y138913D01*
X236378Y139091D01*
X236146Y139187D01*
X235894Y139188D01*
X235661Y139091D01*
X235483Y138914D01*
X235387Y138681D01*
X235387Y138555D01*
X235387D01*
X235387Y136560D01*
X235341Y136098D01*
X234988Y135245D01*
X234335Y134592D01*
X233481Y134238D01*
X232558D01*
X231704Y134592D01*
X231051Y135245D01*
X230698Y136098D01*
X230652Y136560D01*
D01*
Y138555D01*
Y138681D01*
X230556Y138913D01*
X230378Y139091D01*
X230145Y139187D01*
X229893D01*
X229661Y139091D01*
X229483Y138913D01*
X229387Y138681D01*
Y138555D01*
D01*
X229387Y136560D01*
X229341Y136098D01*
X228988Y135245D01*
X228335Y134592D01*
X227481Y134238D01*
X226558D01*
X225704Y134592D01*
X225051Y135245D01*
X224698Y136098D01*
X224652Y136560D01*
D01*
Y138555D01*
Y138681D01*
X224556Y138913D01*
X224378Y139091D01*
X224145Y139187D01*
X223893D01*
X223661Y139091D01*
X223483Y138913D01*
X223387Y138681D01*
Y138555D01*
D01*
Y136560D01*
X223341Y136098D01*
X222988Y135245D01*
X222335Y134592D01*
X221481Y134238D01*
X220558D01*
X219704Y134592D01*
X219051Y135245D01*
X218698Y136098D01*
X218652Y136560D01*
D01*
X218652Y138555D01*
Y138681D01*
X218556Y138913D01*
X218378Y139091D01*
X218145Y139187D01*
X217894D01*
X217661Y139091D01*
X217483Y138913D01*
X217387Y138681D01*
Y138555D01*
D01*
Y136560D01*
X217341Y136098D01*
X216988Y135245D01*
X216335Y134592D01*
X215481Y134238D01*
X214558D01*
X213704Y134592D01*
X213051Y135245D01*
X212698Y136098D01*
X212652Y136560D01*
D01*
X212652Y138555D01*
Y138681D01*
X212556Y138913D01*
X212378Y139091D01*
X212145Y139187D01*
X211894D01*
X211661Y139091D01*
X211483Y138913D01*
X211387Y138681D01*
Y138555D01*
D01*
Y136560D01*
X211341Y136098D01*
X210988Y135245D01*
X210334Y134592D01*
X209481Y134238D01*
X208558D01*
X207704Y134592D01*
X207051Y135245D01*
X206698Y136098D01*
X206652Y136560D01*
D01*
X206652Y136990D01*
Y137123D01*
X206551Y137368D01*
X206363Y137556D01*
X206117Y137658D01*
X205984D01*
Y137658D01*
X194549D01*
X194523Y137631D01*
X194530Y132419D01*
X194556Y132392D01*
X205983Y132408D01*
X206456Y132363D01*
X207330Y132003D01*
X207999Y131335D01*
X208361Y130463D01*
X208408Y129990D01*
X208408D01*
D02*
G37*
G36*
X208392Y122990D02*
X208349Y122864D01*
X208367Y122599D01*
X208484Y122360D01*
X208684Y122185D01*
X208936Y122099D01*
X209201Y122117D01*
X209440Y122234D01*
X209615Y122434D01*
X209658Y122560D01*
X209658Y122560D01*
Y125309D01*
X209703Y125771D01*
X210057Y126624D01*
X210710Y127278D01*
X211563Y127631D01*
X212487D01*
X213340Y127278D01*
X213993Y126624D01*
X214347Y125771D01*
X214392Y125309D01*
D01*
Y122560D01*
Y122434D01*
X214489Y122202D01*
X214667Y122024D01*
X214899Y121927D01*
X215151D01*
X215383Y122024D01*
X215561Y122202D01*
X215658Y122434D01*
Y122560D01*
D01*
Y125309D01*
X215703Y125771D01*
X216057Y126624D01*
X216710Y127277D01*
X217563Y127631D01*
X218487D01*
X219340Y127277D01*
X219993Y126624D01*
X220347Y125771D01*
X220392Y125309D01*
X220392Y125309D01*
Y122560D01*
Y122434D01*
X220489Y122202D01*
X220667Y122024D01*
X220899Y121927D01*
X221151D01*
X221383Y122024D01*
X221561Y122202D01*
X221658Y122434D01*
Y122560D01*
D01*
Y125309D01*
X221703Y125771D01*
X222057Y126624D01*
X222710Y127277D01*
X223563Y127631D01*
X224486Y127631D01*
X225340Y127278D01*
X225993Y126625D01*
X226346Y125772D01*
X226392Y125310D01*
X226392Y125310D01*
X226392Y122560D01*
Y122434D01*
X226488Y122202D01*
X226666Y122024D01*
X226899Y121927D01*
X227151D01*
X227383Y122024D01*
X227561Y122202D01*
X227658Y122434D01*
Y122560D01*
D01*
Y125309D01*
X227703Y125771D01*
X228057Y126624D01*
X228710Y127277D01*
X229563Y127631D01*
X230487D01*
X231340Y127277D01*
X231993Y126624D01*
X232347Y125771D01*
X232392Y125309D01*
X232392Y125309D01*
Y122560D01*
Y122434D01*
X232488Y122202D01*
X232666Y122024D01*
X232899Y121927D01*
X233151D01*
X233383Y122024D01*
X233561Y122202D01*
X233658Y122434D01*
Y122560D01*
D01*
Y125309D01*
X233703Y125771D01*
X234057Y126624D01*
X234710Y127277D01*
X235563Y127631D01*
X236486Y127631D01*
X237340Y127278D01*
X237993Y126625D01*
X238347Y125772D01*
X238392Y125310D01*
X238392Y125310D01*
X238392Y122560D01*
Y122434D01*
X238489Y122202D01*
X238667Y122024D01*
X238899Y121927D01*
X239151D01*
X239383Y122024D01*
X239561Y122202D01*
X239658Y122434D01*
Y122560D01*
D01*
Y125309D01*
X239703Y125771D01*
X240057Y126624D01*
X240710Y127278D01*
X241563Y127631D01*
X242487D01*
X243340Y127278D01*
X243993Y126624D01*
X244347Y125771D01*
X244392Y125309D01*
D01*
Y122560D01*
Y122434D01*
X244489Y122202D01*
X244667Y122024D01*
X244899Y121927D01*
X245151D01*
X245383Y122024D01*
X245561Y122202D01*
X245658Y122434D01*
Y122560D01*
D01*
Y125309D01*
X245703Y125771D01*
X246057Y126624D01*
X246710Y127277D01*
X247563Y127631D01*
X248487D01*
X249340Y127277D01*
X249993Y126624D01*
X250347Y125771D01*
X250392Y125309D01*
X250392Y125309D01*
Y122560D01*
Y122434D01*
X250488Y122202D01*
X250666Y122024D01*
X250899Y121927D01*
X251151D01*
X251383Y122024D01*
X251561Y122202D01*
X251658Y122434D01*
Y122560D01*
D01*
Y122990D01*
X251704Y123459D01*
X252063Y124325D01*
X252725Y124987D01*
X253591Y125346D01*
X254060Y125392D01*
X254060Y125392D01*
X265073D01*
X265099Y125419D01*
Y130631D01*
X265073Y130658D01*
X254060D01*
X253930D01*
X253691Y130559D01*
X253507Y130375D01*
X253408Y130136D01*
Y130006D01*
D01*
X253408Y129560D01*
X253362Y129097D01*
X253008Y128241D01*
X252352Y127585D01*
X251496Y127231D01*
X250570D01*
X249713Y127585D01*
X249058Y128241D01*
X248703Y129097D01*
X248658Y129560D01*
D01*
Y132320D01*
Y132445D01*
X248563Y132674D01*
X248387Y132850D01*
X248157Y132945D01*
X247909D01*
X247679Y132850D01*
X247503Y132674D01*
X247408Y132445D01*
Y132320D01*
D01*
X247408Y129560D01*
X247362Y129097D01*
X247008Y128241D01*
X246352Y127586D01*
X245496Y127231D01*
X244569D01*
X243713Y127586D01*
X243058Y128241D01*
X242704Y129097D01*
X242658Y129560D01*
Y129560D01*
Y132320D01*
Y132445D01*
X242563Y132674D01*
X242387Y132850D01*
X242157Y132945D01*
X241909D01*
X241679Y132850D01*
X241503Y132674D01*
X241408Y132445D01*
Y132320D01*
D01*
X241408Y129560D01*
X241362Y129097D01*
X241008Y128241D01*
X240352Y127585D01*
X239496Y127231D01*
X238569D01*
X237713Y127585D01*
X237058Y128241D01*
X236703Y129097D01*
X236658Y129560D01*
D01*
Y132320D01*
Y132445D01*
X236563Y132674D01*
X236387Y132850D01*
X236157Y132945D01*
X235909D01*
X235679Y132850D01*
X235503Y132674D01*
X235408Y132445D01*
Y132320D01*
D01*
Y129560D01*
X235362Y129097D01*
X235008Y128241D01*
X234352Y127585D01*
X233496Y127231D01*
X232570D01*
X231713Y127585D01*
X231058Y128241D01*
X230703Y129097D01*
X230658Y129560D01*
D01*
X230658Y132320D01*
Y132445D01*
X230563Y132674D01*
X230387Y132850D01*
X230157Y132945D01*
X229909D01*
X229679Y132850D01*
X229503Y132674D01*
X229408Y132445D01*
Y132320D01*
D01*
Y129560D01*
X229362Y129097D01*
X229008Y128241D01*
X228352Y127585D01*
X227496Y127231D01*
X226570D01*
X225713Y127585D01*
X225058Y128241D01*
X224703Y129097D01*
X224658Y129560D01*
D01*
X224658Y132320D01*
Y132445D01*
X224563Y132674D01*
X224387Y132850D01*
X224157Y132945D01*
X223909D01*
X223679Y132850D01*
X223503Y132674D01*
X223408Y132445D01*
Y132320D01*
D01*
X223408Y129560D01*
X223362Y129097D01*
X223008Y128241D01*
X222352Y127585D01*
X221496Y127231D01*
X220569D01*
X219713Y127585D01*
X219058Y128241D01*
X218703Y129097D01*
X218658Y129560D01*
D01*
Y132320D01*
Y132445D01*
X218563Y132674D01*
X218387Y132850D01*
X218157Y132945D01*
X217909D01*
X217679Y132850D01*
X217503Y132674D01*
X217408Y132445D01*
Y132320D01*
D01*
X217408Y129560D01*
X217362Y129097D01*
X217007Y128241D01*
X216352Y127586D01*
X215496Y127231D01*
X214569D01*
X213713Y127586D01*
X213058Y128241D01*
X212703Y129097D01*
X212658Y129560D01*
Y129560D01*
Y132320D01*
Y132445D01*
X212563Y132674D01*
X212387Y132850D01*
X212157Y132945D01*
X211909D01*
X211679Y132850D01*
X211503Y132674D01*
X211408Y132445D01*
Y132320D01*
D01*
X211408Y129560D01*
X211362Y129097D01*
X211008Y128241D01*
X210352Y127585D01*
X209496Y127231D01*
X208570D01*
X207713Y127585D01*
X207058Y128241D01*
X206703Y129097D01*
X206658Y129560D01*
D01*
X206658Y129990D01*
Y130123D01*
X206556Y130368D01*
X206368Y130556D01*
X206123Y130658D01*
X205990D01*
Y130658D01*
X194559D01*
X194532Y130631D01*
X194539Y125419D01*
X194566Y125392D01*
X205990Y125392D01*
X206458Y125346D01*
X207324Y124987D01*
X207987Y124325D01*
X208346Y123459D01*
X208392Y122990D01*
X208392Y122990D01*
D02*
G37*
G36*
X208419Y115525D02*
Y115990D01*
X208372Y116464D01*
X208009Y117339D01*
X207339Y118009D01*
X206464Y118372D01*
X205990Y118419D01*
X205990D01*
X194576D01*
X194569Y123631D01*
X205990D01*
X206117D01*
X206353Y123534D01*
X206534Y123353D01*
X206631Y123117D01*
Y122990D01*
Y122990D01*
Y122560D01*
X206677Y122093D01*
X207035Y121230D01*
X207695Y120570D01*
X208558Y120212D01*
X209492D01*
X210355Y120570D01*
X211015Y121230D01*
X211373Y122093D01*
X211419Y122560D01*
D01*
X211419Y125309D01*
Y125560D01*
X211774Y125916D01*
X212276D01*
X212631Y125560D01*
Y125309D01*
D01*
Y122560D01*
X212677Y122093D01*
X213035Y121230D01*
X213695Y120570D01*
X214558Y120212D01*
X215492D01*
X216355Y120570D01*
X217015Y121230D01*
X217373Y122093D01*
X217419Y122560D01*
X217419D01*
Y125309D01*
Y125560D01*
X217774Y125916D01*
X218276D01*
X218631Y125560D01*
Y125309D01*
D01*
Y122560D01*
X218677Y122093D01*
X219035Y121230D01*
X219695Y120570D01*
X220558Y120212D01*
X221492D01*
X222355Y120570D01*
X223015Y121230D01*
X223373Y122093D01*
X223419Y122560D01*
D01*
X223419Y125309D01*
Y125560D01*
X223774Y125916D01*
X224276D01*
X224631Y125560D01*
Y125309D01*
D01*
Y122560D01*
X224677Y122093D01*
X225035Y121230D01*
X225695Y120570D01*
X226558Y120212D01*
X227492D01*
X228355Y120570D01*
X229015Y121230D01*
X229373Y122093D01*
X229419Y122560D01*
D01*
Y125309D01*
Y125560D01*
X229774Y125916D01*
X230276D01*
X230631Y125560D01*
Y125309D01*
D01*
Y122560D01*
X230677Y122093D01*
X231035Y121230D01*
X231695Y120570D01*
X232558Y120212D01*
X233492D01*
X234355Y120570D01*
X235015Y121230D01*
X235373Y122093D01*
X235419Y122560D01*
X235419D01*
Y125309D01*
Y125560D01*
X235774Y125916D01*
X236276D01*
X236631Y125560D01*
Y125309D01*
D01*
Y122560D01*
X236677Y122093D01*
X237035Y121230D01*
X237695Y120570D01*
X238558Y120212D01*
X239492D01*
X240355Y120570D01*
X241015Y121230D01*
X241373Y122093D01*
X241419Y122560D01*
D01*
X241419Y125309D01*
Y125560D01*
X241774Y125916D01*
X242276D01*
X242631Y125560D01*
Y125309D01*
D01*
Y122560D01*
X242677Y122093D01*
X243035Y121230D01*
X243695Y120570D01*
X244558Y120212D01*
X245492D01*
X246355Y120570D01*
X247015Y121230D01*
X247373Y122093D01*
X247419Y122560D01*
X247419D01*
Y125309D01*
Y125560D01*
X247774Y125916D01*
X248276D01*
X248631Y125560D01*
Y125309D01*
D01*
Y122560D01*
X248677Y122093D01*
X249035Y121230D01*
X249695Y120570D01*
X250558Y120212D01*
X251492D01*
X252355Y120570D01*
X253015Y121230D01*
X253373Y122093D01*
X253419Y122560D01*
D01*
X253419Y122990D01*
Y123118D01*
X253516Y123353D01*
X253697Y123534D01*
X253932Y123631D01*
X254060D01*
X254060Y123631D01*
X265073D01*
Y118419D01*
X254060Y118419D01*
X253586Y118372D01*
X252711Y118009D01*
X252041Y117339D01*
X251678Y116464D01*
X251631Y115990D01*
Y115990D01*
Y115525D01*
Y115274D01*
X251276Y114919D01*
X250774D01*
X250419Y115274D01*
Y115525D01*
D01*
Y118309D01*
X250373Y118776D01*
X250015Y119639D01*
X249355Y120300D01*
X248492Y120657D01*
X247558D01*
X246695Y120300D01*
X246035Y119639D01*
X245677Y118776D01*
X245631Y118309D01*
D01*
X245631Y115525D01*
Y115274D01*
X245276Y114919D01*
X244774D01*
X244419Y115274D01*
Y115525D01*
D01*
Y118309D01*
X244373Y118776D01*
X244015Y119639D01*
X243355Y120300D01*
X242492Y120657D01*
X241558D01*
X240695Y120300D01*
X240035Y119639D01*
X239677Y118776D01*
X239631Y118309D01*
D01*
Y115525D01*
Y115274D01*
X239276Y114919D01*
X238774D01*
X238419Y115274D01*
Y115525D01*
D01*
X238419Y118309D01*
X238373Y118776D01*
X238015Y119639D01*
X237355Y120300D01*
X236492Y120657D01*
X235558D01*
X234695Y120300D01*
X234035Y119639D01*
X233677Y118776D01*
X233631Y118309D01*
D01*
Y115525D01*
Y115274D01*
X233276Y114919D01*
X232774D01*
X232419Y115274D01*
Y115525D01*
D01*
Y118309D01*
X232373Y118776D01*
X232015Y119639D01*
X231355Y120300D01*
X230492Y120657D01*
X229558D01*
X228695Y120300D01*
X228035Y119639D01*
X227677Y118776D01*
X227631Y118309D01*
D01*
X227631Y115525D01*
Y115274D01*
X227276Y114919D01*
X226774D01*
X226419Y115274D01*
Y115525D01*
D01*
X226419Y118309D01*
X226373Y118776D01*
X226015Y119639D01*
X225355Y120300D01*
X224492Y120657D01*
X223558D01*
X222695Y120300D01*
X222035Y119639D01*
X221677Y118776D01*
X221631Y118309D01*
D01*
Y115525D01*
Y115274D01*
X221276Y114919D01*
X220774D01*
X220419Y115274D01*
Y115525D01*
D01*
Y118309D01*
X220373Y118776D01*
X220015Y119639D01*
X219355Y120300D01*
X218492Y120657D01*
X217558D01*
X216695Y120300D01*
X216035Y119639D01*
X215677Y118776D01*
X215631Y118309D01*
D01*
X215631Y115525D01*
Y115274D01*
X215276Y114919D01*
X214774D01*
X214419Y115274D01*
Y115525D01*
D01*
Y118309D01*
X214373Y118776D01*
X214015Y119639D01*
X213355Y120300D01*
X212492Y120657D01*
X211558D01*
X210695Y120300D01*
X210035Y119639D01*
X209677Y118776D01*
X209631Y118309D01*
D01*
Y115525D01*
Y115274D01*
X209276Y114919D01*
X208774D01*
X208419Y115274D01*
Y115525D01*
D01*
D02*
G37*
G36*
X205986Y110908D02*
X206459Y110862D01*
X207331Y110502D01*
X208000Y109834D01*
X208361Y108962D01*
X208408Y108490D01*
X208408Y108490D01*
X208408Y108025D01*
Y107901D01*
X208503Y107672D01*
X208678Y107497D01*
X208907Y107402D01*
X209155Y107401D01*
X209384Y107496D01*
X209560Y107671D01*
X209655Y107900D01*
X209655Y108024D01*
X209655Y108024D01*
X209655Y111309D01*
X209701Y111772D01*
X210055Y112628D01*
X210710Y113283D01*
X211566Y113637D01*
X212492D01*
X213347Y113283D01*
X214002Y112628D01*
X214357Y111772D01*
X214402Y111309D01*
D01*
X214402Y108025D01*
Y107901D01*
X214497Y107672D01*
X214673Y107496D01*
X214902Y107402D01*
X215150D01*
X215379Y107496D01*
X215554Y107672D01*
X215649Y107901D01*
Y108025D01*
X215649D01*
Y111309D01*
X215695Y111772D01*
X216050Y112628D01*
X216704Y113283D01*
X217560Y113637D01*
X218486D01*
X219342Y113283D01*
X219997Y112628D01*
X220351Y111772D01*
X220397Y111309D01*
D01*
X220397Y108025D01*
Y107901D01*
X220492Y107672D01*
X220667Y107496D01*
X220896Y107402D01*
X221144D01*
X221374Y107496D01*
X221549Y107672D01*
X221644Y107901D01*
Y108025D01*
X221644D01*
Y111309D01*
X221690Y111772D01*
X222044Y112628D01*
X222699Y113283D01*
X223554Y113637D01*
X224481D01*
X225336Y113283D01*
X225991Y112628D01*
X226346Y111772D01*
X226391Y111309D01*
D01*
X226391Y108025D01*
X226391Y107901D01*
X226486Y107672D01*
X226661Y107497D01*
X226890Y107402D01*
X227138Y107401D01*
X227368Y107496D01*
X227543Y107671D01*
X227638Y107900D01*
X227638Y108024D01*
X227638Y108024D01*
X227638Y111309D01*
X227684Y111772D01*
X228038Y112628D01*
X228693Y113283D01*
X229549Y113637D01*
X230475D01*
X231331Y113283D01*
X231986Y112628D01*
X232340Y111772D01*
X232386Y111309D01*
D01*
X232386Y108025D01*
Y107901D01*
X232481Y107672D01*
X232656Y107496D01*
X232885Y107402D01*
X233133D01*
X233363Y107496D01*
X233538Y107672D01*
X233633Y107901D01*
Y108025D01*
X233633D01*
Y111309D01*
X233679Y111772D01*
X234033Y112628D01*
X234688Y113283D01*
X235543Y113637D01*
X236470D01*
X237325Y113283D01*
X237980Y112628D01*
X238335Y111772D01*
X238380Y111309D01*
D01*
X238380Y108025D01*
Y107901D01*
X238475Y107672D01*
X238651Y107496D01*
X238880Y107402D01*
X239128D01*
X239357Y107496D01*
X239532Y107672D01*
X239627Y107901D01*
Y108025D01*
X239627D01*
Y111309D01*
X239673Y111772D01*
X240027Y112628D01*
X240682Y113283D01*
X241538Y113637D01*
X242464D01*
X243320Y113283D01*
X243975Y112628D01*
X244329Y111772D01*
X244375Y111309D01*
D01*
X244375Y108025D01*
X244375Y107901D01*
X244470Y107672D01*
X244645Y107497D01*
X244874Y107402D01*
X245122Y107401D01*
X245351Y107496D01*
X245527Y107671D01*
X245622Y107900D01*
X245622Y108024D01*
X245622Y108024D01*
X245622Y111309D01*
X245667Y111772D01*
X246022Y112628D01*
X246677Y113283D01*
X247533Y113637D01*
X248459D01*
X249314Y113283D01*
X249969Y112628D01*
X250324Y111772D01*
X250369Y111309D01*
D01*
Y108025D01*
Y107901D01*
X250464Y107672D01*
X250640Y107496D01*
X250869Y107402D01*
X251117D01*
X251346Y107496D01*
X251521Y107672D01*
X251616Y107901D01*
Y108025D01*
D01*
Y108464D01*
X251663Y108941D01*
X252028Y109822D01*
X252702Y110496D01*
X253583Y110861D01*
X254060Y110908D01*
X254060Y110908D01*
X265073D01*
X265099Y110934D01*
Y116631D01*
X265073Y116658D01*
X254060Y116658D01*
X253927D01*
X253682Y116556D01*
X253494Y116368D01*
X253392Y116123D01*
Y115990D01*
X253392D01*
Y115524D01*
X253347Y115062D01*
X252993Y114209D01*
X252340Y113557D01*
X251486Y113203D01*
X250563Y113203D01*
X249710Y113557D01*
X249057Y114210D01*
X248703Y115063D01*
X248658Y115525D01*
Y115525D01*
Y118309D01*
Y118435D01*
X248561Y118668D01*
X248383Y118846D01*
X248151Y118942D01*
X247899D01*
X247667Y118846D01*
X247488Y118668D01*
X247392Y118435D01*
Y118309D01*
D01*
X247392Y115525D01*
X247347Y115063D01*
X246993Y114210D01*
X246340Y113557D01*
X245487Y113203D01*
X244564Y113203D01*
X243710Y113557D01*
X243057Y114209D01*
X242703Y115062D01*
X242658Y115524D01*
X242658Y115524D01*
X242658Y118309D01*
Y118435D01*
X242561Y118668D01*
X242383Y118846D01*
X242151Y118942D01*
X241899D01*
X241667Y118846D01*
X241489Y118668D01*
X241392Y118435D01*
Y118309D01*
D01*
X241392Y115525D01*
X241347Y115063D01*
X240993Y114210D01*
X240340Y113557D01*
X239487Y113204D01*
X238563D01*
X237710Y113557D01*
X237057Y114210D01*
X236703Y115063D01*
X236658Y115525D01*
Y115525D01*
Y118309D01*
Y118435D01*
X236561Y118668D01*
X236383Y118846D01*
X236151Y118942D01*
X235899D01*
X235666Y118846D01*
X235489Y118668D01*
X235392Y118435D01*
Y118309D01*
D01*
X235392Y115525D01*
X235347Y115063D01*
X234993Y114210D01*
X234340Y113557D01*
X233487Y113203D01*
X232563Y113203D01*
X231710Y113557D01*
X231057Y114209D01*
X230703Y115062D01*
X230658Y115524D01*
X230658Y115524D01*
X230658Y118309D01*
Y118435D01*
X230561Y118668D01*
X230383Y118846D01*
X230151Y118942D01*
X229899D01*
X229666Y118846D01*
X229488Y118668D01*
X229392Y118435D01*
Y118309D01*
D01*
Y115525D01*
X229347Y115063D01*
X228993Y114210D01*
X228340Y113557D01*
X227487Y113203D01*
X226563D01*
X225710Y113557D01*
X225057Y114210D01*
X224703Y115063D01*
X224658Y115525D01*
D01*
Y118309D01*
Y118435D01*
X224561Y118668D01*
X224383Y118846D01*
X224151Y118942D01*
X223899D01*
X223667Y118846D01*
X223488Y118668D01*
X223392Y118435D01*
Y118309D01*
D01*
X223392Y115525D01*
X223347Y115063D01*
X222993Y114210D01*
X222340Y113557D01*
X221487Y113204D01*
X220563D01*
X219710Y113557D01*
X219057Y114210D01*
X218703Y115063D01*
X218658Y115525D01*
Y115525D01*
Y118309D01*
Y118435D01*
X218561Y118668D01*
X218383Y118846D01*
X218151Y118942D01*
X217899D01*
X217667Y118846D01*
X217489Y118668D01*
X217392Y118435D01*
Y118309D01*
D01*
X217392Y115525D01*
X217347Y115063D01*
X216993Y114210D01*
X216340Y113557D01*
X215487Y113203D01*
X214563Y113203D01*
X213710Y113557D01*
X213057Y114209D01*
X212703Y115062D01*
X212658Y115524D01*
X212658Y115524D01*
X212658Y118309D01*
Y118435D01*
X212561Y118668D01*
X212383Y118846D01*
X212151Y118942D01*
X211899D01*
X211666Y118846D01*
X211489Y118668D01*
X211392Y118435D01*
Y118309D01*
D01*
X211392Y115525D01*
X211347Y115063D01*
X210993Y114210D01*
X210340Y113557D01*
X209487Y113204D01*
X208563D01*
X207710Y113557D01*
X207057Y114210D01*
X206703Y115063D01*
X206658Y115525D01*
Y115525D01*
X206658Y115990D01*
X206658Y116123D01*
X206556Y116369D01*
X206367Y116557D01*
X206121Y116658D01*
X205988Y116658D01*
X205988Y116658D01*
X194578Y116642D01*
X194552Y116615D01*
X194560Y110919D01*
X194586Y110892D01*
X205986Y110908D01*
D02*
G37*
G36*
D02*
X206459Y110862D01*
X207331Y110502D01*
X208000Y109834D01*
X208361Y108962D01*
X208408Y108490D01*
X208408Y108490D01*
X208408Y108025D01*
Y107901D01*
X208503Y107672D01*
X208678Y107497D01*
X208907Y107402D01*
X209155Y107401D01*
X209384Y107496D01*
X209560Y107671D01*
X209655Y107900D01*
X209655Y108024D01*
X209655Y108024D01*
X209655Y111309D01*
X209701Y111772D01*
X210055Y112628D01*
X210710Y113283D01*
X211566Y113637D01*
X212492D01*
X213347Y113283D01*
X214002Y112628D01*
X214357Y111772D01*
X214402Y111309D01*
D01*
X214402Y108025D01*
Y107901D01*
X214497Y107672D01*
X214673Y107496D01*
X214902Y107402D01*
X215150D01*
X215379Y107496D01*
X215554Y107672D01*
X215649Y107901D01*
Y108025D01*
X215649D01*
Y111309D01*
X215695Y111772D01*
X216050Y112628D01*
X216704Y113283D01*
X217560Y113637D01*
X218486D01*
X219342Y113283D01*
X219997Y112628D01*
X220351Y111772D01*
X220397Y111309D01*
D01*
X220397Y108025D01*
Y107901D01*
X220492Y107672D01*
X220667Y107496D01*
X220896Y107402D01*
X221144D01*
X221374Y107496D01*
X221549Y107672D01*
X221644Y107901D01*
Y108025D01*
X221644D01*
Y111309D01*
X221690Y111772D01*
X222044Y112628D01*
X222699Y113283D01*
X223554Y113637D01*
X224481D01*
X225336Y113283D01*
X225991Y112628D01*
X226346Y111772D01*
X226391Y111309D01*
D01*
X226391Y108025D01*
X226391Y107901D01*
X226486Y107672D01*
X226661Y107497D01*
X226890Y107402D01*
X227138Y107401D01*
X227368Y107496D01*
X227543Y107671D01*
X227638Y107900D01*
X227638Y108024D01*
X227638Y108024D01*
X227638Y111309D01*
X227684Y111772D01*
X228038Y112628D01*
X228693Y113283D01*
X229549Y113637D01*
X230475D01*
X231331Y113283D01*
X231986Y112628D01*
X232340Y111772D01*
X232386Y111309D01*
D01*
X232386Y108025D01*
Y107901D01*
X232481Y107672D01*
X232656Y107496D01*
X232885Y107402D01*
X233133D01*
X233363Y107496D01*
X233538Y107672D01*
X233633Y107901D01*
Y108025D01*
X233633D01*
Y111309D01*
X233679Y111772D01*
X234033Y112628D01*
X234688Y113283D01*
X235543Y113637D01*
X236470D01*
X237325Y113283D01*
X237980Y112628D01*
X238335Y111772D01*
X238380Y111309D01*
D01*
X238380Y108025D01*
Y107901D01*
X238475Y107672D01*
X238651Y107496D01*
X238880Y107402D01*
X239128D01*
X239357Y107496D01*
X239532Y107672D01*
X239627Y107901D01*
Y108025D01*
X239627D01*
Y111309D01*
X239673Y111772D01*
X240027Y112628D01*
X240682Y113283D01*
X241538Y113637D01*
X242464D01*
X243320Y113283D01*
X243975Y112628D01*
X244329Y111772D01*
X244375Y111309D01*
D01*
X244375Y108025D01*
X244375Y107901D01*
X244470Y107672D01*
X244645Y107497D01*
X244874Y107402D01*
X245122Y107401D01*
X245351Y107496D01*
X245527Y107671D01*
X245622Y107900D01*
X245622Y108024D01*
X245622Y108024D01*
X245622Y111309D01*
X245667Y111772D01*
X246022Y112628D01*
X246677Y113283D01*
X247533Y113637D01*
X248459D01*
X249314Y113283D01*
X249969Y112628D01*
X250324Y111772D01*
X250369Y111309D01*
D01*
Y108025D01*
Y107901D01*
X250464Y107672D01*
X250640Y107496D01*
X250869Y107402D01*
X251117D01*
X251346Y107496D01*
X251521Y107672D01*
X251616Y107901D01*
Y108025D01*
D01*
Y108464D01*
X251663Y108941D01*
X252028Y109822D01*
X252702Y110496D01*
X253583Y110861D01*
X254060Y110908D01*
X254060Y110908D01*
X265073D01*
X265099Y110934D01*
Y116631D01*
X265073Y116658D01*
X254060Y116658D01*
X253927D01*
X253682Y116556D01*
X253494Y116368D01*
X253392Y116123D01*
Y115990D01*
X253392D01*
Y115524D01*
X253347Y115062D01*
X252993Y114209D01*
X252340Y113557D01*
X251486Y113203D01*
X250563Y113203D01*
X249710Y113557D01*
X249057Y114210D01*
X248703Y115063D01*
X248658Y115525D01*
Y115525D01*
Y118309D01*
Y118435D01*
X248561Y118668D01*
X248383Y118846D01*
X248151Y118942D01*
X247899D01*
X247667Y118846D01*
X247488Y118668D01*
X247392Y118435D01*
Y118309D01*
D01*
X247392Y115525D01*
X247347Y115063D01*
X246993Y114210D01*
X246340Y113557D01*
X245487Y113203D01*
X244564Y113203D01*
X243710Y113557D01*
X243057Y114209D01*
X242703Y115062D01*
X242658Y115524D01*
X242658Y115524D01*
X242658Y118309D01*
Y118435D01*
X242561Y118668D01*
X242383Y118846D01*
X242151Y118942D01*
X241899D01*
X241667Y118846D01*
X241489Y118668D01*
X241392Y118435D01*
Y118309D01*
D01*
X241392Y115525D01*
X241347Y115063D01*
X240993Y114210D01*
X240340Y113557D01*
X239487Y113204D01*
X238563D01*
X237710Y113557D01*
X237057Y114210D01*
X236703Y115063D01*
X236658Y115525D01*
Y115525D01*
Y118309D01*
Y118435D01*
X236561Y118668D01*
X236383Y118846D01*
X236151Y118942D01*
X235899D01*
X235666Y118846D01*
X235489Y118668D01*
X235392Y118435D01*
Y118309D01*
D01*
X235392Y115525D01*
X235347Y115063D01*
X234993Y114210D01*
X234340Y113557D01*
X233487Y113203D01*
X232563Y113203D01*
X231710Y113557D01*
X231057Y114209D01*
X230703Y115062D01*
X230658Y115524D01*
X230658Y115524D01*
X230658Y118309D01*
Y118435D01*
X230561Y118668D01*
X230383Y118846D01*
X230151Y118942D01*
X229899D01*
X229666Y118846D01*
X229488Y118668D01*
X229392Y118435D01*
Y118309D01*
D01*
Y115525D01*
X229347Y115063D01*
X228993Y114210D01*
X228340Y113557D01*
X227487Y113203D01*
X226563D01*
X225710Y113557D01*
X225057Y114210D01*
X224703Y115063D01*
X224658Y115525D01*
D01*
Y118309D01*
Y118435D01*
X224561Y118668D01*
X224383Y118846D01*
X224151Y118942D01*
X223899D01*
X223667Y118846D01*
X223488Y118668D01*
X223392Y118435D01*
Y118309D01*
D01*
X223392Y115525D01*
X223347Y115063D01*
X222993Y114210D01*
X222340Y113557D01*
X221487Y113204D01*
X220563D01*
X219710Y113557D01*
X219057Y114210D01*
X218703Y115063D01*
X218658Y115525D01*
Y115525D01*
Y118309D01*
Y118435D01*
X218561Y118668D01*
X218383Y118846D01*
X218151Y118942D01*
X217899D01*
X217667Y118846D01*
X217489Y118668D01*
X217392Y118435D01*
Y118309D01*
D01*
X217392Y115525D01*
X217347Y115063D01*
X216993Y114210D01*
X216340Y113557D01*
X215487Y113203D01*
X214563Y113203D01*
X213710Y113557D01*
X213057Y114209D01*
X212703Y115062D01*
X212658Y115524D01*
X212658Y115524D01*
X212658Y118309D01*
Y118435D01*
X212561Y118668D01*
X212383Y118846D01*
X212151Y118942D01*
X211899D01*
X211666Y118846D01*
X211489Y118668D01*
X211392Y118435D01*
Y118309D01*
D01*
X211392Y115525D01*
X211347Y115063D01*
X210993Y114210D01*
X210340Y113557D01*
X209487Y113204D01*
X208563D01*
X207710Y113557D01*
X207057Y114210D01*
X206703Y115063D01*
X206658Y115525D01*
Y115525D01*
X206658Y115990D01*
X206658Y116123D01*
X206556Y116369D01*
X206367Y116557D01*
X206121Y116658D01*
X205988Y116658D01*
X205988Y116658D01*
X194578Y116642D01*
X194552Y116615D01*
X194560Y110919D01*
X194586Y110892D01*
X205986Y110908D01*
D02*
G37*
G36*
X208387Y136990D02*
X208344Y136864D01*
X208361Y136599D01*
X208479Y136360D01*
X208679Y136185D01*
X208930Y136100D01*
X209196Y136117D01*
X209434Y136234D01*
X209610Y136434D01*
X209652Y136560D01*
X209652Y136560D01*
X209652Y138555D01*
X209698Y139016D01*
X210051Y139870D01*
X210704Y140523D01*
X211558Y140876D01*
X212481D01*
X213334Y140523D01*
X213988Y139870D01*
X214341Y139016D01*
X214387Y138555D01*
X214387D01*
Y136560D01*
Y136434D01*
X214483Y136202D01*
X214661Y136024D01*
X214894Y135927D01*
X215145D01*
X215378Y136024D01*
X215556Y136202D01*
X215652Y136434D01*
Y136560D01*
D01*
X215652Y138555D01*
X215698Y139016D01*
X216051Y139870D01*
X216704Y140523D01*
X217558Y140876D01*
X218481D01*
X219335Y140523D01*
X219988Y139870D01*
X220341Y139016D01*
X220387Y138555D01*
D01*
Y136560D01*
Y136434D01*
X220483Y136202D01*
X220661Y136024D01*
X220894Y135927D01*
X221145D01*
X221378Y136024D01*
X221556Y136202D01*
X221652Y136434D01*
Y136560D01*
D01*
X221652Y138555D01*
X221698Y139016D01*
X222051Y139870D01*
X222704Y140523D01*
X223558Y140876D01*
X224481D01*
X225335Y140523D01*
X225988Y139870D01*
X226341Y139016D01*
X226387Y138555D01*
D01*
Y136560D01*
Y136434D01*
X226483Y136202D01*
X226661Y136024D01*
X226893Y135927D01*
X227145D01*
X227378Y136024D01*
X227556Y136202D01*
X227652Y136434D01*
Y136560D01*
X227652D01*
Y138555D01*
X227698Y139016D01*
X228051Y139870D01*
X228704Y140523D01*
X229558Y140876D01*
X230481D01*
X231335Y140523D01*
X231988Y139870D01*
X232341Y139016D01*
X232387Y138555D01*
D01*
Y136560D01*
X232387Y136434D01*
X232483Y136202D01*
X232661Y136024D01*
X232894Y135928D01*
X233145D01*
X233378Y136024D01*
X233556Y136202D01*
X233652Y136434D01*
X233652Y136560D01*
X233652Y136560D01*
Y138555D01*
X233698Y139016D01*
X234051Y139870D01*
X234704Y140523D01*
X235558Y140876D01*
X236481D01*
X237335Y140523D01*
X237988Y139870D01*
X238341Y139016D01*
X238387Y138555D01*
D01*
Y136560D01*
Y136434D01*
X238483Y136202D01*
X238661Y136024D01*
X238894Y135927D01*
X239145D01*
X239378Y136024D01*
X239556Y136202D01*
X239652Y136434D01*
Y136560D01*
D01*
Y138555D01*
X239698Y139016D01*
X240051Y139870D01*
X240704Y140523D01*
X241558Y140876D01*
X242481D01*
X243335Y140523D01*
X243988Y139870D01*
X244341Y139016D01*
X244387Y138555D01*
D01*
Y136560D01*
Y136434D01*
X244483Y136202D01*
X244661Y136024D01*
X244894Y135927D01*
X245145D01*
X245378Y136024D01*
X245556Y136202D01*
X245652Y136434D01*
Y136560D01*
X245652D01*
Y138555D01*
X245698Y139016D01*
X246051Y139870D01*
X246704Y140523D01*
X247558Y140876D01*
X248481D01*
X249335Y140523D01*
X249988Y139870D01*
X250341Y139016D01*
X250387Y138555D01*
D01*
Y136560D01*
Y136434D01*
X250483Y136202D01*
X250661Y136024D01*
X250894Y135927D01*
X251145D01*
X251378Y136024D01*
X251556Y136202D01*
X251652Y136434D01*
Y136560D01*
D01*
X251652Y136990D01*
X251698Y137459D01*
X252057Y138325D01*
X252720Y138987D01*
X253586Y139346D01*
X254054Y139392D01*
D01*
X265073D01*
X265099Y139419D01*
Y144631D01*
X265073Y144658D01*
X253862D01*
X253720D01*
X253460Y144550D01*
X253260Y144350D01*
X253152Y144089D01*
Y143948D01*
D01*
Y143530D01*
X253106Y143069D01*
X252753Y142216D01*
X252100Y141563D01*
X251247Y141210D01*
X250324D01*
X249471Y141563D01*
X248819Y142216D01*
X248465Y143069D01*
X248420Y143530D01*
D01*
X248420Y145997D01*
X248420Y146122D01*
X248324Y146354D01*
X248146Y146532D01*
X247914Y146628D01*
X247663D01*
X247431Y146532D01*
X247253Y146354D01*
X247157Y146122D01*
X247157Y145997D01*
Y145997D01*
Y143530D01*
X247112Y143069D01*
X246759Y142216D01*
X246106Y141563D01*
X245253Y141210D01*
X244330D01*
X243477Y141563D01*
X242824Y142216D01*
X242471Y143069D01*
X242426Y143530D01*
D01*
X242426Y145997D01*
Y146122D01*
X242330Y146354D01*
X242152Y146532D01*
X241920Y146628D01*
X241669D01*
X241437Y146532D01*
X241259Y146354D01*
X241163Y146122D01*
Y145997D01*
D01*
X241163Y143530D01*
X241117Y143069D01*
X240764Y142216D01*
X240111Y141563D01*
X239259Y141210D01*
X238335D01*
X237483Y141563D01*
X236830Y142216D01*
X236477Y143069D01*
X236431Y143530D01*
D01*
Y145997D01*
Y146122D01*
X236335Y146354D01*
X236157Y146532D01*
X235925Y146628D01*
X235674D01*
X235442Y146532D01*
X235264Y146354D01*
X235168Y146122D01*
Y145997D01*
D01*
Y143530D01*
X235123Y143069D01*
X234770Y142216D01*
X234117Y141563D01*
X233264Y141210D01*
X232341D01*
X231488Y141563D01*
X230835Y142216D01*
X230482Y143069D01*
X230437Y143530D01*
D01*
Y145997D01*
Y146122D01*
X230341Y146354D01*
X230163Y146532D01*
X229931Y146628D01*
X229680D01*
X229448Y146532D01*
X229270Y146354D01*
X229174Y146122D01*
Y145997D01*
D01*
Y143530D01*
X229128Y143069D01*
X228775Y142216D01*
X228122Y141563D01*
X227270Y141210D01*
X226346D01*
X225494Y141563D01*
X224841Y142216D01*
X224488Y143069D01*
X224442Y143530D01*
D01*
X224442Y145997D01*
Y146122D01*
X224346Y146354D01*
X224168Y146532D01*
X223936Y146628D01*
X223685D01*
X223453Y146532D01*
X223276Y146354D01*
X223179Y146122D01*
Y145997D01*
D01*
X223179Y143530D01*
X223134Y143069D01*
X222781Y142216D01*
X222128Y141563D01*
X221275Y141210D01*
X220352D01*
X219499Y141563D01*
X218847Y142216D01*
X218493Y143069D01*
X218448Y143530D01*
D01*
X218448Y145997D01*
Y146122D01*
X218352Y146354D01*
X218174Y146532D01*
X217942Y146628D01*
X217691Y146628D01*
X217459Y146532D01*
X217282Y146355D01*
X217185Y146123D01*
X217185Y145997D01*
X217185D01*
X217185Y143530D01*
X217140Y143069D01*
X216786Y142216D01*
X216133Y141563D01*
X215281Y141210D01*
X214358D01*
X213505Y141563D01*
X212852Y142216D01*
X212499Y143069D01*
X212453Y143530D01*
D01*
Y145997D01*
Y146122D01*
X212357Y146354D01*
X212180Y146532D01*
X211947Y146628D01*
X211696D01*
X211464Y146532D01*
X211287Y146354D01*
X211191Y146122D01*
Y145997D01*
D01*
Y143530D01*
X211145Y143069D01*
X210792Y142216D01*
X210139Y141563D01*
X209286Y141210D01*
X208363D01*
X207510Y141563D01*
X206858Y142216D01*
X206504Y143069D01*
X206459Y143530D01*
D01*
X206459Y143990D01*
Y144123D01*
X206357Y144368D01*
X206169Y144556D01*
X205924Y144658D01*
X205791D01*
X205791Y144658D01*
X194539D01*
X194513Y144631D01*
X194520Y139419D01*
X194547Y139392D01*
X205949Y139392D01*
X206423Y139352D01*
X207301Y138999D01*
X207975Y138336D01*
X208340Y137463D01*
X208387Y136990D01*
X208387D01*
D02*
G37*
G36*
X205995Y153419D02*
X206469Y153372D01*
X207344Y153009D01*
X208014Y152339D01*
X208377Y151464D01*
X208424Y150990D01*
X208424Y150990D01*
Y150543D01*
Y150298D01*
X208772Y149950D01*
X209263D01*
X209611Y150298D01*
Y150543D01*
D01*
Y153717D01*
X209657Y154185D01*
X210016Y155050D01*
X210678Y155712D01*
X211543Y156070D01*
X212479D01*
X213344Y155712D01*
X214006Y155050D01*
X214364Y154185D01*
X214410Y153717D01*
D01*
Y150543D01*
Y150298D01*
X214758Y149950D01*
X215250D01*
X215598Y150298D01*
Y150543D01*
X215598D01*
Y153717D01*
X215644Y154185D01*
X216002Y155050D01*
X216664Y155712D01*
X217529Y156070D01*
X218465D01*
X219330Y155712D01*
X219992Y155050D01*
X220351Y154185D01*
X220397Y153717D01*
D01*
Y150543D01*
Y150298D01*
X220745Y149950D01*
X221236D01*
X221584Y150298D01*
Y150543D01*
X221584D01*
Y153717D01*
X221630Y154185D01*
X221989Y155050D01*
X222651Y155712D01*
X223516Y156070D01*
X224452D01*
X225317Y155712D01*
X225979Y155050D01*
X226337Y154185D01*
X226383Y153717D01*
X226383D01*
Y150543D01*
Y150298D01*
X226731Y149950D01*
X227223D01*
X227571Y150298D01*
Y150543D01*
D01*
X227571Y153717D01*
X227617Y154185D01*
X227975Y155050D01*
X228637Y155712D01*
X229502Y156070D01*
X230438D01*
X231303Y155712D01*
X231965Y155050D01*
X232324Y154185D01*
X232370Y153717D01*
D01*
Y150543D01*
Y150298D01*
X232717Y149950D01*
X233209D01*
X233557Y150298D01*
Y150543D01*
X233557D01*
Y153717D01*
X233603Y154185D01*
X233961Y155050D01*
X234623Y155712D01*
X235488Y156070D01*
X236425D01*
X237290Y155712D01*
X237952Y155050D01*
X238310Y154185D01*
X238356Y153717D01*
D01*
Y150543D01*
Y150298D01*
X238704Y149950D01*
X239196D01*
X239543Y150298D01*
Y150543D01*
D01*
Y153717D01*
X239590Y154185D01*
X239948Y155050D01*
X240610Y155712D01*
X241475Y156070D01*
X242411D01*
X243276Y155712D01*
X243938Y155050D01*
X244296Y154185D01*
X244342Y153717D01*
D01*
Y150543D01*
Y150298D01*
X244690Y149950D01*
X245182D01*
X245530Y150298D01*
Y150543D01*
D01*
X245530Y153717D01*
X245576Y154185D01*
X245934Y155050D01*
X246596Y155712D01*
X247461Y156070D01*
X248397D01*
X249262Y155712D01*
X249924Y155050D01*
X250283Y154185D01*
X250329Y153717D01*
D01*
Y150543D01*
Y150298D01*
X250677Y149950D01*
X251168D01*
X251516Y150298D01*
Y150543D01*
X251516D01*
Y150979D01*
X251563Y151455D01*
X251927Y152335D01*
X252600Y153008D01*
X253480Y153372D01*
X253955Y153419D01*
X253955Y153419D01*
X265073D01*
Y158631D01*
X253946D01*
X253820D01*
X253587Y158535D01*
X253409Y158357D01*
X253312Y158124D01*
Y157998D01*
D01*
X253312Y157961D01*
X253266Y157492D01*
X252905Y156624D01*
X252239Y155961D01*
X251369Y155605D01*
X250429Y155611D01*
X249564Y155977D01*
X248905Y156647D01*
X248554Y157519D01*
X248513Y157989D01*
Y157989D01*
X248513Y160374D01*
Y160620D01*
X248166Y160968D01*
X247674D01*
X247326Y160620D01*
Y160374D01*
D01*
X247326Y157961D01*
X247280Y157492D01*
X246919Y156624D01*
X246252Y155961D01*
X245383Y155605D01*
X244443Y155611D01*
X243578Y155977D01*
X242919Y156647D01*
X242568Y157519D01*
X242527Y157989D01*
Y157989D01*
X242527Y160374D01*
Y160620D01*
X242179Y160968D01*
X241687D01*
X241340Y160620D01*
Y160374D01*
D01*
X241340Y157961D01*
X241293Y157492D01*
X240932Y156624D01*
X240266Y155961D01*
X239396Y155605D01*
X238457Y155611D01*
X237591Y155977D01*
X236932Y156647D01*
X236581Y157519D01*
X236541Y157989D01*
Y157989D01*
Y160374D01*
Y160620D01*
X236193Y160968D01*
X235701D01*
X235353Y160620D01*
Y160374D01*
D01*
X235353Y157961D01*
X235307Y157492D01*
X234946Y156624D01*
X234279Y155961D01*
X233410Y155605D01*
X232470Y155611D01*
X231605Y155977D01*
X230946Y156647D01*
X230595Y157519D01*
X230554Y157989D01*
Y157989D01*
Y160374D01*
Y160620D01*
X230206Y160968D01*
X229714D01*
X229367Y160620D01*
Y160374D01*
D01*
X229367Y157961D01*
X229320Y157492D01*
X228959Y156624D01*
X228293Y155961D01*
X227423Y155605D01*
X226484Y155611D01*
X225618Y155977D01*
X224959Y156647D01*
X224609Y157519D01*
X224568Y157989D01*
Y157989D01*
X224568Y160374D01*
Y160620D01*
X224220Y160968D01*
X223728D01*
X223380Y160620D01*
Y160374D01*
D01*
X223380Y157961D01*
X223334Y157492D01*
X222973Y156624D01*
X222307Y155961D01*
X221437Y155605D01*
X220497Y155611D01*
X219632Y155977D01*
X218973Y156647D01*
X218622Y157519D01*
X218581Y157989D01*
Y157989D01*
Y160374D01*
Y160620D01*
X218233Y160968D01*
X217742D01*
X217394Y160620D01*
Y160374D01*
D01*
X217394Y157961D01*
X217347Y157492D01*
X216987Y156624D01*
X216320Y155961D01*
X215451Y155605D01*
X214511Y155611D01*
X213645Y155977D01*
X212987Y156647D01*
X212636Y157519D01*
X212595Y157989D01*
Y157989D01*
X212595Y160374D01*
Y160620D01*
X212247Y160968D01*
X211755D01*
X211407Y160620D01*
Y160374D01*
D01*
X211407Y157961D01*
X211361Y157492D01*
X211000Y156624D01*
X210334Y155961D01*
X209464Y155605D01*
X208524Y155611D01*
X207659Y155977D01*
X207000Y156647D01*
X206649Y157519D01*
X206608Y157989D01*
X206608Y158113D01*
X206514Y158342D01*
X206338Y158518D01*
X206109Y158613D01*
X205985Y158613D01*
X205985Y158613D01*
X194520D01*
X194527Y153419D01*
X205995Y153419D01*
D02*
G37*
D74*
X8158Y3405D02*
X26478Y175D01*
D02*
G03*
X37880Y8158I1709J9693D01*
G01*
X47697Y63833D01*
D02*
G02*
X57390Y71966I9693J-1709D01*
G01*
X139119D01*
D02*
G03*
X153039Y77732I0J19685D01*
G01*
X158173Y82866D01*
D02*
G02*
X172092Y88631I13919J-13919D01*
G01*
X205990D01*
D02*
G02*
X206631Y87990I0J-641D01*
G01*
Y87560D01*
D02*
G03*
X211434Y87560I2402J0D01*
G01*
Y90274D01*
D02*
G02*
X212631Y90274I598J0D01*
G01*
Y87560D01*
D02*
G03*
X217434Y87560I2402J0D01*
G01*
Y90274D01*
D02*
G02*
X218631Y90274I598J0D01*
G01*
Y87560D01*
D02*
G03*
X223434Y87560I2402J0D01*
G01*
Y90274D01*
D02*
G02*
X224631Y90274I598J0D01*
G01*
X224631Y87560D01*
D02*
G03*
X229434Y87560I2402J0D01*
G01*
Y90274D01*
D02*
G02*
X230631Y90274I598J0D01*
G01*
Y87560D01*
D02*
G03*
X235434Y87560I2402J0D01*
G01*
Y90274D01*
D02*
G02*
X236631Y90274I598J0D01*
G01*
X236631Y87560D01*
D02*
G03*
X241434Y87560I2402J0D01*
G01*
Y90274D01*
D02*
G02*
X242631Y90274I598J0D01*
G01*
X242631Y87560D01*
D02*
G03*
X247434Y87560I2402J0D01*
G01*
Y90274D01*
D02*
G02*
X248631Y90274I598J0D01*
G01*
Y87560D01*
D02*
G03*
X253434Y87560I2402J0D01*
G01*
Y88005D01*
D02*
G02*
X254060Y88631I626J0D01*
G01*
X287598D01*
D02*
G02*
X301517Y82866I0J-19685D01*
G01*
X306651Y77732D01*
D02*
G03*
X320570Y71966I13919J13919D01*
G01*
X402320D01*
X418158Y74759D01*
D02*
G03*
X420438Y73901I1866J1500D01*
G01*
X424315Y74608D01*
D02*
G02*
X424533Y73415I137J-591D01*
G01*
X420630Y72701D01*
D02*
G03*
X421527Y67998I432J-2355D01*
G01*
X425405Y68705D01*
D02*
G02*
X425622Y67512I137J-591D01*
G01*
X421719Y66798D01*
D02*
G03*
X422616Y62095I432J-2355D01*
G01*
X426494Y62801D01*
D02*
G02*
X426711Y61609I137J-591D01*
G01*
X422808Y60895D01*
D02*
G03*
X423705Y56192I432J-2355D01*
G01*
X427583Y56898D01*
D02*
G02*
X427800Y55706I137J-591D01*
G01*
X423897Y54992D01*
D02*
G03*
X424794Y50289I432J-2355D01*
G01*
X428672Y50995D01*
D02*
G02*
X428889Y49803I137J-591D01*
G01*
X424986Y49089D01*
D02*
G03*
X425883Y44386I432J-2355D01*
G01*
X429761Y45092D01*
D02*
G02*
X429978Y43900I137J-591D01*
G01*
X426075Y43185D01*
D02*
G03*
X426972Y38482I432J-2355D01*
G01*
X430850Y39189D01*
D02*
G02*
X431068Y37996I137J-591D01*
G01*
X427164Y37282D01*
D02*
G03*
X428061Y32579I432J-2355D01*
G01*
X431939Y33286D01*
D02*
G02*
X432157Y32093I137J-591D01*
G01*
X428253Y31379D01*
D02*
G03*
X429151Y26676I432J-2355D01*
G01*
X433028Y27383D01*
D02*
G02*
X433246Y26190I137J-591D01*
G01*
X429342Y25476D01*
D02*
G03*
X430240Y20773I432J-2355D01*
G01*
X430664Y20851D01*
D02*
G02*
X431407Y20338I135J-599D01*
G01*
X431495Y19857D01*
X429812Y19560D01*
D02*
G03*
X433230Y175I1709J-9693D01*
G01*
X451550Y3405D01*
D02*
G03*
X448132Y22791I-1709J9693D01*
G01*
X441910Y21694D01*
X441724Y22704D01*
D02*
G03*
X438985Y24631I-2355J-438D01*
G01*
X438427Y24529D01*
D02*
G02*
X438258Y25731I-90J600D01*
G01*
X442176Y26455D01*
D02*
G03*
X441288Y31159I-455J2350D01*
G01*
X437343Y30431D01*
D02*
G02*
X437174Y31633I-90J600D01*
G01*
X441092Y32357D01*
D02*
G03*
X440204Y37061I-455J2350D01*
G01*
X436259Y36333D01*
D02*
G02*
X436090Y37535I-90J600D01*
G01*
X440008Y38259D01*
D02*
G03*
X439120Y42963I-455J2350D01*
G01*
X435175Y42235D01*
D02*
G02*
X435006Y43437I-90J600D01*
G01*
X438924Y44161D01*
D02*
G03*
X438036Y48864I-455J2350D01*
G01*
X434092Y48136D01*
D02*
G02*
X433922Y49338I-90J600D01*
G01*
X437840Y50063D01*
D02*
G03*
X436952Y54766I-455J2350D01*
G01*
X433008Y54038D01*
D02*
G02*
X432839Y55240I-90J600D01*
G01*
X436757Y55964D01*
D02*
G03*
X435869Y60668I-455J2350D01*
G01*
X431924Y59940D01*
D02*
G02*
X431755Y61142I-90J600D01*
G01*
X435673Y61866D01*
D02*
G03*
X434785Y66570I-455J2350D01*
G01*
X430840Y65842D01*
D02*
G02*
X430671Y67044I-90J600D01*
G01*
X434589Y67768D01*
D02*
G03*
X433701Y72472I-455J2350D01*
G01*
X429756Y71744D01*
D02*
G02*
X429587Y72946I-90J600D01*
G01*
X433505Y73670D01*
D02*
G03*
X434766Y77688I-455J2350D01*
G01*
X440279Y78660D01*
D02*
G03*
X446666Y87781I-1367J7754D01*
G01*
X440313Y123811D01*
D02*
G02*
X440313Y127229I9693J1709D01*
G01*
X446666Y163259D01*
D02*
G03*
X440279Y172381I-7754J1367D01*
G01*
X439867Y172453D01*
D02*
G03*
X440005Y177188I-280J2378D01*
G01*
X436098Y177877D01*
D02*
G02*
X436308Y179071I76J602D01*
G01*
X440215Y178382D01*
D02*
G03*
X441046Y183097I414J2358D01*
G01*
X437140Y183786D01*
D02*
G02*
X437350Y184980I76J602D01*
G01*
X441257Y184291D01*
D02*
G03*
X442088Y189006I414J2358D01*
G01*
X438181Y189694D01*
D02*
G02*
X438392Y190888I76J602D01*
G01*
X442299Y190200D01*
D02*
G03*
X443130Y194914I414J2358D01*
G01*
X439223Y195603D01*
D02*
G02*
X439434Y196797I76J602D01*
G01*
X443340Y196108D01*
D02*
G03*
X444172Y200823I414J2358D01*
G01*
X440265Y201512D01*
D02*
G02*
X440476Y202706I76J602D01*
G01*
X444382Y202017D01*
D02*
G03*
X445214Y206732I414J2358D01*
G01*
X441307Y207420D01*
D02*
G02*
X441518Y208614I76J602D01*
G01*
X445424Y207926D01*
D02*
G03*
X446256Y212640I414J2358D01*
G01*
X442349Y213329D01*
D02*
G02*
X442560Y214523I76J602D01*
G01*
X446466Y213834D01*
D02*
G03*
X447298Y218549I414J2358D01*
G01*
X443391Y219238D01*
D02*
G02*
X443601Y220432I76J602D01*
G01*
X447508Y219743D01*
D02*
G03*
X448339Y224458I414J2358D01*
G01*
X447881Y224538D01*
D02*
G02*
X447361Y225281I80J609D01*
G01*
X447892Y228292D01*
X448132Y228250D01*
D02*
G03*
X451550Y247636I1709J9693D01*
G01*
X433230Y250866D01*
D02*
G03*
X429812Y231480I-1709J-9693D01*
G01*
X434570Y230641D01*
X434008Y227459D01*
D02*
G03*
X435950Y224687I2361J-413D01*
G01*
X436408Y224606D01*
D02*
G02*
X436197Y223412I-74J-603D01*
G01*
X432293Y224100D01*
D02*
G03*
X431461Y219386I-415J-2357D01*
G01*
X435366Y218697D01*
D02*
G02*
X435155Y217503I-74J-603D01*
G01*
X431251Y218192D01*
D02*
G03*
X430420Y213477I-415J-2357D01*
G01*
X434324Y212789D01*
D02*
G02*
X434113Y211595I-74J-603D01*
G01*
X430209Y212283D01*
D02*
G03*
X429378Y207568I-415J-2357D01*
G01*
X433282Y206880D01*
D02*
G02*
X433072Y205686I-74J-603D01*
G01*
X429167Y206374D01*
D02*
G03*
X428336Y201660I-415J-2357D01*
G01*
X432240Y200971D01*
D02*
G02*
X432030Y199777I-74J-603D01*
G01*
X428125Y200466D01*
D02*
G03*
X427294Y195751I-415J-2357D01*
G01*
X431199Y195063D01*
D02*
G02*
X430988Y193869I-74J-602D01*
G01*
X427083Y194557D01*
D02*
G03*
X426252Y189843I-415J-2357D01*
G01*
X430157Y189154D01*
D02*
G02*
X429946Y187960I-74J-602D01*
G01*
X426042Y188649D01*
D02*
G03*
X425210Y183934I-415J-2357D01*
G01*
X429115Y183246D01*
D02*
G02*
X428904Y182052I-74J-602D01*
G01*
X425000Y182740D01*
D02*
G03*
X424169Y178026I-415J-2357D01*
G01*
X428073Y177337D01*
D02*
G02*
X427862Y176143I-74J-603D01*
G01*
X423958Y176832D01*
D02*
G03*
X421484Y175695I-415J-2357D01*
G01*
X402318Y179074D01*
D02*
G02*
X402299Y179074I-20J9721D01*
G01*
X320570D01*
D02*
G03*
X306651Y173309I0J-19685D01*
G01*
X299527Y166184D01*
D02*
G02*
X285607Y160419I-13919J13919D01*
G01*
X253946D01*
D02*
G03*
X251507Y157980I0J-2439D01*
G01*
Y157961D01*
D02*
G02*
X250319Y157961I-594J0D01*
G01*
X250319Y160374D01*
D02*
G03*
X245520Y160374I-2400J0D01*
G01*
Y157961D01*
D02*
G02*
X244333Y157961I-594J0D01*
G01*
X244333Y160374D01*
D02*
G03*
X239534Y160374I-2400J0D01*
G01*
Y157961D01*
D02*
G02*
X238346Y157961I-594J0D01*
G01*
X238346Y160374D01*
D02*
G03*
X233547Y160374I-2400J0D01*
G01*
Y157961D01*
D02*
G02*
X232360Y157961I-594J0D01*
G01*
X232360Y160374D01*
D02*
G03*
X227561Y160374I-2400J0D01*
G01*
Y157961D01*
D02*
G02*
X226373Y157961I-594J0D01*
G01*
X226374Y160374D01*
D02*
G03*
X221574Y160374I-2400J0D01*
G01*
Y157961D01*
D02*
G02*
X220387Y157961I-594J0D01*
G01*
X220387Y160374D01*
D02*
G03*
X215588Y160374I-2400J0D01*
G01*
Y157961D01*
D02*
G02*
X214401Y157961I-594J0D01*
G01*
X214401Y160374D01*
D02*
G03*
X209602Y160374I-2400J0D01*
G01*
Y157961D01*
D02*
G02*
X208414Y157961I-594J0D01*
G01*
Y157990D01*
D02*
G03*
X205985Y160419I-2429J0D01*
G01*
X174083D01*
D02*
G02*
X160163Y166184I-0J19685D01*
G01*
X153039Y173309D01*
D02*
G03*
X139120Y179074I-13919J-13919D01*
G01*
X57390D01*
D02*
G02*
X47697Y187208I0J9843D01*
G01*
X37880Y242882D01*
D02*
G03*
X26478Y250866I-9693J-1709D01*
G01*
X8158Y247636D01*
D02*
G03*
X175Y236234I1709J-9693D01*
G01*
X19395Y127229D01*
D02*
G02*
X19395Y123811I-9693J-1709D01*
G01*
X175Y14807D01*
D02*
G03*
X8158Y3405I9693J-1709D01*
G01*
M02*
