  0
SECTION
  2
HEADER
  9
$ACADVER
  1
AC1032
  9
$ACADMAINTVER
 90
      248
  9
$DWGCODEPAGE
  3
ANSI_1252
  9
$LASTSAVEDBY
  1
y1hli
  9
$REQUIREDVERSIONS
160
                 0
  9
$INSBASE
 10
0.0
 20
0.0
 30
0.0
  9
$EXTMIN
 10
-3.006895917018539
 20
-3.006916800072725
 30
0.0
  9
$EXTMAX
 10
119.7726067823249
 20
66.77093478232196
 30
0.0
  9
$LIMMIN
 10
0.0
 20
0.0
  9
$LIMMAX
 10
420.0
 20
297.0
  9
$ORTHOMODE
 70
     0
  9
$REGENMODE
 70
     1
  9
$FILLMODE
 70
     1
  9
$QTEXTMODE
 70
     0
  9
$MIRRTEXT
 70
     1
  9
$LTSCALE
 40
1.0
  9
$ATTMODE
 70
     1
  9
$TEXTSIZE
 40
2.5
  9
$TRACEWID
 40
1.0
  9
$TEXTSTYLE
  7
Standard
  9
$CLAYER
  8
0
  9
$CELTYPE
  6
ByLayer
  9
$CECOLOR
 62
   256
  9
$CELTSCALE
 40
1.0
  9
$DISPSILH
 70
     0
  9
$DIMSCALE
 40
1.0
  9
$DIMASZ
 40
2.5
  9
$DIMEXO
 40
0.625
  9
$DIMDLI
 40
3.75
  9
$DIMRND
 40
0.0
  9
$DIMDLE
 40
0.0
  9
$DIMEXE
 40
1.25
  9
$DIMTP
 40
0.0
  9
$DIMTM
 40
0.0
  9
$DIMTXT
 40
2.5
  9
$DIMCEN
 40
2.5
  9
$DIMTSZ
 40
0.0
  9
$DIMTOL
 70
     0
  9
$DIMLIM
 70
     0
  9
$DIMTIH
 70
     0
  9
$DIMTOH
 70
     0
  9
$DIMSE1
 70
     0
  9
$DIMSE2
 70
     0
  9
$DIMTAD
 70
     1
  9
$DIMZIN
 70
     8
  9
$DIMBLK
  1

  9
$DIMASO
 70
     1
  9
$DIMSHO
 70
     1
  9
$DIMPOST
  1

  9
$DIMAPOST
  1

  9
$DIMALT
 70
     0
  9
$DIMALTD
 70
     3
  9
$DIMALTF
 40
0.03937007874
  9
$DIMLFAC
 40
1.0
  9
$DIMTOFL
 70
     1
  9
$DIMTVP
 40
0.0
  9
$DIMTIX
 70
     0
  9
$DIMSOXD
 70
     0
  9
$DIMSAH
 70
     0
  9
$DIMBLK1
  1

  9
$DIMBLK2
  1

  9
$DIMSTYLE
  2
Standard
  9
$DIMCLRD
 70
     0
  9
$DIMCLRE
 70
     0
  9
$DIMCLRT
 70
     0
  9
$DIMTFAC
 40
1.0
  9
$DIMGAP
 40
0.625
  9
$DIMJUST
 70
     0
  9
$DIMSD1
 70
     0
  9
$DIMSD2
 70
     0
  9
$DIMTOLJ
 70
     0
  9
$DIMTZIN
 70
     8
  9
$DIMALTZ
 70
     0
  9
$DIMALTTZ
 70
     0
  9
$DIMUPT
 70
     0
  9
$DIMDEC
 70
     2
  9
$DIMTDEC
 70
     2
  9
$DIMALTU
 70
     2
  9
$DIMALTTD
 70
     3
  9
$DIMTXSTY
  7
Standard
  9
$DIMAUNIT
 70
     0
  9
$DIMADEC
 70
     0
  9
$DIMALTRND
 40
0.0
  9
$DIMAZIN
 70
     0
  9
$DIMDSEP
 70
    44
  9
$DIMATFIT
 70
     3
  9
$DIMFRAC
 70
     0
  9
$DIMLDRBLK
  1

  9
$DIMLUNIT
 70
     2
  9
$DIMLWD
 70
    -2
  9
$DIMLWE
 70
    -2
  9
$DIMTMOVE
 70
     0
  9
$DIMFXL
 40
1.0
  9
$DIMFXLON
 70
     0
  9
$DIMJOGANG
 40
0.785398163397
  9
$DIMTFILL
 70
     0
  9
$DIMTFILLCLR
 70
     0
  9
$DIMARCSYM
 70
     0
  9
$DIMLTYPE
  6

  9
$DIMLTEX1
  6

  9
$DIMLTEX2
  6

  9
$DIMTXTDIRECTION
 70
     0
  9
$LUNITS
 70
     2
  9
$LUPREC
 70
     4
  9
$SKETCHINC
 40
1.0
  9
$FILLETRAD
 40
10.0
  9
$AUNITS
 70
     0
  9
$AUPREC
 70
     2
  9
$MENU
  1
.
  9
$ELEVATION
 40
0.0
  9
$PELEVATION
 40
0.0
  9
$THICKNESS
 40
0.0
  9
$LIMCHECK
 70
     0
  9
$CHAMFERA
 40
0.0
  9
$CHAMFERB
 40
0.0
  9
$CHAMFERC
 40
0.0
  9
$CHAMFERD
 40
0.0
  9
$SKPOLY
 70
     0
  9
$TDCREATE
 40
2458531.945659722
  9
$TDUCREATE
 40
2458532.153996898
  9
$TDUPDATE
 40
2460235.529641204
  9
$TDUUPDATE
 40
2460235.696307871
  9
$TDINDWG
 40
0.0028356481
  9
$TDUSRTIMER
 40
0.0028356481
  9
$USRTIMER
 70
     1
  9
$ANGBASE
 50
0.0
  9
$ANGDIR
 70
     0
  9
$PDMODE
 70
     0
  9
$PDSIZE
 40
0.0
  9
$PLINEWID
 40
0.0
  9
$SPLFRAME
 70
     0
  9
$SPLINETYPE
 70
     6
  9
$SPLINESEGS
 70
     8
  9
$HANDSEED
  5
8E
  9
$SURFTAB1
 70
     6
  9
$SURFTAB2
 70
     6
  9
$SURFTYPE
 70
     6
  9
$SURFU
 70
     6
  9
$SURFV
 70
     6
  9
$UCSBASE
  2

  9
$UCSNAME
  2

  9
$UCSORG
 10
0.0
 20
0.0
 30
0.0
  9
$UCSXDIR
 10
1.0
 20
0.0
 30
0.0
  9
$UCSYDIR
 10
0.0
 20
1.0
 30
0.0
  9
$UCSORTHOREF
  2

  9
$UCSORTHOVIEW
 70
     0
  9
$UCSORGTOP
 10
0.0
 20
0.0
 30
0.0
  9
$UCSORGBOTTOM
 10
0.0
 20
0.0
 30
0.0
  9
$UCSORGLEFT
 10
0.0
 20
0.0
 30
0.0
  9
$UCSORGRIGHT
 10
0.0
 20
0.0
 30
0.0
  9
$UCSORGFRONT
 10
0.0
 20
0.0
 30
0.0
  9
$UCSORGBACK
 10
0.0
 20
0.0
 30
0.0
  9
$PUCSBASE
  2

  9
$PUCSNAME
  2

  9
$PUCSORG
 10
0.0
 20
0.0
 30
0.0
  9
$PUCSXDIR
 10
1.0
 20
0.0
 30
0.0
  9
$PUCSYDIR
 10
0.0
 20
1.0
 30
0.0
  9
$PUCSORTHOREF
  2

  9
$PUCSORTHOVIEW
 70
     0
  9
$PUCSORGTOP
 10
0.0
 20
0.0
 30
0.0
  9
$PUCSORGBOTTOM
 10
0.0
 20
0.0
 30
0.0
  9
$PUCSORGLEFT
 10
0.0
 20
0.0
 30
0.0
  9
$PUCSORGRIGHT
 10
0.0
 20
0.0
 30
0.0
  9
$PUCSORGFRONT
 10
0.0
 20
0.0
 30
0.0
  9
$PUCSORGBACK
 10
0.0
 20
0.0
 30
0.0
  9
$USERI1
 70
     0
  9
$USERI2
 70
     0
  9
$USERI3
 70
     0
  9
$USERI4
 70
     0
  9
$USERI5
 70
     0
  9
$USERR1
 40
0.0
  9
$USERR2
 40
0.0
  9
$USERR3
 40
0.0
  9
$USERR4
 40
0.0
  9
$USERR5
 40
0.0
  9
$WORLDVIEW
 70
     1
  9
$SHADEDGE
 70
     3
  9
$SHADEDIF
 70
    70
  9
$TILEMODE
 70
     1
  9
$MAXACTVP
 70
    64
  9
$PINSBASE
 10
0.0
 20
0.0
 30
0.0
  9
$PLIMCHECK
 70
     0
  9
$PEXTMIN
 10
1.000000000000000E+20
 20
1.000000000000000E+20
 30
1.000000000000000E+20
  9
$PEXTMAX
 10
-1.000000000000000E+20
 20
-1.000000000000000E+20
 30
-1.000000000000000E+20
  9
$PLIMMIN
 10
0.0
 20
0.0
  9
$PLIMMAX
 10
420.0
 20
297.0
  9
$UNITMODE
 70
     0
  9
$VISRETAIN
 70
     1
  9
$PLINEGEN
 70
     0
  9
$PSLTSCALE
 70
     1
  9
$TREEDEPTH
 70
  3020
  9
$CMLSTYLE
  2
Standard
  9
$CMLJUST
 70
     0
  9
$CMLSCALE
 40
20.0
  9
$PROXYGRAPHICS
 70
     1
  9
$MEASUREMENT
 70
     1
  9
$CELWEIGHT
370
    -1
  9
$ENDCAPS
280
     0
  9
$JOINSTYLE
280
     0
  9
$LWDISPLAY
290
     0
  9
$INSUNITS
 70
     6
  9
$HYPERLINKBASE
  1

  9
$STYLESHEET
  1

  9
$XEDIT
290
     1
  9
$CEPSNTYPE
380
     0
  9
$PSTYLEMODE
290
     1
  9
$FINGERPRINTGUID
  2
9B2CFF5A-6D0B-11EE-A69B-8C554AA1C40C
  9
$VERSIONGUID
  2
{6490DE37-8F38-9B42-A457-C122F6F7ECE0}
  9
$EXTNAMES
290
     1
  9
$PSVPSCALE
 40
0.0
  9
$OLESTARTUP
290
     0
  9
$SORTENTS
280
   127
  9
$INDEXCTL
280
     0
  9
$HIDETEXT
280
     1
  9
$XCLIPFRAME
280
     2
  9
$HALOGAP
280
     0
  9
$OBSCOLOR
 70
   257
  9
$OBSLTYPE
280
     0
  9
$INTERSECTIONDISPLAY
280
     0
  9
$INTERSECTIONCOLOR
 70
   257
  9
$DIMASSOC
280
     2
  9
$PROJECTNAME
  1

  9
$CAMERADISPLAY
290
     0
  9
$LENSLENGTH
 40
50.0
  9
$CAMERAHEIGHT
 40
0.0
  9
$STEPSPERSEC
 40
24.0
  9
$STEPSIZE
 40
100.0
  9
$3DDWFPREC
 40
2.0
  9
$PSOLWIDTH
 40
0.005
  9
$PSOLHEIGHT
 40
0.08
  9
$LOFTANG1
 40
1.570796326795
  9
$LOFTANG2
 40
1.570796326795
  9
$LOFTMAG1
 40
0.0
  9
$LOFTMAG2
 40
0.0
  9
$LOFTPARAM
 70
     7
  9
$LOFTNORMALS
280
     1
  9
$LATITUDE
 40
37.795
  9
$LONGITUDE
 40
-122.394
  9
$NORTHDIRECTION
 40
0.0
  9
$TIMEZONE
 70
 -8000
  9
$LIGHTGLYPHDISPLAY
280
     1
  9
$TILEMODELIGHTSYNCH
280
     1
  9
$CMATERIAL
347
20
  9
$SOLIDHIST
280
     0
  9
$SHOWHIST
280
     1
  9
$DWFFRAME
280
     2
  9
$DGNFRAME
280
     2
  9
$REALWORLDSCALE
290
     1
  9
$INTERFERECOLOR
 62
   256
  9
$INTERFEREOBJVS
345
45
  9
$INTERFEREVPVS
346
42
  9
$CSHADOW
280
     0
  9
$SHADOWPLANELOCATION
 40
0.0
  0
ENDSEC
  0
SECTION
  2
CLASSES
  0
CLASS
  1
ACDBDICTIONARYWDFLT
  2
AcDbDictionaryWithDefault
  3
ObjectDBX Classes
 90
        0
 91
        1
280
     0
281
     0
  0
CLASS
  1
SUN
  2
AcDbSun
  3
SCENEOE
 90
     1153
 91
        0
280
     0
281
     0
  0
CLASS
  1
VISUALSTYLE
  2
AcDbVisualStyle
  3
ObjectDBX Classes
 90
     4095
 91
       24
280
     0
281
     0
  0
CLASS
  1
MATERIAL
  2
AcDbMaterial
  3
ObjectDBX Classes
 90
     1153
 91
        3
280
     0
281
     0
  0
CLASS
  1
SCALE
  2
AcDbScale
  3
ObjectDBX Classes
 90
     1153
 91
       17
280
     0
281
     0
  0
CLASS
  1
TABLESTYLE
  2
AcDbTableStyle
  3
ObjectDBX Classes
 90
     4095
 91
        1
280
     0
281
     0
  0
CLASS
  1
MLEADERSTYLE
  2
AcDbMLeaderStyle
  3
ACDB_MLEADERSTYLE_CLASS
 90
     4095
 91
        1
280
     0
281
     0
  0
CLASS
  1
DICTIONARYVAR
  2
AcDbDictionaryVar
  3
ObjectDBX Classes
 90
        0
 91
        5
280
     0
281
     0
  0
CLASS
  1
CELLSTYLEMAP
  2
AcDbCellStyleMap
  3
ObjectDBX Classes
 90
     1152
 91
        1
280
     0
281
     0
  0
CLASS
  1
MENTALRAYRENDERSETTINGS
  2
AcDbMentalRayRenderSettings
  3
SCENEOE
 90
     1024
 91
        0
280
     0
281
     0
  0
CLASS
  1
ACDBDETAILVIEWSTYLE
  2
AcDbDetailViewStyle
  3
ObjectDBX Classes
 90
     1025
 91
        1
280
     0
281
     0
  0
CLASS
  1
ACDBSECTIONVIEWSTYLE
  2
AcDbSectionViewStyle
  3
ObjectDBX Classes
 90
     1025
 91
        1
280
     0
281
     0
  0
CLASS
  1
RASTERVARIABLES
  2
AcDbRasterVariables
  3
ISM
 90
        0
 91
        0
280
     0
281
     0
  0
CLASS
  1
SORTENTSTABLE
  2
AcDbSortentsTable
  3
ObjectDBX Classes
 90
        0
 91
        4
280
     0
281
     0
  0
ENDSEC
  0
SECTION
  2
TABLES
  0
TABLE
  2
VPORT
  5
8
330
0
100
AcDbSymbolTable
 70
     1
  0
VPORT
  5
23
330
8
100
AcDbSymbolTableRecord
100
AcDbViewportTableRecord
  2
*Active
 70
     0
 10
0.0
 20
0.0
 11
1.0
 21
1.0
 12
37.24708583092428
 22
71.50892341700211
 13
0.0
 23
0.0
 14
0.5
 24
0.5
 15
0.5
 25
0.5
 16
0.0
 26
0.0
 36
1.0
 17
0.0
 27
0.0
 37
0.0
 40
289.9740737690002
 41
2.10054945054945
 42
50.0
 43
0.0
 44
0.0
 50
0.0
 51
0.0
 71
     0
 72
  1000
 73
     1
 74
     3
 75
     0
 76
     0
 77
     0
 78
     0
281
     0
 65
     0
110
0.0
120
0.0
130
0.0
111
1.0
121
0.0
131
0.0
112
0.0
122
1.0
132
0.0
 79
     0
146
0.0
348
41
 60
     3
 61
     5
292
     1
282
     1
141
0.0
142
0.0
 63
   250
421
  3355443
1001
ACAD_NAV_VCDISPLAY
1070
     3
  0
ENDTAB
  0
TABLE
  2
LTYPE
  5
2
330
0
100
AcDbSymbolTable
 70
     2
  0
LTYPE
  5
24
330
2
100
AcDbSymbolTableRecord
100
AcDbLinetypeTableRecord
  2
ByBlock
 70
     0
  3

 72
    65
 73
     0
 40
0.0
  0
LTYPE
  5
25
330
2
100
AcDbSymbolTableRecord
100
AcDbLinetypeTableRecord
  2
ByLayer
 70
     0
  3

 72
    65
 73
     0
 40
0.0
  0
LTYPE
  5
26
330
2
100
AcDbSymbolTableRecord
100
AcDbLinetypeTableRecord
  2
Continuous
 70
     0
  3

 72
    65
 73
     0
 40
0.0
  0
ENDTAB
  0
TABLE
  2
LAYER
  5
1
330
0
100
AcDbSymbolTable
 70
     2
  0
LAYER
  5
27
330
1
100
AcDbSymbolTableRecord
100
AcDbLayerTableRecord
  2
0
 70
     0
 62
     7
  6
Continuous
370
    -3
390
13
347
21
348
0
  0
LAYER
  5
28
330
1
100
AcDbSymbolTableRecord
100
AcDbLayerTableRecord
  2
Defpoints
 70
     0
 62
     7
  6
Continuous
290
     0
370
    -3
390
13
347
21
348
0
  0
ENDTAB
  0
TABLE
  2
STYLE
  5
5
330
0
100
AcDbSymbolTable
 70
     1
  0
STYLE
  5
29
330
5
100
AcDbSymbolTableRecord
100
AcDbTextStyleTableRecord
  2
Standard
 70
     0
 40
0.0
 41
1.0
 50
0.0
 71
     0
 42
2.5
  3
txt
  4

  0
ENDTAB
  0
TABLE
  2
VIEW
  5
7
330
0
100
AcDbSymbolTable
 70
     0
  0
ENDTAB
  0
TABLE
  2
UCS
  5
6
330
0
100
AcDbSymbolTable
 70
     0
  0
ENDTAB
  0
TABLE
  2
APPID
  5
3
330
0
100
AcDbSymbolTable
 70
     4
  0
APPID
  5
2A
330
3
100
AcDbSymbolTableRecord
100
AcDbRegAppTableRecord
  2
ACAD
 70
     0
  0
APPID
  5
39
330
3
100
AcDbSymbolTableRecord
100
AcDbRegAppTableRecord
  2
HATCHBACKGROUNDCOLOR
 70
     0
  0
APPID
  5
6D
330
3
100
AcDbSymbolTableRecord
100
AcDbRegAppTableRecord
  2
ACAD_EXEMPT_FROM_CAD_STANDARDS
 70
     0
  0
APPID
  5
8A
330
3
100
AcDbSymbolTableRecord
100
AcDbRegAppTableRecord
  2
ACAD_NAV_VCDISPLAY
 70
     0
  0
ENDTAB
  0
TABLE
  2
DIMSTYLE
  5
4
330
0
100
AcDbSymbolTable
 70
     2
100
AcDbDimStyleTable
 71
     1
340
2B
  0
DIMSTYLE
105
2B
330
4
100
AcDbSymbolTableRecord
100
AcDbDimStyleTableRecord
  2
Standard
 70
     0
 41
2.5
 42
0.625
 43
3.75
 44
1.25
 49
2.5
 73
     0
 74
     0
 77
     1
 78
     8
140
2.5
141
2.5
143
0.03937007874
147
0.625
171
     3
172
     1
271
     0
272
     2
274
     3
278
    44
283
     0
284
     8
  0
ENDTAB
  0
TABLE
  2
BLOCK_RECORD
  5
9
330
0
100
AcDbSymbolTable
 70
     1
  0
BLOCK_RECORD
  5
17
102
{ACAD_XDICTIONARY
360
80
102
}
330
9
100
AcDbSymbolTableRecord
100
AcDbBlockTableRecord
  2
*Model_Space
340
1A
 70
     0
280
     1
281
     0
  0
BLOCK_RECORD
  5
1B
330
9
100
AcDbSymbolTableRecord
100
AcDbBlockTableRecord
  2
*Paper_Space
340
1E
 70
     0
280
     1
281
     0
  0
ENDTAB
  0
ENDSEC
  0
SECTION
  2
BLOCKS
  0
BLOCK
  5
18
330
17
100
AcDbEntity
  8
0
100
AcDbBlockBegin
  2
*Model_Space
 70
     0
 10
0.0
 20
0.0
 30
0.0
  3
*Model_Space
  1

  0
ENDBLK
  5
19
330
17
100
AcDbEntity
  8
0
100
AcDbBlockEnd
  0
BLOCK
  5
1C
330
1B
100
AcDbEntity
 67
     1
  8
0
100
AcDbBlockBegin
  2
*Paper_Space
 70
     0
 10
0.0
 20
0.0
 30
0.0
  3
*Paper_Space
  1

  0
ENDBLK
  5
1D
330
1B
100
AcDbEntity
 67
     1
  8
0
100
AcDbBlockEnd
  0
ENDSEC
  0
SECTION
  2
ENTITIES
  0
LWPOLYLINE
  5
82
330
17
100
AcDbEntity
  8
0
100
AcDbPolyline
 90
     1200
 70
     1
 43
0.0
 10
1.673732952683478
 20
-1.108605791435736
 10
1.673148436084174
 20
-1.108502567001895
 10
1.338293576911412
 20
-1.032256028630579
 10
1.24271302277284
 20
-1.005507003897512
 10
0.9169287601561553
 20
-0.8968682849341359
 10
0.8242572414869652
 20
-0.8608224419259713
 10
0.5106072523513783
 20
-0.7207397229972605
 10
0.4219148016986813
 20
-0.6757846079568163
 10
0.1235045664834156
 20
-0.5056352166965324
 10
0.0396452319097367
 20
-0.4522037168491855
 10
-0.2406517614983103
 20
-0.2536260763308067
 10
-0.3188704715578636
 20
-0.1922327007296889
 10
-0.578355153488359
 20
0.0328610212414266
 10
-0.6501800459816251
 20
0.1016250960873076
 10
-0.8863537551883604
 20
0.3510673998511904
 10
-0.9510932051837034
 20
0.4265400226052753
 10
-1.161681749254656
 20
0.6979289481962571
 10
-1.218712359819309
 20
0.7793833687619906
 10
-1.401687914105905
 20
1.0701056251528
 10
-1.450460519195021
 20
1.156757492783571
 10
-1.604061153385442
 20
1.464013622102124
 10
-1.644106105938082
 20
1.555028538166116
 10
-1.766852750249732
 20
1.875859872573668
 10
-1.797784444571133
 20
1.970361425246023
 10
-1.888495132188094
 20
2.301678576898925
 10
-1.910015717070605
 20
2.398756780412353
 10
-1.967816965681447
 20
2.737369390169377
 10
-1.979719212509298
 20
2.83608944735903
 10
-2.004054435348154
 20
3.178736905771923
 10
-2.006223733568335
 20
3.278148209537203
 10
-1.99685859896762
 20
3.621531054305782
 10
-1.989274059711642
 20
3.720676341311038
 10
-1.949369520928216
 20
4.03713554828086
 10
-1.941940163783776
 20
4.086298452357328
 10
2.936575304095456
 20
31.75423289902432
 10
2.94783690297294
 20
31.83978005225043
 10
2.949683612891533
 20
31.88208
 10
2.947836902972941
 20
31.92437994774955
 10
2.936575097943262
 20
32.00992866698184
 10
-1.941594603620228
 20
59.67615594684283
 10
-1.948510774024638
 20
59.72131411314768
 10
-1.98725564046564
 20
60.01901727239587
 10
-1.995075200692122
 20
60.11338109785061
 10
-2.006711444350862
 20
60.4370500739325
 10
-2.005750778767906
 20
60.53063594679113
 10
-1.98750319512418
 20
60.8534573470116
 10
-1.977911515995361
 20
60.9465553500298
 10
-1.929955240472302
 20
61.26631592669053
 10
-1.911814382458948
 20
61.35813176271583
 10
-1.834558570274657
 20
61.6721033700831
 10
-1.808023308255261
 20
61.7618536811915
 10
-1.702127093555022
 20
62.06735756408421
 10
-1.667423822110927
 20
62.15427661507736
 10
-1.53379069434075
 20
62.44870626357588
 10
-1.491215496193822
 20
62.53205247511103
 10
-1.330985591679845
 20
62.81289586286939
 10
-1.28090171156368
 20
62.8919581384944
 10
-1.095442086045942
 20
63.1568191549618
 10
-1.038276831559462
 20
63.23092294807628
 10
-0.8291697966740663
 20
63.47754184174435
 10
-0.7654108925593622
 20
63.54605491072083
 10
-0.5344405158707803
 20
63.77232756888396
 10
-0.4646319428290746
 20
63.83466537125483
 10
-0.2137688263507574
 20
64.03866127207507
 10
-0.138506179881781
 20
64.09429195174855
 10
0.1301093526505278
 20
64.27427063502888
 10
0.2101839437691509
 20
64.32271956000754
 10
0.4942601078999671
 20
64.47714547661516
 10
0.5784634601547718
 20
64.51799928847588
 10
0.8755765638252428
 20
64.64555490137286
 10
0.9631902677780018
 20
64.67846504197222
 10
1.270805389827432
 20
64.77806206720749
 10
1.361081939467304
 20
64.80274775252714
 10
1.654029133464237
 20
64.86847781231894
 10
1.699910523511279
 20
64.87766470967525
 10
6.400112901450349
 20
65.70635759621345
 10
6.449265630548018
 20
65.71378500782538
 10
6.765738363154908
 20
65.75369024714537
 10
6.864890013368865
 20
65.76127467398167
 10
7.20829480981042
 20
65.77063718411389
 10
7.307712422025605
 20
65.76846652863686
 10
7.650381316947306
 20
65.74412439960338
 10
7.749107444742922
 20
65.73221956637934
 10
8.087740349405718
 20
65.67440722618896
 10
8.184824206202868
 20
65.6528828652689
 10
8.516159900646437
 20
65.56215707835199
 10
8.610666515831704
 20
65.53122048109438
 10
8.931514056106294
 20
65.40845498639971
 10
9.022533279314258
 20
65.36840408915285
 10
9.329802728282608
 20
65.21478118548194
 10
9.416457994637513
 20
65.16600170027813
 10
9.707190179519747
 20
64.98300086017747
 10
9.78864695143509
 20
64.92596256012484
 10
10.06004196235182
 20
64.71534618172883
 10
10.13551576658549
 20
64.65059837683795
 10
10.38495992123232
 20
64.41439481099732
 10
10.4537239037911
 20
64.34256105802363
 10
10.67881491858833
 20
64.08304507420957
 10
10.74020684473116
 20
64.00481717146246
 10
10.93877697016188
 20
63.72448805046381
 10
10.9922056020797
 20
63.64061937541138
 10
11.16234249930163
 20
63.34217683988274
 10
11.20729329006049
 20
63.25347509371137
 10
11.34735844772639
 20
62.93979330845052
 10
11.3833984966401
 20
62.84711273746628
 10
11.49204301072871
 20
62.52121262950929
 10
11.51882523242326
 20
62.42544579827452
 10
11.58955653779315
 20
62.11441510129575
 10
11.59938446895594
 20
62.06570008332694
 10
14.0891253768238
 20
47.94592466288509
 10
14.10926251531147
 20
47.85609446715021
 10
14.12304689972112
 20
47.81366870773584
 10
14.14093021036555
 20
47.77220922745118
 10
14.16258978965781
 20
47.73259150502826
 10
14.18783809620024
 20
47.69515857404752
 10
14.21645651528105
 20
47.66023455087706
 10
14.24819725176811
 20
47.628121828284
 10
14.28278547566616
 20
47.59909845713844
 10
14.31992170175661
 20
47.57341573888555
 10
14.35928438271623
 20
47.55129604963023
 10
14.40053269326458
 20
47.53293091467282
 10
14.4433094812285
 20
47.51847935017113
 10
14.48724435997834
 20
47.50806648628393
 10
14.5319569154508
 20
47.50178248372121
 10
14.62390666274536
 20
47.49749981317659
 10
35.36091143153669
 20
47.49749981317659
 10
35.41038043211191
 20
47.496291032685
 10
35.97400535196205
 20
47.46873003352887
 10
36.07319760235834
 20
47.45897181754573
 10
36.65579247855666
 20
47.37255203143654
 10
36.75332305024815
 20
47.35315200696585
 10
37.32453190132436
 20
47.21007163841462
 10
37.41969130173315
 20
47.18120536263372
 10
37.97412529751511
 20
46.98282570704662
 10
38.06599708959732
 20
46.94477117796939
 10
38.59831672760974
 20
46.69300273987736
 10
38.68601613578493
 20
46.64612644342133
 10
39.19109488689531
 20
46.3433938905269
 10
39.27377731792211
 20
46.28814727105441
 10
39.74675099768642
 20
45.93736608331344
 10
39.82362017455507
 20
45.87428119596928
 10
40.2417677928064
 20
45.49529428617247
 10
40.27782289008364
 20
45.46096457205701
 10
42.06939944521718
 20
43.66913653234003
 10
42.32315033079972
 20
43.43935384088407
 10
42.55878326032518
 20
43.26459654998183
 10
42.81002926732089
 20
43.11400548870891
 10
43.07482596130566
 20
42.98876597968163
 10
43.35062320536368
 20
42.8900841478349
 10
43.63476492126865
 20
42.81891035315432
 10
43.92451466896857
 20
42.77593003819027
 10
44.26649110532692
 20
42.75912981317659
 10
52.18113056570949
 20
42.75912981317659
 10
52.22312626310689
 20
42.79359479995664
 10
52.35004724731847
 20
42.88772581773355
 10
52.43272966479159
 20
42.94297245749193
 10
52.56826594296524
 20
43.02420977677726
 10
52.65596533963985
 20
43.07108609474881
 10
52.7988116233331
 20
43.13864735574957
 10
52.89068340607967
 20
43.17670190736547
 10
53.03946400744274
 20
43.22993645818285
 10
53.13462340076949
 20
43.25880275731106
 10
53.28790548134237
 20
43.29719792014199
 10
53.38543604827279
 20
43.31659796853877
 10
53.54174341777979
 20
43.33978397696254
 10
53.64070588563955
 20
43.34953094155829
 10
53.79853321867621
 20
43.35728450164241
 10
53.89797452480049
 20
43.35728451384008
 10
54.05580185788369
 20
43.34953095456269
 10
54.15476432813432
 20
43.33978401424419
 10
54.31107169775512
 20
43.3165980066204
 10
54.40860226944543
 20
43.29719798214995
 10
54.56188435018756
 20
43.25880282010952
 10
54.6084759995636
 20
43.24466940402881
 10
54.65506740077268
 20
43.25880275731186
 10
54.80834948134232
 20
43.29719792014198
 10
54.90588004827284
 20
43.31659796853878
 10
55.06218741777981
 20
43.33978397696254
 10
55.16114988563947
 20
43.34953094155829
 10
55.31897721867629
 20
43.35728450164239
 10
55.41841852480043
 20
43.35728451384008
 10
55.5762458578843
 20
43.34953095456265
 10
55.67520832813482
 20
43.33978401424411
 10
55.83151569775616
 20
43.31659800662026
 10
55.92904626944656
 20
43.29719798214966
 10
56.08232835019077
 20
43.25880282010873
 10
56.12904699961969
 20
43.24463087899999
 10
56.17576540076945
 20
43.25880275731104
 10
56.3290474813435
 20
43.29719792014227
 10
56.42657804827394
 20
43.31659796853894
 10
56.58288541777978
 20
43.33978397696254
 10
56.68184788563947
 20
43.34953094155829
 10
56.83967521867629
 20
43.35728450164239
 10
56.93911652480043
 20
43.35728451384008
 10
57.09694385788369
 20
43.34953095456269
 10
57.19590632813432
 20
43.33978401424419
 10
57.35221369775512
 20
43.3165980066204
 10
57.44974426944544
 20
43.29719798214994
 10
57.60302635018919
 20
43.25880282010913
 10
57.64961799956364
 20
43.2446694040288
 10
57.69620940077583
 20
43.25880275731263
 10
57.84949148134234
 20
43.29719792014198
 10
57.94702204827288
 20
43.31659796853879
 10
58.10332941777981
 20
43.33978397696254
 10
58.20229188563946
 20
43.34953094155829
 10
58.36011921867629
 20
43.35728450164239
 10
58.45956052480044
 20
43.35728451384008
 10
58.61738785788432
 20
43.34953095456265
 10
58.71635032813472
 20
43.33978401424412
 10
58.87265769775619
 20
43.31659800662025
 10
58.97018826944663
 20
43.29719798214965
 10
59.12347035018748
 20
43.25880282010955
 10
59.17006199956361
 20
43.24466940402881
 10
59.21665340077588
 20
43.25880275731264
 10
59.36993548134327
 20
43.29719792014222
 10
59.46746604827406
 20
43.31659796853896
 10
59.62377341777977
 20
43.33978397696254
 10
59.72273588563952
 20
43.34953094155829
 10
59.8805632186762
 20
43.35728450164241
 10
59.9800045248005
 20
43.35728451384008
 10
60.13783185788433
 20
43.34953095456265
 10
60.2367943281348
 20
43.33978401424412
 10
60.39310169775612
 20
43.31659800662026
 10
60.49063226944656
 20
43.29719798214967
 10
60.64391435018915
 20
43.25880282010913
 10
60.69063299961969
 20
43.24463087899999
 10
60.73735140076948
 20
43.25880275731106
 10
60.89063348134552
 20
43.29719792014279
 10
60.98816404827629
 20
43.31659796853929
 10
61.14447141778072
 20
43.33978397696269
 10
61.24343388564057
 20
43.34953094155834
 10
61.40126121867628
 20
43.35728450164241
 10
61.50070252480045
 20
43.35728451384008
 10
61.65852985788373
 20
43.34953095456268
 10
61.75749232813429
 20
43.33978401424419
 10
61.91379969775523
 20
43.31659800662039
 10
62.01133026944532
 20
43.29719798214997
 10
62.16461235019079
 20
43.25880282010873
 10
62.21120399956361
 20
43.24466940402881
 10
62.25779540077258
 20
43.25880275731182
 10
62.4110774813413
 20
43.29719792014173
 10
62.50860804827174
 20
43.31659796853861
 10
62.66491541778052
 20
43.33978397696265
 10
62.76387788563994
 20
43.34953094155831
 10
62.92170521867627
 20
43.35728450164241
 10
63.02114652480054
 20
43.35728451384008
 10
63.17897385788477
 20
43.34953095456262
 10
63.27793632813529
 20
43.33978401424403
 10
63.43424369775623
 20
43.31659800662024
 10
63.53177426944656
 20
43.29719798214966
 10
63.68505635019068
 20
43.25880282010875
 10
63.78021575059957
 20
43.22993654432761
 10
63.92899635226512
 20
43.17670199426017
 10
64.02086814434699
 20
43.1386474651818
 10
64.16371442835729
 20
43.07108620492487
 10
64.25141383653322
 20
43.02420990846984
 10
64.38695011513821
 20
42.94297258986791
 10
64.46963254616385
 20
42.88772597039446
 10
64.5965535308663
 20
42.79359495325952
 10
64.63854943611256
 20
42.75912981314329
 10
72.50056581898933
 20
42.75912981317641
 10
72.8047323182626
 20
42.77231764105303
 10
73.06269486690543
 20
42.80626794464982
 10
73.31696764703551
 20
42.86262907493121
 10
73.56536020426601
 20
42.94093846922201
 10
73.80598187684069
 20
43.04060006869264
 10
74.03700115177439
 20
43.16085529032941
 10
74.25665960557402
 20
43.30078880095521
 10
74.46328528863455
 20
43.45933548436907
 10
74.68766565693433
 20
43.66494104565239
 10
76.48347556366504
 20
45.46100303125828
 10
76.51961249178878
 20
45.49540691375677
 10
76.93780722897985
 20
45.87435350443761
 10
77.01461822240563
 20
45.93738179195123
 10
77.48756148801141
 20
46.28811902839529
 10
77.57024161075467
 20
46.34336091299137
 10
78.07531675401164
 20
46.6460743499798
 10
78.16301319046004
 20
46.69294655437567
 10
78.69532623389517
 20
46.94469871237429
 10
78.7871944966149
 20
46.98274987287489
 10
79.3416194431693
 20
47.18111646257238
 10
79.4367748714326
 20
47.2099801591938
 10
80.00797279379835
 20
47.35305097649526
 10
80.10549907256935
 20
47.37244926146543
 10
80.68796952523948
 20
47.45884658211388
 10
80.78692750898113
 20
47.46859265642089
 10
81.35053996434701
 20
47.49627989262704
 10
81.40023616617797
 20
47.49749981313831
 10
102.1839459989049
 20
47.49749981317659
 10
102.1851522167549
 20
47.49749940915298
 10
102.1862633843563
 20
47.49749835440425
 10
102.2296407392643
 20
47.4975664033999
 10
102.362760342424
 20
47.49191202115169
 10
102.4948677821825
 20
47.47457497546295
 10
105.4804017112621
 20
46.94822001642668
 10
105.48448483483
 20
46.95736583285563
 10
105.5076843880834
 20
47.00315333838123
 10
105.5015228443075
 20
47.05434150976546
 10
105.4903719520547
 20
47.21175893713937
 10
105.4882204474536
 20
47.31115320632822
 10
105.4925491578072
 20
47.46890570585917
 10
105.5001480315757
 20
47.56803242696294
 10
105.5199146765901
 20
47.72460148078137
 10
105.5371907823445
 20
47.82250646476772
 10
105.5722050892178
 20
47.97638494650733
 10
105.5989921279865
 20
48.07212576473023
 10
105.6489170507323
 20
48.22183244775501
 10
105.6849571717784
 20
48.31448750371052
 10
105.7493121354944
 20
48.4585813186659
 10
105.772122763525
 20
48.50358586789404
 10
105.7659893097361
 20
48.5544544649367
 10
105.754806390934
 20
48.7118866787897
 10
105.7526357175728
 20
48.81129125780375
 10
105.7569356742453
 20
48.96906156553126
 10
105.7645175310367
 20
49.06820034502345
 10
105.7842589630876
 20
49.22478973000244
 10
105.8015203517167
 20
49.32270819922215
 10
105.8365131881288
 20
49.47660901479578
 10
105.8632879154978
 20
49.5723644121672
 10
105.9131952443178
 20
49.72209489722246
 10
105.9492255226516
 20
49.81476528728751
 10
106.0135668348239
 20
49.95888383284198
 10
106.036766695046
 20
50.00467194421414
 10
106.0306685685187
 20
50.05522921522203
 10
106.019478784396
 20
50.2126645975685
 10
106.0173040019217
 20
50.31207138588997
 10
106.0215977947452
 20
50.46984550987779
 10
106.0291760036179
 20
50.56898687356165
 10
106.0489120307238
 20
50.72558061574922
 10
106.0661702643822
 20
50.82350197508596
 10
106.1011584980237
 20
50.9774075772632
 10
106.127930586076
 20
51.07316609931046
 10
106.1778341430498
 20
51.22290168580206
 10
106.2138623112255
 20
51.31557536243573
 10
106.27820069662
 20
51.45969920861151
 10
106.3014099012932
 20
51.50550911317139
 10
106.2953253097376
 20
51.55597246491532
 10
106.2841423909332
 20
51.71340467880104
 10
106.2819717175732
 20
51.81280925781504
 10
106.2862716742456
 20
51.97057956554369
 10
106.2938535310383
 20
52.06971834503662
 10
106.3135949630843
 20
52.22630772997596
 10
106.3308563517109
 20
52.32422619919682
 10
106.3658491881249
 20
52.47812701477842
 10
106.3926239154921
 20
52.57388241214999
 10
106.4425312443116
 20
52.72361289720377
 10
106.4785615226437
 20
52.8162832872698
 10
106.5429028348247
 20
52.96040183284347
 10
106.5661026950459
 20
53.006189944214
 10
106.560004568518
 20
53.05674721523195
 10
106.5488147843969
 20
53.21418259755702
 10
106.5466400019214
 20
53.31358938587895
 10
106.5509337947458
 20
53.47136350989498
 10
106.55851200362
 20
53.57050487357769
 10
106.5782480307246
 20
53.72709861575587
 10
106.5955062643839
 20
53.8250199750931
 10
106.6304944980318
 20
53.97892557729846
 10
106.6572665860871
 20
54.07468409934356
 10
106.7071701430501
 20
54.22441968580313
 10
106.7431983112264
 20
54.31709336243791
 10
106.8075366966152
 20
54.46121720860062
 10
106.8307706846787
 20
54.50707603016528
 10
106.8246725685181
 20
54.55763321523117
 10
106.8134827843961
 20
54.71506859756793
 10
106.8113080019217
 20
54.81447538588938
 10
106.815601794745
 20
54.97224950987067
 10
106.8231800036171
 20
55.07139087355499
 10
106.842916030725
 20
55.22798461575874
 10
106.8601742643843
 20
55.32590597509449
 10
106.8951624980345
 20
55.47981157731069
 10
106.9219345860911
 20
55.57557009935543
 10
106.9718381430501
 20
55.72530568580313
 10
107.0078663112264
 20
55.8179793624377
 10
107.0722046966057
 20
55.96210320857957
 10
107.0954136128001
 20
56.00791254374912
 10
107.0892655870558
 20
56.05900701339143
 10
107.0781215739987
 20
56.21642126349922
 10
107.0759741867495
 20
56.31581331742509
 10
107.080309073188
 20
56.47356199069893
 10
107.0879116020488
 20
56.57268612101669
 10
107.1076836625094
 20
56.72925080666935
 10
107.124962929294
 20
56.82715289344567
 10
107.15998184768
 20
56.98102657707801
 10
107.1867715306972
 20
57.07676426317748
 10
107.2367002321988
 20
57.22646583273188
 10
107.2727424671906
 20
57.31911759446846
 10
107.3005585353749
 20
57.38139395639576
 10
107.2236568442624
 20
57.42523427244156
 10
107.1397881561007
 20
57.47866288378137
 10
106.8594590348282
 20
57.67723300888109
 10
106.7812311170203
 20
57.73862491583208
 10
106.5217151328963
 20
57.96371593033106
 10
106.4498813630561
 20
58.03247989526904
 10
106.213677796932
 20
58.28192404959228
 10
106.1489299735253
 20
58.35739783794092
 10
105.9383135947748
 20
58.62879284861574
 10
105.8812752747411
 20
58.71024960653818
 10
105.6982744342745
 20
59.0009817911975
 10
105.6494949278144
 20
59.08763704558623
 10
105.4958720237737
 20
59.39490649433633
 10
105.4558211041969
 20
59.48592570771878
 10
105.3330556090954
 20
59.80677324785806
 10
105.3021189886543
 20
59.901279855454
 10
105.2113932013266
 20
60.23261554977569
 10
105.18986881659
 20
60.32969940129103
 10
105.1320564759753
 20
60.66833230589431
 10
105.1201516185326
 20
60.7670584307711
 10
105.0958094890734
 20
61.10972732564068
 10
105.0936388092063
 20
61.20914493732257
 10
105.1030013189115
 20
61.55254973382422
 10
105.1105857214633
 20
61.6517013863643
 10
105.1535627042322
 20
61.99253490830911
 10
105.1708291472435
 20
62.09046571709521
 10
105.2470067112872
 20
62.42544555171543
 10
105.2737889094923
 20
62.52121238951956
 10
105.3824334231493
 20
62.84711249753637
 10
105.418473449323
 20
62.93979307736299
 10
105.5585386066032
 20
63.25347486281057
 10
105.6034893755992
 20
63.34217662000996
 10
105.7736262724682
 20
63.64061915578434
 10
105.8270548838126
 20
63.72448784394351
 10
106.0256250088462
 20
64.00481696512251
 10
106.087016915793
 20
64.08304488293478
 10
106.3121079303195
 20
64.34256086709043
 10
106.3808718952571
 20
64.41439463693263
 10
106.6303160496062
 20
64.65059820308126
 10
106.7057898379569
 20
64.71534602648718
 10
106.9771848485997
 20
64.92596240521267
 10
107.0586416065212
 20
64.98300072524829
 10
107.34937379119
 20
65.16600156572069
 10
107.4360290455784
 20
65.21478107218175
 10
107.743298494349
 20
65.36840397623265
 10
107.8343177077319
 20
65.40845489580809
 10
108.155165247882
 20
65.53122039091379
 10
108.249671855479
 20
65.56215701135258
 10
108.5810075497573
 20
65.65288279866836
 10
108.6780914012736
 20
65.67440718340701
 10
109.0167243058765
 20
65.7322195240217
 10
109.1154504307517
 20
65.74412438146601
 10
109.4581193256693
 20
65.76846651092859
 10
109.5575369373513
 20
65.77063719079301
 10
109.900941733789
 20
65.76127468108937
 10
110.0000933863301
 20
65.75369027854101
 10
110.3165662438961
 20
65.71378502371503
 10
110.3657189746619
 20
65.70635761801689
 10
115.0673431176542
 20
64.87741406009404
 10
115.1160775096534
 20
64.86758271896397
 10
115.42711755214
 20
64.79684928859268
 10
115.5228843894944
 20
64.77006709051612
 10
115.848784497575
 20
64.66142257683782
 10
115.9414650774006
 20
64.62538255066025
 10
116.2551468628446
 20
64.48531739338164
 10
116.3438486200426
 20
64.44036662438207
 10
116.6422911557521
 20
64.27022972755022
 10
116.7261598439131
 20
64.21680111620884
 10
117.0064889651832
 20
64.01823099111076
 10
117.0847168829902
 20
63.95683908415875
 10
117.3442328671067
 20
63.73174806966628
 10
117.4160666369465
 20
63.66298410472815
 10
117.6522702030756
 20
63.41353995039971
 10
117.7170180264816
 20
63.33806616205012
 10
117.927634405227
 20
63.06667115138192
 10
117.9846727252609
 20
62.98521439345868
 10
118.1676735657148
 20
62.69448220881933
 10
118.2164530721766
 20
62.60782695443166
 10
118.3700759762196
 20
62.30055750567698
 10
118.4101268957975
 20
62.20953829229578
 10
118.5328923909255
 20
61.8886907520875
 10
118.5638290113608
 20
61.79418414449056
 10
118.6545547986729
 20
61.46284845022589
 10
118.6760791834097
 20
61.36576459870997
 10
118.7338915240188
 20
61.02713169413961
 10
118.7457963814649
 20
60.92840556926344
 10
118.7701385109233
 20
60.58573667440462
 10
118.7723091907949
 20
60.48631906272259
 10
118.7629466810893
 20
60.14291426621061
 10
118.7553622785409
 20
60.04376261366977
 10
118.7123852957637
 20
59.70292909165848
 10
118.6951188527491
 20
59.60499828287279
 10
118.6189412887145
 20
59.27001844829246
 10
118.5921590905102
 20
59.17425161048792
 10
118.4835145768446
 20
58.84835150244557
 10
118.4474745506693
 20
58.75567092261976
 10
118.3074093933824
 20
58.44198913715718
 10
118.262458624383
 20
58.35328737995905
 10
118.0923217275334
 20
58.05484484421845
 10
118.0388931161893
 20
57.97097615605923
 10
117.8403229911382
 20
57.69064703485546
 10
117.7789310841893
 20
57.612419117045
 10
117.5538400696667
 20
57.35290313289383
 10
117.4850761047278
 20
57.28106936305319
 10
117.2356319503885
 20
57.04486579691371
 10
117.1601581620372
 20
56.98011797350837
 10
116.8887631513928
 20
56.76950159478154
 10
116.8073063934708
 20
56.71246327474673
 10
116.5165742087917
 20
56.52946243426777
 10
116.4299189544031
 20
56.4806829278091
 10
116.3925387164741
 20
56.46199424682325
 10
116.3934302594724
 20
56.4211296153759
 10
116.3891300664874
 20
56.26338407645653
 10
116.381551185486
 20
56.16427349975022
 10
116.3618163257242
 20
56.0077082352938
 10
116.3445634011227
 20
55.90981705874757
 10
116.3095837741295
 20
55.75593862485063
 10
116.2828228229443
 20
55.66020881056086
 10
116.2329350216982
 20
55.51049790912613
 10
116.1969235523419
 20
55.41785062137677
 10
116.1326076243762
 20
55.27374785204811
 10
116.1093059783666
 20
55.22774514771721
 10
116.1154820089644
 20
55.1763972872762
 10
116.1266189677494
 20
55.0190073526771
 10
116.1287637825412
 20
54.91964359548624
 10
116.1244286706359
 20
54.76191969050104
 10
116.1168291266282
 20
54.66282376019012
 10
116.0970636479097
 20
54.50628319277985
 10
116.079792852904
 20
54.40840839462877
 10
116.0447871517596
 20
54.25455708886548
 10
116.0180112512269
 20
54.15884498083556
 10
115.9681020833613
 20
54.00916299006457
 10
115.9320786621212
 20
53.91653432498093
 10
115.8677461549867
 20
53.77246159370076
 10
115.8446626769287
 20
53.72690848876959
 10
115.8508252924074
 20
53.67565343071839
 10
115.8619553522341
 20
53.5182666842392
 10
115.8640960383958
 20
53.41890514940304
 10
115.8597547327254
 20
53.26118508323388
 10
115.852151523647
 20
53.16209175170105
 10
115.8323806139969
 20
53.00555556623915
 10
115.8151066493333
 20
52.90768367401852
 10
115.7800963235251
 20
52.75383718140794
 10
115.7533177715296
 20
52.65812821476912
 10
115.7034048140722
 20
52.50845135312847
 10
115.6673792730975
 20
52.41582599191664
 10
115.6030438256175
 20
52.27175858961526
 10
115.5799699112598
 20
52.22622770564722
 10
115.5861460089644
 20
52.17487928727635
 10
115.5972829677494
 20
52.01748935267707
 10
115.5994277825412
 20
51.9181255954868
 10
115.5950926706359
 20
51.76040169050011
 10
115.5874931266281
 20
51.66130576018961
 10
115.5677276479073
 20
51.50476519276002
 10
115.5504568528995
 20
51.40689039460889
 10
115.5154511517595
 20
51.25303908886535
 10
115.4886752512269
 20
51.15732698083562
 10
115.4387660833614
 20
51.00764499006486
 10
115.4027426621213
 20
50.91501632498109
 10
115.3384101549847
 20
50.77094359369627
 10
115.3153019199724
 20
50.72534163321043
 10
115.3214780089649
 20
50.67399328726877
 10
115.3326149677526
 20
50.51660335263272
 10
115.33475978254
 20
50.41723959544203
 10
115.3304246706352
 20
50.25951569047252
 10
115.3228251266245
 20
50.16041976016094
 10
115.3030596479068
 20
50.003879192756
 10
115.2857888528985
 20
49.906004394605
 10
115.2507831517647
 20
49.75215308888781
 10
115.2240072512336
 20
49.65644098085547
 10
115.174098083374
 20
49.50675899010287
 10
115.1380746621375
 20
49.41413032501729
 10
115.0737421549715
 20
49.27005759366668
 10
115.0508635625823
 20
49.22490881162157
 10
115.0570116012598
 20
49.1738801941176
 10
115.0681805687595
 20
49.01647547320382
 10
115.0703445390665
 20
48.91710140854961
 10
115.0660381645469
 20
48.7593596983975
 10
115.0584556256382
 20
48.66025171387157
 10
115.0387153454555
 20
48.50369082051017
 10
115.0214592572568
 20
48.40580254279763
 10
114.986475014315
 20
48.2519289104462
 10
114.9597114165907
 20
48.15620223009971
 10
114.9098198326616
 20
48.0064964457667
 10
114.8738062473508
 20
47.91385245423675
 10
114.809487384173
 20
47.76975500172905
 10
114.7862196249188
 20
47.72382256814099
 10
114.7923323161877
 20
47.67310579658607
 10
114.8035081687672
 20
47.51569789643923
 10
114.8056762594728
 20
47.41632161538756
 10
114.8013760664872
 20
47.25857607645074
 10
114.7937971854853
 20
47.15946549974591
 10
114.7740623257211
 20
47.00290023526886
 10
114.7568094011169
 20
46.90500905872183
 10
114.721829774131
 20
46.7511306248573
 10
114.6950688229462
 20
46.65540081056665
 10
114.6451810216994
 20
46.50568990912975
 10
114.6091695523432
 20
46.41304262137947
 10
114.5448536243798
 20
46.26893985205632
 10
114.5215516364276
 20
46.22293647265244
 10
114.5276643161877
 20
46.17221979658589
 10
114.5388401687672
 20
46.01481189643929
 10
114.5410082594728
 20
45.91543561538673
 10
114.5367080664872
 20
45.75769007645089
 10
114.5291291854853
 20
45.65857949974581
 10
114.509394325721
 20
45.502014235268
 10
114.4921414011167
 20
45.40412305872107
 10
114.457161774131
 20
45.2502446248571
 10
114.4304008229462
 20
45.15451481056651
 10
114.3805130217002
 20
45.00480390913199
 10
114.3445015523439
 20
44.9121566213811
 10
114.2801856243788
 20
44.76805385205406
 10
114.2564633856498
 20
44.72122080283992
 10
114.2575358139352
 20
44.71179485692427
 10
114.3890720568948
 20
44.58294336031037
 10
114.4528336514927
 20
44.51443243656532
 10
114.6320744808198
 20
44.30305302435907
 10
114.689242593049
 20
44.2289511042629
 10
114.8482148865841
 20
44.00193493591157
 10
114.8983017645864
 20
43.922874248653
 10
115.0356491886972
 20
43.68215820044215
 10
115.078227496906
 20
43.59881328285343
 10
115.192778218989
 20
43.34645111672643
 10
115.2274846840937
 20
43.25953305820269
 10
115.3182613703047
 20
42.99767789969797
 10
115.3447998806805
 20
42.90792827527098
 10
115.4110280346182
 20
42.63881424296212
 10
115.4291721667061
 20
42.54699878626307
 10
115.4702867373009
 20
42.27292193041449
 10
115.4798816874088
 20
42.17982400052302
 10
115.4955318897676
 20
41.9031227140208
 10
115.4964957948753
 20
41.80953661192876
 10
115.4865481032533
 20
41.53257167869222
 10
115.4788727394272
 20
41.43929587042382
 10
115.4463668208422
 20
41.18733373224226
 10
115.4393048180218
 20
41.14105122101474
 10
113.8292565073046
 20
32.00992566830288
 10
113.817995097027
 20
31.92437994774936
 10
113.8161483871084
 20
31.88208000000001
 10
113.817995097027
 20
31.83978005225057
 10
113.8292565073041
 20
31.75423433170132
 10
115.4395554774715
 20
22.62168720512636
 10
115.446987541972
 20
22.57250344916034
 10
115.4807505337799
 20
22.30470752168466
 10
115.4883333548968
 20
22.20555574877479
 10
115.4963535359675
 20
21.91121088458656
 10
115.4941812704802
 20
21.81179330753749
 10
115.4733119903262
 20
21.51807967907801
 10
115.461405558291
 20
21.41935374408681
 10
115.4118477994796
 20
21.12909997414247
 10
115.390321866341
 20
21.03201646593307
 10
115.3125528971982
 20
20.74801785707737
 10
115.2816147694651
 20
20.65351174290471
 10
115.176383547654
 20
20.3785033569019
 10
115.1363311764056
 20
20.28748478230932
 10
115.0046511361511
 20
20.02411510033474
 10
114.9558702476213
 20
19.93746062394755
 10
114.7990095396524
 20
19.68826603992522
 10
114.7419699204608
 20
19.60681019172418
 10
114.5614391991838
 20
19.37419058578672
 10
114.4966901720464
 20
19.29871783011586
 10
114.2942280469632
 20
19.08491345618822
 10
114.2223931804056
 20
19.01615063694439
 10
113.9999494724553
 20
18.82322054802805
 10
113.9217205755103
 20
18.76182988875168
 10
113.6814375392601
 20
18.59163210711628
 10
113.5975679989726
 20
18.53820483341109
 10
113.3417596913325
 20
18.39237845667468
 10
113.2530572172202
 20
18.34742910239614
 10
112.9841872120693
 20
18.22737851830988
 10
112.8915060574481
 20
18.19133997031175
 10
112.8634803298198
 20
18.18199760700241
 10
112.8760167819591
 20
18.09149090995191
 10
112.8847991631723
 20
17.992735156343
 10
112.8910546188148
 20
17.83546969466025
 10
112.8901438963414
 20
17.73632838301397
 10
112.8810003885028
 20
17.57920437970488
 10
112.873918621755
 20
17.51331504016239
 10
112.8925217671697
 20
17.47760164886387
 10
112.958317027661
 20
17.33462423857503
 10
112.9953079775303
 20
17.24263783350328
 10
113.0468155980994
 20
17.09391486560907
 10
113.0746399637754
 20
16.99875377185052
 10
113.1113668412197
 20
16.84570903123747
 10
113.1297582488392
 20
16.74828426428338
 10
113.1513527819591
 20
16.59238290995229
 10
113.1601351631723
 20
16.49362715634349
 10
113.1663906188153
 20
16.33636169464919
 10
113.1654798963407
 20
16.2372203830024
 10
113.1563363885029
 20
16.08009637970508
 10
113.149254621755
 20
16.01420704016222
 10
113.1678577671739
 20
15.97849364885467
 10
113.2336530276613
 20
15.83551623857431
 10
113.2706439775305
 20
15.74352983350288
 10
113.3221515980961
 20
15.59480686561865
 10
113.3499759637729
 20
15.49964577186096
 10
113.3867028412225
 20
15.34660103122577
 10
113.4050942488406
 20
15.24917626427278
 10
113.4266887819592
 20
15.09327490995184
 10
113.4354711631723
 20
14.99451915634319
 10
113.4417266188157
 20
14.83725369463751
 10
113.44081589634
 20
14.73811238299119
 10
113.4316723885022
 20
14.58098837969363
 10
113.4245698927231
 20
14.51490617554896
 10
113.4428879356226
 20
14.47974396283937
 10
113.5086910346242
 20
14.33676597756828
 10
113.5456867903205
 20
14.24477892450065
 10
113.5972018042541
 20
14.09605449663992
 10
113.6250306645634
 20
14.00089222257239
 10
113.6617643956416
 20
13.84784521974805
 10
113.6801599308293
 20
13.75041879541992
 10
113.7017606953302
 20
13.59451446870832
 10
113.7105467890172
 20
13.49575664152813
 10
113.7168077841116
 20
13.33848759802552
 10
113.7159003194295
 20
13.23934386206762
 10
113.7067616032051
 20
13.0822157743473
 10
113.6996731307132
 20
13.01624497149399
 10
113.7182239356355
 20
12.98063596281102
 10
113.7840270346138
 20
12.83765797759068
 10
113.8210227903126
 20
12.74567092452358
 10
113.8725378042477
 20
12.5969464966584
 10
113.9003666645592
 20
12.50178422259054
 10
113.937100395643
 20
12.34873721974233
 10
113.95549593083
 20
12.25131079541451
 10
113.977096695327
 20
12.09540646873101
 10
113.9858827890164
 20
11.99664864155076
 10
113.9921437841111
 20
11.83937959803633
 10
113.9912363194301
 20
11.74023586207807
 10
113.9820976032052
 20
11.58310777435019
 10
113.9750090497974
 20
11.51713621842789
 10
113.9936117671699
 20
11.48142364886321
 10
114.0594070276499
 20
11.33844623859917
 10
114.0963979775224
 20
11.24645983352636
 10
114.1479055981012
 20
11.09773686560355
 10
114.1757299637764
 20
11.00257577184593
 10
114.2124568412214
 20
10.84953103123036
 10
114.2308482488402
 20
10.75210626427605
 10
114.2524427819573
 20
10.59620490996523
 10
114.2612251631717
 20
10.49744915635675
 10
114.2674806188148
 20
10.34018369466017
 10
114.2665698963414
 20
10.24104238301383
 10
114.2574263885031
 20
10.08391837970924
 10
114.250344621755
 20
10.01802904016225
 10
114.2689477671693
 20
9.98231564886429
 10
114.3347430276541
 20
9.839338238590183
 10
114.3717339775256
 20
9.747351833516905
 10
114.4232415981048
 20
9.598628865593243
 10
114.4510659637789
 20
9.503467771835756
 10
114.4877928412215
 20
9.350423031229805
 10
114.5061842488402
 20
9.252998264276014
 10
114.5277787819573
 20
9.097096909964951
 10
114.5365611631717
 20
8.998341156356842
 10
114.5428166188148
 20
8.841075694660155
 10
114.5419058963414
 20
8.741934383014143
 10
114.5327623885024
 20
8.5848103796977
 10
114.5256806217549
 20
8.518921040162481
 10
114.5442837671705
 20
8.483207648861926
 10
114.6100790276532
 20
8.340230238592109
 10
114.6470699775246
 20
8.248243833519772
 10
114.6985775981013
 20
8.099520865603384
 10
114.7264019637767
 20
8.004359771845157
 10
114.7631288412162
 20
7.851315031251896
 10
114.7708257431559
 20
7.81054224793934
 10
114.8077698099098
 20
7.806421537463299
 10
115.1367115329055
 20
7.753782500884529
 10
115.2310940716607
 20
7.734032358476063
 10
115.5535426625171
 20
7.650363776867062
 10
115.6456204594371
 20
7.621731433941901
 10
115.9586557737853
 20
7.507791022934964
 10
116.0475949580826
 20
7.470535778425076
 10
116.3483820996582
 20
7.327355400019692
 10
116.4333772243079
 20
7.281814643186971
 10
116.7191922181709
 20
7.110690961063916
 10
116.7994735541606
 20
7.05727711605473
 10
117.0677280154612
 20
6.859759852781988
 10
117.1425685225817
 20
6.798956643647746
 10
117.3908330973791
 20
6.576834546147448
 10
117.4595550084075
 20
6.50919261616654
 10
117.6855813742602
 20
6.264477256558783
 10
117.7475623329304
 20
6.190609181523697
 10
117.9493035600923
 20
5.925516739972506
 10
118.0039822572423
 20
5.846091480608643
 10
118.1796113458951
 20
5.563022675346418
 10
118.2264926027778
 20
5.478759519102206
 10
118.3744190287171
 20
5.180277865031994
 10
118.4130782814078
 20
5.09193991209957
 10
118.5319623999871
 20
4.780748505359251
 10
118.5620495443118
 20
4.689135757918691
 10
118.6508147225753
 20
4.368052795991632
 10
118.6720572846905
 20
4.27399491327104
 10
118.7298996514142
 20
3.945928173265058
 10
118.7421052553918
 20
3.850276958017197
 10
118.7685009811584
 20
3.518197463062024
 10
118.7715590911557
 20
3.42181914750204
 10
118.7662691321799
 20
3.088734260998775
 10
118.7601520534828
 20
2.99250166207731
 10
118.7232243164549
 20
2.661427852294508
 10
118.7079874462749
 20
2.56621246732901
 10
118.6397563544851
 20
2.240147989889953
 10
118.6155376802708
 20
2.146812104151933
 10
118.5166211450894
 20
1.828709849623136
 10
118.4836399949148
 20
1.738098727347247
 10
118.3549338197644
 20
1.430839478866607
 10
118.3134888760272
 20
1.343773708405595
 10
118.1561586439823
 20
1.050140053366195
 10
118.106625238514
 20
0.9674081158227485
 10
117.9220957565002
 20
0.6900592460404978
 10
117.8649224714882
 20
0.6124103746508708
 10
117.654864867092
 20
0.3538580044731822
 10
117.590569472661
 20
0.281995399441033
 10
117.3568860600855
 20
0.0445810191744455
 10
117.2860508252847
 20
-0.0208445206239817
 10
117.0308578775969
 20
-0.2349708496814956
 10
116.9541242972761
 20
-0.2933668204169937
 10
116.6797328814909
 20
-0.4822659369331206
 10
116.5977958668417
 20
-0.5331034956600793
 10
116.3066909140073
 20
-0.6950647000637956
 10
116.2202924993203
 20
-0.7378834539760644
 10
115.9151103009829
 20
-0.8714400005075018
 10
115.8250329236809
 20
-0.9058521763377703
 10
115.508537257121
 20
-1.009794556216684
 10
115.415596671882
 20
-1.035488511974308
 10
115.1138752958638
 20
-1.103630929780093
 10
115.0666106824343
 20
-1.113129195742745
 10
110.366977439334
 20
-1.94172173809481
 10
110.3203926550941
 20
-1.948821996540441
 10
110.0136233805834
 20
-1.988300250683511
 10
109.9164425485168
 20
-1.996077825023457
 10
109.5829563645056
 20
-2.006665014201694
 10
109.486541135118
 20
-2.005135384864242
 10
109.1540830163636
 20
-1.984007903171263
 10
109.0582497688397
 20
-1.973320298659366
 10
108.7293053691416
 20
-1.920686154639614
 10
108.6349219939382
 20
-1.900937364640669
 10
108.3124703181573
 20
-1.817273226603683
 10
108.2203915753297
 20
-1.788642101225837
 10
107.9073528285437
 20
-1.674705653063746
 10
107.818412606804
 20
-1.637451483121715
 10
107.5176217482141
 20
-1.494274562540949
 10
107.4326255130225
 20
-1.448734731354644
 10
107.1468065817569
 20
-1.277613985252557
 10
107.0665240808219
 20
-1.224200913211706
 10
106.7982655264724
 20
-1.026686054979172
 10
106.7234238187132
 20
-0.9658834645655717
 10
106.4751550595145
 20
-0.7437632393885478
 10
106.4064319306361
 20
-0.6761217744547256
 10
106.1804013522012
 20
-0.4314077601100084
 10
106.1184191764839
 20
-0.3575399991148916
 10
105.9166737697016
 20
-0.0924483884879411
 10
105.8619938736235
 20
-0.0130232968229298
 10
105.6863606965981
 20
0.2700451725286692
 10
105.6394782753263
 20
0.3543083008648474
 10
105.4915479071787
 20
0.6527900882544886
 10
105.4528875399481
 20
0.7411281447564449
 10
105.3339996760428
 20
1.052320122548264
 10
105.3039114810544
 20
1.143933095120879
 10
105.2151428003983
 20
1.465017028884774
 10
105.1938992640583
 20
1.559075246948182
 10
105.1360536785674
 20
1.887143318301172
 10
105.1238471877927
 20
1.982794966504455
 10
105.0974485619324
 20
2.314876106820349
 10
105.0943896618334
 20
2.411254939306509
 10
105.0996770683304
 20
2.744341736601469
 10
105.1057934610909
 20
2.84057492194168
 10
105.1427190158372
 20
3.171650856761279
 10
105.1579553098372
 20
3.266866882546045
 10
105.226184605542
 20
3.592933646311281
 10
105.2504028169968
 20
3.686270211788125
 10
105.3493179516554
 20
4.004374860229865
 10
105.3822987542305
 20
4.09498668552179
 10
105.5110039270017
 20
4.402248381325944
 10
105.5524486380866
 20
4.489314862501287
 10
105.7097782619199
 20
4.782950964962868
 10
105.7593115475807
 20
4.865683605636478
 10
105.9438408050584
 20
5.143034870911488
 10
106.0010140791556
 20
5.220684423067199
 10
106.2110718259633
 20
5.479239086918975
 10
106.2753673126608
 20
5.551102336299313
 10
106.5090512119774
 20
5.788518861395577
 10
106.5422880376024
 20
5.819217584410103
 10
106.5426457757828
 20
5.956462276594242
 10
106.5475285739335
 20
6.053211132259917
 10
106.5588494716073
 20
6.16807062807506
 10
106.5213983157341
 20
6.240788893873041
 10
106.4812117048994
 20
6.328932067743964
 10
106.4241719973838
 20
6.47176177113202
 10
106.3925861272791
 20
6.563339692053215
 10
106.3494463801761
 20
6.710963587843962
 10
106.326749941603
 20
6.805139245349979
 10
106.2979044466432
 20
6.956208070161731
 10
106.284304882149
 20
7.052120710809017
 10
106.2700172834846
 20
7.205253714817749
 10
106.2656388913407
 20
7.302026709361735
 10
106.2660397757828
 20
7.455824276594402
 10
106.2709225739335
 20
7.552573132259834
 10
106.2822432107695
 20
7.667429981668134
 10
106.244522850755
 20
7.740714546857915
 10
106.204362254455
 20
7.82885574987653
 10
106.147362762037
 20
7.971680007456749
 10
106.1158014622458
 20
8.063253090400921
 10
106.0726993933974
 20
8.210867189690819
 10
106.0500257814915
 20
8.305035403476676
 10
106.0212149813252
 20
8.456090520757665
 10
106.0076362374464
 20
8.55199340329773
 10
105.9933799646723
 20
8.705109272345483
 10
105.9890201646001
 20
8.801870511009392
 10
105.9894486859187
 20
8.955648035455782
 10
105.994347667324
 20
9.052383474390026
 10
106.0056424712746
 20
9.166781761356569
 10
105.9679168507458
 20
9.240076546875664
 10
105.9277562544476
 20
9.328217749895035
 10
105.8707567620412
 20
9.471042007446216
 10
105.8391954622487
 20
9.562615090390748
 10
105.7960933934035
 20
9.710229189670313
 10
105.7734197814955
 20
9.804397403455272
 10
105.7446089813251
 20
9.955452520758106
 10
105.7310302374463
 20
10.05135540329832
 10
105.7167739646734
 20
10.20447127233373
 10
105.7124141646
 20
10.30123251099879
 10
105.7128426859187
 20
10.45501003541018
 10
105.7177416673194
 20
10.55174547434319
 10
105.7290575130269
 20
10.6663568806313
 10
105.6913108507375
 20
10.73969254689182
 10
105.6511502544408
 20
10.82783374991231
 10
105.5941507620492
 20
10.97065800742621
 10
105.5625894622547
 20
11.06223109037011
 10
105.5194873933973
 20
11.20984518969132
 10
105.4968137814916
 20
11.30401340347598
 10
105.4680029813251
 20
11.45506852075802
 10
105.4544242374462
 20
11.55097140329866
 10
105.4401679646734
 20
11.70408727233397
 10
105.4358081646
 20
11.80084851099746
 10
105.4362366859187
 20
11.95462603544428
 10
105.4411356673228
 20
12.05136147437782
 10
105.4524304712746
 20
12.16575976135657
 10
105.4147048507398
 20
12.23905454688733
 10
105.3745442544433
 20
12.32719574990599
 10
105.3175447620352
 20
12.47002000746095
 10
105.2859834622442
 20
12.56159309040621
 10
105.2428813933939
 20
12.70920718970268
 10
105.2202077814892
 20
12.80337540348824
 10
105.1913969813255
 20
12.95443052075623
 10
105.1778182374464
 20
13.05033340329725
 10
105.1635619646734
 20
13.20344927233446
 10
105.1592021646
 20
13.3002105109978
 10
105.1596306859187
 20
13.45398803544421
 10
105.1645296673228
 20
13.55072347437809
 10
105.1758244712746
 20
13.66512176135659
 10
105.1380988507287
 20
13.73841654690892
 10
105.0979382544342
 20
13.8265577499288
 10
105.0409387620438
 20
13.96938200743953
 10
105.0093774622509
 20
14.06095509038353
 10
104.9662753933942
 20
14.20856918970177
 10
104.9436017814894
 20
14.30273740348743
 10
104.9147909813211
 20
14.4537925207791
 10
104.9012122374443
 20
14.54969540331965
 10
104.8869559646734
 20
14.70281127233387
 10
104.8825961646
 20
14.79957251099799
 10
104.8830246859188
 20
14.95335003546793
 10
104.8879236673251
 20
15.05008547440129
 10
104.8992184712746
 20
15.16448376135648
 10
104.8614928507301
 20
15.23777854690616
 10
104.8213322544354
 20
15.32591974992596
 10
104.7643327620357
 20
15.46874400745976
 10
104.7327714622449
 20
15.56031709040403
 10
104.6896693933942
 20
15.70793118970177
 10
104.6669957814894
 20
15.80209940348748
 10
104.638184981321
 20
15.95315452077968
 10
104.6246062374443
 20
16.04905740332023
 10
104.6103499646734
 20
16.20217327233413
 10
104.6059901646
 20
16.29893451099812
 10
104.6064186859188
 20
16.4527120354675
 10
104.6113176673251
 20
16.54944747440122
 10
104.6226124712746
 20
16.66384576135655
 10
104.6222013501603
 20
16.66464450325837
 10
102.4958409305937
 20
16.28966504550809
 10
102.3648858252357
 20
16.27242242509976
 10
102.2329256431522
 20
16.26666018694456
 10
81.40009000897348
 20
16.26666018682327
 10
81.35009779403624
 20
16.26789468394422
 10
80.78647485893371
 20
16.29574770759654
 10
80.68780651989897
 20
16.30548013833005
 10
80.10546752144469
 20
16.39186196856343
 10
80.00793694975603
 20
16.41126199303312
 10
79.43672809866537
 20
16.55434236158794
 10
79.34156869825686
 20
16.58320863736986
 10
78.78713470248254
 20
16.78158829295421
 10
78.69526291040036
 20
16.81964282203171
 10
78.16294327239953
 20
17.07141126011826
 10
78.07524386422404
 20
17.11828755657329
 10
77.5701651130964
 20
17.42102010947808
 10
77.48748268207015
 20
17.47626672895135
 10
77.0145090023051
 20
17.82704791669283
 10
76.93763982543727
 20
17.89013280403768
 10
76.51951821113115
 20
18.26909614523233
 10
76.48351339041744
 20
18.30337558000296
 10
75.19713661480029
 20
19.58975235556678
 10
74.94345508161209
 20
19.81962553080298
 10
74.70812400078077
 20
19.99414830951462
 10
74.45688573810478
 20
20.14472629569991
 10
74.19209859501771
 20
20.26995474059865
 10
73.91631238339066
 20
20.36862773605507
 10
73.63218283245591
 20
20.43979509403425
 10
73.34244601502128
 20
20.48277149661579
 10
73.00048515534701
 20
20.49957018682341
 10
65.72352958589253
 20
20.49957018682341
 10
65.65213709362156
 20
20.42080070965415
 10
65.58182148035689
 20
20.35048507913938
 10
65.46470117008192
 20
20.24433341694201
 10
65.38783200868978
 20
20.18124851073906
 10
65.260870982349
 20
20.08708779569547
 10
65.17818856487602
 20
20.03184115593849
 10
65.04260952654778
 20
19.95057820720295
 10
64.95491012987168
 20
19.90370188923426
 10
64.81201877984752
 20
19.83611931344659
 10
64.72014699710135
 20
19.79806476183099
 10
64.57131945716239
 20
19.74481341612279
 10
64.47616006383491
 20
19.71594711699539
 10
64.32282962454053
 20
19.67753984093547
 10
64.22529905760985
 20
19.65813979253854
 10
64.06894237492823
 20
19.63494646919651
 10
63.96997990706864
 20
19.6251995046005
 10
63.81210278132125
 20
19.6174434983576
 10
63.71266147519735
 20
19.61744348615992
 10
63.554784349419
 20
19.62519949159579
 10
63.45582187916829
 20
19.63494643191308
 10
63.29946519637012
 20
19.65813975445597
 10
63.20193462468008
 20
19.67753977892524
 10
63.04860418518444
 20
19.71594705420301
 10
63.00038199971636
 20
19.73057508778188
 10
62.95216006383025
 20
19.71594711699422
 10
62.79882962454152
 20
19.67753984093572
 10
62.70129905761092
 20
19.6581397925387
 10
62.54494237492988
 20
19.63494646919675
 10
62.44597990707036
 20
19.62519950460059
 10
62.28810278132126
 20
19.6174434983576
 10
62.18866147519741
 20
19.61744348615992
 10
62.03078434941787
 20
19.62519949159584
 10
61.93182187916718
 20
19.63494643191324
 10
61.77546519637126
 20
19.6581397544558
 10
61.67793462468117
 20
19.67753977892497
 10
61.52460418518126
 20
19.71594705420381
 10
61.47638199971633
 20
19.73057508778189
 10
61.42816006383178
 20
19.7159471169946
 10
61.27482962454152
 20
19.67753984093571
 10
61.17729905761093
 20
19.6581397925387
 10
61.02094237492988
 20
19.63494646919675
 10
60.92197990707036
 20
19.62519950460059
 10
60.76410278132126
 20
19.6174434983576
 10
60.66466147519741
 20
19.61744348615992
 10
60.50678434941787
 20
19.62519949159584
 10
60.40782187916718
 20
19.63494643191324
 10
60.25146519637021
 20
19.65813975445595
 10
60.15393462468001
 20
19.67753977892526
 10
60.00060418518135
 20
19.71594705420378
 10
59.9523819997164
 20
19.73057508778187
 10
59.90416006383178
 20
19.7159471169946
 10
59.75082962454152
 20
19.67753984093571
 10
59.65329905761093
 20
19.6581397925387
 10
59.49694237492987
 20
19.63494646919675
 10
59.39797990707035
 20
19.62519950460059
 10
59.24010278132126
 20
19.6174434983576
 10
59.14066147519739
 20
19.61744348615992
 10
58.98278434941837
 20
19.62519949159582
 10
58.88382187916775
 20
19.63494643191316
 10
58.7274651963702
 20
19.65813975445596
 10
58.62993462468007
 20
19.67753977892524
 10
58.47660418518282
 20
19.71594705420342
 10
58.42838199971637
 20
19.73057508778187
 10
58.3801600638319
 20
19.71594711699464
 10
58.22682962454046
 20
19.67753984093545
 10
58.12929905760986
 20
19.65813979253855
 10
57.9729423749299
 20
19.63494646919675
 10
57.87397990707028
 20
19.62519950460058
 10
57.71610278132126
 20
19.6174434983576
 10
57.61666147519739
 20
19.61744348615992
 10
57.45878434941837
 20
19.62519949159582
 10
57.35982187916773
 20
19.63494643191316
 10
57.20346519636906
 20
19.65813975445612
 10
57.10593462467906
 20
19.67753977892549
 10
56.95260418518281
 20
19.71594705420342
 10
56.90438199971636
 20
19.73057508778188
 10
56.85616006383344
 20
19.71594711699502
 10
56.70282962454052
 20
19.67753984093547
 10
56.60529905760994
 20
19.65813979253856
 10
56.44894237492766
 20
19.63494646919642
 10
56.34997990706801
 20
19.62519950460047
 10
56.19210278132133
 20
19.6174434983576
 10
56.09266147519739
 20
19.61744348615992
 10
55.93478434941837
 20
19.62519949159582
 10
55.83582187916773
 20
19.63494643191316
 10
55.67946519636906
 20
19.65813975445612
 10
55.58193462467906
 20
19.67753977892549
 10
55.42860418518281
 20
19.71594705420342
 10
55.38038199971635
 20
19.73057508778188
 10
55.33216006383349
 20
19.71594711699503
 10
55.17882962453941
 20
19.67753984093519
 10
55.08129905760884
 20
19.65813979253839
 10
54.9249423749277
 20
19.63494646919643
 10
54.82597990706801
 20
19.62519950460047
 10
54.66810278132133
 20
19.6174434983576
 10
54.56866147519737
 20
19.61744348615992
 10
54.41078434941953
 20
19.62519949159576
 10
54.31182187916885
 20
19.63494643191299
 10
54.15546519637015
 20
19.65813975445596
 10
54.05793462468007
 20
19.67753977892524
 10
53.90460418518282
 20
19.71594705420342
 10
53.85638199971633
 20
19.73057508778189
 10
53.80816006383346
 20
19.71594711699502
 10
53.65482962454053
 20
19.67753984093547
 10
53.55729905760991
 20
19.65813979253855
 10
53.40094237492817
 20
19.6349464691965
 10
53.3019799070686
 20
19.6251995046005
 10
53.14410278132128
 20
19.6174434983576
 10
53.04466147519744
 20
19.61744348615992
 10
52.88678434941831
 20
19.62519949159582
 10
52.78782187916776
 20
19.63494643191316
 10
52.63146519637013
 20
19.65813975445596
 10
52.53393462468008
 20
19.67753977892524
 10
52.38060418518444
 20
19.71594705420301
 10
52.28544478477573
 20
19.74481332998483
 10
52.13661724456127
 20
19.79806467493385
 10
52.04474545247894
 20
19.83611920401104
 10
51.90185410209645
 20
19.90370177907482
 10
51.81415469392072
 20
19.95057807553001
 10
51.67857565518508
 20
20.03184102356817
 10
51.59589322415926
 20
20.08708764304126
 10
51.46893219733845
 20
20.18124835743539
 10
51.39206302047035
 20
20.24433324478047
 10
51.27494270965724
 20
20.35048490637564
 10
51.20462707914181
 20
20.4208005196404
 10
51.13323441391941
 20
20.49957018682338
 10
43.75502845726434
 20
20.49957018682341
 10
43.4509333363582
 20
20.48637084521716
 10
43.19298892577442
 20
20.45241181932509
 10
42.93873462834712
 20
20.39604499863143
 10
42.69036053740698
 20
20.31773294856908
 10
42.44975692975827
 20
20.21807167112509
 10
42.21875494413555
 20
20.09781964879787
 10
41.99911264513247
 20
19.95789207208763
 10
41.79250164326795
 20
19.79935387434361
 10
41.56808425639236
 20
19.59371322675798
 10
40.27965731228966
 20
18.30528628265529
 10
40.24769860386706
 20
18.27469402814618
 10
39.87782099034296
 20
17.93579822533866
 10
39.81017342456393
 20
17.8790363696426
 10
39.39489840220146
 20
17.56036488689035
 10
39.3224927386859
 20
17.50966286895305
 10
38.88098703379138
 20
17.22837661138139
 10
38.80443774724798
 20
17.18417840483578
 10
38.34009542733281
 20
16.9424441373147
 10
38.25998515731198
 20
16.90508614795099
 10
37.77634047088027
 20
16.70474378240836
 10
37.69327896064393
 20
16.67451035307285
 10
37.19401307226178
 20
16.5170847552571
 10
37.10863252784495
 20
16.49420600163711
 10
36.59754549973949
 20
16.38089538492967
 10
36.51049577804069
 20
16.36554544407274
 10
35.9914776466912
 20
16.29721224952203
 10
35.9034213092179
 20
16.28950795442532
 10
35.40222529313715
 20
16.26762426154776
 10
35.35804450713242
 20
16.26666018685367
 10
14.6233506433179
 20
16.26666018682347
 10
14.53141705727944
 20
16.26242914487871
 10
14.48726757170481
 20
16.25622427741897
 10
14.44334404737383
 20
16.24581410460594
 10
14.40057831453435
 20
16.23136627492988
 10
14.35934066409499
 20
16.21300588621148
 10
14.31998815592687
 20
16.19089191351257
 10
14.28286152722873
 20
16.1652158326364
 10
14.24828224222366
 20
16.13619996221737
 10
14.21654970873201
 20
16.10409553875487
 10
14.1879386857231
 20
16.0691805412607
 10
14.16269690428885
 20
16.03175728435152
 10
14.14104292264349
 20
15.9921498006326
 10
14.12316423371652
 20
15.95070103503092
 10
14.10921564172927
 20
15.90776987537708
 10
14.08903190416646
 20
15.81795840825286
 10
11.59936135821098
 20
1.698328414764834
 10
11.58947072845061
 20
1.649337138331787
 10
11.51864602850514
 20
1.33829357646336
 10
11.4918970038978
 20
1.242713022773714
 10
11.38325828493395
 20
0.9169287601555943
 10
11.34721244192574
 20
0.8242572414864509
 10
11.20712972299774
 20
0.5106072523524673
 10
11.16217460795741
 20
0.4219148016997348
 10
10.99202521669838
 20
0.1235045664866666
 10
10.93859371685132
 20
0.0396452319127559
 10
10.74001607633017
 20
-0.2406517614992019
 10
10.678622700729
 20
-0.3188704715586501
 10
10.45352897875766
 20
-0.5783551534894065
 10
10.38476490391168
 20
-0.650180045982586
 10
10.13532260014907
 20
-0.8863537551881123
 10
10.05984997739503
 20
-0.9510932051834618
 10
9.788461051803077
 20
-1.161681749255171
 10
9.707006631237282
 20
-1.218712359819767
 10
9.416284374848194
 20
-1.401687914105279
 10
9.329632507217493
 20
-1.45046051919449
 10
9.022376377897213
 20
-1.604061153385774
 10
8.931361461833212
 20
-1.644106105938338
 10
8.610530127425889
 20
-1.766852750249901
 10
8.516028574753523
 20
-1.797784444571257
 10
8.184711423100416
 20
-1.888495132188273
 10
8.087633219586994
 20
-1.910015717070716
 10
7.749020609830892
 20
-1.967816965681401
 10
7.650300552641236
 20
-1.979719212509279
 10
7.307653094228118
 20
-2.004054435348151
 10
7.208241790462848
 20
-2.006223733568337
 10
6.864858945694313
 20
-1.996858598967622
 10
6.765713658689046
 20
-1.989274059711653
 10
6.44926107329602
 20
-1.949370355888823
 10
6.4001114854993
 20
-1.941943346527847
 10
1.674311268014402
 20
-1.108737303855698
  0
ENDSEC
  0
SECTION
  2
OBJECTS
  0
DICTIONARY
  5
A
330
0
100
AcDbDictionary
281
     1
  3
ACAD_CIP_PREVIOUS_PRODUCT_INFO
350
6C
  3
ACAD_COLOR
350
B
  3
ACAD_DETAILVIEWSTYLE
350
68
  3
ACAD_GROUP
350
C
  3
ACAD_LAST_SAVED_VERSION_INFO
350
83
  3
ACAD_LAYOUT
350
D
  3
ACAD_MATERIAL
350
E
  3
ACAD_MLEADERSTYLE
350
F
  3
ACAD_MLINESTYLE
350
10
  3
ACAD_PLOTSETTINGS
350
11
  3
ACAD_PLOTSTYLENAME
350
12
  3
ACAD_SCALELIST
350
14
  3
ACAD_SECTIONVIEWSTYLE
350
66
  3
ACAD_TABLESTYLE
350
15
  3
ACAD_VISUALSTYLE
350
16
  3
ACDB_RECOMPOSE_DATA
350
8D
  3
AcDbVariableDictionary
350
84
  0
DICTIONARY
  5
80
330
17
100
AcDbDictionary
280
     1
281
     1
  3
ACAD_SORTENTS
360
81
  0
XRECORD
  5
6C
102
{ACAD_REACTORS
330
A
102
}
330
A
100
AcDbXrecord
280
     1
300
ACD
300
2024
300

  0
DICTIONARY
  5
B
330
A
100
AcDbDictionary
281
     1
  0
DICTIONARY
  5
68
102
{ACAD_REACTORS
330
A
102
}
330
A
100
AcDbDictionary
281
     1
  3
Metric50
350
69
  0
DICTIONARY
  5
C
330
A
100
AcDbDictionary
281
     1
  0
XRECORD
  5
83
102
{ACAD_REACTORS
330
A
102
}
330
A
100
AcDbXrecord
280
     1
300
{6490DE37-8F38-9B42-A457-C122F6F7ECE0}
301
{72E7624D-B1F8-4B4A-A03D-121F7704336E}
302
{6490DE37-8F38-9B42-A457-C122F6F7ECE0}
303
C:\Users\Public\Documents\Altium\pharyngeal_sensor\Project Outputs for pharyngeal_sensor\Gerber\profile.dxf
  0
DICTIONARY
  5
D
330
A
100
AcDbDictionary
281
     1
  3
Layout1
350
1E
  3
Model
350
1A
  0
DICTIONARY
  5
E
330
A
100
AcDbDictionary
281
     1
  3
ByBlock
350
1F
  3
ByLayer
350
20
  3
Global
350
21
  0
DICTIONARY
  5
F
330
A
100
AcDbDictionary
281
     1
  3
Standard
350
2C
  0
DICTIONARY
  5
10
330
A
100
AcDbDictionary
281
     1
  3
Standard
350
22
  0
DICTIONARY
  5
11
330
A
100
AcDbDictionary
281
     1
  0
ACDBDICTIONARYWDFLT
  5
12
330
A
100
AcDbDictionary
281
     1
  3
Normal
350
13
100
AcDbDictionaryWithDefault
340
13
  0
DICTIONARY
  5
14
330
A
100
AcDbDictionary
281
     1
  3
A0
350
55
  3
A1
350
56
  3
A2
350
57
  3
A3
350
58
  3
A4
350
59
  3
A5
350
5A
  3
A6
350
5B
  3
A7
350
5C
  3
A8
350
5D
  3
A9
350
5E
  3
B0
350
5F
  3
B1
350
60
  3
B2
350
61
  3
B3
350
62
  3
B4
350
63
  3
B5
350
64
  3
B6
350
65
  0
DICTIONARY
  5
66
102
{ACAD_REACTORS
330
A
102
}
330
A
100
AcDbDictionary
281
     1
  3
Metric50
350
67
  0
DICTIONARY
  5
15
330
A
100
AcDbDictionary
281
     1
  3
Standard
350
54
  0
DICTIONARY
  5
16
330
A
100
AcDbDictionary
281
     1
  3
2dWireframe
350
41
  3
Basic
350
40
  3
Brighten
350
47
  3
ColorChange
350
4B
  3
Conceptual
350
44
  3
Dim
350
46
  3
EdgeColorOff
350
53
  3
Facepattern
350
4A
  3
Flat
350
3C
  3
FlatWithEdges
350
3D
  3
Gouraud
350
3E
  3
GouraudWithEdges
350
3F
  3
Hidden
350
43
  3
JitterOff
350
51
  3
Linepattern
350
49
  3
OverhangOff
350
52
  3
Realistic
350
45
  3
Shaded
350
50
  3
Shaded with edges
350
4F
  3
Shades of Gray
350
4C
  3
Sketchy
350
4D
  3
Thicken
350
48
  3
Wireframe
350
42
  3
X-Ray
350
4E
  0
XRECORD
  5
8D
102
{ACAD_REACTORS
330
A
102
}
330
A
100
AcDbXrecord
280
     1
 90
        1
330
54
  0
DICTIONARY
  5
84
102
{ACAD_REACTORS
330
A
102
}
330
A
100
AcDbDictionary
281
     1
  3
CANNOSCALE
350
89
  3
CMLEADERSTYLE
350
86
  3
CTABLESTYLE
350
85
  3
CVIEWDETAILSTYLE
350
87
  3
CVIEWSECTIONSTYLE
350
88
  0
SORTENTSTABLE
  5
81
102
{ACAD_REACTORS
330
80
102
}
330
80
100
AcDbSortentsTable
330
17
  0
ACDBDETAILVIEWSTYLE
  5
69
102
{ACAD_REACTORS
330
68
102
}
330
68
100
AcDbModelDocViewStyle
 70
     0
  3
Metric50
290
     0
300
Metric50
 90
        0
100
AcDbDetailViewStyle
 70
     0
 71
     0
 90
        3
 71
     1
340
29
 62
   256
 40
5.0
340
0
 62
   256
 40
5.0
300

 40
0.0
280
     1
 71
     2
340
26
 90
       25
 62
   256
 71
     3
340
29
 62
   256
 40
5.0
 90
        0
 40
15.0
 90
        1
300
%<\AcVar ViewDetailId>% (%<\AcVar ViewScale \f "%sn">%)
 71
     4
340
26
 90
       25
 62
   256
340
26
 90
       25
 62
   256
280
     0
  0
LAYOUT
  5
1E
330
D
100
AcDbPlotSettings
  1

  2
Adobe PDF
  4
A4
  6

 40
3.174999999999999
 41
3.174999999999999
 42
3.174999999999999
 43
3.174999999999999
 44
209.91
 45
297.03
 46
0.0
 47
0.0
 48
0.0
 49
0.0
140
0.0
141
0.0
142
1.0
143
1.0
 70
     0
 72
     0
 73
     1
 74
     5
  7

 75
    16
147
1.0
 76
     0
 77
     2
 78
   300
148
0.0
149
0.0
100
AcDbLayout
  1
Layout1
 70
     1
 71
     1
 10
0.0
 20
0.0
 11
420.0
 21
297.0
 12
0.0
 22
0.0
 32
0.0
 14
1.000000000000000E+20
 24
1.000000000000000E+20
 34
1.000000000000000E+20
 15
-1.000000000000000E+20
 25
-1.000000000000000E+20
 35
-1.000000000000000E+20
146
0.0
 13
0.0
 23
0.0
 33
0.0
 16
1.0
 26
0.0
 36
0.0
 17
0.0
 27
1.0
 37
0.0
 76
     0
330
1B
  0
LAYOUT
  5
1A
330
D
100
AcDbPlotSettings
  1

  2
Adobe PDF
  4
A4
  6

 40
3.174999999999999
 41
3.174999999999999
 42
3.174999999999999
 43
3.174999999999999
 44
209.91
 45
297.03
 46
0.0
 47
0.0
 48
0.0
 49
0.0
140
0.0
141
0.0
142
1.0
143
1.0
 70
  1024
 72
     0
 73
     1
 74
     5
  7

 75
    16
147
1.0
 76
     0
 77
     2
 78
   300
148
0.0
149
0.0
100
AcDbLayout
  1
Model
 70
     1
 71
     0
 10
-3.174999999999999
 20
-3.174999999999999
 11
293.857
 21
206.735
 12
0.0
 22
0.0
 32
0.0
 14
29.068
 24
20.356
 34
0.0
 15
261.6140000000001
 25
183.204
 35
0.0
146
0.0
 13
0.0
 23
0.0
 33
0.0
 16
1.0
 26
0.0
 36
0.0
 17
0.0
 27
1.0
 37
0.0
 76
     1
330
17
331
23
  0
MATERIAL
  5
1F
102
{ACAD_REACTORS
330
E
102
}
330
E
100
AcDbMaterial
  1
ByBlock
 71
     1
 91
-1023410177
 73
     1
 78
     1
172
     1
176
     1
270
     1
273
     1
274
     1
 94
       63
  0
MATERIAL
  5
20
102
{ACAD_REACTORS
330
E
102
}
330
E
100
AcDbMaterial
  1
ByLayer
 71
     1
 91
-1023410177
 73
     1
 78
     1
172
     1
176
     1
270
     1
273
     1
274
     1
 94
       63
  0
MATERIAL
  5
21
102
{ACAD_REACTORS
330
E
102
}
330
E
100
AcDbMaterial
  1
Global
 71
     1
 91
-1023410177
 73
     1
 78
     1
172
     1
176
     1
270
     1
273
     1
274
     1
 94
       63
  0
MLEADERSTYLE
  5
2C
102
{ACAD_REACTORS
330
F
102
}
330
F
100
AcDbMLeaderStyle
179
     2
170
     2
171
     1
172
     0
 90
        2
 40
0.0
 41
0.0
173
     1
 91
-1056964608
 92
       -2
290
     1
 42
2.0
291
     1
 43
8.0
  3
Standard
 44
4.0
300

342
29
174
     1
178
     1
175
     1
176
     0
 93
-1056964608
 45
4.0
292
     0
297
     0
 46
4.0
 94
-1056964608
 47
1.0
 49
0.0
140
1.0
293
     1
141
0.0
294
     1
177
     0
142
1.0
295
     0
296
     0
143
3.75
271
     0
272
     9
273
     9
298
     0
  0
MLINESTYLE
  5
22
102
{ACAD_REACTORS
330
10
102
}
330
10
100
AcDbMlineStyle
  2
STANDARD
 70
     0
  3

 62
   256
 51
90.0
 52
90.0
 71
     2
 49
0.5
 62
   256
  6
BYLAYER
 49
-0.5
 62
   256
  6
BYLAYER
  0
ACDBPLACEHOLDER
  5
13
330
12
  0
SCALE
  5
55
102
{ACAD_REACTORS
330
14
102
}
330
14
100
AcDbScale
 70
     0
300
1:1
140
1.0
141
1.0
290
     1
  0
SCALE
  5
56
102
{ACAD_REACTORS
330
14
102
}
330
14
100
AcDbScale
 70
     0
300
1:2
140
1.0
141
2.0
290
     0
  0
SCALE
  5
57
102
{ACAD_REACTORS
330
14
102
}
330
14
100
AcDbScale
 70
     0
300
1:4
140
1.0
141
4.0
290
     0
  0
SCALE
  5
58
102
{ACAD_REACTORS
330
14
102
}
330
14
100
AcDbScale
 70
     0
300
1:5
140
1.0
141
5.0
290
     0
  0
SCALE
  5
59
102
{ACAD_REACTORS
330
14
102
}
330
14
100
AcDbScale
 70
     0
300
1:8
140
1.0
141
8.0
290
     0
  0
SCALE
  5
5A
102
{ACAD_REACTORS
330
14
102
}
330
14
100
AcDbScale
 70
     0
300
1:10
140
1.0
141
10.0
290
     0
  0
SCALE
  5
5B
102
{ACAD_REACTORS
330
14
102
}
330
14
100
AcDbScale
 70
     0
300
1:16
140
1.0
141
16.0
290
     0
  0
SCALE
  5
5C
102
{ACAD_REACTORS
330
14
102
}
330
14
100
AcDbScale
 70
     0
300
1:20
140
1.0
141
20.0
290
     0
  0
SCALE
  5
5D
102
{ACAD_REACTORS
330
14
102
}
330
14
100
AcDbScale
 70
     0
300
1:30
140
1.0
141
30.0
290
     0
  0
SCALE
  5
5E
102
{ACAD_REACTORS
330
14
102
}
330
14
100
AcDbScale
 70
     0
300
1:40
140
1.0
141
40.0
290
     0
  0
SCALE
  5
5F
102
{ACAD_REACTORS
330
14
102
}
330
14
100
AcDbScale
 70
     0
300
1:50
140
1.0
141
50.0
290
     0
  0
SCALE
  5
60
102
{ACAD_REACTORS
330
14
102
}
330
14
100
AcDbScale
 70
     0
300
1:100
140
1.0
141
100.0
290
     0
  0
SCALE
  5
61
102
{ACAD_REACTORS
330
14
102
}
330
14
100
AcDbScale
 70
     0
300
2:1
140
2.0
141
1.0
290
     0
  0
SCALE
  5
62
102
{ACAD_REACTORS
330
14
102
}
330
14
100
AcDbScale
 70
     0
300
4:1
140
4.0
141
1.0
290
     0
  0
SCALE
  5
63
102
{ACAD_REACTORS
330
14
102
}
330
14
100
AcDbScale
 70
     0
300
8:1
140
8.0
141
1.0
290
     0
  0
SCALE
  5
64
102
{ACAD_REACTORS
330
14
102
}
330
14
100
AcDbScale
 70
     0
300
10:1
140
10.0
141
1.0
290
     0
  0
SCALE
  5
65
102
{ACAD_REACTORS
330
14
102
}
330
14
100
AcDbScale
 70
     0
300
100:1
140
100.0
141
1.0
290
     0
  0
ACDBSECTIONVIEWSTYLE
  5
67
102
{ACAD_REACTORS
330
66
102
}
330
66
100
AcDbModelDocViewStyle
 70
     0
  3
Metric50
290
     0
300
Metric50
 90
        0
100
AcDbSectionViewStyle
 70
     0
 71
     0
 90
      102
 71
     1
340
29
 62
   256
 40
5.0
340
0
340
0
 62
   256
 40
5.0
300
I, O, Q, S, X, Z
 40
10.0
 90
        0
 40
2.5
 90
        0
 71
     2
340
26
 90
       25
 62
   256
340
26
 90
       50
 62
   256
 40
5.0
 40
2.5
 40
5.0
 71
     3
340
29
 62
   256
 40
5.0
 90
        0
 40
15.0
 90
        1
300
%<\AcVar ViewSectionStartId>%-%<\AcVar ViewSectionEndId>% (%<\AcVar ViewScale \f "%sn">%)
 71
     4
 62
   256
 62
   257
300
ANSI31
 40
1.0
 90
        0
290
     0
290
     0
 90
        6
 40
0.0
 40
1.570796326794896
 40
0.2617993877991494
 40
1.308996938995747
 40
-0.2617993877991494
 40
1.832595714594046
  0
TABLESTYLE
  5
54
102
{ACAD_XDICTIONARY
360
8B
102
}
102
{ACAD_REACTORS
330
15
102
}
330
15
100
AcDbTableStyle
280
     0
  3
Standard
 70
     0
 71
     0
 40
1.5
 41
1.5
280
     0
281
     0
  7
Standard
140
4.5
170
     2
 62
     0
 63
     7
283
     0
 90
      512
 91
        0
  1

274
    -2
284
     1
 64
     0
275
    -2
285
     1
 65
     0
276
    -2
286
     1
 66
     0
277
    -2
287
     1
 67
     0
278
    -2
288
     1
 68
     0
279
    -2
289
     1
 69
     0
  7
Standard
140
6.0
170
     5
 62
     0
 63
     7
283
     0
 90
      512
 91
        0
  1

274
    -2
284
     1
 64
     0
275
    -2
285
     1
 65
     0
276
    -2
286
     1
 66
     0
277
    -2
287
     1
 67
     0
278
    -2
288
     1
 68
     0
279
    -2
289
     1
 69
     0
  7
Standard
140
4.5
170
     5
 62
     0
 63
     7
283
     0
 90
      512
 91
        0
  1

274
    -2
284
     1
 64
     0
275
    -2
285
     1
 65
     0
276
    -2
286
     1
 66
     0
277
    -2
287
     1
 67
     0
278
    -2
288
     1
 68
     0
279
    -2
289
     1
 69
     0
  0
VISUALSTYLE
  5
41
102
{ACAD_REACTORS
330
16
102
}
330
16
100
AcDbVisualStyle
  2
2dWireframe
 70
     4
177
     3
291
     0
 70
    58
 90
        0
176
     1
 90
        2
176
     1
 90
        0
176
     1
 90
        0
176
     1
 40
0.6
176
     1
 40
30.0
176
     1
 62
     7
420
 16777215
176
     1
 90
        1
176
     1
 90
        4
176
     1
 62
     7
176
     1
 62
   257
176
     1
 90
        1
176
     1
 90
        1
176
     1
 40
1.0
176
     1
 90
        0
176
     1
 62
   257
176
     1
 40
1.0
176
     1
 90
        1
176
     1
 90
        6
176
     1
 90
        2
176
     1
 62
     7
176
     1
 90
        5
176
     1
 90
        0
176
     1
 90
        0
176
     1
290
     0
176
     1
 90
        1
176
     1
 40
0.0
176
     1
 90
        0
176
     1
290
     1
176
     1
290
     1
176
     1
290
     0
176
     1
290
     0
176
     1
290
     0
176
     1
290
     0
176
     1
290
     0
176
     1
290
     0
176
     1
290
     0
176
     1
 90
       50
176
     1
 40
0.0
176
     1
 40
1.0
176
     1
 90
        0
176
     1
 62
    18
420
        0
176
     1
 90
       50
176
     1
 90
        3
176
     1
 62
     5
420
      255
176
     1
290
     0
176
     1
 90
       50
176
     1
 90
       50
176
     1
 90
       50
176
     1
290
     0
176
     1
 90
       50
176
     1
 62
   256
176
     0
 40
1.0
176
     0
 90
        2
176
     1
  1
strokes_ogs.tif
176
     1
290
     0
176
     1
 40
1.0
176
     1
 40
1.0
176
     1
  0
VISUALSTYLE
  5
40
102
{ACAD_REACTORS
330
16
102
}
330
16
100
AcDbVisualStyle
  2
Basic
 70
     7
177
     3
291
     1
 70
    58
 90
        1
176
     1
 90
        0
176
     1
 90
        1
176
     1
 90
        0
176
     1
 40
0.6
176
     1
 40
30.0
176
     1
 62
     7
420
 16777215
176
     1
 90
        0
176
     1
 90
        4
176
     1
 62
     7
176
     1
 62
   257
176
     1
 90
        1
176
     1
 90
        1
176
     1
 40
1.0
176
     1
 90
        8
176
     1
 62
     7
176
     1
 40
1.0
176
     1
 90
        1
176
     1
 90
        6
176
     1
 90
        2
176
     1
 62
     7
176
     1
 90
        5
176
     1
 90
        0
176
     1
 90
        0
176
     1
290
     0
176
     1
 90
        1
176
     1
 40
0.0
176
     1
 90
        0
176
     1
290
     0
176
     1
290
     1
176
     1
290
     1
176
     1
290
     0
176
     1
290
     0
176
     1
290
     0
176
     1
290
     0
176
     1
290
     0
176
     1
290
     0
176
     1
 90
       50
176
     1
 40
0.0
176
     1
 40
1.0
176
     1
 90
        0
176
     1
 62
    18
420
        0
176
     1
 90
       50
176
     1
 90
        3
176
     1
 62
     5
420
      255
176
     1
290
     0
176
     1
 90
       50
176
     1
 90
       50
176
     1
 90
       50
176
     1
290
     0
176
     1
 90
       50
176
     1
 62
   256
176
     0
 40
1.0
176
     0
 90
        2
176
     1
  1
strokes_ogs.tif
176
     1
290
     0
176
     1
 40
1.0
176
     1
 40
1.0
176
     1
  0
VISUALSTYLE
  5
47
102
{ACAD_REACTORS
330
16
102
}
330
16
100
AcDbVisualStyle
  2
Brighten
 70
    12
177
     3
291
     1
 70
    58
 90
        2
176
     1
 90
        2
176
     1
 90
        0
176
     1
 90
        0
176
     1
 40
0.6
176
     1
 40
30.0
176
     1
 62
     7
420
 16777215
176
     1
 90
        1
176
     1
 90
        4
176
     1
 62
     7
176
     1
 62
   257
176
     1
 90
        1
176
     1
 90
        1
176
     1
 40
1.0
176
     1
 90
        8
176
     1
 62
     7
176
     1
 40
1.0
176
     1
 90
        1
176
     1
 90
        6
176
     1
 90
        2
176
     1
 62
     7
176
     1
 90
        5
176
     1
 90
        0
176
     1
 90
        0
176
     1
290
     0
176
     1
 90
        1
176
     1
 40
50.0
176
     1
 90
        0
176
     1
290
     0
176
     1
290
     1
176
     1
290
     1
176
     1
290
     0
176
     1
290
     0
176
     1
290
     0
176
     1
290
     0
176
     1
290
     0
176
     1
290
     0
176
     1
 90
       50
176
     1
 40
0.0
176
     1
 40
1.0
176
     1
 90
        0
176
     1
 62
    18
420
        0
176
     1
 90
       50
176
     1
 90
        3
176
     1
 62
     5
420
      255
176
     1
290
     0
176
     1
 90
       50
176
     1
 90
       50
176
     1
 90
       50
176
     1
290
     0
176
     1
 90
       50
176
     1
 62
   256
176
     0
 40
1.0
176
     0
 90
        2
176
     1
  1
strokes_ogs.tif
176
     1
290
     0
176
     1
 40
1.0
176
     1
 40
1.0
176
     1
  0
VISUALSTYLE
  5
4B
102
{ACAD_REACTORS
330
16
102
}
330
16
100
AcDbVisualStyle
  2
ColorChange
 70
    16
177
     3
291
     1
 70
    58
 90
        2
176
     1
 90
        2
176
     1
 90
        3
176
     1
 90
        0
176
     1
 40
0.6
176
     1
 40
30.0
176
     1
 62
     8
420
  8421504
176
     1
 90
        1
176
     1
 90
        4
176
     1
 62
     7
176
     1
 62
   257
176
     1
 90
        1
176
     1
 90
        1
176
     1
 40
1.0
176
     1
 90
        8
176
     1
 62
     8
420
  8421504
176
     1
 40
1.0
176
     1
 90
        1
176
     1
 90
        6
176
     1
 90
        2
176
     1
 62
     7
176
     1
 90
        5
176
     1
 90
        0
176
     1
 90
        0
176
     1
290
     0
176
     1
 90
        1
176
     1
 40
0.0
176
     1
 90
        0
176
     1
290
     0
176
     1
290
     1
176
     1
290
     1
176
     1
290
     0
176
     1
290
     0
176
     1
290
     0
176
     1
290
     0
176
     1
290
     0
176
     1
290
     0
176
     1
 90
       50
176
     1
 40
0.0
176
     1
 40
1.0
176
     1
 90
        0
176
     1
 62
    18
420
        0
176
     1
 90
       50
176
     1
 90
        3
176
     1
 62
     5
420
      255
176
     1
290
     0
176
     1
 90
       50
176
     1
 90
       50
176
     1
 90
       50
176
     1
290
     0
176
     1
 90
       50
176
     1
 62
   256
176
     0
 40
1.0
176
     0
 90
        2
176
     1
  1
strokes_ogs.tif
176
     1
290
     0
176
     1
 40
1.0
176
     1
 40
1.0
176
     1
  0
VISUALSTYLE
  5
44
102
{ACAD_REACTORS
330
16
102
}
330
16
100
AcDbVisualStyle
  2
Conceptual
 70
     9
177
     3
291
     0
 70
    58
 90
        3
176
     1
 90
        2
176
     1
 90
        0
176
     1
 90
        0
176
     1
 40
0.6
176
     1
 40
30.0
176
     1
 62
     7
420
 16777215
176
     1
 90
        2
176
     1
 90
        2
176
     1
 62
     7
176
     1
 62
   257
176
     1
 90
        1
176
     1
 90
        1
176
     1
 40
179.0
176
     1
 90
        8
176
     1
 62
     7
176
     1
 40
1.0
176
     1
 90
        1
176
     1
 90
        6
176
     1
 90
        2
176
     1
 62
     7
176
     1
 90
        3
176
     1
 90
        0
176
     1
 90
        0
176
     1
290
     0
176
     1
 90
        1
176
     1
 40
0.0
176
     1
 90
        0
176
     1
290
     0
176
     1
290
     1
176
     1
290
     1
176
     1
290
     0
176
     1
290
     0
176
     1
290
     0
176
     1
290
     0
176
     1
290
     0
176
     1
290
     0
176
     1
 90
       50
176
     1
 40
0.0
176
     1
 40
1.0
176
     1
 90
        0
176
     1
 62
    18
420
        0
176
     1
 90
       50
176
     1
 90
        3
176
     1
 62
     5
420
      255
176
     1
290
     0
176
     1
 90
       50
176
     1
 90
       50
176
     1
 90
       50
176
     1
290
     0
176
     1
 90
       50
176
     1
 62
   256
176
     0
 40
1.0
176
     0
 90
        2
176
     1
  1
strokes_ogs.tif
176
     1
290
     0
176
     1
 40
1.0
176
     1
 40
1.0
176
     1
  0
VISUALSTYLE
  5
46
102
{ACAD_REACTORS
330
16
102
}
330
16
100
AcDbVisualStyle
  2
Dim
 70
    11
177
     3
291
     1
 70
    58
 90
        2
176
     1
 90
        2
176
     1
 90
        0
176
     1
 90
        0
176
     1
 40
0.6
176
     1
 40
30.0
176
     1
 62
     7
420
 16777215
176
     1
 90
        1
176
     1
 90
        4
176
     1
 62
     7
176
     1
 62
   257
176
     1
 90
        1
176
     1
 90
        1
176
     1
 40
1.0
176
     1
 90
        8
176
     1
 62
     7
176
     1
 40
1.0
176
     1
 90
        1
176
     1
 90
        6
176
     1
 90
        2
176
     1
 62
     7
176
     1
 90
        5
176
     1
 90
        0
176
     1
 90
        0
176
     1
290
     0
176
     1
 90
        1
176
     1
 40
-50.0
176
     1
 90
        0
176
     1
290
     0
176
     1
290
     1
176
     1
290
     1
176
     1
290
     0
176
     1
290
     0
176
     1
290
     0
176
     1
290
     0
176
     1
290
     0
176
     1
290
     0
176
     1
 90
       50
176
     1
 40
0.0
176
     1
 40
1.0
176
     1
 90
        0
176
     1
 62
    18
420
        0
176
     1
 90
       50
176
     1
 90
        3
176
     1
 62
     5
420
      255
176
     1
290
     0
176
     1
 90
       50
176
     1
 90
       50
176
     1
 90
       50
176
     1
290
     0
176
     1
 90
       50
176
     1
 62
   256
176
     0
 40
1.0
176
     0
 90
        2
176
     1
  1
strokes_ogs.tif
176
     1
290
     0
176
     1
 40
1.0
176
     1
 40
1.0
176
     1
  0
VISUALSTYLE
  5
53
102
{ACAD_REACTORS
330
16
102
}
330
16
100
AcDbVisualStyle
  2
EdgeColorOff
 70
    22
177
     3
291
     1
 70
    58
 90
        2
176
     0
 90
        2
176
     0
 90
        0
176
     0
 90
        0
176
     0
 40
0.6
176
     0
 40
30.0
176
     0
 62
     7
420
 16777215
176
     0
 90
        1
176
     0
 90
        4
176
     0
 62
     7
176
     0
 62
   257
176
     0
 90
        1
176
     0
 90
        1
176
     0
 40
1.0
176
     0
 90
        8
176
     2
 62
     7
176
     0
 40
1.0
176
     0
 90
        1
176
     0
 90
        6
176
     0
 90
        2
176
     0
 62
     7
176
     0
 90
        5
176
     0
 90
        0
176
     0
 90
        0
176
     0
290
     0
176
     0
 90
        1
176
     0
 40
0.0
176
     0
 90
        0
176
     0
290
     0
176
     1
290
     1
176
     1
290
     1
176
     1
290
     0
176
     1
290
     0
176
     1
290
     0
176
     1
290
     0
176
     1
290
     0
176
     1
290
     0
176
     1
 90
       50
176
     0
 40
0.0
176
     0
 40
1.0
176
     0
 90
        0
176
     0
 62
    18
420
        0
176
     0
 90
       50
176
     0
 90
        3
176
     0
 62
     5
420
      255
176
     0
290
     0
176
     1
 90
       50
176
     0
 90
       50
176
     0
 90
       50
176
     0
290
     0
176
     1
 90
       50
176
     0
 62
   256
176
     0
 40
1.0
176
     0
 90
        2
176
     0
  1
strokes_ogs.tif
176
     0
290
     0
176
     1
 40
1.0
176
     0
 40
1.0
176
     0
  0
VISUALSTYLE
  5
4A
102
{ACAD_REACTORS
330
16
102
}
330
16
100
AcDbVisualStyle
  2
Facepattern
 70
    15
177
     3
291
     1
 70
    58
 90
        2
176
     1
 90
        2
176
     1
 90
        0
176
     1
 90
        0
176
     1
 40
0.6
176
     1
 40
30.0
176
     1
 62
     7
420
 16777215
176
     1
 90
        1
176
     1
 90
        4
176
     1
 62
     7
176
     1
 62
   257
176
     1
 90
        1
176
     1
 90
        1
176
     1
 40
1.0
176
     1
 90
        8
176
     1
 62
     7
176
     1
 40
1.0
176
     1
 90
        1
176
     1
 90
        6
176
     1
 90
        2
176
     1
 62
     7
176
     1
 90
        5
176
     1
 90
        0
176
     1
 90
        0
176
     1
290
     0
176
     1
 90
        1
176
     1
 40
0.0
176
     1
 90
        0
176
     1
290
     0
176
     1
290
     1
176
     1
290
     1
176
     1
290
     0
176
     1
290
     0
176
     1
290
     0
176
     1
290
     0
176
     1
290
     0
176
     1
290
     0
176
     1
 90
       50
176
     1
 40
0.0
176
     1
 40
1.0
176
     1
 90
        0
176
     1
 62
    18
420
        0
176
     1
 90
       50
176
     1
 90
        3
176
     1
 62
     5
420
      255
176
     1
290
     0
176
     1
 90
       50
176
     1
 90
       50
176
     1
 90
       50
176
     1
290
     0
176
     1
 90
       50
176
     1
 62
   256
176
     0
 40
1.0
176
     0
 90
        2
176
     1
  1
strokes_ogs.tif
176
     1
290
     0
176
     1
 40
1.0
176
     1
 40
1.0
176
     1
  0
VISUALSTYLE
  5
3C
102
{ACAD_REACTORS
330
16
102
}
330
16
100
AcDbVisualStyle
  2
Flat
 70
     0
177
     3
291
     1
 70
    58
 90
        2
176
     1
 90
        1
176
     1
 90
        1
176
     1
 90
        2
176
     1
 40
0.6
176
     1
 40
30.0
176
     1
 62
     7
420
 16777215
176
     1
 90
        0
176
     1
 90
        0
176
     1
 62
     7
176
     1
 62
   257
176
     1
 90
        1
176
     1
 90
        1
176
     1
 40
1.0
176
     1
 90
        8
176
     1
 62
     7
176
     1
 40
1.0
176
     1
 90
        1
176
     1
 90
        6
176
     1
 90
        2
176
     1
 62
     7
176
     1
 90
        5
176
     1
 90
        0
176
     1
 90
        0
176
     1
290
     0
176
     1
 90
       13
176
     1
 40
0.0
176
     1
 90
        0
176
     1
290
     0
176
     1
290
     1
176
     1
290
     1
176
     1
290
     0
176
     1
290
     0
176
     1
290
     0
176
     1
290
     0
176
     1
290
     0
176
     1
290
     0
176
     1
 90
       50
176
     1
 40
0.0
176
     1
 40
1.0
176
     1
 90
        0
176
     1
 62
    18
420
        0
176
     1
 90
       50
176
     1
 90
        3
176
     1
 62
     5
420
      255
176
     1
290
     0
176
     1
 90
       50
176
     1
 90
       50
176
     1
 90
       50
176
     1
290
     0
176
     1
 90
       50
176
     1
 62
   256
176
     0
 40
1.0
176
     0
 90
        2
176
     1
  1
strokes_ogs.tif
176
     1
290
     0
176
     1
 40
1.0
176
     1
 40
1.0
176
     1
  0
VISUALSTYLE
  5
3D
102
{ACAD_REACTORS
330
16
102
}
330
16
100
AcDbVisualStyle
  2
FlatWithEdges
 70
     1
177
     3
291
     1
 70
    58
 90
        2
176
     1
 90
        1
176
     1
 90
        1
176
     1
 90
        2
176
     1
 40
0.6
176
     1
 40
30.0
176
     1
 62
     7
420
 16777215
176
     1
 90
        1
176
     1
 90
        0
176
     1
 62
     7
176
     1
 62
   257
176
     1
 90
        1
176
     1
 90
        1
176
     1
 40
1.0
176
     1
 90
        0
176
     1
 62
   257
176
     1
 40
1.0
176
     1
 90
        1
176
     1
 90
        6
176
     1
 90
        2
176
     1
 62
     7
176
     1
 90
        5
176
     1
 90
        0
176
     1
 90
        0
176
     1
290
     0
176
     1
 90
       13
176
     1
 40
0.0
176
     1
 90
        0
176
     1
290
     0
176
     1
290
     1
176
     1
290
     1
176
     1
290
     0
176
     1
290
     0
176
     1
290
     0
176
     1
290
     0
176
     1
290
     0
176
     1
290
     0
176
     1
 90
       50
176
     1
 40
0.0
176
     1
 40
1.0
176
     1
 90
        0
176
     1
 62
    18
420
        0
176
     1
 90
       50
176
     1
 90
        3
176
     1
 62
     5
420
      255
176
     1
290
     0
176
     1
 90
       50
176
     1
 90
       50
176
     1
 90
       50
176
     1
290
     0
176
     1
 90
       50
176
     1
 62
   256
176
     0
 40
1.0
176
     0
 90
        2
176
     1
  1
strokes_ogs.tif
176
     1
290
     0
176
     1
 40
1.0
176
     1
 40
1.0
176
     1
  0
VISUALSTYLE
  5
3E
102
{ACAD_REACTORS
330
16
102
}
330
16
100
AcDbVisualStyle
  2
Gouraud
 70
     2
177
     3
291
     1
 70
    58
 90
        2
176
     1
 90
        2
176
     1
 90
        1
176
     1
 90
        2
176
     1
 40
0.6
176
     1
 40
30.0
176
     1
 62
     7
420
 16777215
176
     1
 90
        0
176
     1
 90
        0
176
     1
 62
     7
176
     1
 62
   257
176
     1
 90
        1
176
     1
 90
        1
176
     1
 40
1.0
176
     1
 90
        0
176
     1
 62
     7
176
     1
 40
1.0
176
     1
 90
        1
176
     1
 90
        6
176
     1
 90
        2
176
     1
 62
     7
176
     1
 90
        5
176
     1
 90
        0
176
     1
 90
        0
176
     1
290
     0
176
     1
 90
       13
176
     1
 40
0.0
176
     1
 90
        0
176
     1
290
     0
176
     1
290
     1
176
     1
290
     1
176
     1
290
     0
176
     1
290
     0
176
     1
290
     0
176
     1
290
     0
176
     1
290
     0
176
     1
290
     0
176
     1
 90
       50
176
     1
 40
0.0
176
     1
 40
1.0
176
     1
 90
        0
176
     1
 62
    18
420
        0
176
     1
 90
       50
176
     1
 90
        3
176
     1
 62
     5
420
      255
176
     1
290
     0
176
     1
 90
       50
176
     1
 90
       50
176
     1
 90
       50
176
     1
290
     0
176
     1
 90
       50
176
     1
 62
   256
176
     0
 40
1.0
176
     0
 90
        2
176
     1
  1
strokes_ogs.tif
176
     1
290
     0
176
     1
 40
1.0
176
     1
 40
1.0
176
     1
  0
VISUALSTYLE
  5
3F
102
{ACAD_REACTORS
330
16
102
}
330
16
100
AcDbVisualStyle
  2
GouraudWithEdges
 70
     3
177
     3
291
     1
 70
    58
 90
        2
176
     1
 90
        2
176
     1
 90
        1
176
     1
 90
        2
176
     1
 40
0.6
176
     1
 40
30.0
176
     1
 62
     7
420
 16777215
176
     1
 90
        1
176
     1
 90
        0
176
     1
 62
     7
176
     1
 62
   257
176
     1
 90
        1
176
     1
 90
        1
176
     1
 40
1.0
176
     1
 90
        0
176
     1
 62
   257
176
     1
 40
1.0
176
     1
 90
        1
176
     1
 90
        6
176
     1
 90
        2
176
     1
 62
     7
176
     1
 90
        5
176
     1
 90
        0
176
     1
 90
        0
176
     1
290
     0
176
     1
 90
       13
176
     1
 40
0.0
176
     1
 90
        0
176
     1
290
     0
176
     1
290
     1
176
     1
290
     1
176
     1
290
     0
176
     1
290
     0
176
     1
290
     0
176
     1
290
     0
176
     1
290
     0
176
     1
290
     0
176
     1
 90
       50
176
     1
 40
0.0
176
     1
 40
1.0
176
     1
 90
        0
176
     1
 62
    18
420
        0
176
     1
 90
       50
176
     1
 90
        3
176
     1
 62
     5
420
      255
176
     1
290
     0
176
     1
 90
       50
176
     1
 90
       50
176
     1
 90
       50
176
     1
290
     0
176
     1
 90
       50
176
     1
 62
   256
176
     0
 40
1.0
176
     0
 90
        2
176
     1
  1
strokes_ogs.tif
176
     1
290
     0
176
     1
 40
1.0
176
     1
 40
1.0
176
     1
  0
VISUALSTYLE
  5
43
102
{ACAD_REACTORS
330
16
102
}
330
16
100
AcDbVisualStyle
  2
Hidden
 70
     6
177
     3
291
     0
 70
    58
 90
        1
176
     1
 90
        2
176
     1
 90
        2
176
     1
 90
        0
176
     1
 40
0.6
176
     1
 40
30.0
176
     1
 62
     7
420
 16777215
176
     1
 90
        2
176
     1
 90
        2
176
     1
 62
     7
176
     1
 62
   257
176
     1
 90
        2
176
     1
 90
        1
176
     1
 40
40.0
176
     1
 90
        0
176
     1
 62
   257
176
     1
 40
1.0
176
     1
 90
        1
176
     1
 90
        6
176
     1
 90
        2
176
     1
 62
     7
176
     1
 90
        3
176
     1
 90
        0
176
     1
 90
        0
176
     1
290
     0
176
     1
 90
        1
176
     1
 40
0.0
176
     1
 90
        0
176
     1
290
     0
176
     1
290
     1
176
     1
290
     1
176
     1
290
     0
176
     1
290
     0
176
     1
290
     0
176
     1
290
     0
176
     1
290
     0
176
     1
290
     0
176
     1
 90
       50
176
     1
 40
0.0
176
     1
 40
1.0
176
     1
 90
        0
176
     1
 62
    18
420
        0
176
     1
 90
       50
176
     1
 90
        3
176
     1
 62
     5
420
      255
176
     1
290
     0
176
     1
 90
       50
176
     1
 90
       50
176
     1
 90
       50
176
     1
290
     0
176
     1
 90
       50
176
     1
 62
   256
176
     0
 40
1.0
176
     0
 90
        2
176
     1
  1
strokes_ogs.tif
176
     1
290
     0
176
     1
 40
1.0
176
     1
 40
1.0
176
     1
  0
VISUALSTYLE
  5
51
102
{ACAD_REACTORS
330
16
102
}
330
16
100
AcDbVisualStyle
  2
JitterOff
 70
    20
177
     3
291
     1
 70
    58
 90
        2
176
     0
 90
        2
176
     0
 90
        0
176
     0
 90
        0
176
     0
 40
0.6
176
     0
 40
30.0
176
     0
 62
     7
420
 16777215
176
     0
 90
        1
176
     0
 90
        4
176
     0
 62
     7
176
     0
 62
   257
176
     0
 90
        1
176
     0
 90
        1
176
     0
 40
1.0
176
     0
 90
       10
176
     2
 62
     7
176
     0
 40
1.0
176
     0
 90
        1
176
     0
 90
        6
176
     0
 90
        2
176
     0
 62
     7
176
     0
 90
        5
176
     0
 90
        0
176
     0
 90
        0
176
     0
290
     0
176
     0
 90
        1
176
     0
 40
0.0
176
     0
 90
        0
176
     0
290
     0
176
     1
290
     1
176
     1
290
     1
176
     1
290
     0
176
     1
290
     0
176
     1
290
     0
176
     1
290
     0
176
     1
290
     0
176
     1
290
     0
176
     1
 90
       50
176
     0
 40
0.0
176
     0
 40
1.0
176
     0
 90
        0
176
     0
 62
    18
420
        0
176
     0
 90
       50
176
     0
 90
        3
176
     0
 62
     5
420
      255
176
     0
290
     0
176
     1
 90
       50
176
     0
 90
       50
176
     0
 90
       50
176
     0
290
     0
176
     1
 90
       50
176
     0
 62
   256
176
     0
 40
1.0
176
     0
 90
        2
176
     0
  1
strokes_ogs.tif
176
     0
290
     0
176
     1
 40
1.0
176
     0
 40
1.0
176
     0
  0
VISUALSTYLE
  5
49
102
{ACAD_REACTORS
330
16
102
}
330
16
100
AcDbVisualStyle
  2
Linepattern
 70
    14
177
     3
291
     1
 70
    58
 90
        2
176
     1
 90
        2
176
     1
 90
        0
176
     1
 90
        0
176
     1
 40
0.6
176
     1
 40
30.0
176
     1
 62
     7
420
 16777215
176
     1
 90
        1
176
     1
 90
        4
176
     1
 62
     7
176
     1
 62
   257
176
     1
 90
        7
176
     1
 90
        7
176
     1
 40
1.0
176
     1
 90
        8
176
     1
 62
     7
176
     1
 40
1.0
176
     1
 90
        1
176
     1
 90
        6
176
     1
 90
        2
176
     1
 62
     7
176
     1
 90
        5
176
     1
 90
        0
176
     1
 90
        0
176
     1
290
     0
176
     1
 90
        1
176
     1
 40
0.0
176
     1
 90
        0
176
     1
290
     0
176
     1
290
     1
176
     1
290
     1
176
     1
290
     0
176
     1
290
     0
176
     1
290
     0
176
     1
290
     0
176
     1
290
     0
176
     1
290
     0
176
     1
 90
       50
176
     1
 40
0.0
176
     1
 40
1.0
176
     1
 90
        0
176
     1
 62
    18
420
        0
176
     1
 90
       50
176
     1
 90
        3
176
     1
 62
     5
420
      255
176
     1
290
     0
176
     1
 90
       50
176
     1
 90
       50
176
     1
 90
       50
176
     1
290
     0
176
     1
 90
       50
176
     1
 62
   256
176
     0
 40
1.0
176
     0
 90
        2
176
     1
  1
strokes_ogs.tif
176
     1
290
     0
176
     1
 40
1.0
176
     1
 40
1.0
176
     1
  0
VISUALSTYLE
  5
52
102
{ACAD_REACTORS
330
16
102
}
330
16
100
AcDbVisualStyle
  2
OverhangOff
 70
    21
177
     3
291
     1
 70
    58
 90
        2
176
     0
 90
        2
176
     0
 90
        0
176
     0
 90
        0
176
     0
 40
0.6
176
     0
 40
30.0
176
     0
 62
     7
420
 16777215
176
     0
 90
        1
176
     0
 90
        4
176
     0
 62
     7
176
     0
 62
   257
176
     0
 90
        1
176
     0
 90
        1
176
     0
 40
1.0
176
     0
 90
        9
176
     2
 62
     7
176
     0
 40
1.0
176
     0
 90
        1
176
     0
 90
        6
176
     0
 90
        2
176
     0
 62
     7
176
     0
 90
        5
176
     0
 90
        0
176
     0
 90
        0
176
     0
290
     0
176
     0
 90
        1
176
     0
 40
0.0
176
     0
 90
        0
176
     0
290
     0
176
     1
290
     1
176
     1
290
     1
176
     1
290
     0
176
     1
290
     0
176
     1
290
     0
176
     1
290
     0
176
     1
290
     0
176
     1
290
     0
176
     1
 90
       50
176
     0
 40
0.0
176
     0
 40
1.0
176
     0
 90
        0
176
     0
 62
    18
420
        0
176
     0
 90
       50
176
     0
 90
        3
176
     0
 62
     5
420
      255
176
     0
290
     0
176
     1
 90
       50
176
     0
 90
       50
176
     0
 90
       50
176
     0
290
     0
176
     1
 90
       50
176
     0
 62
   256
176
     0
 40
1.0
176
     0
 90
        2
176
     0
  1
strokes_ogs.tif
176
     0
290
     0
176
     1
 40
1.0
176
     0
 40
1.0
176
     0
  0
VISUALSTYLE
  5
45
102
{ACAD_REACTORS
330
16
102
}
330
16
100
AcDbVisualStyle
  2
Realistic
 70
     8
177
     3
291
     0
 70
    58
 90
        2
176
     1
 90
        3
176
     1
 90
        0
176
     1
 90
        2
176
     1
 40
0.6
176
     1
 40
30.0
176
     1
 62
     7
420
 16777215
176
     1
 90
        0
176
     1
 90
        0
176
     1
 62
     7
176
     1
 62
   257
176
     1
 90
        1
176
     1
 90
        1
176
     1
 40
1.0
176
     1
 90
        8
176
     1
 62
   257
176
     1
 40
1.0
176
     1
 90
        1
176
     1
 90
        6
176
     1
 90
        2
176
     1
 62
     7
176
     1
 90
        3
176
     1
 90
        0
176
     1
 90
        0
176
     1
290
     0
176
     1
 90
       13
176
     1
 40
0.0
176
     1
 90
        0
176
     1
290
     0
176
     1
290
     1
176
     1
290
     1
176
     1
290
     0
176
     1
290
     0
176
     1
290
     0
176
     1
290
     0
176
     1
290
     0
176
     1
290
     0
176
     1
 90
       50
176
     1
 40
0.0
176
     1
 40
1.0
176
     1
 90
        0
176
     1
 62
    18
420
        0
176
     1
 90
       50
176
     1
 90
        3
176
     1
 62
     5
420
      255
176
     1
290
     0
176
     1
 90
       50
176
     1
 90
       50
176
     1
 90
       50
176
     1
290
     0
176
     1
 90
       50
176
     1
 62
   256
176
     0
 40
1.0
176
     0
 90
        2
176
     1
  1
strokes_ogs.tif
176
     1
290
     0
176
     1
 40
1.0
176
     1
 40
1.0
176
     1
  0
VISUALSTYLE
  5
50
102
{ACAD_REACTORS
330
16
102
}
330
16
100
AcDbVisualStyle
  2
Shaded
 70
    27
177
     3
291
     0
 70
    58
 90
        2
176
     1
 90
        2
176
     1
 90
        1
176
     1
 90
        2
176
     1
 40
0.6
176
     1
 40
30.0
176
     1
 62
     7
420
 16777215
176
     1
 90
        0
176
     1
 90
        4
176
     1
 62
     7
176
     1
 62
   257
176
     1
 90
        1
176
     1
 90
        1
176
     1
 40
1.0
176
     1
 90
        8
176
     1
 62
   257
176
     1
 40
1.0
176
     1
 90
        1
176
     1
 90
        6
176
     1
 90
        2
176
     1
 62
     8
420
  7895160
176
     1
 90
        3
176
     1
 90
        0
176
     1
 90
        0
176
     1
290
     0
176
     1
 90
        5
176
     1
 40
0.0
176
     1
 90
        0
176
     1
290
     0
176
     1
290
     1
176
     1
290
     1
176
     1
290
     0
176
     1
290
     0
176
     1
290
     0
176
     1
290
     0
176
     1
290
     0
176
     1
290
     0
176
     1
 90
       50
176
     1
 40
0.0
176
     1
 40
1.0
176
     1
 90
        0
176
     1
 62
    18
420
        0
176
     1
 90
       50
176
     1
 90
        3
176
     1
 62
     5
420
      255
176
     1
290
     0
176
     1
 90
       50
176
     1
 90
       50
176
     1
 90
       50
176
     1
290
     0
176
     1
 90
       50
176
     1
 62
   256
176
     0
 40
1.0
176
     0
 90
        2
176
     1
  1
strokes_ogs.tif
176
     1
290
     0
176
     1
 40
1.0
176
     1
 40
1.0
176
     1
  0
VISUALSTYLE
  5
4F
102
{ACAD_REACTORS
330
16
102
}
330
16
100
AcDbVisualStyle
  2
Shaded with edges
 70
    26
177
     3
291
     0
 70
    58
 90
        2
176
     1
 90
        2
176
     1
 90
        1
176
     1
 90
        2
176
     1
 40
0.6
176
     1
 40
30.0
176
     1
 62
     7
420
 16777215
176
     1
 90
        1
176
     1
 90
        2
176
     1
 62
     7
176
     1
 62
   257
176
     1
 90
        2
176
     1
 90
        1
176
     1
 40
1.0
176
     1
 90
        8
176
     1
 62
   257
176
     1
 40
1.0
176
     1
 90
        1
176
     1
 90
        6
176
     1
 90
        2
176
     1
 62
     7
176
     1
 90
        3
176
     1
 90
        0
176
     1
 90
        0
176
     1
290
     0
176
     1
 90
        5
176
     1
 40
0.0
176
     1
 90
        0
176
     1
290
     0
176
     1
290
     1
176
     1
290
     1
176
     1
290
     0
176
     1
290
     0
176
     1
290
     0
176
     1
290
     0
176
     1
290
     0
176
     1
290
     0
176
     1
 90
       50
176
     1
 40
0.0
176
     1
 40
1.0
176
     1
 90
        0
176
     1
 62
    18
420
        0
176
     1
 90
       50
176
     1
 90
        3
176
     1
 62
     5
420
      255
176
     1
290
     0
176
     1
 90
       50
176
     1
 90
       50
176
     1
 90
       50
176
     1
290
     0
176
     1
 90
       50
176
     1
 62
   256
176
     0
 40
1.0
176
     0
 90
        2
176
     1
  1
strokes_ogs.tif
176
     1
290
     0
176
     1
 40
1.0
176
     1
 40
1.0
176
     1
  0
VISUALSTYLE
  5
4C
102
{ACAD_REACTORS
330
16
102
}
330
16
100
AcDbVisualStyle
  2
Shades of Gray
 70
    23
177
     3
291
     0
 70
    58
 90
        2
176
     1
 90
        2
176
     1
 90
        3
176
     1
 90
        0
176
     1
 40
0.6
176
     1
 40
30.0
176
     1
 62
     7
420
 16777215
176
     1
 90
        2
176
     1
 90
        2
176
     1
 62
     7
176
     1
 62
     7
176
     1
 90
        1
176
     1
 90
        1
176
     1
 40
40.0
176
     1
 90
        8
176
     1
 62
     7
176
     1
 40
1.0
176
     1
 90
        1
176
     1
 90
        6
176
     1
 90
        2
176
     1
 62
     7
176
     1
 90
        3
176
     1
 90
        0
176
     1
 90
        0
176
     1
290
     0
176
     1
 90
        1
176
     1
 40
0.0
176
     1
 90
        0
176
     1
290
     0
176
     1
290
     1
176
     1
290
     1
176
     1
290
     0
176
     1
290
     0
176
     1
290
     0
176
     1
290
     0
176
     1
290
     0
176
     1
290
     0
176
     1
 90
       50
176
     1
 40
0.0
176
     1
 40
1.0
176
     1
 90
        0
176
     1
 62
    18
420
        0
176
     1
 90
       50
176
     1
 90
        3
176
     1
 62
     5
420
      255
176
     1
290
     0
176
     1
 90
       50
176
     1
 90
       50
176
     1
 90
       50
176
     1
290
     0
176
     1
 90
       50
176
     1
 62
   256
176
     0
 40
1.0
176
     0
 90
        2
176
     1
  1
strokes_ogs.tif
176
     1
290
     0
176
     1
 40
1.0
176
     1
 40
1.0
176
     1
  0
VISUALSTYLE
  5
4D
102
{ACAD_REACTORS
330
16
102
}
330
16
100
AcDbVisualStyle
  2
Sketchy
 70
    24
177
     3
291
     0
 70
    58
 90
        1
176
     1
 90
        2
176
     1
 90
        2
176
     1
 90
        0
176
     1
 40
0.6
176
     1
 40
30.0
176
     1
 62
     7
420
 16777215
176
     1
 90
        2
176
     1
 90
        2
176
     1
 62
     7
176
     1
 62
     7
176
     1
 90
        1
176
     1
 90
        1
176
     1
 40
40.0
176
     1
 90
       11
176
     1
 62
     7
176
     1
 40
1.0
176
     1
 90
        1
176
     1
 90
        6
176
     1
 90
        2
176
     1
 62
     7
176
     1
 90
        6
176
     1
 90
        0
176
     1
 90
        0
176
     1
290
     0
176
     1
 90
        1
176
     1
 40
0.0
176
     1
 90
        0
176
     1
290
     0
176
     1
290
     1
176
     1
290
     1
176
     1
290
     0
176
     1
290
     0
176
     1
290
     0
176
     1
290
     0
176
     1
290
     0
176
     1
290
     0
176
     1
 90
       50
176
     1
 40
0.0
176
     1
 40
1.0
176
     1
 90
        0
176
     1
 62
    18
420
        0
176
     1
 90
       50
176
     1
 90
        3
176
     1
 62
     5
420
      255
176
     1
290
     0
176
     1
 90
       50
176
     1
 90
       50
176
     1
 90
       50
176
     1
290
     0
176
     1
 90
       50
176
     1
 62
   256
176
     0
 40
1.0
176
     0
 90
        2
176
     1
  1
strokes_ogs.tif
176
     1
290
     0
176
     1
 40
1.0
176
     1
 40
1.0
176
     1
  0
VISUALSTYLE
  5
48
102
{ACAD_REACTORS
330
16
102
}
330
16
100
AcDbVisualStyle
  2
Thicken
 70
    13
177
     3
291
     1
 70
    58
 90
        2
176
     1
 90
        2
176
     1
 90
        0
176
     1
 90
        0
176
     1
 40
0.6
176
     1
 40
30.0
176
     1
 62
     7
420
 16777215
176
     1
 90
        1
176
     1
 90
        4
176
     1
 62
     7
176
     1
 62
   257
176
     1
 90
        1
176
     1
 90
        1
176
     1
 40
1.0
176
     1
 90
       12
176
     1
 62
     7
176
     1
 40
1.0
176
     1
 90
        1
176
     1
 90
        6
176
     1
 90
        2
176
     1
 62
     7
176
     1
 90
        5
176
     1
 90
        0
176
     1
 90
        0
176
     1
290
     0
176
     1
 90
        1
176
     1
 40
0.0
176
     1
 90
        0
176
     1
290
     0
176
     1
290
     1
176
     1
290
     1
176
     1
290
     0
176
     1
290
     0
176
     1
290
     0
176
     1
290
     0
176
     1
290
     0
176
     1
290
     0
176
     1
 90
       50
176
     1
 40
0.0
176
     1
 40
1.0
176
     1
 90
        0
176
     1
 62
    18
420
        0
176
     1
 90
       50
176
     1
 90
        3
176
     1
 62
     5
420
      255
176
     1
290
     0
176
     1
 90
       50
176
     1
 90
       50
176
     1
 90
       50
176
     1
290
     0
176
     1
 90
       50
176
     1
 62
   256
176
     0
 40
1.0
176
     0
 90
        2
176
     1
  1
strokes_ogs.tif
176
     1
290
     0
176
     1
 40
1.0
176
     1
 40
1.0
176
     1
  0
VISUALSTYLE
  5
42
102
{ACAD_REACTORS
330
16
102
}
330
16
100
AcDbVisualStyle
  2
Wireframe
 70
     5
177
     3
291
     0
 70
    58
 90
        0
176
     1
 90
        2
176
     1
 90
        0
176
     1
 90
        0
176
     1
 40
0.6
176
     1
 40
30.0
176
     1
 62
     7
420
 16777215
176
     1
 90
        1
176
     1
 90
        4
176
     1
 62
     7
176
     1
 62
   257
176
     1
 90
        1
176
     1
 90
        1
176
     1
 40
1.0
176
     1
 90
        0
176
     1
 62
   257
176
     1
 40
1.0
176
     1
 90
        1
176
     1
 90
        6
176
     1
 90
        2
176
     1
 62
     7
176
     1
 90
        3
176
     1
 90
        0
176
     1
 90
        0
176
     1
290
     0
176
     1
 90
        1
176
     1
 40
0.0
176
     1
 90
        0
176
     1
290
     0
176
     1
290
     1
176
     1
290
     1
176
     1
290
     0
176
     1
290
     0
176
     1
290
     0
176
     1
290
     0
176
     1
290
     0
176
     1
290
     0
176
     1
 90
       50
176
     1
 40
0.0
176
     1
 40
1.0
176
     1
 90
        0
176
     1
 62
    18
420
        0
176
     1
 90
       50
176
     1
 90
        3
176
     1
 62
     5
420
      255
176
     1
290
     0
176
     1
 90
       50
176
     1
 90
       50
176
     1
 90
       50
176
     1
290
     0
176
     1
 90
       50
176
     1
 62
   256
176
     0
 40
1.0
176
     0
 90
        2
176
     1
  1
strokes_ogs.tif
176
     1
290
     0
176
     1
 40
1.0
176
     1
 40
1.0
176
     1
  0
VISUALSTYLE
  5
4E
102
{ACAD_REACTORS
330
16
102
}
330
16
100
AcDbVisualStyle
  2
X-Ray
 70
    25
177
     3
291
     0
 70
    58
 90
        2
176
     1
 90
        2
176
     1
 90
        1
176
     1
 90
        1
176
     1
 40
0.5
176
     1
 40
30.0
176
     1
 62
     7
420
 16777215
176
     1
 90
        1
176
     1
 90
        0
176
     1
 62
     7
176
     1
 62
   257
176
     1
 90
        1
176
     1
 90
        1
176
     1
 40
1.0
176
     1
 90
        8
176
     1
 62
     7
176
     1
 40
1.0
176
     1
 90
        1
176
     1
 90
        6
176
     1
 90
        2
176
     1
 62
     7
176
     1
 90
        3
176
     1
 90
        0
176
     1
 90
        0
176
     1
290
     0
176
     1
 90
       13
176
     1
 40
0.0
176
     1
 90
        0
176
     1
290
     0
176
     1
290
     1
176
     1
290
     1
176
     1
290
     0
176
     1
290
     0
176
     1
290
     0
176
     1
290
     0
176
     1
290
     0
176
     1
290
     0
176
     1
 90
       50
176
     1
 40
0.0
176
     1
 40
1.0
176
     1
 90
        0
176
     1
 62
    18
420
        0
176
     1
 90
       50
176
     1
 90
        3
176
     1
 62
     5
420
      255
176
     1
290
     0
176
     1
 90
       50
176
     1
 90
       50
176
     1
 90
       50
176
     1
290
     0
176
     1
 90
       50
176
     1
 62
   256
176
     0
 40
1.0
176
     0
 90
        2
176
     1
  1
strokes_ogs.tif
176
     1
290
     0
176
     1
 40
1.0
176
     1
 40
1.0
176
     1
  0
DICTIONARYVAR
  5
89
102
{ACAD_REACTORS
330
84
102
}
330
84
100
DictionaryVariables
280
     0
  1
1:1
  0
DICTIONARYVAR
  5
86
102
{ACAD_REACTORS
330
84
102
}
330
84
100
DictionaryVariables
280
     0
  1
STANDARD
  0
DICTIONARYVAR
  5
85
102
{ACAD_REACTORS
330
84
102
}
330
84
100
DictionaryVariables
280
     0
  1
STANDARD
  0
DICTIONARYVAR
  5
87
102
{ACAD_REACTORS
330
84
102
}
330
84
100
DictionaryVariables
280
     0
  1
Metric50
  0
DICTIONARYVAR
  5
88
102
{ACAD_REACTORS
330
84
102
}
330
84
100
DictionaryVariables
280
     0
  1
Metric50
  0
DICTIONARY
  5
8B
330
54
100
AcDbDictionary
280
     1
281
     1
  3
ACAD_ROUNDTRIP_2008_TABLESTYLE_CELLSTYLEMAP
360
8C
  0
CELLSTYLEMAP
  5
8C
102
{ACAD_REACTORS
330
8B
102
}
330
8B
100
AcDbCellStyleMap
 90
        3
300
CELLSTYLE
  1
TABLEFORMAT_BEGIN
 90
        5
170
     1
 91
        0
 92
    32768
 62
   257
 93
        1
300
CONTENTFORMAT
  1
CONTENTFORMAT_BEGIN
 90
        0
 91
        0
 92
      512
 93
        0
300

 40
0.0
140
1.0
 94
        5
 62
     0
340
29
144
6.0
309
CONTENTFORMAT_END
171
     1
301
MARGIN
  1
CELLMARGIN_BEGIN
 40
1.5
 40
1.5
 40
1.5
 40
1.5
 40
4.5
 40
4.5
309
CELLMARGIN_END
 94
        6
 95
        1
302
GRIDFORMAT
  1
GRIDFORMAT_BEGIN
 90
        0
 91
        1
 62
     0
 92
       -2
340
0
 93
        0
 40
1.125
309
GRIDFORMAT_END
 95
        2
302
GRIDFORMAT
  1
GRIDFORMAT_BEGIN
 90
        0
 91
        1
 62
     0
 92
       -2
340
0
 93
        0
 40
1.125
309
GRIDFORMAT_END
 95
        4
302
GRIDFORMAT
  1
GRIDFORMAT_BEGIN
 90
        0
 91
        1
 62
     0
 92
       -2
340
0
 93
        0
 40
1.125
309
GRIDFORMAT_END
 95
        8
302
GRIDFORMAT
  1
GRIDFORMAT_BEGIN
 90
        0
 91
        1
 62
     0
 92
       -2
340
0
 93
        0
 40
1.125
309
GRIDFORMAT_END
 95
       16
302
GRIDFORMAT
  1
GRIDFORMAT_BEGIN
 90
        0
 91
        1
 62
     0
 92
       -2
340
0
 93
        0
 40
1.125
309
GRIDFORMAT_END
 95
       32
302
GRIDFORMAT
  1
GRIDFORMAT_BEGIN
 90
        0
 91
        1
 62
     0
 92
       -2
340
0
 93
        0
 40
1.125
309
GRIDFORMAT_END
309
TABLEFORMAT_END
  1
CELLSTYLE_BEGIN
 90
        1
 91
        1
300
_TITLE
309
CELLSTYLE_END
300
CELLSTYLE
  1
TABLEFORMAT_BEGIN
 90
        5
170
     1
 91
        0
 92
        0
 62
   257
 93
        1
300
CONTENTFORMAT
  1
CONTENTFORMAT_BEGIN
 90
        0
 91
        0
 92
      512
 93
        0
300

 40
0.0
140
1.0
 94
        5
 62
     0
340
29
144
4.5
309
CONTENTFORMAT_END
171
     1
301
MARGIN
  1
CELLMARGIN_BEGIN
 40
1.5
 40
1.5
 40
1.5
 40
1.5
 40
4.5
 40
4.5
309
CELLMARGIN_END
 94
        6
 95
        1
302
GRIDFORMAT
  1
GRIDFORMAT_BEGIN
 90
        0
 91
        1
 62
     0
 92
       -2
340
0
 93
        0
 40
1.125
309
GRIDFORMAT_END
 95
        2
302
GRIDFORMAT
  1
GRIDFORMAT_BEGIN
 90
        0
 91
        1
 62
     0
 92
       -2
340
0
 93
        0
 40
1.125
309
GRIDFORMAT_END
 95
        4
302
GRIDFORMAT
  1
GRIDFORMAT_BEGIN
 90
        0
 91
        1
 62
     0
 92
       -2
340
0
 93
        0
 40
1.125
309
GRIDFORMAT_END
 95
        8
302
GRIDFORMAT
  1
GRIDFORMAT_BEGIN
 90
        0
 91
        1
 62
     0
 92
       -2
340
0
 93
        0
 40
1.125
309
GRIDFORMAT_END
 95
       16
302
GRIDFORMAT
  1
GRIDFORMAT_BEGIN
 90
        0
 91
        1
 62
     0
 92
       -2
340
0
 93
        0
 40
1.125
309
GRIDFORMAT_END
 95
       32
302
GRIDFORMAT
  1
GRIDFORMAT_BEGIN
 90
        0
 91
        1
 62
     0
 92
       -2
340
0
 93
        0
 40
1.125
309
GRIDFORMAT_END
309
TABLEFORMAT_END
  1
CELLSTYLE_BEGIN
 90
        2
 91
        1
300
_HEADER
309
CELLSTYLE_END
300
CELLSTYLE
  1
TABLEFORMAT_BEGIN
 90
        5
170
     1
 91
        0
 92
        0
 62
   257
 93
        1
300
CONTENTFORMAT
  1
CONTENTFORMAT_BEGIN
 90
        0
 91
        0
 92
      512
 93
        0
300

 40
0.0
140
1.0
 94
        2
 62
     0
340
29
144
4.5
309
CONTENTFORMAT_END
171
     1
301
MARGIN
  1
CELLMARGIN_BEGIN
 40
1.5
 40
1.5
 40
1.5
 40
1.5
 40
4.5
 40
4.5
309
CELLMARGIN_END
 94
        6
 95
        1
302
GRIDFORMAT
  1
GRIDFORMAT_BEGIN
 90
        0
 91
        1
 62
     0
 92
       -2
340
0
 93
        0
 40
1.125
309
GRIDFORMAT_END
 95
        2
302
GRIDFORMAT
  1
GRIDFORMAT_BEGIN
 90
        0
 91
        1
 62
     0
 92
       -2
340
0
 93
        0
 40
1.125
309
GRIDFORMAT_END
 95
        4
302
GRIDFORMAT
  1
GRIDFORMAT_BEGIN
 90
        0
 91
        1
 62
     0
 92
       -2
340
0
 93
        0
 40
1.125
309
GRIDFORMAT_END
 95
        8
302
GRIDFORMAT
  1
GRIDFORMAT_BEGIN
 90
        0
 91
        1
 62
     0
 92
       -2
340
0
 93
        0
 40
1.125
309
GRIDFORMAT_END
 95
       16
302
GRIDFORMAT
  1
GRIDFORMAT_BEGIN
 90
        0
 91
        1
 62
     0
 92
       -2
340
0
 93
        0
 40
1.125
309
GRIDFORMAT_END
 95
       32
302
GRIDFORMAT
  1
GRIDFORMAT_BEGIN
 90
        0
 91
        1
 62
     0
 92
       -2
340
0
 93
        0
 40
1.125
309
GRIDFORMAT_END
309
TABLEFORMAT_END
  1
CELLSTYLE_BEGIN
 90
        3
 91
        2
300
_DATA
309
CELLSTYLE_END
  0
ENDSEC
  0
EOF
